<svg xmlns="http://www.w3.org/2000/svg" viewBox="0 0 270.48 286.38"><defs><style>.cls-1,.cls-4{fill:#231f20;}.cls-2,.cls-3,.cls-6{fill:none;}.cls-2,.cls-3{stroke:#231f20;}.cls-2{stroke-linecap:round;stroke-miterlimit:10;stroke-width:3px;}.cls-3{stroke-linejoin:round;stroke-width:6px;}.cls-4{font-size:16px;font-family:BigJohn, Big John;letter-spacing:0.3em;}.cls-5{letter-spacing:0.28em;}</style></defs><title>Asset 1</title><g id="Layer_2" data-name="Layer 2"><g id="Layer_1-2" data-name="Layer 1"><path class="cls-1" d="M2.73,141.41l.85-6.75,2.47.31-.49,3.9,1.84.23.44-3.44,2.51.31-.43,3.45,2.08.27.5-3.9,2.43.31-.85,6.75Z"/><path class="cls-1" d="M9.63,124.67a.87.87,0,0,0-1.06.59.86.86,0,0,0,.64,1,.83.83,0,0,0,1-.58,3.32,3.32,0,0,1,2-2.21,3.68,3.68,0,0,1,2.33-.14,3.37,3.37,0,1,1-1.75,6.51l.64-2.47a.84.84,0,0,0,1.05-.57.85.85,0,0,0-.62-1,.87.87,0,0,0-1,.58,3.4,3.4,0,0,1-4.24,2.36,3.37,3.37,0,1,1,1.69-6.52Z"/><path class="cls-1" d="M8.11,116.8l3.3-8L14.17,110l-1.11,2.69,7.83,3.24-1.1,2.66L12,115.31l-1.09,2.63Z"/><path class="cls-1" d="M23.78,48.73l12.9-12.3,4.43,4.65-7.49,7.14L37,51.73l6.62-6.31,4.56,4.79-6.61,6.31L49.7,65.1l-5.41,5.16Z"/><path class="cls-1" d="M64,52,61.52,19.53l3-1.61L90.43,37.71l-6.58,3.56-3.38-2.59L70.23,44.22l.35,4.23Zm5.65-15,5.11-2.76L69.12,29.9Z"/><path class="cls-1" d="M116.55,31.61l-5.81-6.92-4.55.87,1.49,7.75-7.34,1.4L94.73,5.5l11.78-2.25A10.74,10.74,0,0,1,118.85,12a11.18,11.18,0,0,1-1.8,8.5L125,30ZM104.92,18.93l4.55-.87a4.13,4.13,0,0,0,3.22-4.93,4.18,4.18,0,0,0-4.83-3.44l-4.55.87Z"/><path class="cls-1" d="M152.56,12.91l12.92-9.4,3.34.44L164.9,33.43l-7.44-1,2-15.13-8.3,6.05-6.48-8-2,15.09-7.44-1L139.16,0l3.35.45Z"/><path class="cls-1" d="M188.93,10.78l16,7.41-2.71,5.87L193,19.78l-2,4.4L199.17,28l-2.75,6-8.2-3.78-2.3,5,9.27,4.27-2.68,5.8-16-7.41Z"/><path class="cls-1" d="M253.58,110.19a1.91,1.91,0,0,0,1.27,0,1.37,1.37,0,0,0,.66-1.73,1.31,1.31,0,0,0-1.76-.6l-1-2.15a3.7,3.7,0,0,1,5,1.85,3.74,3.74,0,0,1-2,4.8,4,4,0,0,1-2.19.26l-3.68-.64,1.26,2.82-2.21,1-3.1-6.92Z"/><path class="cls-1" d="M256.25,116.18a3.59,3.59,0,1,1,3,6.49l-3.57,1.68a3.59,3.59,0,1,1-3.05-6.49Zm-2.6,3.75a1.29,1.29,0,1,0,1.09,2.33l3.55-1.67a1.29,1.29,0,1,0-1.08-2.33Z"/><path class="cls-1" d="M263.44,125.2l1,2.7-10.76,3.87-1-2.71Z"/><path class="cls-1" d="M267.17,141.68l-2.39.61-9.93-2.58-.66-2.58,10,2.6-1.44-5.64,2.36-.61Z"/><path class="cls-1" d="M265.93,189.89H179.65a4,4,0,0,1-3.9-4V124.08l-41.27-15.24L93.21,124.08v61.84a4,4,0,0,1-3.9,4H3V182H85.28V121.32a4,4,0,0,1,2.59-3.72l45.24-16.71a3.92,3.92,0,0,1,2.74,0l45.24,16.71a4,4,0,0,1,2.59,3.72V182h82.25Z"/><line class="cls-2" x1="134.18" y1="61.3" x2="134.18" y2="78.76"/><line class="cls-2" x1="196.19" y1="85.01" x2="187.27" y2="97.12"/><line class="cls-2" x1="71.17" y1="87.92" x2="80.77" y2="100.95"/><line class="cls-2" x1="167.06" y1="68.98" x2="160.94" y2="83.32"/><line class="cls-2" x1="99.66" y1="69.54" x2="106.96" y2="86.63"/><rect class="cls-3" x="116.95" y="145.27" width="35.1" height="23.97"/><text class="cls-4" transform="translate(21.7 221.81)">H<tspan class="cls-5" x="17.33" y="0">O</tspan><tspan x="35.74" y="0">USE OF LIGHTS</tspan></text><path class="cls-1" d="M218.84,64.81,217.63,45.4l-9.06,10.76-5.72-4.81L222,28.6l2.33,2L225.59,50l9-10.73L240.34,44,221.19,66.79Z"/><circle class="cls-6" cx="134.5" cy="150.94" r="120.45"/><text></text></g></g></svg>