<svg xmlns="http://www.w3.org/2000/svg" viewBox="0 0 397.34 108.21"><defs><style>.cls-1{fill:#101820;}</style></defs><title>Asset 29</title><g id="Layer_2" data-name="Layer 2"><g id="Layer_1-2" data-name="Layer 1"><path class="cls-1" d="M17.7,39,3.88,8.88V46.39H0V0H3.69L19.22,34.15,34.88,0h3.68V46.39H34.68V8.82L20.8,39Z"/><path class="cls-1" d="M104.46,0V42.64h20.4v3.75H100.58V0Z"/><path class="cls-1" d="M142.71,0V46.39h-3.88V0Z"/><path class="cls-1" d="M187.13,46.39l-23.83-39v39h-3.88V0h3.49L186.8,39.16V.33h3.88V46.39Z"/><path class="cls-1" d="M17.7,100.18,3.88,70v37.51H0V61.15H3.69L19.22,95.31,34.88,61.15h3.68v46.4H34.68V70L20.8,100.18Z"/><path class="cls-1" d="M127.41,76.09c-.14-7.37-5-12-11.65-12-7,0-11.58,4.8-11.58,13.35V92.15c0,7.57,4.93,12.24,11.58,12.24s11.65-4.67,11.65-12.24V89.52H115.82V86h15.47v6c0,9.48-6.38,16.13-15.53,16.13s-15.47-6.65-15.47-16.13V76.49c0-9.48,6.32-16.12,15.47-16.12s15.33,6.51,15.53,15.72Z"/><path class="cls-1" d="M144.57,107.55V61.15h14.61c9.15,0,15.53,5.73,15.53,17.05V90.31c0,11.25-6.38,17.24-15.53,17.24Zm14.22-3.75c7,0,12-4.21,12-14.28V78.92c0-10-5-14-12-14H148.45V103.8Z"/><path class="cls-1" d="M241.17,61.15V103.8h20.4v3.75H237.29V61.15Z"/><path class="cls-1" d="M277.31,103.8h21.85v3.75H273.43V61.15h25.73V65H277.31V82.35H293v3.48H277.31Z"/><path class="cls-1" d="M340.37,107.55l-23.83-39v39h-3.88V61.15h3.49L340,100.31V61.48h3.88v46.07Z"/><path class="cls-1" d="M90.87,46.57H48.41L69.85.28ZM54.34,42.78H85L69.81,9.37Z"/><path class="cls-1" d="M90.87,107.41H48.41l21.44-46.3Zm-36.53-3.8H85L69.81,70.21Z"/><path class="cls-1" d="M226.43,107.41H184l21.43-46.3Zm-36.53-3.8h30.64l-15.17-33.4Z"/><path class="cls-1" d="M397.34,107.41H354.88l21.43-46.3Zm-36.53-3.8h30.64l-15.17-33.4Z"/></g></g></svg>