<svg id="Layer_1" data-name="Layer 1" xmlns="http://www.w3.org/2000/svg" viewBox="0 0 1123.21 764.47"><defs><style>.cls-1{fill:#fff;}.cls-2{fill:#231f20;}</style></defs><title>bear1</title><rect class="cls-1" width="1123.21" height="764.47"/><path class="cls-2" d="M888.47,538.06c12.23-9.26,24.83-17.92,39.19-28.24-5.07-2.8-8-4.86-11.15-6.08-19.46-7.53-38.86-15.32-58.55-22.06-8.11-2.78-11.53-6.15-7.76-15.61a125.8,125.8,0,0,0,4-12.75q1.83-1.17,3.64-2.44l0,0c17.16-12.27,25.86-26.76,25.86-43.05,0-22.63-2.29-45.49-4.51-67.6l-.14-1.36a16.45,16.45,0,0,0-6.13-11.55,17.82,17.82,0,0,0-13.84-3.09q-17.82,2.78-35.62,5.61-16.79,2.65-33.59,5.29c-13.13-6.14-52.34-22.43-55.09-24.05-29.63-17.38-49.34-44-67.46-72.17-.42-.66-.84-1.3-1.27-1.95C650,213,649.94,212.88,625,226.72c-7.51,4.16-12.36,3.24-14.84-5.49-9-31.71-31-55.86-48.36-82.68-1.68-2.59-3.92-4.81-6.75-7.8a3.31,3.31,0,0,0-5.23.55c-7.14,11.76-13.65,22-19.47,32.7-3.87,7.08-7.75,9.25-15.67,5.63-14.66-6.7-15.68-5.9-23.66,7.82-10.68,18.4-21,37-32.6,54.86-3.6,5.54-10.18,10.82-16.43,12.6-11.49,3.29-18.58,9.64-23.42,20.21-6.58,14.41-14.32,28.3-21,42.68-3.71,8-8.72,10.77-16.4,6.16s-12.31-2.21-17.43,4.53c-7.32,9.65-14.87,19.32-23.4,27.88l-27-6.57q-17.52-4.28-35-8.52a17.87,17.87,0,0,0-14.06,2,16.38,16.38,0,0,0-7.05,11l-.25,1.35c-4,21.85-8.2,44.45-10.05,67-1.19,14.61,4.76,28.33,17.7,40.88,1.34,4.66,2.68,9.31,4.2,13.89,2.33,7,1,10.88-6,13.32-18.77,6.56-37.35,13.81-55.93,21-4.85,1.88-9.44,4.56-14.87,7.22,1.73,2.14,2.37,3.38,3.34,4.08,16.69,12,33.6,23.75,50,36.31,2.74,2.11,4.82,8.07,4.41,11.89-.93,8.66-3.74,17.05-5.52,25.62-2.74,13.23-5.26,26.53-8.35,42.21,5.25-1.65,8.45-2.47,11.54-3.66,16.45-6.3,32.64-13.59,49.36-18.85,29.27-9.2,58.83-17.28,88.33-25.55,6-1.67,7.19-4.68,6.19-11.36-1.1-7.38-57.9-10.8-56.49-14.73.34-.93,131.06-37.37,225.07-37.37,74.73,0,330.5,37,182.69,46-11,.67-14,17.07-5.29,18.83,42.56,8.6,83.62,23.14,124.16,39.63,6,2.44,12.15,4.39,21.24,7.64-3.67-18.26-6.61-33.2-9.68-48.1C865.59,545.79,863,557.32,888.47,538.06Zm-63.42-198.3q17.79-2.81,35.59-5.61a7.9,7.9,0,0,1,6.14,1.12,6.53,6.53,0,0,1,2.26,4.59l.14,1.36c2.2,21.86,4.47,44.47,4.46,66.59,0,13-7.08,24.44-21.63,34.85-26.12,18.35-54.18,18.58-83.42.68l-8-4.91c-30.71-18.78-62.46-38.2-91.85-59.65-23.51-17.17-47.89-25.71-73.7-25.71-15.53,0-31.58,3.1-48.26,9.27l-3-.76s0-.08,0-.13a7.69,7.69,0,0,1,2.7-2.06c34.15-20,66.41-22.49,101.52-7.88,6.68,2.78,23.5,10.8,34.38,16l.22.18a.14.14,0,0,0,0-.06l4.11,2c3.38,1.63,5.69,2.73,6.15,2.94,5.52,2.45,11.13,5.05,16.55,7.56,15.49,7.17,31.51,14.59,48.08,19.87,11.56,3.69,18.53.77,22.33-2.32,4.18-3.41,8.86-10.49,7.38-24.94-.36-3.45-.81-6.92-1.24-10.28-.47-3.66-1-7.45-1.32-11.14-.32-3.38.34-5.23,4.86-5.93Q807.24,342.59,825.05,339.76Zm5.73,127.69-.54,2.88-18.86-3.52a73.18,73.18,0,0,0,14.45-1.53ZM683.26,317.58c7.68-12.69,11.15-13.77,23.26-5.05C722.06,323.71,722.11,323.74,721,345c0,.13,0,.25,0,.38-1.23,7.66-3.74,16.7-9.46,24.66-4.81-2.22-9.71-4.48-14.6-6.65-.44-.2-2.64-1.26-5.87-2.81l-4.55-2.19a27.71,27.71,0,0,1,2.72-4c7.31-8.79,6.23-14.6-1.69-21.09C682.4,329.06,678.78,325,683.26,317.58ZM602,328.37c.61-1.65,1.42-4.88,3.42-6.93,13.8-14.15,15.19-30.85,12.15-49.29C615,256.75,628.2,240.7,644,239.08c2.53-.26,6.33,2.46,8,4.88,6.56,9.52,13.18,19.14,18.3,29.45,1.81,3.65,1.08,10.57-1.34,14-9.81,13.8-20,27.49-31.49,39.87a65.21,65.21,0,0,1-8.7,7.67,112.94,112.94,0,0,0-26.81-2.65c-.07-.88-.13-1.78-.14-2.73A3.15,3.15,0,0,1,602,328.37ZM457.25,288.68c3.68-10.11,10.38-20.05,4.32-32-1.21-2.39,1.42-7.35,3.25-10.57C475.72,227,487,208,498,188.93c3.87-6.73,8.64-9.22,16.29-6,19.54,8.35,17.18,8.38,28.15-11.76q1.08-2,2.13-4l10.81,2.17c1,12.38,2.14,24.78,1.15,37-.49,6.08-8.74,12.41-14.7,17-16.07,12.33-21,31.06-28.66,48.13-1.22,2.73,2.11,9,5.08,11.8,7.08,6.57,15.58,11.71,22.54,18.32,5,4.79,7.47,14.09,5.36,20.73-4.07,12.81-9,25.34-13.77,38-15.46-1.41-31.32.45-47.73,5.59a178.38,178.38,0,0,1,9.25-18.11c6.94-11.49,8.94-22.28-.7-32.56-4.42-4.72-10.27-8.41-16.08-11.39-4-2-8.95-2.21-13.52-2.94C455.77,299.63,454.52,296.19,457.25,288.68ZM395.92,346c1.87-6.24,3.28-12.79,6.22-18.53,9.29-18.17,19.09-36.1,29-53.94a12.54,12.54,0,0,1,4.13-3.87,3.31,3.31,0,0,1,4.65.93l2.52,3.93a3.29,3.29,0,0,1,.33,2.91c-2.41,6.71-4.23,12.92-7.06,18.63-3.21,6.5-2.62,10.95,2.86,16.23,11.6,11.17,6.76,32.94-8.06,40.1-9,4.36-17.36,9.6-28.3,4.91C396.33,354.79,394.18,351.81,395.92,346Zm-29.11-5.43,9.86,3.08a68.63,68.63,0,0,1,.12,7.31c-.39,8.62,3,14.47,10.28,19.17,2.84,1.83,4.75,5.11,6.77,8.21a3.31,3.31,0,0,1-.79,4.44c-3.93,3-7.77,6.57-12.08,7.3-8.55,1.46-17.13,2.74-25.72,4a36.56,36.56,0,0,1,.65-6.66c.62-3.29,1.34-6.64,2-9.88.79-3.7,1.61-7.51,2.29-11.33,1.09-6-.56-11-4.49-14.31A99.6,99.6,0,0,0,366.81,340.58ZM256.92,413.4c1.81-22,5.93-44.38,9.91-66l.25-1.36a6.48,6.48,0,0,1,2.63-4.38c1.55-1,3.7-1.22,6.21-.61q17.5,4.23,35,8.51t35,8.51c4.45,1.08,5,3,4.35,6.32-.65,3.65-1.45,7.39-2.23,11-.71,3.31-1.44,6.73-2.07,10.14-2.67,14.27,1.41,21.72,5.31,25.45,3.54,3.4,10.23,6.87,22.06,4.15,16.95-3.9,33.52-10,49.56-15.86,5.6-2.06,11.4-4.18,17.11-6.17l6.44-2.45c10.43-4,32.13-12.31,40-14.85C522.69,364.14,554.63,369.29,587,392c2.47,1.74,3.82,3.37,4.23,5.26a16.09,16.09,0,0,1-2-.95c-.47-.25-.93-.5-1.39-.71-43.42-20.75-84.1-18.89-124.33,5.69-31.05,19-64.3,35.72-96.44,51.92l-8.4,4.23c-30.61,15.44-58.57,12.91-83.07-7.51C262,438.35,255.85,426.4,256.92,413.4Zm31.45,56.75-.6.1-.11-.43Zm73.24,100.66c.12,1.2.24,2.4.37,3.6l-97.43,31.14-.56-1.34,19.51-11.14c-.15-.75-.31-1.51-.46-2.26l-24.57,5.09c-.4-1-.79-1.92-1.19-2.89q9.66-5.91,19.31-11.83c-.13-.59-.27-1.18-.41-1.77l-17.54,2.27-1.12-3.3,17.84-10.79c-.06-.52-.13-1-.19-1.56l-12.87.77-1.5-3.29,13.58-10.18-10-4.27,6.59-9.4H253.24c-.18-1.1-.35-2.21-.52-3.32l12.93-7.43c0-.54,0-1.07,0-1.61l-24.08,4.32L240.34,528l21.55-12.11-.51-1.84-30.08,7.77c-.33-1.2-.67-2.4-1-3.61l26.09-14.09c-.05-.57-.09-1.14-.14-1.7l-33.14,7-.6-3.08c15.5-5.51,30.9-11.36,46.58-16.1,2.06-.63,7,3.78,8.06,6.91,5.63,17.19,10.68,34.63,15.42,52.14,2.31,8.52,6.31,12.33,14.7,13.22C325.45,564.51,343.5,568,361.61,570.81Zm196.6-62.31A835.83,835.83,0,0,0,306,547.33l-.66-3.49,33-15c0-.46,0-.93,0-1.39l-33,5.38-.81-2.52q10.27-5.21,20.54-10.42l-.36-2.18-20.93,1.52c-.33-.93-.66-1.85-1-2.77L329.94,504v-1.4L297.55,508l-.93-2.63,27.46-12.64-.33-2.27-28.66,5L294,492.5l26.87-12.36c-.17-.71-.34-1.42-.5-2.12l-28.07,4.47c-.32-1.22-.64-2.45-.95-3.68l9.57-3.92a72.66,72.66,0,0,0,19.7,2.71q20.48,0,42.66-11.17l8.39-4.23c23.68-11.93,47.94-24.17,71.57-37.39,27.22-1.5,66.8-3.94,75.17-5.14,56.21-8.05,142.66,0,205.53,8,10.51,6.56,21,13,31.42,19.36l8,4.91c13,7.94,25.76,12.65,38.32,14.24l-.56,2.09,25.26,10.91c-.16.94-.33,1.88-.5,2.83l-28.53-4.35c-.26,1-.53,2-.8,3l27.55,11.2-.69,3.09-29.17-4.55c-.24.73-.47,1.46-.71,2.19l28.07,13.09-.86,2.87-30.1-5.87-.72,2.44L815,516.82c-.21.83-.41,1.66-.61,2.49l-31-4.86c-.2.63-.39,1.26-.59,1.9l25,11.4-.27,3-27.25-3c-.08.34-.17.69-.26,1l31.26,14.35c-.3,1.18-.61,2.36-.91,3.54C727.79,520.75,643.76,508.51,558.21,508.5Zm307.11,28c-.18,1-.36,2.08-.55,3.12H848.1c1.88,3.24,3.48,6,5.07,8.71l-8.57,5.44L857,563.56l-1,2.94-18.16-1.64,22.56,13.31c-.22,1-.44,2.05-.65,3.08-3.34-.33-6.71-.48-10-1-3.5-.59-6.94-1.57-10.4-2.38-.28.9-.55,1.81-.83,2.71l23.45,12.39-1.18,3.48-26-6.21c-.27.77-.55,1.55-.83,2.33L853.48,604l-.51.89-95.81-30.43c0-.79-.09-1.57-.14-2.36,2.11-.91,4.17-2.34,6.35-2.64,16.06-2.19,32.14-4.36,48.25-6.08,6.58-.7,10.81-2.55,13-10.76,4.75-18.22,11.06-35.94,16.13-54.07,2.16-7.73,5-10.35,12.35-7.37,13.29,5.43,26.86,10,40.31,15l-.57,3.6c-5.29-1.55-10.57-3.17-15.87-4.63-5-1.4-10.11-2.63-15.17-3.94-.31.91-.62,1.82-.92,2.73l27.77,14.67-1,3.19-31.15-8.09-.6,1.83,20.19,12c-.32,1.18-.64,2.37-1,3.55L852.3,527c-.13.44-.25.88-.37,1.32Z" transform="translate(1.79 2.57)"/><path class="cls-2" d="M434.38,469.63a5.31,5.31,0,0,1-3.8,5.88l0,.15a5.31,5.31,0,0,1,5.39,4.47l1.49,9.71c1,6.86-2.11,11.08-9,12.13L411,504.65a1.08,1.08,0,0,1-1.35-1l-7.47-48.75a1.06,1.06,0,0,1,1-1.35l17.51-2.68c6.86-1.05,11.14,2,12.19,8.88Zm-10.53-6.83a2.62,2.62,0,0,0-3.37-2.47l-8,1.23,1.78,11.6,8-1.23a2.63,2.63,0,0,0,2.49-3.29ZM427.11,484a2.63,2.63,0,0,0-3.37-2.48l-8,1.24,1.76,11.45,8-1.23a2.62,2.62,0,0,0,2.47-3.36Z" transform="translate(1.79 2.57)"/><path class="cls-2" d="M470.88,453.76c.07.74-.17,1.28-1.05,1.37l-18.15,1.79,1.11,11.32,13.82-1.37a1.12,1.12,0,0,1,1.3,1.14l.72,7.27a1.11,1.11,0,0,1-1.06,1.37L453.76,478l1.07,10.88L473,487.1c.88-.09,1.21.25,1.29,1.06l.73,7.34a1,1,0,0,1-1.06,1.3l-27.05,2.66a1.06,1.06,0,0,1-1.21-1.07l-4.84-49.08a1.07,1.07,0,0,1,1-1.29l27-2.66a1,1,0,0,1,1.3,1.05Z" transform="translate(1.79 2.57)"/><path class="cls-2" d="M508.12,494.65a1.15,1.15,0,0,1-1.24-1L504,484.53l-13.86.8-1.75,9.42a1.14,1.14,0,0,1-1.12,1.1l-7.22.42c-.82,0-1.21-.38-1-1.2l9.4-50a1.15,1.15,0,0,1,1.19-1.11l10.25-.59a1.15,1.15,0,0,1,1.31,1l15.08,48.61c.27.8-.07,1.26-1,1.31Zm-12.71-38.32-3.49,20.32,9.29-.54Z" transform="translate(1.79 2.57)"/><path class="cls-2" d="M550.05,467.2c.09,4.28-1.24,7.33-3.93,9.09l4.19,15.79c.25.88-.19,1.33-1,1.35l-7.23.16a1.15,1.15,0,0,1-1.28-1l-3.87-14.46-6.57.14.32,14.4a1.09,1.09,0,0,1-1.15,1.21l-7.24.16a1.09,1.09,0,0,1-1.21-1.15L520,443.57a1.09,1.09,0,0,1,1.16-1.2l17.71-.4c6.94-.16,10.72,3.45,10.87,10.39Zm-12.53,1.39a2.66,2.66,0,0,0,2.89-3l-.25-11.15a2.65,2.65,0,0,0-3-2.89l-7.38.17.38,17.05Z" transform="translate(1.79 2.57)"/><path class="cls-2" d="M577.15,442.94a1.08,1.08,0,0,1,1.21-1.15l17.72.44c6.93.17,10.53,4,10.36,10.9l-.36,14.46c-.17,6.87-4,10.47-10.9,10.37l-9.3-.16-.37,14.76a1.06,1.06,0,0,1-1.21,1.16l-7.23-.26a1.08,1.08,0,0,1-1.15-1.21Zm16.35,25.45a2.66,2.66,0,0,0,3-2.88l.27-10.78a2.63,2.63,0,0,0-2.88-3l-7.39-.11-.41,16.69Z" transform="translate(1.79 2.57)"/><path class="cls-2" d="M613.66,494.6a1.06,1.06,0,0,1-1.13-1.24L615,444.1A1.06,1.06,0,0,1,616.2,443l7.67.38A1.08,1.08,0,0,1,625,444.6l-2.43,49.26a1.09,1.09,0,0,1-1.24,1.12Z" transform="translate(1.79 2.57)"/><path class="cls-2" d="M633.38,445a1.09,1.09,0,0,1,1.27-1.09l17.67,1.34c6.92.53,10.32,4.49,9.79,11.41L661,471.08c-.52,6.85-4.48,10.25-11.41,9.79l-9.28-.63L639.2,495a1.05,1.05,0,0,1-1.27,1.09l-7.2-.62a1.09,1.09,0,0,1-1.09-1.27Zm15,26.24a2.65,2.65,0,0,0,3.17-2.72l.82-10.75a2.61,2.61,0,0,0-2.72-3.16l-7.37-.49-1.26,16.63Z" transform="translate(1.79 2.57)"/><path class="cls-2" d="M700.22,458.93c-.09.73-.45,1.21-1.32,1.1l-18.11-2.18-1.36,11.29,13.78,1.66a1.12,1.12,0,0,1,1,1.39l-.88,7.25a1.11,1.11,0,0,1-1.32,1.11l-13.78-1.66L677,489.74l18.1,2.18c.88.1,1.13.51,1,1.31l-.88,7.33a1,1,0,0,1-1.32,1l-27-3.24a1.06,1.06,0,0,1-.95-1.3l5.88-49a1.07,1.07,0,0,1,1.24-1l27,3.24a1,1,0,0,1,1,1.31Z" transform="translate(1.79 2.57)"/><path class="cls-2" d="M727.12,454.73c6.84,1.2,9.83,5.48,8.63,12.31l-.85,4.8a1.06,1.06,0,0,1-1.37,1l-7.34-1.29a1.09,1.09,0,0,1-1-1.37l.54-3.06a2.62,2.62,0,0,0-2.4-3.42l-4-.7a2.68,2.68,0,0,0-3.42,2.39l-1.09,6.18,16.6,8.78a2.65,2.65,0,0,1,1.42,3L730.46,497c-1.2,6.84-5.48,9.83-12.31,8.63L710,504.19c-6.76-1.19-9.83-5.48-8.62-12.32l.83-4.72a1.05,1.05,0,0,1,1.37-1l7.34,1.29a1,1,0,0,1,1,1.37l-.54,3.06a2.65,2.65,0,0,0,2.4,3.42l3.93.69a2.62,2.62,0,0,0,3.42-2.39l1.29-7.35-16.45-8.75a2.64,2.64,0,0,1-1.49-3l2.22-12.58c1.21-6.83,5.56-9.81,12.32-8.62Z" transform="translate(1.79 2.57)"/><path class="cls-2" d="M281,362.21a8.41,8.41,0,0,1,2.63-2.2l35.93,8.6c-1,1.29-17.2,3.71-23,9.66-3.94,4-8.6,22.93-9.15,30.87s.11,17.19,4.74,24a135.67,135.67,0,0,0,10,12.82s-10.76-4.23-17.17-10.39c-7.57-7.28-12.47-17.78-12.23-27.56C273.05,394.16,281,362.21,281,362.21Z" transform="translate(1.79 2.57)"/><path class="cls-2" d="M854,355.78a8.47,8.47,0,0,0-2.43-2.41L815,359c.88,1.37,16.83,5.12,22.16,11.53,3.59,4.32,6.68,23.56,6.58,31.51s-1.53,17.13-6.71,23.56a135.9,135.9,0,0,1-11,11.95s11.06-3.33,18-8.94c8.15-6.64,13.9-16.69,14.47-26.46C859.29,388.28,854,355.78,854,355.78Z" transform="translate(1.79 2.57)"/></svg>