<svg id="Layer_1" data-name="Layer 1" xmlns="http://www.w3.org/2000/svg" viewBox="0 0 1276.53 913.83"><defs><style>.cls-1{fill:#fff;}.cls-2{fill:#231f20;}</style></defs><title>bear4</title><rect class="cls-1" width="1276.53" height="913.83"/><path class="cls-2" d="M640.52,815.21c-197,0-357.32-160.29-357.32-357.32S443.49,100.58,640.52,100.58,997.84,260.87,997.84,457.89,837.54,815.21,640.52,815.21Zm0-712.6c-195.9,0-355.28,159.38-355.28,355.28S444.62,813.17,640.52,813.17,995.8,653.8,995.8,457.89,836.42,102.61,640.52,102.61Z" transform="translate(-2.25 -0.98)"/><path class="cls-2" d="M640.71,774.07h-.19c-8.2,0-16.48-.31-24.6-.94l.15-2c8.08.62,16.3.94,24.45.94Zm24.8-1-.15-2c8.18-.64,16.42-1.61,24.48-2.88l.32,2C682,771.48,673.75,772.45,665.51,773.1Zm-74.24-2.84c-8.16-1.27-16.35-2.89-24.35-4.8l.47-2c8,1.9,16.09,3.5,24.19,4.77Zm123.23-4.89-.47-2c8-1.91,15.94-4.16,23.73-6.69l.63,1.93C730.55,761.18,722.51,763.45,714.5,765.37ZM543,758.76c-7.85-2.55-15.69-5.43-23.31-8.59l.78-1.88c7.57,3.13,15.36,6,23.16,8.53ZM761.65,750l-.78-1.88c7.56-3.14,15.08-6.62,22.37-10.34l.93,1.81C776.83,743.38,769.26,746.88,761.65,750Zm-264.5-10.26c-7.33-3.74-14.62-7.82-21.67-12.14l1.07-1.74c7,4.29,14.24,8.35,21.52,12.06Zm308.65-12.3-1.07-1.73c7-4.27,13.85-8.89,20.49-13.72l1.19,1.65C819.74,718.54,812.8,723.19,805.8,727.48Zm-351-13.64c-6.68-4.85-13.24-10-19.5-15.37l1.32-1.55c6.23,5.31,12.74,10.45,19.38,15.27ZM845.89,698.3l-1.32-1.55c6.22-5.32,12.31-11,18.1-16.75l1.44,1.45C858.29,687.27,852.16,692.94,845.89,698.3ZM417.11,681.63c-5.83-5.82-11.5-11.94-16.87-18.21l1.55-1.33c5.33,6.23,11,12.32,16.76,18.1ZM881,663.22l-1.55-1.33c5.32-6.22,10.46-12.73,15.28-19.36l1.65,1.2C891.5,650.4,886.32,657,881,663.22ZM384.85,644c-4.86-6.66-9.51-13.6-13.83-20.61l1.74-1.07c4.29,7,8.91,13.86,13.73,20.48ZM910.16,623.1,908.42,622c4.29-7,8.35-14.23,12.08-21.52l1.81.93C918.56,608.78,914.48,616.06,910.16,623.1ZM358.87,601.72c-3.76-7.35-7.27-14.92-10.42-22.51l1.88-.79c3.14,7.55,6.62,15.07,10.35,22.37Zm573.85-22.83-1.88-.78c3.14-7.58,6-15.37,8.54-23.16l1.94.63C938.77,563.42,935.88,571.26,932.72,578.89ZM339.84,556c-2.55-7.83-4.83-15.86-6.75-23.88l2-.48c1.91,8,4.17,15.95,6.71,23.73ZM948,531.69l-2-.48c1.9-8,3.51-16.1,4.78-24.19l2,.32C951.58,515.48,950,523.67,948,531.69Zm-619.8-24c-1.28-8.12-2.27-16.42-2.91-24.64l2-.16c.64,8.17,1.62,16.41,2.9,24.48Zm627.5-25-2-.16c.63-8.14.95-16.43.95-24.64v-.77h2v.77C956.7,466.15,956.38,474.5,955.74,482.69ZM326.38,458.28h-2v-.39c0-8.11.31-16.32.92-24.4l2,.15c-.61,8-.92,16.19-.92,24.25Zm627.27-25.8C953,424.3,952,416.07,950.72,408l2-.33c1.3,8.13,2.29,16.42,2.95,24.65ZM330.13,409.15l-2-.32c1.27-8.15,2.88-16.34,4.79-24.35l2,.47C333,392.91,331.4,401.05,330.13,409.15Zm615.75-25.33c-1.93-8-4.2-15.95-6.74-23.72l1.94-.63c2.56,7.82,4.84,15.85,6.78,23.87ZM341.53,361.21l-1.93-.63c2.53-7.83,5.41-15.68,8.56-23.32l1.89.78C346.91,345.63,344.05,353.42,341.53,361.21Zm589-24.2c-3.16-7.56-6.65-15.08-10.38-22.35l1.81-.93c3.76,7.31,7.27,14.88,10.45,22.49Zm-570.2-21.39-1.81-.92c3.73-7.34,7.81-14.63,12.12-21.68l1.74,1.07C368.13,301.09,364.07,308.33,360.36,315.62Zm547.71-22.43c-4.29-7-8.92-13.85-13.76-20.46l1.65-1.21c4.87,6.66,9.52,13.59,13.85,20.6Zm-522-19.62-1.65-1.2c4.84-6.67,10-13.23,15.35-19.51l1.56,1.33C396.05,260.42,390.92,266.94,386.11,273.57ZM879,253.4c-5.33-6.21-11-12.29-16.78-18.07l1.44-1.45c5.83,5.82,11.52,11.94,16.88,18.19ZM418.09,236.06l-1.44-1.44c5.82-5.84,11.94-11.52,18.2-16.88l1.33,1.55C430,224.62,423.88,230.26,418.09,236.06Zm426-17.44c-6.24-5.31-12.76-10.44-19.4-15.25l1.2-1.65c6.68,4.84,13.24,10,19.52,15.35ZM455.51,204l-1.2-1.65c6.65-4.86,13.58-9.51,20.6-13.84l1.07,1.74C469,194.53,462.12,199.16,455.51,204Zm348.65-14.3c-7-4.27-14.23-8.32-21.54-12l.92-1.81c7.36,3.73,14.65,7.81,21.68,12.11ZM497.45,178.15l-.93-1.82c7.33-3.75,14.9-7.26,22.5-10.43l.79,1.88C512.25,170.93,504.73,174.41,497.45,178.15Zm262.74-10.8c-7.57-3.12-15.37-6-23.17-8.5l.62-1.94c7.86,2.53,15.7,5.41,23.32,8.56Zm-217.28-8.14-.64-1.93c7.84-2.57,15.88-4.84,23.88-6.77l.48,2C558.68,154.41,550.69,156.67,542.91,159.21Zm170.36-7c-7.95-1.89-16.09-3.48-24.2-4.74l.31-2c8.16,1.26,16.36,2.87,24.36,4.77Zm-122.46-4.56-.32-2c8.12-1.29,16.41-2.28,24.64-2.93l.17,2C607.11,145.4,598.87,146.38,590.81,147.66Zm73.76-3c-7.94-.6-16-.91-24.05-.91h-.59v-2h.59c8.07,0,16.21.31,24.21.92Z" transform="translate(-2.25 -0.98)"/><path d="M859.93,563.64c8.17-6.18,16.58-12,26.17-18.85-3.39-1.87-5.33-3.25-7.44-4.06-13-5-25.95-10.23-39.1-14.73-5.41-1.85-7.7-4.11-5.17-10.42a84,84,0,0,0,2.65-8.51c.81-.53,1.62-1.06,2.43-1.63l0,0c11.45-8.19,17.26-17.86,17.27-28.74,0-15.1-1.53-30.37-3-45.13l-.09-.9a11,11,0,0,0-4.09-7.71,11.89,11.89,0,0,0-9.24-2.07q-11.9,1.86-23.78,3.75l-22.43,3.53c-8.76-4.1-34.94-15-36.78-16.06-19.78-11.6-32.94-29.39-45-48.18-.28-.44-.57-.87-.85-1.3-10.72-16-10.76-16.06-27.43-6.83-5,2.78-8.25,2.17-9.9-3.66-6-21.17-20.7-37.29-32.29-55.2a38.88,38.88,0,0,0-4.51-5.21,2.21,2.21,0,0,0-3.49.37c-4.76,7.85-9.11,14.71-13,21.83-2.58,4.73-5.17,6.17-10.46,3.76-9.79-4.48-10.47-3.94-15.79,5.22-7.14,12.29-14,24.73-21.77,36.63a21.33,21.33,0,0,1-11,8.41c-7.67,2.2-12.41,6.44-15.63,13.49-4.4,9.62-9.57,18.89-14,28.49-2.47,5.35-5.82,7.19-11,4.12s-8.22-1.47-11.63,3A180.87,180.87,0,0,1,494,435.66l-18-4.38-23.39-5.69a11.89,11.89,0,0,0-9.38,1.3,11,11,0,0,0-4.71,7.35l-.17.91c-2.69,14.58-5.47,29.67-6.7,44.72-.8,9.75,3.17,18.91,11.81,27.29.89,3.11,1.79,6.22,2.8,9.27,1.56,4.69.64,7.27-4,8.9-12.53,4.38-24.93,9.22-37.34,14-3.23,1.26-6.3,3-9.92,4.82a18.68,18.68,0,0,0,2.22,2.73c11.15,8,22.43,15.86,33.36,24.24,1.84,1.41,3.22,5.39,3,7.94-.62,5.78-2.5,11.38-3.68,17.1-1.84,8.84-3.52,17.71-5.58,28.18,3.51-1.1,5.64-1.65,7.7-2.44,11-4.21,21.8-9.08,33-12.58,19.54-6.15,39.27-11.54,59-17.06,4-1.12,4.8-3.13,4.13-7.59-.73-4.92-38.65-7.21-37.71-9.83.22-.62,87.5-25,150.26-25,49.89,0,220.65,24.72,122,30.72-7.36.45-9.34,11.4-3.54,12.57,28.42,5.74,55.83,15.45,82.9,26.47,4,1.62,8.11,2.93,14.18,5.1-2.45-12.2-4.41-22.17-6.46-32.12C844.66,568.8,842.94,576.5,859.93,563.64ZM817.59,431.25l23.77-3.74a5.22,5.22,0,0,1,4.09.75,4.3,4.3,0,0,1,1.51,3.06l.1.91c1.46,14.59,3,29.69,3,44.45,0,8.71-4.72,16.32-14.44,23.27-17.44,12.25-36.17,12.41-55.69.45l-5.36-3.27c-20.5-12.54-41.7-25.51-61.32-39.83-15.7-11.46-32-17.16-49.21-17.16a92.55,92.55,0,0,0-32.21,6.19l-2-.51a.29.29,0,0,0,0-.09,5.1,5.1,0,0,1,1.8-1.37c22.8-13.34,44.34-15,67.78-5.26,4.46,1.85,15.68,7.21,22.95,10.69l.15.12v0l2.74,1.32,4.11,2c3.69,1.64,7.43,3.37,11.05,5.05,10.34,4.79,21,9.74,32.1,13.26,7.72,2.46,12.37.52,14.9-1.55,2.8-2.27,5.92-7,4.93-16.64-.23-2.31-.53-4.63-.82-6.87-.32-2.44-.65-5-.88-7.44-.22-2.25.22-3.49,3.24-4Q805.7,433.14,817.59,431.25Zm3.83,85.25-.36,1.93-12.59-2.36a48.29,48.29,0,0,0,9.65-1ZM722.93,416.44c5.13-8.47,7.44-9.19,15.53-3.37,10.37,7.47,10.4,7.49,9.65,21.66a1,1,0,0,1,0,.25,38.26,38.26,0,0,1-6.31,16.47c-3.21-1.48-6.48-3-9.74-4.44l-3.93-1.88-3-1.46a18.17,18.17,0,0,1,1.81-2.7c4.88-5.86,4.16-9.75-1.12-14.07C722.36,424.11,719.94,421.39,722.93,416.44Zm-54.25,7.21c.41-1.11,1-3.26,2.28-4.63,9.22-9.44,10.14-20.6,8.12-32.9-1.7-10.28,7.09-21,17.63-22.09,1.69-.17,4.23,1.65,5.34,3.26,4.38,6.36,8.79,12.78,12.21,19.66,1.21,2.44.72,7.06-.89,9.34a262.66,262.66,0,0,1-21,26.62,43.88,43.88,0,0,1-5.81,5.12,75.36,75.36,0,0,0-17.9-1.77c0-.59-.08-1.19-.09-1.83A2.1,2.1,0,0,1,668.68,423.65ZM572,397.15c2.46-6.75,6.93-13.39,2.88-21.38-.81-1.6,1-4.91,2.17-7,7.28-12.78,14.8-25.42,22.13-38.17,2.58-4.49,5.76-6.15,10.87-4,13,5.58,11.47,5.6,18.79-7.85.48-.89,1-1.79,1.42-2.69l7.22,1.46c.67,8.26,1.43,16.54.77,24.7-.32,4.06-5.83,8.29-9.82,11.34-10.72,8.23-14,20.74-19.13,32.13-.81,1.82,1.41,6,3.39,7.88,4.73,4.39,10.41,7.82,15,12.23a14.73,14.73,0,0,1,3.58,13.84c-2.72,8.55-6,16.92-9.19,25.34a81,81,0,0,0-31.87,3.73,122.05,122.05,0,0,1,6.17-12.09c4.64-7.67,6-14.88-.46-21.74a39.16,39.16,0,0,0-10.74-7.6c-2.65-1.36-6-1.48-9-2C571.05,404.46,570.22,402.16,572,397.15Zm-40.95,38.28c1.26-4.17,2.2-8.54,4.16-12.37,6.2-12.14,12.75-24.11,19.37-36a8.38,8.38,0,0,1,2.76-2.58,2.2,2.2,0,0,1,3.1.62l1.69,2.62a2.24,2.24,0,0,1,.22,1.95c-1.61,4.47-2.83,8.62-4.71,12.44-2.15,4.34-1.76,7.31,1.9,10.83,7.75,7.45,4.52,22-5.38,26.77-6,2.91-11.59,6.41-18.89,3.28C531.37,441.28,529.93,439.3,531.09,435.43Zm-19.43-3.63,6.59,2.06a46.6,46.6,0,0,1,.08,4.87c-.27,5.76,2,9.67,6.86,12.81,1.9,1.22,3.17,3.41,4.52,5.48a2.21,2.21,0,0,1-.53,3c-2.63,2-5.19,4.39-8.07,4.88-5.71,1-11.43,1.83-17.17,2.65a24.5,24.5,0,0,1,.44-4.45c.41-2.2.89-4.44,1.35-6.6.53-2.47,1.07-5,1.53-7.56.73-4-.37-7.36-3-9.56A66.47,66.47,0,0,0,511.66,431.8ZM438.3,480.42c1.2-14.72,3.95-29.63,6.61-44.06l.17-.9a4.35,4.35,0,0,1,1.76-2.93,5.28,5.28,0,0,1,4.14-.41l23.38,5.69q11.68,2.85,23.38,5.68c3,.72,3.31,2,2.91,4.22-.44,2.44-1,4.93-1.49,7.34-.47,2.21-1,4.49-1.39,6.77-1.78,9.53,1,14.5,3.55,17,2.36,2.26,6.83,4.58,14.73,2.77,11.31-2.61,22.38-6.67,33.08-10.59,3.75-1.38,7.62-2.8,11.43-4.13.31-.11,1.93-.72,4.29-1.63,7-2.67,21.46-8.22,26.72-9.91,24.16-7.8,45.48-4.37,67.12,10.8,1.65,1.16,2.54,2.25,2.82,3.51a11.1,11.1,0,0,1-1.33-.63l-.93-.48c-29-13.85-56.15-12.61-83,3.8C555.51,485,533.32,496.18,511.85,507l-5.61,2.83c-20.43,10.31-39.1,8.62-55.45-5C441.67,497.07,437.58,489.1,438.3,480.42Zm21,37.88-.4.07-.07-.29Zm48.9,67.2c.08.81.16,1.61.25,2.41L443.39,608.7c-.13-.3-.25-.6-.37-.9l13-7.43c-.1-.51-.2-1-.31-1.51l-16.4,3.4-.79-1.93,12.89-7.9-.27-1.18-11.72,1.51c-.25-.73-.49-1.47-.74-2.2l11.91-7.2c0-.35-.09-.7-.13-1l-8.59.51c-.33-.73-.67-1.46-1-2.2l9.06-6.79L443.3,571c1.31-1.86,2.62-3.72,4.4-6.27H435.84c-.12-.74-.23-1.47-.35-2.21l8.64-5c0-.35,0-.71,0-1.07L428,559.35l-.8-2.4,14.38-8.09c-.11-.4-.22-.81-.34-1.22l-20.08,5.19c-.22-.81-.45-1.61-.67-2.41L437.94,541c0-.38-.07-.76-.1-1.14l-22.13,4.7-.39-2.05c10.34-3.68,20.63-7.58,31.1-10.75,1.37-.42,4.7,2.53,5.38,4.61,3.75,11.48,7.12,23.12,10.29,34.82,1.54,5.68,4.21,8.23,9.81,8.82C484.05,581.3,496.1,583.61,508.19,585.5Zm131.26-41.6A558.18,558.18,0,0,0,471,569.83c-.15-.77-.3-1.55-.44-2.33l22-10,0-.93-22,3.6-.54-1.69,13.72-7c-.09-.49-.17-1-.25-1.46l-14,1-.66-1.85,18.21-8.33c0-.31,0-.62,0-.93l-21.62,3.6c-.21-.58-.41-1.17-.62-1.75l18.34-8.44c-.08-.5-.15-1-.23-1.52l-19.13,3.32c-.25-.66-.51-1.31-.76-2L481,525c-.12-.47-.23-.94-.34-1.41l-18.74,3-.63-2.45,6.39-2.62a48.53,48.53,0,0,0,13.15,1.81q13.66,0,28.48-7.46l5.61-2.83c15.8-8,32-16.13,47.78-25,18.17-1,44.59-2.63,50.18-3.43,37.53-5.37,95.24,0,137.22,5.34,7,4.38,14,8.68,21,12.92l5.36,3.28q13,8,25.59,9.5l-.37,1.4,16.86,7.28c-.11.63-.22,1.26-.34,1.89l-19-2.9c-.18.66-.36,1.32-.53,2L817,532.76l-.46,2.06-19.48-3-.48,1.47L815.28,542c-.19.63-.39,1.27-.58,1.91L794.6,540l-.48,1.63,16.73,7.85c-.13.56-.27,1.11-.4,1.66l-20.7-3.24-.39,1.27L806,556.76l-.18,2-18.19-2-.18.68L808.33,567l-.6,2.36A558.5,558.5,0,0,0,639.45,543.9Zm205,18.73c-.12.69-.24,1.38-.37,2.08H833l3.39,5.82-5.73,3.63,8.27,6.5c-.23.66-.46,1.31-.7,2l-12.12-1.09,15.06,8.88c-.14.69-.29,1.37-.43,2.06-2.23-.22-4.48-.32-6.69-.69s-4.63-1-6.94-1.59l-.55,1.81,15.65,8.27-.78,2.32-17.35-4.14c-.19.52-.37,1-.56,1.55l13.07,7.68-.34.59-64-20.32-.09-1.57c1.41-.61,2.78-1.57,4.23-1.76,10.73-1.46,21.46-2.92,32.21-4.06,4.4-.47,7.22-1.71,8.65-7.19,3.17-12.16,7.38-24,10.77-36.1,1.44-5.16,3.37-6.9,8.24-4.91,8.88,3.62,17.94,6.7,26.92,10-.13.8-.26,1.61-.38,2.41-3.54-1-7.06-2.12-10.6-3.1-3.36-.93-6.75-1.75-10.12-2.62-.21.6-.42,1.21-.62,1.82L860,550.67l-.69,2.13-20.79-5.4c-.13.41-.27.81-.4,1.22l13.47,8L851,559l-15.2-2.78-.24.88Z" transform="translate(-2.25 -0.98)"/><path class="cls-2" d="M556.77,518a3.55,3.55,0,0,1-2.53,3.93v.1a3.56,3.56,0,0,1,3.6,3l1,6.48c.71,4.58-1.41,7.4-6,8.1l-11.69,1.79a.72.72,0,0,1-.9-.66l-5-32.54a.71.71,0,0,1,.66-.9l11.7-1.8c4.58-.7,7.43,1.36,8.14,5.94Zm-7-4.55a1.74,1.74,0,0,0-2.24-1.65l-5.36.82,1.18,7.74,5.36-.82a1.75,1.75,0,0,0,1.66-2.2Zm2.18,14.17a1.76,1.76,0,0,0-2.25-1.65l-5.36.83,1.17,7.64,5.36-.82a1.74,1.74,0,0,0,1.65-2.24Z" transform="translate(-2.25 -0.98)"/><path class="cls-2" d="M581.14,507.36c.05.49-.11.86-.7.92l-12.12,1.19.75,7.56,9.22-.91a.74.74,0,0,1,.87.75l.48,4.86a.75.75,0,0,1-.71.91l-9.22.91.72,7.26,12.11-1.19c.59-.06.81.16.87.71l.48,4.9c.05.49-.12.8-.71.86l-18,1.78a.71.71,0,0,1-.82-.71l-3.23-32.77a.71.71,0,0,1,.66-.86l18.06-1.78a.69.69,0,0,1,.86.71Z" transform="translate(-2.25 -0.98)"/><path class="cls-2" d="M606,534.66a.76.76,0,0,1-.82-.65l-1.94-6.11-9.25.54-1.17,6.29a.75.75,0,0,1-.74.73l-4.83.28c-.54,0-.8-.25-.69-.8l6.28-33.4a.76.76,0,0,1,.79-.73l6.84-.4a.78.78,0,0,1,.88.64l10.07,32.46c.18.53,0,.84-.64.87Zm-8.48-25.58-2.33,13.56,6.2-.36Z" transform="translate(-2.25 -0.98)"/><path class="cls-2" d="M634,516.33c.06,2.86-.83,4.9-2.63,6.08l2.8,10.53c.16.59-.12.89-.67.91l-4.83.11a.77.77,0,0,1-.85-.68l-2.58-9.65-4.39.1.22,9.61a.73.73,0,0,1-.78.8l-4.82.11a.72.72,0,0,1-.81-.77l-.74-32.92a.72.72,0,0,1,.77-.8l11.83-.27c4.63-.11,7.15,2.3,7.25,6.94Zm-8.37.93a1.77,1.77,0,0,0,1.93-2l-.17-7.44a1.76,1.76,0,0,0-2-1.92l-4.93.11.26,11.38Z" transform="translate(-2.25 -0.98)"/><path class="cls-2" d="M652.09,500.14a.72.72,0,0,1,.81-.77l11.83.29c4.63.12,7,2.65,6.91,7.28l-.24,9.66c-.11,4.58-2.64,7-7.27,6.92l-6.21-.11-.25,9.86a.7.7,0,0,1-.81.77l-4.82-.17a.73.73,0,0,1-.77-.81Zm10.92,17a1.77,1.77,0,0,0,2-1.92l.18-7.2a1.75,1.75,0,0,0-1.93-2l-4.93-.07-.27,11.13Z" transform="translate(-2.25 -0.98)"/><path class="cls-2" d="M676.46,534.63a.71.71,0,0,1-.75-.83l1.62-32.89a.71.71,0,0,1,.83-.75l5.12.26a.72.72,0,0,1,.75.82l-1.62,32.89a.74.74,0,0,1-.83.75Z" transform="translate(-2.25 -0.98)"/><path class="cls-2" d="M689.63,501.5a.73.73,0,0,1,.85-.72l11.79.9c4.62.35,6.89,3,6.54,7.61l-.73,9.64c-.35,4.57-3,6.84-7.62,6.53l-6.19-.42-.75,9.83a.71.71,0,0,1-.85.73l-4.81-.42a.73.73,0,0,1-.73-.85Zm10,17.53a1.77,1.77,0,0,0,2.11-1.82l.55-7.18a1.75,1.75,0,0,0-1.82-2.11l-4.92-.33-.84,11.11Z" transform="translate(-2.25 -0.98)"/><path class="cls-2" d="M734.25,510.81c-.06.49-.29.81-.88.74l-12.09-1.45-.91,7.53,9.21,1.11a.74.74,0,0,1,.68.92l-.58,4.85a.75.75,0,0,1-.89.74l-9.2-1.11-.87,7.25,12.09,1.45c.59.07.75.34.69.87l-.59,4.9a.69.69,0,0,1-.88.69l-18-2.17a.72.72,0,0,1-.64-.87l3.93-32.69a.72.72,0,0,1,.83-.7l18,2.17a.68.68,0,0,1,.69.88Z" transform="translate(-2.25 -0.98)"/><path class="cls-2" d="M752.22,508c4.56.8,6.56,3.66,5.75,8.22l-.56,3.2a.7.7,0,0,1-.92.64l-4.9-.86a.73.73,0,0,1-.64-.91l.36-2a1.75,1.75,0,0,0-1.6-2.29L747,513.5a1.79,1.79,0,0,0-2.28,1.6l-.73,4.13,11.08,5.86a1.77,1.77,0,0,1,.95,2l-1.61,9.12c-.81,4.57-3.67,6.56-8.23,5.76l-5.44-1c-4.51-.8-6.56-3.66-5.75-8.22l.55-3.16a.71.71,0,0,1,.92-.64l4.9.87a.69.69,0,0,1,.64.91l-.36,2a1.76,1.76,0,0,0,1.6,2.28l2.62.47a1.75,1.75,0,0,0,2.28-1.6l.87-4.91-11-5.84a1.75,1.75,0,0,1-1-2l1.48-8.39c.81-4.57,3.71-6.56,8.23-5.76Z" transform="translate(-2.25 -0.98)"/><path d="M454.38,446.24a5.6,5.6,0,0,1,1.75-1.47l24,5.74c-.66.86-11.48,2.48-15.38,6.46-2.63,2.67-5.74,15.3-6.11,20.6s.07,11.48,3.17,16a92,92,0,0,0,6.67,8.56s-7.18-2.83-11.46-6.94c-5.05-4.86-8.32-11.87-8.17-18.4C449.07,467.57,454.38,446.24,454.38,446.24Z" transform="translate(-2.25 -0.98)"/><path d="M836.91,442a5.78,5.78,0,0,0-1.62-1.61l-24.38,3.75c.59.91,11.23,3.41,14.79,7.69,2.4,2.89,4.46,15.73,4.39,21s-1,11.44-4.47,15.73a92.15,92.15,0,0,1-7.36,8s7.39-2.23,12-6c5.44-4.43,9.28-11.15,9.66-17.67C840.45,463.64,836.91,442,836.91,442Z" transform="translate(-2.25 -0.98)"/><path class="cls-2" d="M513.55,293.53l-1.81,1.64-7-7.74-5.34,4.85,7,7.74-1.81,1.64-14.15-15.6,1.81-1.64,5.69,6.27,5.34-4.85-5.69-6.27,1.81-1.64Z" transform="translate(-2.25 -0.98)"/><path class="cls-2" d="M531.24,280l-2.07,1.52L522.93,277l-5.57,4.1,2.47,7.33-2.05,1.51-6.93-21.05,2.37-1.74Zm-10.14-4.34-7.39-5.39,2.95,8.65Z" transform="translate(-2.25 -0.98)"/><path class="cls-2" d="M546.59,270.82l-2.35,1.38-14.93-10.52L537.73,276l-2.11,1.24L525,259.1l2.35-1.39,14.88,10.38-8.34-14.21,2.07-1.22Z" transform="translate(-2.25 -0.98)"/><path class="cls-2" d="M544.6,248.17l3.78-1.72a8.43,8.43,0,0,1,7.2-.18q3.43,1.51,5.46,6c1.39,3.05,1.69,5.75.92,8.12a8.45,8.45,0,0,1-4.76,5.2l-3.88,1.76Zm10.07,16.21,1.57-.72a5.65,5.65,0,0,0,3.4-4,11.7,11.7,0,0,0-5.11-11.21,5.7,5.7,0,0,0-5.24-.08l-1.57.72Z" transform="translate(-2.25 -0.98)"/><path class="cls-2" d="M583.8,255.38l-2.24.75L575.83,239l-.27,9.2-2.19.73-5.76-7.18,5.73,17.13-2.24.74-6.68-20,3-1,6.39,8,.28-10.22,3-1Z" transform="translate(-2.25 -0.98)"/><path class="cls-2" d="M604.74,250.4l-2.5.55-3.88-6.69-6.74,1.5-.71,7.71-2.47.55L590.59,232l2.87-.64Zm-7.52-8.07-4.59-7.91-.79,9.1Z" transform="translate(-2.25 -0.98)"/><path class="cls-2" d="M607.77,228.68l4.12-.48a8.4,8.4,0,0,1,6.9,2,11.23,11.23,0,0,1,3.37,7.38c.38,3.33-.16,6-1.63,8a8.37,8.37,0,0,1-6.12,3.48l-4.23.49Zm4.6,18.52,1.72-.2a5.73,5.73,0,0,0,4.46-2.75A11.71,11.71,0,0,0,617.13,232a5.69,5.69,0,0,0-5-1.69l-1.72.2Z" transform="translate(-2.25 -0.98)"/><path class="cls-2" d="M641.68,247.55l-11,.18-.34-21.06,10.91-.18,0,2.14-8.46.13.1,6.53,8.14-.14,0,2.14-8.13.13.13,8.13,8.55-.13Z" transform="translate(-2.25 -0.98)"/><path class="cls-2" d="M680.28,252.1l-9.39-1.84.4-2.09,3.56.69,3.22-16.48-3.56-.69.41-2.1,9.39,1.84-.41,2.09-3.43-.67-3.21,16.48,3.43.67Z" transform="translate(-2.25 -0.98)"/><path class="cls-2" d="M701.07,257.89l-2.6-.8L696.12,239l-4.87,15.9-2.34-.71L695.07,234l2.62.8,2.43,18L704.94,237l2.29.71Z" transform="translate(-2.25 -0.98)"/><path class="cls-2" d="M743,254.47s-.67,3.51-2,10.55l-2,10.59-2.25-1.25,1.53-7.58-6-3.34-5.63,5.31-2.22-1.22,15.71-14.65a2.83,2.83,0,0,1,.08-2.61,2.77,2.77,0,0,1,1.7-1.35,2.85,2.85,0,0,1,3.28,4.1A2.77,2.77,0,0,1,743,254.47Zm-4.32,10.11,1.8-9-6.63,6.3Zm3.14-11.46a1.71,1.71,0,0,0,2.29-.67,1.61,1.61,0,0,0,.14-1.27,1.64,1.64,0,0,0-.8-1,1.61,1.61,0,0,0-1.27-.14,1.68,1.68,0,0,0-.36,3.08Z" transform="translate(-2.25 -0.98)"/><path class="cls-2" d="M755.36,286.83l-2.51-1.75.39-11.38L751,272.15,745.55,280l-2-1.4,12-17.28,4.89,3.4a7.16,7.16,0,0,1,3.06,3.9,5,5,0,0,1-.89,4.32,5.2,5.2,0,0,1-3,2.09,6.45,6.45,0,0,1-4-.33Zm-3.13-16.44,2.54,1.77a4.58,4.58,0,0,0,3.18.93,3.35,3.35,0,0,0,2.51-1.48c1.34-1.93.84-3.71-1.52-5.35l-2.58-1.8Z" transform="translate(-2.25 -0.98)"/><path class="cls-2" d="M768.56,298l-8.33-7.19,13.74-16,8.27,7.12-1.39,1.62-6.42-5.53L770.18,283l6.16,5.31L775,289.92l-6.17-5.31-5.31,6.17,6.48,5.58Z" transform="translate(-2.25 -0.98)"/><path class="cls-2" d="M579.29,670.73h-11V649.67H579.2v2.13h-8.47v6.52h8.14v2.14h-8.14v8.13h8.56Z" transform="translate(-2.25 -0.98)"/><path class="cls-2" d="M597.14,657.4a11.74,11.74,0,0,0-3.68-.64,6,6,0,0,0-3,.63,1.9,1.9,0,0,0-1.11,1.69,1.61,1.61,0,0,0,.51,1.18,5.05,5.05,0,0,0,2,.93l2.22.64a9.93,9.93,0,0,1,2.51,1,4.16,4.16,0,0,1,1.46,1.46,4.28,4.28,0,0,1-1.39,5.51,8.13,8.13,0,0,1-4.74,1.29,11.2,11.2,0,0,1-4.73-.87l.44-2a9.69,9.69,0,0,0,4.2.92,6.18,6.18,0,0,0,3.16-.72,2.16,2.16,0,0,0,1.21-1.92,2,2,0,0,0-.6-1.44,7.37,7.37,0,0,0-2.84-1.32c-1.21-.37-2.09-.64-2.66-.83a5.26,5.26,0,0,1-1.58-.81,3.77,3.77,0,0,1-1.12-1.28,3.81,3.81,0,0,1,1.38-4.87,8.28,8.28,0,0,1,4.68-1.18,15.65,15.65,0,0,1,4.18.64Z" transform="translate(-2.25 -0.98)"/><path class="cls-2" d="M618,670a11.09,11.09,0,0,1-4.61,1.07q-4.17,0-4.17-4.4v-9.51h-3v-2h3v-4.25h2.27v4.25h5.28v2h-5.28v8.9a3.45,3.45,0,0,0,.63,2.2,2.06,2.06,0,0,0,1.7.78,9,9,0,0,0,3.78-.85Z" transform="translate(-2.25 -0.98)"/><path class="cls-2" d="M655.55,670.73H644V669q4.41-4.91,5.72-6.58a16.46,16.46,0,0,0,2.13-3.51,8.85,8.85,0,0,0,.83-3.66,3.64,3.64,0,0,0-1.07-2.77,4.15,4.15,0,0,0-3-1,12.53,12.53,0,0,0-4,.91l-.35-2.1a11.93,11.93,0,0,1,4.72-1,6.41,6.41,0,0,1,4.54,1.59,5.51,5.51,0,0,1,1.73,4.25,8.7,8.7,0,0,1-.89,3.76,17.42,17.42,0,0,1-2.28,3.58q-1.38,1.72-5.4,6.15h8.87Z" transform="translate(-2.25 -0.98)"/><path class="cls-2" d="M669.15,649.26a5.72,5.72,0,0,1,5.14,2.88q1.8,2.86,1.8,8.06a15.53,15.53,0,0,1-1.75,8,5.65,5.65,0,0,1-5.19,3,5.75,5.75,0,0,1-5.14-2.87c-1.2-1.91-1.8-4.59-1.8-8.06a15.6,15.6,0,0,1,1.75-8A5.69,5.69,0,0,1,669.15,649.26Zm0,19.72a3.47,3.47,0,0,0,3.27-2.1c.72-1.4,1.07-3.62,1.07-6.68s-.35-5.29-1.07-6.68a3.58,3.58,0,0,0-6.53.06,21.17,21.17,0,0,0,0,13.29A3.46,3.46,0,0,0,669.15,669Zm-.06-11a2.17,2.17,0,0,1,1.59.64,2.2,2.2,0,0,1,.65,1.59,2.35,2.35,0,0,1-.66,1.67,2.1,2.1,0,0,1-1.58.69,2.06,2.06,0,0,1-1.56-.69,2.38,2.38,0,0,1-.65-1.67,2.17,2.17,0,0,1,.63-1.59A2.13,2.13,0,0,1,669.09,658Z" transform="translate(-2.25 -0.98)"/><path class="cls-2" d="M694.32,670.73H683.24v-2.14h4.46V652.23l-4.2,2.11v-2.45l4.55-2.34h2.1v19h4.17Z" transform="translate(-2.25 -0.98)"/><path class="cls-2" d="M713.7,651.41l-8.35,19.32h-2.5l8.22-18.93H701.2v-2.13h12.5Z" transform="translate(-2.25 -0.98)"/></svg>