<svg xmlns="http://www.w3.org/2000/svg" viewBox="0 0 456.91 260.63"><defs><style>.cls-1{fill:#231f20;}</style></defs><title>Asset 7</title><g id="Layer_2" data-name="Layer 2"><g id="Layer_1-2" data-name="Layer 1"><path class="cls-1" d="M371.75,63.92a.69.69,0,0,0-.68-.68.68.68,0,0,0-.67.68.67.67,0,0,0,.67.67,2.74,2.74,0,0,1,2.17,1.07,2.77,2.77,0,1,1-4.94,1.7h2.1a.68.68,0,1,0,.67-.67,2.77,2.77,0,1,1,2.77-2.77Z"/><path class="cls-1" d="M380.29,66.57a1.18,1.18,0,0,0,2.35,0V61.16H385v5.45a3.55,3.55,0,0,1-7.1,0V61.16h2.38Z"/><path class="cls-1" d="M389.22,61.16H393a3.31,3.31,0,0,1,0,6.61h-1.47v2.39h-2.36Zm2.36,4.57H393a1.28,1.28,0,0,0,1.3-1.28,1.3,1.3,0,0,0-1.3-1.3h-1.46Z"/><path class="cls-1" d="M400,61.16h3.79a3.31,3.31,0,0,1,.05,6.61h-1.47v2.39H400Zm2.37,4.57h1.46a1.27,1.27,0,0,0,1.29-1.28,1.29,1.29,0,0,0-1.29-1.3h-1.46Z"/><path class="cls-1" d="M410.77,61.16h5.59v2h-3.23v1.46H416v2h-2.86v1.66h3.23v1.93h-5.59Z"/><path class="cls-1" d="M203.32,65.58,207,62.25h1.07v9h-2.38V66.63l-2.35,2.14L201,66.64v4.61h-2.38v-9h1.07Z"/><path class="cls-1" d="M212.25,62.25h2.37v9h-2.37Z"/><path class="cls-1" d="M218.83,62.25h3.33a4.5,4.5,0,0,1,0,9h-3.33Zm2.35,6.67h1a2.13,2.13,0,1,0,0-4.26h-1Z"/><path class="cls-1" d="M230.7,62.25H234a4.5,4.5,0,0,1,0,9H230.7Zm2.35,6.67h1a2.13,2.13,0,1,0,0-4.26h-1Z"/><path class="cls-1" d="M241.6,71.25l4.2-9h1.07l4.23,9h-2.36l-.55-1.18h-3.68L244,71.25Zm3.83-3.17h1.84l-.92-2Z"/><path class="cls-1" d="M263,66.41v.34a4.51,4.51,0,1,1-1.33-3.19L260,65.21a2.15,2.15,0,0,0-1.5-.6A2.14,2.14,0,1,0,260.26,68h-1.74V66.41Z"/><path class="cls-1" d="M13.14,60.66v3.2H16v-3.2h2.37v9H16V66.23H13.14v3.43H10.78v-9Z"/><path class="cls-1" d="M28,66.59c0,2.07-1.77,3.07-3.52,3.07a4.33,4.33,0,0,1-2.55-.94c.29-.29.86-.86,1.71-1.74a1.24,1.24,0,0,0,.93.3,1,1,0,0,0,1.06-1V60.66H28Z"/><path class="cls-1" d="M32.17,60.66h5.59v2H34.53v1.46h2.86v2H34.53v1.66h3.23v1.93H32.17Z"/><path class="cls-1" d="M46.59,64l3.66-3.34h1.07v9H48.94V65l-2.35,2.15-2.36-2.14v4.61H41.86v-9h1.06Z"/><path class="cls-1" d="M60.27,64l3.66-3.34H65v9H62.62V65l-2.35,2.15-2.36-2.14v4.61H55.54v-9H56.6Z"/><path class="cls-1" d="M69.22,60.66H74.8v2H71.58v1.46h2.85v2H71.58v1.66H74.8v1.93H69.22Z"/><path class="cls-1" d="M78.9,69.66v-9h4A2.66,2.66,0,0,1,85,65a2.62,2.62,0,0,1-1.62,4.7Zm3.5-5.48a.78.78,0,1,0,0-1.56H81.26v1.56Zm.45,3.53a.77.77,0,0,0,.77-.78.78.78,0,0,0-.77-.77H81.26v1.55Z"/><path class="cls-1" d="M89.2,69.66l4.19-9h1.07l4.23,9H96.33l-.55-1.18H92.1l-.54,1.18ZM93,66.49h1.84l-.91-2Z"/><path class="cls-1" d="M111,60.66l-4.11,4.12,4.87,4.88h-3.33l-3.2-3.19-.57.57v2.62H102.3v-9h2.36v3l3-3Z"/><path class="cls-1" d="M114.8,60.65h7.09V63H119.5v6.66h-2.36V63H114.8Z"/><path class="cls-1" d="M409.54,51.09a1.5,1.5,0,0,1-1.06-2.56c0-.06,5.64-5.75,5.41-12.4-.11-3.3-1.65-6.34-4.58-9.06l-32.36.4c-9,5.11-1.72,21.33-1.65,21.5a1.5,1.5,0,0,1-1.36,2.12H250.59a1.5,1.5,0,0,1-1.19-2.41c.19-.25,4.5-6.14.78-10.47a75.59,75.59,0,0,1-19.94,2.62A121.94,121.94,0,0,1,209.51,39c-2.87,3.6,1.45,9.62,1.49,9.68a1.5,1.5,0,0,1-1.21,2.39h0l-137.42,0a1.5,1.5,0,0,1-.66-2.85s4.86-2.46,5.53-6.3c.36-2.09-.59-4.34-2.83-6.67-1.67-1.75-5.44-2.73-9.18-2.4-3.41.31-6.11,1.59-7.4,3.53-4.8,7.23.6,11.81.84,12a1.5,1.5,0,0,1-1,2.66H5V48H54.57c-1.68-2.75-3.14-7.46.76-13.32,1.8-2.7,5.31-4.47,9.63-4.86,4.73-.42,9.29.88,11.61,3.31,3,3.07,4.16,6.19,3.62,9.28A10.56,10.56,0,0,1,77,48.06l130.19,0c-1.5-3-3.15-8.17.81-11.8a1.56,1.56,0,0,1,1.32-.37,118.19,118.19,0,0,0,21,1.91,70.92,70.92,0,0,0,19.92-2.75,1.48,1.48,0,0,1,1.48.33c4.24,3.92,3.31,9.15,1.6,12.68H371.72a39.45,39.45,0,0,1-2-8c-1-7.49,1.13-12.83,6.16-15.46a1.75,1.75,0,0,1,.68-.17l33.32-.4a1.4,1.4,0,0,1,1,.37c3.85,3.38,5.88,7.29,6,11.61.16,5-2.28,9.41-4.17,12h44.19v3Z"/><path class="cls-1" d="M66.47,19.33a.57.57,0,0,1-.58-.57V12a.58.58,0,1,1,1.16,0v6.73A.57.57,0,0,1,66.47,19.33Z"/><path class="cls-1" d="M77.05,21.54a.6.6,0,0,1-.22,0,.59.59,0,0,1-.31-.76l2.57-6.22a.58.58,0,0,1,1.07.44l-2.57,6.22A.57.57,0,0,1,77.05,21.54Z"/><path class="cls-1" d="M86.05,27.43a.6.6,0,0,1-.41-.17.59.59,0,0,1,0-.82l4.76-4.76a.59.59,0,0,1,.82,0,.57.57,0,0,1,0,.82l-4.76,4.76A.58.58,0,0,1,86.05,27.43Z"/><path class="cls-1" d="M47,27.62a.54.54,0,0,1-.41-.17L41.82,22.7a.59.59,0,0,1,0-.82.57.57,0,0,1,.82,0l4.76,4.76a.58.58,0,0,1,0,.81A.56.56,0,0,1,47,27.62Z"/><path class="cls-1" d="M55.82,21.57a.57.57,0,0,1-.53-.36L52.7,15a.58.58,0,0,1,1.07-.45l2.58,6.22a.56.56,0,0,1-.31.75A.54.54,0,0,1,55.82,21.57Z"/><path class="cls-1" d="M230.83,14.2a.58.58,0,0,1-.58-.58V6.89a.58.58,0,0,1,1.16,0v6.73A.58.58,0,0,1,230.83,14.2Z"/><path class="cls-1" d="M241.41,16.4a.6.6,0,0,1-.22,0,.58.58,0,0,1-.31-.75l2.57-6.22a.57.57,0,0,1,.75-.32.58.58,0,0,1,.32.76L242,16.05A.58.58,0,0,1,241.41,16.4Z"/><path class="cls-1" d="M250.41,22.29a.58.58,0,0,1-.41-1l4.76-4.76a.57.57,0,0,1,.82,0,.56.56,0,0,1,0,.81l-4.76,4.76A.54.54,0,0,1,250.41,22.29Z"/><path class="cls-1" d="M211.35,22.49a.58.58,0,0,1-.41-.17l-4.76-4.76a.58.58,0,1,1,.82-.82l4.76,4.76a.59.59,0,0,1,0,.82A.6.6,0,0,1,211.35,22.49Z"/><path class="cls-1" d="M220.18,16.43a.57.57,0,0,1-.53-.36l-2.58-6.21a.57.57,0,1,1,1.06-.44l2.59,6.21a.59.59,0,0,1-.32.76A.54.54,0,0,1,220.18,16.43Z"/><path class="cls-1" d="M392.29,7.89a.58.58,0,0,1-.58-.58V.58a.58.58,0,1,1,1.16,0V7.31A.58.58,0,0,1,392.29,7.89Z"/><path class="cls-1" d="M402.87,10.09a.57.57,0,0,1-.22,0,.58.58,0,0,1-.31-.75l2.57-6.23a.58.58,0,1,1,1.06.45l-2.56,6.22A.59.59,0,0,1,402.87,10.09Z"/><path class="cls-1" d="M411.87,16a.58.58,0,0,1-.41-.17.59.59,0,0,1,0-.82l4.76-4.75a.57.57,0,0,1,.82,0,.58.58,0,0,1,0,.81l-4.76,4.76A.58.58,0,0,1,411.87,16Z"/><path class="cls-1" d="M372.81,16.18a.58.58,0,0,1-.41-.17l-4.76-4.76a.58.58,0,1,1,.82-.82l4.75,4.76a.58.58,0,0,1-.4,1Z"/><path class="cls-1" d="M381.64,10.12a.58.58,0,0,1-.54-.36l-2.58-6.21a.59.59,0,0,1,.31-.76.58.58,0,0,1,.76.32l2.58,6.21a.58.58,0,0,1-.31.76A.57.57,0,0,1,381.64,10.12Z"/><path class="cls-1" d="M381.69,251.35l-4.18,9h-1.08l-4.2-9h2.38l2.36,5.12,2.37-5.12Z"/><path class="cls-1" d="M385.12,251.36h2.36v9h-2.36Z"/><path class="cls-1" d="M398.3,260.36l-4.24-4.26v4.26h-2.37v-9h1l4.26,4.25v-4.25h2.36v9Z"/><path class="cls-1" d="M32.32,251.63h3.33a4.5,4.5,0,0,1,0,9H32.32Zm2.35,6.67h1a2.13,2.13,0,1,0,0-4.26h-1Z"/><path class="cls-1" d="M49.4,260.63,48,258.24H46.55v2.39H44.19v-9H48a3.3,3.3,0,0,1,2.24,5.73l1.9,3.27Zm-2.85-4.43H48a1.28,1.28,0,0,0,1.3-1.28,1.3,1.3,0,0,0-1.3-1.3H46.55Z"/><path class="cls-1" d="M55.68,251.63H58v9H55.68Z"/><path class="cls-1" d="M71,251.63l-4.1,4.12,4.87,4.88H68.39l-3.21-3.19-.56.57v2.62H62.26v-9h2.36v3l3-3Z"/><path class="cls-1" d="M83.65,251.63l-4.1,4.12,4.87,4.88H81.08l-3.2-3.19-.56.57v2.62H75v-9h2.37v3l3-3Z"/><path class="cls-1" d="M87.65,251.63h5.59v2H90v1.46h2.86v2H90v1.66h3.23v1.93H87.65Z"/><path class="cls-1" d="M62.66,196.93a.58.58,0,0,1-.57-.58v-6.73a.58.58,0,1,1,1.15,0v6.73A.58.58,0,0,1,62.66,196.93Z"/><path class="cls-1" d="M73.25,199.14a.54.54,0,0,1-.22,0,.57.57,0,0,1-.32-.75l2.57-6.22a.58.58,0,0,1,.76-.32.59.59,0,0,1,.31.76l-2.57,6.22A.57.57,0,0,1,73.25,199.14Z"/><path class="cls-1" d="M82.25,205a.54.54,0,0,1-.41-.17.56.56,0,0,1,0-.81l4.76-4.76a.56.56,0,0,1,.81,0,.57.57,0,0,1,0,.82l-4.75,4.75A.58.58,0,0,1,82.25,205Z"/><path class="cls-1" d="M43.18,205.22a.6.6,0,0,1-.41-.17L38,200.29a.57.57,0,0,1,0-.82.58.58,0,0,1,.81,0l4.76,4.76a.57.57,0,0,1,0,.82A.58.58,0,0,1,43.18,205.22Z"/><path class="cls-1" d="M52,199.16a.58.58,0,0,1-.54-.35l-2.58-6.22a.58.58,0,0,1,1.07-.44l2.58,6.21a.59.59,0,0,1-.31.76A.6.6,0,0,1,52,199.16Z"/><path class="cls-1" d="M220.52,250.29A4.5,4.5,0,1,1,216,254.8,4.52,4.52,0,0,1,220.52,250.29Zm0,2.35a2.15,2.15,0,1,0,2.15,2.15A2.14,2.14,0,0,0,220.52,252.64Z"/><path class="cls-1" d="M229.06,250.29h2.37v6.62h3.24v2.38h-5.61Z"/><path class="cls-1" d="M225.68,173.62a.57.57,0,0,1-.57-.58v-6.73a.56.56,0,0,1,.57-.57.57.57,0,0,1,.58.57V173A.58.58,0,0,1,225.68,173.62Z"/><path class="cls-1" d="M236.27,175.83a.54.54,0,0,1-.22,0,.59.59,0,0,1-.32-.76l2.57-6.22a.58.58,0,0,1,1.07.44l-2.57,6.22A.58.58,0,0,1,236.27,175.83Z"/><path class="cls-1" d="M245.27,181.72a.58.58,0,0,1-.41-.17.57.57,0,0,1,0-.82l4.76-4.76a.56.56,0,0,1,.81,0,.57.57,0,0,1,0,.82l-4.76,4.76A.58.58,0,0,1,245.27,181.72Z"/><path class="cls-1" d="M206.2,181.91a.6.6,0,0,1-.41-.17L201,177a.58.58,0,0,1,0-.81.57.57,0,0,1,.82,0l4.76,4.75a.57.57,0,0,1,0,.82A.58.58,0,0,1,206.2,181.91Z"/><path class="cls-1" d="M215,175.85a.57.57,0,0,1-.53-.35l-2.58-6.22a.56.56,0,0,1,.31-.75.58.58,0,0,1,.75.31l2.59,6.22a.58.58,0,0,1-.31.75A.62.62,0,0,1,215,175.85Z"/><path class="cls-1" d="M385.34,179.24a.57.57,0,0,1-.57-.58v-6.73a.57.57,0,0,1,.57-.58.58.58,0,0,1,.58.58v6.73A.58.58,0,0,1,385.34,179.24Z"/><path class="cls-1" d="M395.93,181.45a.54.54,0,0,1-.22,0,.57.57,0,0,1-.32-.75l2.57-6.22a.57.57,0,0,1,.76-.31.58.58,0,0,1,.31.75l-2.57,6.22A.58.58,0,0,1,395.93,181.45Z"/><path class="cls-1" d="M404.93,187.34a.58.58,0,0,1-.41-.17.57.57,0,0,1,0-.82l4.76-4.76a.56.56,0,0,1,.81,0,.57.57,0,0,1,0,.82l-4.76,4.76A.58.58,0,0,1,404.93,187.34Z"/><path class="cls-1" d="M365.86,187.53a.6.6,0,0,1-.41-.17l-4.76-4.76a.58.58,0,0,1,.82-.82l4.76,4.76a.57.57,0,0,1,0,.82A.58.58,0,0,1,365.86,187.53Z"/><path class="cls-1" d="M374.69,181.47a.57.57,0,0,1-.53-.35l-2.58-6.22a.57.57,0,0,1,.31-.75.58.58,0,0,1,.75.31l2.59,6.21a.59.59,0,0,1-.31.76A.62.62,0,0,1,374.69,181.47Z"/><path class="cls-1" d="M452,241.61h-57.4a1.57,1.57,0,0,1-.7-.17,16.9,16.9,0,0,0-7.8-1.74,1.54,1.54,0,0,1-.37,0,1.09,1.09,0,0,1-.26,0c-2.93.05-8.18.55-9.8,1.65a1.49,1.49,0,0,1-.84.26h-137a1.5,1.5,0,0,1-1.5-1.54,183.34,183.34,0,0,0-.62-19.31c-.43-4.57-4.26-8.33-6.22-9.34a1.49,1.49,0,0,1-.81-1.3l-.46-22.87-5.05,0v23a1.49,1.49,0,0,1-1.11,1.45c-2.62.7-5.56,6.2-6,10.06a124.61,124.61,0,0,0-.7,18.3,1.5,1.5,0,0,1-1.5,1.57H71.72a1.49,1.49,0,0,1-1.12-.5,1.51,1.51,0,0,1-.37-1.18c0-.19,2.13-17.91,2.79-27.8H53c.9,10.34,3.2,27.57,3.22,27.75a1.51,1.51,0,0,1-.35,1.19,1.53,1.53,0,0,1-1.13.51H0v-3H53c-.65-4.94-2.51-19.49-3.16-27.83a1.51,1.51,0,0,1,1.5-1.62H74.62a1.5,1.5,0,0,1,1.5,1.58c-.44,7.9-2.13,22.89-2.71,27.9H212.28a125.59,125.59,0,0,1,.77-17.24c.51-4.09,3.38-10.24,7.12-12.16V185.72a1.54,1.54,0,0,1,.44-1.07,1.51,1.51,0,0,1,1.07-.43l8,0a1.51,1.51,0,0,1,1.49,1.47l.47,23.5c2.49,1.65,6.52,5.77,7,11.25.69,7.4.7,15,.67,18.13h135c2.37-1.3,6.94-1.72,9.41-1.85l-1.91-22.23a56.11,56.11,0,0,1-8.55-1.95c-7.11-2.29-7.82-11.54-6.28-18.77a1.51,1.51,0,0,1,1.47-1.19h32.08a1.49,1.49,0,0,1,1.22.62c2.25,3.14,2.61,7.94.92,12.53-1.45,4-4.15,6.79-7.22,7.55a56.46,56.46,0,0,1-6.6,1.19l-1.34,22.21a19.73,19.73,0,0,1,7.35,1.88h57Zm-82.21-46c-1,6.15-.08,12.63,4.49,14.11a57.23,57.23,0,0,0,9.2,2,1.49,1.49,0,0,1,1.32,1.36l.72,8.47.52-8.47a1.5,1.5,0,0,1,1.36-1.41,56.4,56.4,0,0,0,7.42-1.25c2.1-.52,4-2.64,5.14-5.67,1.21-3.31,1.14-6.79-.15-9.12Z"/><rect class="cls-1" x="213.88" y="253.92" width="12.86" height="1" transform="translate(-115.57 275.73) rotate(-52.74)"/></g></g></svg>