<svg xmlns="http://www.w3.org/2000/svg" viewBox="0 0 376.95 376.95"><defs><style>.cls-1{fill:#fff;}.cls-2{fill:#231f20;}.cls-3,.cls-4{fill:none;stroke:#231f20;}.cls-3{stroke-linecap:round;stroke-miterlimit:10;stroke-width:3px;}.cls-4{stroke-linejoin:round;stroke-width:6px;}</style></defs><title>Asset 6</title><g id="Layer_2" data-name="Layer 2"><g id="Layer_1-2" data-name="Layer 1"><circle class="cls-1" cx="188.47" cy="188.47" r="188.47"/><path class="cls-2" d="M56.37,177.81l.85-6.75,2.47.31-.49,3.9,1.84.23.44-3.44,2.51.32-.43,3.44,2.09.27.49-3.9,2.43.31-.85,6.75Z"/><path class="cls-2" d="M62.51,161.07a.86.86,0,0,0-1,.59.86.86,0,0,0,1.66.44,3.31,3.31,0,0,1,2-2.22,3.69,3.69,0,0,1,2.33-.14,3.38,3.38,0,1,1-1.75,6.52l.64-2.48a.83.83,0,0,0,1.05-.57.84.84,0,0,0-.61-1,.86.86,0,0,0-1.05.58,3.52,3.52,0,1,1-2.56-4.15Z"/><path class="cls-2" d="M60.19,153.6,63,145.43l2.84,1-.94,2.74,8,2.73L72,154.59l-8-2.72L63,154.56Z"/><path class="cls-2" d="M79.05,84.23l12.6-12.61,4.54,4.54-7.31,7.32L92.3,86.9l6.46-6.46,4.68,4.67L97,91.58l8.38,8.38-5.27,5.29Z"/><path class="cls-2" d="M121.11,86.72l-1.36-32.54,3-1.51L148,73.35l-6.69,3.32L138,74,127.6,79.16l.2,4.24ZM127.28,72l5.2-2.58L127,64.8Z"/><path class="cls-2" d="M174.31,67.72l-5.58-7.11-4.57.72,1.23,7.79L158,70.28,153.37,40.9,165.21,39a10.74,10.74,0,0,1,12,9.18,11.14,11.14,0,0,1-2.08,8.44l7.64,9.72Zm-11.2-13,4.57-.72a4.15,4.15,0,0,0,3.39-4.83,4.19,4.19,0,0,0-4.72-3.6l-4.57.73Z"/><path class="cls-2" d="M210.8,50.58l13.06-9.21,3.34.5-4.36,29.42-7.43-1.1,2.24-15.11L209.26,61l-6.36-8.08L200.67,68l-7.43-1.1,4.36-29.42,3.34.5Z"/><path class="cls-2" d="M246.36,49l16.05,7.41-2.71,5.87L250.44,58l-2,4.4,8.19,3.78-2.75,6-8.2-3.78-2.3,5,9.27,4.27-2.68,5.8L233.89,76Z"/><path class="cls-2" d="M309.52,149.88a1.87,1.87,0,0,0,1.27.13,1.36,1.36,0,0,0,.89-1.61,1.29,1.29,0,0,0-1.66-.84l-.65-2.26a3.63,3.63,0,1,1,2,7,4,4,0,0,1-2.21,0l-3.55-1.14.86,3-2.33.68L302,147.47Z"/><path class="cls-2" d="M312,155.68a3.59,3.59,0,1,1,2.14,6.84l-3.76,1.19a3.59,3.59,0,1,1-2.17-6.83Zm-3.08,3.38a1.29,1.29,0,1,0,.78,2.45l3.73-1.19a1.3,1.3,0,0,0,.9-1.63,1.31,1.31,0,0,0-1.66-.82Z"/><path class="cls-2" d="M318.21,165.27l.63,2.8-11.16,2.5-.63-2.81Z"/><path class="cls-2" d="M320.58,180.72l-2.41.47L308.4,178l-.51-2.6,9.79,3.16-1.11-5.72,2.39-.46Z"/><line class="cls-3" x1="187.89" y1="98.18" x2="187.89" y2="115.65"/><line class="cls-3" x1="222.03" y1="105.23" x2="215.36" y2="121.38"/><line class="cls-3" x1="251.07" y1="124.31" x2="238.72" y2="136.66"/><rect class="cls-4" x="170.59" y="181.67" width="35.1" height="23.97"/><path class="cls-2" d="M79.71,246.2v4.28h3.81V246.2h3.15v12H83.52v-4.58H79.71v4.58H76.56v-12Z"/><path class="cls-2" d="M99.63,246.2a6,6,0,1,1-6,6A6,6,0,0,1,99.63,246.2Zm0,3.14a2.87,2.87,0,1,0,2.87,2.87A2.86,2.86,0,0,0,99.63,249.34Z"/><path class="cls-2" d="M115.46,253.42a1.57,1.57,0,1,0,3.13,0V246.2h3.17v7.27a4.74,4.74,0,1,1-9.47,0V246.2h3.17Z"/><path class="cls-2" d="M133.38,249.88a.93.93,0,0,0-.92-.91.91.91,0,0,0-.89.91.89.89,0,0,0,.89.9,3.72,3.72,0,1,1-3.69,3.7h2.8a.9.9,0,0,0,.89.91.91.91,0,0,0,.92-.9.93.93,0,0,0-.92-.91,3.69,3.69,0,1,1,3.7-3.7Z"/><path class="cls-2" d="M143.2,246.2h7.46v2.61h-4.31v1.95h3.81v2.66h-3.81v2.21h4.31v2.58H143.2Z"/><path class="cls-2" d="M175.46,246.2a6,6,0,1,1-6,6A6,6,0,0,1,175.46,246.2Zm0,3.14a2.87,2.87,0,1,0,2.86,2.87A2.86,2.86,0,0,0,175.46,249.34Z"/><path class="cls-2" d="M188.45,246.2H196v2.6H191.6v1.95h3.86v2.67H191.6v4.79h-3.15Z"/><path class="cls-2" d="M215,246.2h3.15V255h4.33v3.17H215Z"/><path class="cls-2" d="M229.53,246.2h3.16v12h-3.16Z"/><path class="cls-2" d="M251.71,251.76v.45a6,6,0,1,1-1.77-4.26l-2.23,2.21a2.85,2.85,0,1,0-2,4.89,2.83,2.83,0,0,0,2.32-1.18h-2.32v-2.11Z"/><path class="cls-2" d="M261.39,246.2v4.28h3.81V246.2h3.15v12H265.2v-4.58h-3.81v4.58h-3.15v-12Z"/><path class="cls-2" d="M275.31,246.19h9.46v3.13h-3.19v8.89h-3.15v-8.89h-3.12Z"/><path class="cls-2" d="M296.16,249.88a.93.93,0,0,0-.91-.91.91.91,0,0,0-.9.91.9.9,0,0,0,.9.9,3.72,3.72,0,1,1-3.7,3.7h2.8a.9.9,0,0,0,.9.91.91.91,0,0,0,.91-.9.93.93,0,0,0-.91-.91,3.69,3.69,0,1,1,3.69-3.7Z"/><path class="cls-2" d="M273.92,103.05,273,83.62l-9.22,10.63-5.65-4.89L277.62,66.9l2.3,2,1,19.42,9.2-10.6,5.64,4.9-19.49,22.46Z"/><polygon class="cls-2" points="318.37 231.27 232.59 231.26 229.16 231.2 229.16 165.97 187.69 150.65 146.21 165.97 146.21 231.2 142.16 231.27 57 231.27 57 224.27 139.21 224.27 139.21 161.09 187.69 143.19 236.16 161.09 236.16 224.27 318.37 224.27 318.37 231.27"/><line class="cls-3" x1="124.97" y1="124.81" x2="137.32" y2="137.16"/><line class="cls-3" x1="153.54" y1="105.31" x2="160.25" y2="121.44"/></g></g></svg>