<svg xmlns="http://www.w3.org/2000/svg" viewBox="0 0 376.49 376.49"><defs><style>.cls-1,.cls-4{fill:#1d1d1b;}.cls-2,.cls-3,.cls-6,.cls-7{fill:none;stroke:#1d1d1b;}.cls-2{stroke-linecap:round;stroke-width:3px;}.cls-2,.cls-6,.cls-7{stroke-miterlimit:10;}.cls-3{stroke-linejoin:round;stroke-width:6px;}.cls-4{font-size:16px;font-family:BigJohn, Big John;letter-spacing:0.3em;}.cls-5{letter-spacing:0.28em;}.cls-6{stroke-width:7px;}.cls-7{stroke-width:0.25px;}</style></defs><title>Asset 4</title><g id="Layer_2" data-name="Layer 2"><g id="Layer_1-2" data-name="Layer 1"><path class="cls-1" d="M56.47,178.53l.85-6.75,2.47.31L59.3,176l1.84.23.44-3.45,2.51.32-.43,3.45,2.09.27.49-3.9,2.44.31L67.82,180Z"/><path class="cls-1" d="M62.61,161.79a.83.83,0,1,0,.62,1,3.27,3.27,0,0,1,2-2.21,3.52,3.52,0,0,1,2.32-.14A3.37,3.37,0,1,1,65.78,167l.65-2.47a.82.82,0,1,0,.43-1.59.85.85,0,0,0-1,.58,3.52,3.52,0,1,1-2.56-4.16Z"/><path class="cls-1" d="M60.29,154.32l2.78-8.17,2.83,1L65,149.86l8,2.73-.93,2.72-8-2.73-.92,2.7Z"/><path class="cls-1" d="M79.16,85,91.75,72.33l4.54,4.54L89,84.2l3.42,3.42,6.46-6.47,4.68,4.68L97.09,92.3l8.39,8.38L100.2,106Z"/><path class="cls-1" d="M121.21,87.44l-1.36-32.55,3-1.5,25.24,20.67-6.69,3.33-3.3-2.7L127.7,79.87l.2,4.24Zm6.17-14.77,5.2-2.58-5.5-4.57Z"/><path class="cls-1" d="M174.41,68.43l-5.57-7.11-4.58.72,1.24,7.8L158.11,71l-4.63-29.38,11.84-1.86a10.73,10.73,0,0,1,12,9.18,11.16,11.16,0,0,1-2.08,8.44l7.64,9.71Zm-11.2-13.05,4.57-.72a4.27,4.27,0,0,0-1.33-8.42l-4.57.72Z"/><path class="cls-1" d="M210.9,51.3,224,42.09l3.34.5L222.94,72l-7.43-1.11,2.24-15.1-8.39,5.93L203,53.65l-2.23,15.06-7.43-1.1,4.37-29.42,3.33.5Z"/><path class="cls-1" d="M246.46,49.67l16,7.41L259.8,63l-9.26-4.28-2,4.39,8.2,3.79-2.76,6L245.75,69l-2.3,5,9.27,4.28L250,84.09l-16-7.41Z"/><path class="cls-1" d="M309.63,150.59a1.9,1.9,0,0,0,1.26.14,1.36,1.36,0,0,0,.89-1.62,1.3,1.3,0,0,0-1.65-.84l-.66-2.25a3.68,3.68,0,0,1,4.65,2.5,3.73,3.73,0,0,1-2.67,4.48,4,4,0,0,1-2.2-.05l-3.56-1.14.86,3-2.33.67-2.11-7.27Z"/><path class="cls-1" d="M312.05,156.4a3.58,3.58,0,1,1,2.15,6.83l-3.77,1.2a3.59,3.59,0,1,1-2.16-6.83ZM309,159.78a1.29,1.29,0,1,0,.78,2.45l3.74-1.19a1.28,1.28,0,1,0-.76-2.45Z"/><path class="cls-1" d="M318.31,166l.63,2.81-11.16,2.49-.63-2.8Z"/><path class="cls-1" d="M320.68,181.44l-2.41.47-9.77-3.15-.51-2.61,9.79,3.16-1.11-5.71,2.39-.47Z"/><line class="cls-2" x1="187.99" y1="98.89" x2="187.99" y2="116.36"/><line class="cls-2" x1="222.13" y1="105.95" x2="215.46" y2="122.09"/><line class="cls-2" x1="251.17" y1="125.02" x2="238.82" y2="137.37"/><rect class="cls-3" x="170.69" y="182.39" width="35.1" height="23.97"/><text class="cls-4" transform="translate(75.44 258.92)">H<tspan class="cls-5" x="17.33" y="0">O</tspan><tspan x="35.74" y="0">USE OF LIGHTS</tspan></text><path class="cls-1" d="M274,103.77l-.92-19.43L263.88,95l-5.65-4.9,19.49-22.45,2.3,2L281,89l9.2-10.6,5.64,4.89-19.49,22.46Z"/><polyline class="cls-6" points="318.47 228.48 233.37 228.48 232.76 228.47 232.76 164.25 187.79 147.64 142.81 164.25 142.81 228.47 142.2 228.48 57.1 228.48"/><line class="cls-2" x1="125.07" y1="125.53" x2="137.42" y2="137.88"/><line class="cls-2" x1="153.64" y1="106.03" x2="160.35" y2="122.16"/><circle class="cls-7" cx="188.24" cy="188.06" r="120.45"/><circle class="cls-7" cx="188.24" cy="188.06" r="70.04"/><line class="cls-7" x1="187.79" x2="187.79" y2="376.49"/><line class="cls-7" x1="376.49" y1="188.24" y2="188.24"/><line class="cls-7" x1="320.89" y1="55.14" x2="54.68" y2="321.35"/><line class="cls-7" x1="321.35" y1="321.81" x2="55.14" y2="55.59"/><circle class="cls-7" cx="188.17" cy="188.08" r="120.45"/><circle class="cls-7" cx="188.17" cy="188.08" r="70.04"/><line class="cls-7" x1="115.57" y1="14.59" x2="260.07" y2="362.25"/><line class="cls-7" x1="362.07" y1="115.99" x2="14.42" y2="260.5"/><line class="cls-7" x1="259.64" y1="14.42" x2="116" y2="362.43"/><line class="cls-7" x1="362.43" y1="260.49" x2="14.42" y2="116.85"/><circle class="cls-7" cx="188.42" cy="189.7" r="132.11"/><circle class="cls-7" cx="188.98" cy="190.02" r="152.76"/></g></g></svg>