<svg xmlns="http://www.w3.org/2000/svg" viewBox="0 0 377.96 278.96"><defs><style>.cls-1{font-size:107px;}.cls-1,.cls-11,.cls-2,.cls-22,.cls-24,.cls-3,.cls-33,.cls-43,.cls-49,.cls-64,.cls-68,.cls-74{fill:#231f20;}.cls-1,.cls-2,.cls-24,.cls-3,.cls-64,.cls-68{font-family:BigJohn, Big John;}.cls-2{font-size:71px;}.cls-11,.cls-3{font-size:8px;}.cls-4{letter-spacing:0.08em;}.cls-5{letter-spacing:-0.14em;}.cls-6{letter-spacing:-0.06em;}.cls-7{letter-spacing:-0.08em;}.cls-8{letter-spacing:0.07em;}.cls-9{letter-spacing:0.05em;}.cls-10{letter-spacing:0.07em;}.cls-11,.cls-22,.cls-33,.cls-43,.cls-49{font-family:CorporateEPro-Regular, Corporate E Pro;}.cls-12{letter-spacing:0.05em;}.cls-13{letter-spacing:0.05em;}.cls-14{letter-spacing:0.07em;}.cls-15{letter-spacing:0.06em;}.cls-16{letter-spacing:0.04em;}.cls-17{letter-spacing:0.05em;}.cls-18{letter-spacing:0.06em;}.cls-19{letter-spacing:0.04em;}.cls-20{letter-spacing:0.05em;}.cls-21{letter-spacing:0.05em;}.cls-22{font-size:122px;letter-spacing:0.09em;}.cls-23{letter-spacing:0em;}.cls-24{font-size:13px;}.cls-25{letter-spacing:-0.05em;}.cls-26{letter-spacing:0em;}.cls-27{letter-spacing:-0.02em;}.cls-28{letter-spacing:-0.04em;}.cls-29{letter-spacing:-0.04em;}.cls-30{letter-spacing:0em;}.cls-31{letter-spacing:-0.01em;}.cls-32{letter-spacing:-0.01em;}.cls-33,.cls-43,.cls-64,.cls-68{font-size:9px;}.cls-34{letter-spacing:0.05em;}.cls-35{letter-spacing:0.05em;}.cls-36{letter-spacing:0.05em;}.cls-37,.cls-43{letter-spacing:0.05em;}.cls-38{letter-spacing:0.02em;}.cls-39{letter-spacing:0.05em;}.cls-40{letter-spacing:0.07em;}.cls-41{letter-spacing:0.05em;}.cls-42{letter-spacing:0.05em;}.cls-44{letter-spacing:0.03em;}.cls-45{letter-spacing:0.05em;}.cls-46{letter-spacing:0em;}.cls-47{letter-spacing:0.02em;}.cls-48{letter-spacing:0.02em;}.cls-49{font-size:16px;}.cls-50{letter-spacing:0.05em;}.cls-51{letter-spacing:0.04em;}.cls-52{letter-spacing:0.06em;}.cls-53{letter-spacing:0.05em;}.cls-54{letter-spacing:0.04em;}.cls-55{letter-spacing:0.05em;}.cls-56{letter-spacing:0.06em;}.cls-57{letter-spacing:0.04em;}.cls-58{letter-spacing:0.04em;}.cls-59{letter-spacing:0.04em;}.cls-60{letter-spacing:0.03em;}.cls-61{letter-spacing:0.04em;}.cls-62{letter-spacing:0.05em;}.cls-63{fill:none;stroke:#000;stroke-width:0.25px;}.cls-65,.cls-68{letter-spacing:0.07em;}.cls-66{letter-spacing:0.07em;}.cls-67{letter-spacing:0.07em;}.cls-69{letter-spacing:0.06em;}.cls-70{letter-spacing:0.03em;}.cls-71{letter-spacing:0.08em;}.cls-72{letter-spacing:0.07em;}.cls-73{letter-spacing:0em;}</style></defs><title>Asset 8</title><g id="Layer_2" data-name="Layer 2"><g id="Layer_1-2" data-name="Layer 1"><text class="cls-1" transform="translate(0 101.52)">A</text><text class="cls-2" transform="translate(98.12 101.52)">a</text><text class="cls-3" transform="translate(1.45 215.88)"><tspan class="cls-4">BIG</tspan><tspan class="cls-5" x="17.01" y="0"> </tspan><tspan class="cls-4" x="19.46" y="0">JOHN</tspan><tspan class="cls-6" x="46.15" y="0"> </tspan><tspan class="cls-4" x="49.24" y="0">/</tspan><tspan class="cls-7" x="54.4" y="0"> </tspan><tspan class="cls-4" x="57.33" y="0">R</tspan><tspan class="cls-8" x="64" y="0">E</tspan><tspan class="cls-9" x="69.45" y="0">G</tspan><tspan class="cls-8" x="76.66" y="0">U</tspan><tspan class="cls-4" x="83.18" y="0">L</tspan><tspan class="cls-10" x="88.64" y="0">A</tspan><tspan x="95.97" y="0">R</tspan></text><text class="cls-11" transform="translate(221.79 215.15)"><tspan class="cls-12">C</tspan><tspan class="cls-13" x="4.99" y="0">o</tspan><tspan class="cls-14" x="9.18" y="0">r</tspan><tspan class="cls-12" x="12.72" y="0">po</tspan><tspan class="cls-15" x="21.48" y="0">r</tspan><tspan class="cls-13" x="24.9" y="0">a</tspan><tspan class="cls-16" x="29.06" y="0">t</tspan><tspan class="cls-13" x="31.82" y="0">e</tspan><tspan class="cls-12" x="35.9" y="0"> </tspan><tspan class="cls-17" x="38.29" y="0">E</tspan><tspan class="cls-12" x="42.78" y="0" xml:space="preserve"> P</tspan><tspan class="cls-18" x="49.77" y="0">r</tspan><tspan class="cls-13" x="53.23" y="0">o</tspan><tspan class="cls-12" x="57.42" y="0"> </tspan><tspan class="cls-13" x="59.82" y="0">/</tspan><tspan class="cls-12" x="62.93" y="0"> </tspan><tspan class="cls-19" x="65.32" y="0">R</tspan><tspan class="cls-17" x="70.46" y="0">e</tspan><tspan class="cls-20" x="74.54" y="0">g</tspan><tspan class="cls-17" x="78.66" y="0">u</tspan><tspan class="cls-21" x="83.36" y="0">la</tspan><tspan x="90.08" y="0">r</tspan></text><text class="cls-22" transform="translate(221.08 101.69)">A<tspan class="cls-23" x="90.16" y="0">a</tspan></text><text class="cls-24" transform="translate(0.03 142.55)">The <tspan class="cls-25" x="33.16" y="0">q</tspan><tspan class="cls-26" x="45.02" y="0">uick b</tspan><tspan class="cls-27" x="95.42" y="0">r</tspan><tspan class="cls-28" x="105.03" y="0">o</tspan><tspan x="115.84" y="0">wn</tspan></text><text class="cls-24" transform="translate(0.03 159.56)">fox jumps <tspan class="cls-29" x="87.88" y="0">o</tspan><tspan class="cls-30" x="98.68" y="0">ver a</tspan></text><text class="cls-24" transform="translate(0.03 176.56)">lazy <tspan class="cls-31" x="43.84" y="0">d</tspan><tspan class="cls-32" x="53.91" y="0">o</tspan><tspan x="65.04" y="0">g.</tspan></text><text class="cls-33" transform="translate(220.95 248.7)"><tspan class="cls-34">012345678</tspan><tspan x="44.63" y="0">9</tspan></text><text class="cls-33" transform="translate(220.95 262.7)"><tspan class="cls-35">a</tspan><tspan class="cls-34" x="4.66" y="0">bc</tspan><tspan class="cls-35" x="14.08" y="0">d</tspan><tspan class="cls-36" x="19.19" y="0">ef</tspan><tspan class="cls-37" x="27.03" y="0">g</tspan><tspan class="cls-34" x="31.67" y="0">h</tspan><tspan class="cls-38" x="37.02" y="0">i</tspan><tspan class="cls-36" x="39.6" y="0">jk</tspan><tspan class="cls-37" x="47.86" y="0">l</tspan><tspan class="cls-36" x="50.76" y="0">mno</tspan><tspan class="cls-39" x="68.19" y="0">pq</tspan><tspan class="cls-40" x="78.49" y="0">r</tspan><tspan class="cls-41" x="82.42" y="0">s</tspan><tspan class="cls-42" x="86.46" y="0">tuvxy</tspan><tspan class="cls-39" x="110.09" y="0">z</tspan><tspan class="cls-34" x="113.97" y="0">a</tspan><tspan class="cls-35" x="118.65" y="0">o</tspan><tspan x="123.35" y="0">a</tspan></text><text class="cls-43" transform="translate(220.95 276.71)">AB<tspan class="cls-34" x="11.75" y="0">C</tspan><tspan x="17.38" y="0">DEFG</tspan><tspan class="cls-36" x="39.34" y="0">HI</tspan><tspan x="49" y="0">J</tspan><tspan class="cls-36" x="52.31" y="0">K</tspan><tspan class="cls-35" x="58.46" y="0">L</tspan><tspan class="cls-36" x="63.4" y="0">M</tspan><tspan class="cls-44" x="71.13" y="0">N</tspan><tspan class="cls-42" x="77.4" y="0">O</tspan><tspan class="cls-35" x="83.46" y="0">P</tspan><tspan class="cls-34" x="88.63" y="0">QR</tspan><tspan class="cls-45" x="100.55" y="0">S</tspan><tspan class="cls-34" x="105.38" y="0">T</tspan><tspan class="cls-39" x="110.38" y="0">UV</tspan><tspan class="cls-46" x="123.05" y="0">X</tspan></text><text class="cls-33" transform="translate(349.82 276.52)"><tspan class="cls-35">Y</tspan><tspan class="cls-36" x="5.62" y="0">Z</tspan><tspan class="cls-47" x="10.34" y="0">A</tspan><tspan class="cls-48" x="16.43" y="0">O</tspan><tspan x="22.27" y="0">A</tspan></text><text class="cls-49" transform="translate(221.08 143.51)"><tspan class="cls-50">The</tspan><tspan class="cls-51" x="26.56" y="0"> </tspan><tspan class="cls-52" x="31.18" y="0">q</tspan><tspan class="cls-50" x="40.54" y="0">u</tspan><tspan class="cls-53" x="49.94" y="0">i</tspan><tspan class="cls-54" x="55.06" y="0">c</tspan><tspan class="cls-50" x="62.59" y="0">k</tspan><tspan class="cls-54" x="71.95" y="0"> </tspan><tspan class="cls-55" x="76.56" y="0">b</tspan><tspan class="cls-56" x="85.57" y="0">r</tspan><tspan class="cls-57" x="92.5" y="0">o</tspan><tspan class="cls-13" x="100.8" y="0">w</tspan><tspan x="113.1" y="0">n</tspan></text><text class="cls-49" transform="translate(221.08 162.5)"><tspan class="cls-58">f</tspan><tspan class="cls-59" x="5.57" y="0">o</tspan><tspan class="cls-50" x="13.71" y="0">x</tspan><tspan class="cls-53" x="22.86" y="0"> </tspan><tspan class="cls-50" x="27.65" y="0">ju</tspan><tspan class="cls-60" x="42.37" y="0">m</tspan><tspan class="cls-13" x="55.26" y="0">ps </tspan><tspan class="cls-57" x="76.38" y="0">o</tspan><tspan class="cls-61" x="84.69" y="0">v</tspan><tspan class="cls-17" x="93.49" y="0">er</tspan><tspan class="cls-12" x="108.37" y="0"> </tspan><tspan x="113.15" y="0">a</tspan></text><text class="cls-49" transform="translate(221.08 181.49)"><tspan class="cls-13">la</tspan><tspan class="cls-12" x="13.47" y="0">z</tspan><tspan class="cls-13" x="20.38" y="0">y</tspan><tspan class="cls-12" x="29.18" y="0" xml:space="preserve"> d</tspan><tspan class="cls-13" x="43.06" y="0">o</tspan><tspan class="cls-62" x="51.44" y="0">g</tspan><tspan x="59.7" y="0">.</tspan></text><line class="cls-63" y1="231.94" x2="156.81" y2="231.94"/><line class="cls-63" x1="221.79" y1="231.94" x2="368.46" y2="231.94"/><text class="cls-64" transform="translate(2.16 248.85)"><tspan class="cls-65">0</tspan><tspan class="cls-66" x="6.52" y="0">123</tspan><tspan class="cls-67" x="24.92" y="0">45678</tspan><tspan x="57.5" y="0">9</tspan></text><text class="cls-68" transform="translate(2.16 262.85)">a<tspan class="cls-69" x="8.24" y="0">b</tspan><tspan x="15.16" y="0">c</tspan><tspan class="cls-66" x="22.78" y="0">de</tspan><tspan class="cls-67" x="36.69" y="0">fg</tspan><tspan class="cls-66" x="51.14" y="0">hijkl</tspan><tspan class="cls-70" x="83.28" y="0">n</tspan><tspan class="cls-71" x="90.55" y="0">op</tspan><tspan class="cls-72" x="106.02" y="0">q</tspan><tspan class="cls-66" x="115.33" y="0">r</tspan><tspan class="cls-73" x="122.84" y="0">s</tspan></text><text class="cls-68" transform="translate(2.16 276.86)">tu<tspan class="cls-71" x="14.4" y="0">vx</tspan><tspan x="30.31" y="0">y</tspan><tspan class="cls-73" x="37.84" y="0">z</tspan></text><path class="cls-74" d="M67.71,274.81h1.44l-.72-1.47Zm-3,2.36L68,270.48h.84l3.3,6.69H70.3l-.43-.87H67l-.42.87Z"/><path class="cls-74" d="M50.24,274.69h1.4l-.69-1.5Zm-2.9,2.4,3.19-6.83h.81l1,5.94h-2.8l-.41.89Z"/><polygon class="cls-74" points="50.91 270.26 55.15 270.26 55.15 271.75 52.7 271.75 52.7 272.86 54.87 272.86 54.87 274.37 52.7 274.37 52.7 275.63 55.15 275.63 55.15 277.09 50.91 277.09 50.91 270.26"/><path class="cls-74" d="M60.64,272.19a1.63,1.63,0,1,0,1.61,1.62,1.61,1.61,0,0,0-1.61-1.62m0-1.78a3.41,3.41,0,1,1-3.35,3.41,3.38,3.38,0,0,1,3.35-3.41"/><polygon class="cls-74" points="59.16 278.18 58.39 277.83 62.14 269.18 62.91 269.52 59.16 278.18"/><path class="cls-74" d="M68.43,268.78a.37.37,0,0,0-.38.36.38.38,0,0,0,.76,0,.37.37,0,0,0-.38-.36m0-.4a.79.79,0,0,1,.8.77.78.78,0,0,1-.8.76.77.77,0,0,1-.79-.76.78.78,0,0,1,.79-.77"/></g></g></svg>