<svg xmlns="http://www.w3.org/2000/svg" viewBox="0 0 377.89 258.72"><defs><style>.cls-1{fill:#231f20;}</style></defs><title>Asset 9</title><g id="Layer_2" data-name="Layer 2"><g id="Layer_1-2" data-name="Layer 1"><path class="cls-1" d="M2.78,82.06,40.23,1.82h9.52L87.52,82.06H66.44L61.52,71.58H28.67L23.86,82.06ZM36.91,53.82H53.28L45.15,36.16Z"/><path class="cls-1" d="M100,82.06l24.85-53.25h6.32L156.2,82.06h-14l-3.27-7H117.15l-3.2,7Zm22.65-18.74h10.87l-5.4-11.72Z"/><path class="cls-1" d="M2.06,196.42v-6H4.7a1.82,1.82,0,0,1,1.78,1.79,1.74,1.74,0,0,1-.39,1.08A1.75,1.75,0,0,1,5,196.42Zm2.33-3.65a.52.52,0,0,0,.52-.52.52.52,0,0,0-.52-.52H3.63v1Zm.3,2.35a.52.52,0,0,0,.52-.52.54.54,0,0,0-.52-.52H3.63v1Z"/><path class="cls-1" d="M8.31,190.42H9.89v6H8.31Z"/><path class="cls-1" d="M17.6,193.2v.22a3,3,0,1,1-.89-2.13L15.6,192.4a1.44,1.44,0,0,0-1-.4,1.42,1.42,0,1,0,1.16,2.25H14.6V193.2Z"/><path class="cls-1" d="M25.1,194.37a2.13,2.13,0,0,1-2.34,2,2.91,2.91,0,0,1-1.7-.62l1.14-1.16a.82.82,0,0,0,.62.2.67.67,0,0,0,.71-.7v-3.72H25.1Z"/><path class="cls-1" d="M29.78,190.42a3,3,0,1,1-3,3A3,3,0,0,1,29.78,190.42Zm0,1.57a1.43,1.43,0,1,0,1.43,1.43A1.43,1.43,0,0,0,29.78,192Z"/><path class="cls-1" d="M36.05,190.42v2.14H38v-2.14h1.57v6H38v-2.29H36.05v2.29H34.48v-6Z"/><path class="cls-1" d="M45.75,196.42l-2.83-2.84v2.84H41.34v-6H42l2.84,2.83v-2.83H46.4v6Z"/><path class="cls-1" d="M53.63,190.42H55l-2.78,6h-1.4Z"/><path class="cls-1" d="M62.86,196.42l-.93-1.59H61v1.59H59.38v-6h2.53a2.21,2.21,0,0,1,2.21,2.21,2.18,2.18,0,0,1-.71,1.61l1.27,2.18ZM61,193.47h1a.86.86,0,1,0,0-1.72H61Z"/><path class="cls-1" d="M66.06,190.42h3.72v1.31H67.63v1h1.9V194h-1.9v1.1h2.15v1.29H66.06Z"/><path class="cls-1" d="M77.4,193.2v.22a3,3,0,1,1-3-3,3,3,0,0,1,2.11.87l-1.11,1.11a1.46,1.46,0,0,0-1-.4,1.42,1.42,0,1,0,1.16,2.25H74.41V193.2Z"/><path class="cls-1" d="M80.29,194a.78.78,0,0,0,1.56,0v-3.61h1.59v3.63a2.37,2.37,0,1,1-4.74,0v-3.63h1.59Z"/><path class="cls-1" d="M85.23,190.42h1.58v4.42H89v1.58H85.23Z"/><path class="cls-1" d="M90.3,196.42l2.79-6h.72l2.82,6H95.05l-.36-.78H92.23l-.36.78Zm2.55-2.11h1.22L93.46,193Z"/><path class="cls-1" d="M101.5,196.42l-.93-1.59h-1v1.59H98v-6h2.53a2.21,2.21,0,0,1,2.21,2.21,2.15,2.15,0,0,1-.72,1.61l1.28,2.18Zm-1.9-2.95h1a.86.86,0,1,0,0-1.72h-1Z"/><path class="cls-1" d="M226.05,190.33v1.52h-.5a1.7,1.7,0,0,0-.18-.63,1.22,1.22,0,0,0-1-.48c-1,0-1.56.83-1.56,2.3s.55,2.25,1.48,2.25a1.21,1.21,0,0,0,1.14-.7,1.78,1.78,0,0,0,.16-.72h.51a1.73,1.73,0,0,1-1.84,1.93c-1.34,0-2.13-1-2.13-2.76s.84-2.8,2.16-2.8a1.73,1.73,0,0,1,1.31.52v-.43Z"/><path class="cls-1" d="M229.8,192.31a2.16,2.16,0,0,1,.47,1.49,2.14,2.14,0,0,1-.47,1.48,1.53,1.53,0,0,1-2.26,0,2.13,2.13,0,0,1-.47-1.52,2.16,2.16,0,0,1,.47-1.45,1.54,1.54,0,0,1,1.13-.5A1.52,1.52,0,0,1,229.8,192.31Zm-2.11,1.46c0,1,.34,1.54,1,1.54s1-.54,1-1.51-.36-1.53-1-1.53S227.69,192.81,227.69,193.77Z"/><path class="cls-1" d="M232.33,192.48a1,1,0,0,1,.89-.62.77.77,0,0,1,.69.38V193h-.46a1.53,1.53,0,0,0-.07-.45.35.35,0,0,0-.35-.22.66.66,0,0,0-.58.53,4.08,4.08,0,0,0-.08,1.14v1.23H233v.43H231.2v-.43h.57v-2.91h-.57v-.43h1.13Z"/><path class="cls-1" d="M235.88,192.48a1.13,1.13,0,0,1,1-.65c.85,0,1.48.84,1.48,2s-.63,2-1.47,2a1.11,1.11,0,0,1-1-.65v1.72h.59v.43h-1.73v-.43h.56v-4.49h-.56v-.43h1.14Zm0,1.29c0,1,.34,1.54,1,1.54s.95-.56.95-1.51-.35-1.52-1-1.52S235.88,192.84,235.88,193.77Z"/><path class="cls-1" d="M242.1,192.31a2.12,2.12,0,0,1,.48,1.49,2.09,2.09,0,0,1-.48,1.48,1.52,1.52,0,0,1-2.25,0,2.13,2.13,0,0,1-.47-1.52,2.11,2.11,0,0,1,.47-1.45,1.53,1.53,0,0,1,1.13-.5A1.49,1.49,0,0,1,242.1,192.31ZM240,193.77c0,1,.35,1.54,1,1.54s1-.54,1-1.51-.35-1.53-1-1.53S240,192.81,240,193.77Z"/><path class="cls-1" d="M244.62,192.48a1,1,0,0,1,.9-.62.77.77,0,0,1,.69.38V193h-.47a1.64,1.64,0,0,0-.06-.45.35.35,0,0,0-.35-.22.66.66,0,0,0-.59.53,4.54,4.54,0,0,0-.08,1.14v1.23h.66v.43H243.5v-.43h.56v-2.91h-.56v-.43h1.12Z"/><path class="cls-1" d="M247.13,193.08l.1-.8a1.9,1.9,0,0,1,1.22-.45,1.28,1.28,0,0,1,1.08.46c.13.2.17.39.17,1.07v1.89h.55v.43h-1.09v-.56a1.12,1.12,0,0,1-1.06.64,1.08,1.08,0,0,1-1.16-1.09,1.17,1.17,0,0,1,.81-1.12,5,5,0,0,1,1.35-.35v-.15a.86.86,0,0,0-.1-.53.66.66,0,0,0-.59-.24.86.86,0,0,0-.71.29,1.26,1.26,0,0,0-.15.51Zm2,.52c-1.17.23-1.56.48-1.56,1a.64.64,0,0,0,.68.66.86.86,0,0,0,.79-.48,2.75,2.75,0,0,0,.09-.86Z"/><path class="cls-1" d="M253.06,191.91v.44h-.9v1.77a3.16,3.16,0,0,0,.05.83.42.42,0,0,0,.44.32.88.88,0,0,0,.47-.15v.5a1.48,1.48,0,0,1-.62.12.84.84,0,0,1-.84-.46c-.1-.22-.1-.26-.1-1.16v-1.77H251v-.44h.53V190.8h.6v1.11Z"/><path class="cls-1" d="M254.5,193.84V194c0,.84.37,1.35,1,1.35a.85.85,0,0,0,.88-.79h.55a1.34,1.34,0,0,1-1.44,1.24c-1,0-1.57-.75-1.57-1.92s.65-2,1.6-2,1.48.74,1.48,1.85v.16Zm1.84-.43c0-.74-.3-1.13-.84-1.13s-.89.43-1,1.13Z"/><path class="cls-1" d="M263.38,191.57v-.74h-1.79v1.82h1.85v.49h-1.85v2.06h1.84v-.87h.49v1.35H260.3v-.48H261v-4.37h-.67v-.48h3.56v1.22Z"/><path class="cls-1" d="M268.49,195.2h.71v.48h-2v-.48h.67v-4.37h-.67v-.48h1.65a2.69,2.69,0,0,1,1.41.19,1.46,1.46,0,0,1,.75,1.34,1.41,1.41,0,0,1-.83,1.36,2.84,2.84,0,0,1-1.19.16h-.49Zm.46-2.28a1.89,1.89,0,0,0,.92-.13,1.14,1.14,0,0,0-.05-1.86,2.16,2.16,0,0,0-.89-.09h-.44v2.08Z"/><path class="cls-1" d="M272.91,192.48a1,1,0,0,1,.9-.62.79.79,0,0,1,.69.38V193H274a1.64,1.64,0,0,0-.06-.45.36.36,0,0,0-.35-.22.66.66,0,0,0-.59.53A4.54,4.54,0,0,0,273,194v1.23h.66v.43h-1.82v-.43h.56v-2.91h-.56v-.43h1.12Z"/><path class="cls-1" d="M278,192.31a2.16,2.16,0,0,1,.47,1.49,2.14,2.14,0,0,1-.47,1.48,1.53,1.53,0,0,1-2.26,0,2.13,2.13,0,0,1-.47-1.52,2.16,2.16,0,0,1,.47-1.45,1.54,1.54,0,0,1,1.13-.5A1.52,1.52,0,0,1,278,192.31Zm-2.11,1.46c0,1,.34,1.54,1,1.54s1-.54,1-1.51-.35-1.53-1-1.53S275.93,192.81,275.93,193.77Z"/><path class="cls-1" d="M283.74,190.35h.46l-2.55,6.72h-.45Z"/><path class="cls-1" d="M289,190.35c1,0,1.25,0,1.57.18a1.31,1.31,0,0,1,.75,1.24,1.35,1.35,0,0,1-1.11,1.4l1,2h.6v.48h-1.1l-1.11-2.44h-1v2h.63v.48h-1.91v-.48H288v-4.37h-.66v-.48Zm.25,2.4c.61,0,.78,0,1-.15a.89.89,0,0,0,.42-.82.86.86,0,0,0-.51-.85,2.58,2.58,0,0,0-.95-.09h-.6v1.91Z"/><path class="cls-1" d="M293.14,193.84V194c0,.84.37,1.35,1,1.35a.85.85,0,0,0,.88-.79h.55a1.35,1.35,0,0,1-1.44,1.24c-1,0-1.57-.75-1.57-1.92s.65-2,1.6-2,1.48.74,1.48,1.85v.16Zm1.83-.43c0-.74-.29-1.13-.83-1.13s-.89.43-1,1.13Z"/><path class="cls-1" d="M299.91,192.32h-.85a1,1,0,0,1,.4.83,1,1,0,0,1-.3.74,2,2,0,0,1-.88.44c-.65.2-.8.28-.8.44s.13.21.46.24c1.35.11,1.83.4,1.83,1.11s-.58,1.2-1.63,1.2-1.69-.4-1.69-1.1c0-.49.29-.78.91-.94-.38-.1-.51-.21-.51-.42s.28-.48.83-.61a1.09,1.09,0,0,1-.88-1.11,1.21,1.21,0,0,1,.36-.87,1.55,1.55,0,0,1,1.17-.35h1.58ZM297,196.17c0,.45.43.7,1.18.7s1.1-.26,1.1-.71-.4-.68-1.11-.68S297,195.76,297,196.17Zm.41-3.08a.73.73,0,0,0,.76.79.74.74,0,0,0,.75-.79.71.71,0,0,0-.74-.77A.74.74,0,0,0,297.38,193.09Z"/><path class="cls-1" d="M301.78,193.94c0,.75,0,.78.07.94a.64.64,0,0,0,.62.37.88.88,0,0,0,.74-.4,1.56,1.56,0,0,0,.17-.93v-1.58h-.57v-.43H304v3.34h.57v.43h-1.12v-.63a1.14,1.14,0,0,1-1.09.71,1.09,1.09,0,0,1-1.08-.72,2.85,2.85,0,0,1-.08-1v-1.66h-.57v-.43h1.17Z"/><path class="cls-1" d="M306.56,195.25h.58v.43h-1.76v-.43h.56v-4.48h-.56v-.44h1.18Z"/><path class="cls-1" d="M308.16,193.08l.1-.8a1.9,1.9,0,0,1,1.22-.45,1.28,1.28,0,0,1,1.08.46c.14.2.17.39.17,1.07v1.89h.56v.43h-1.1v-.56a1.12,1.12,0,0,1-1.06.64,1.08,1.08,0,0,1-1.16-1.09,1.19,1.19,0,0,1,.81-1.12,5,5,0,0,1,1.35-.35v-.15a.86.86,0,0,0-.1-.53.66.66,0,0,0-.59-.24.86.86,0,0,0-.71.29,1.26,1.26,0,0,0-.15.51Zm2,.52c-1.18.23-1.56.48-1.56,1a.63.63,0,0,0,.67.66.86.86,0,0,0,.79-.48,2.67,2.67,0,0,0,.1-.86Z"/><path class="cls-1" d="M313.22,192.48a1,1,0,0,1,.9-.62.77.77,0,0,1,.69.38V193h-.47a1.64,1.64,0,0,0-.06-.45.36.36,0,0,0-.35-.22.66.66,0,0,0-.59.53,4.54,4.54,0,0,0-.08,1.14v1.23h.66v.43H312.1v-.43h.56v-2.91h-.56v-.43h1.12Z"/><path class="cls-1" d="M265.73,0l23.55,74.9h10.37v7.32H270.37V74.9h9.15l-5.74-18.3H245.36L239.5,74.9h8.91v7.32H221.94V74.9h9.51L256.71,0Zm.61,31.6c-2.07-7.08-3.41-12-6.1-21.6-2.44,8.42-2.44,8.54-3.17,10.86-1.1,3.54-2.19,7.08-3.41,10.74l-6,17.56h24Z"/><path class="cls-1" d="M318,42.58l1.59-12.2a28.19,28.19,0,0,1,18.54-7c7.32,0,13.42,2.56,16.47,7.08,2.07,3,2.56,5.85,2.56,16.35V75.64h8.54v6.58H348.94V73.68c-3.18,6.35-8.91,9.76-16.23,9.76-10.37,0-17.69-7-17.69-16.71,0-7.69,4.39-13.66,12.45-17.08,5-2.19,7.56-2.8,20.49-5.37V42.09c0-4.64-.37-6.71-1.46-8.18-1.59-2.31-4.76-3.53-9-3.53-5,0-9,1.7-10.86,4.39-1,1.58-1.22,2.44-2.19,7.81Zm30.13,7.8c-17.93,3.54-23.79,7.32-23.79,15.5,0,6.1,4.15,10.12,10.25,10.12a13.09,13.09,0,0,0,12.08-7.44c1-2.2,1.46-6.83,1.46-13.05Z"/><path class="cls-1" d="M.81,113.33H8.5v2.55H5.91v7.21H3.35v-7.21H.81Z"/><path class="cls-1" d="M12.82,113.34v3.47h3.1v-3.47h2.56v9.75H15.92v-3.72h-3.1v3.72H10.26v-9.75Z"/><path class="cls-1" d="M20.44,113.34H26.5v2.12H23v1.59h3.1v2.15H23V121h3.5v2.09H20.44Z"/><path class="cls-1" d="M42,123.09l-.67-.66a4.76,4.76,0,0,1-2.45.66,4.88,4.88,0,1,1,4.88-4.87,4.8,4.8,0,0,1-.65,2.41l2.47,2.46Zm-3.12-2.55a2.07,2.07,0,0,0,.5-.05l-1.2-1.2L40,117.5l1.17,1.17a3.13,3.13,0,0,0,0-.44,2.32,2.32,0,1,0-2.32,2.31Z"/><path class="cls-1" d="M48.6,119.2a1.28,1.28,0,1,0,2.55,0v-5.86h2.57v5.9a3.85,3.85,0,1,1-7.69,0v-5.9H48.6Z"/><path class="cls-1" d="M55.66,113.34h2.56v9.75H55.66Z"/><path class="cls-1" d="M66.46,116.56a2.27,2.27,0,0,0-1.64-.63,2.29,2.29,0,1,0,1.64,3.92l1.82,1.8a4.87,4.87,0,1,1-3.46-8.31,4.83,4.83,0,0,1,3.44,1.42Z"/><path class="cls-1" d="M79.66,113.34l-4.45,4.46,5.28,5.29H76.88l-3.48-3.46-.61.63v2.83H70.23v-9.75h2.56v3.29l3.28-3.29Z"/><path class="cls-1" d="M87.24,123.09v-9.75h4.3a2.94,2.94,0,0,1,2.88,2.9A2.82,2.82,0,0,1,93.8,118a3,3,0,0,1,1.11,2.24,2.91,2.91,0,0,1-2.86,2.86ZM91,117.15a.85.85,0,1,0,0-1.69H89.8v1.69Zm.48,3.83a.84.84,0,0,0,.85-.84.86.86,0,0,0-.85-.85H89.8V121Z"/><path class="cls-1" d="M102.09,123.09l-1.5-2.59H99v2.59H96.44v-9.75h4.11a3.57,3.57,0,0,1,2.43,6.21l2.06,3.54ZM99,118.29h1.59a1.4,1.4,0,1,0,0-2.79H99Z"/><path class="cls-1" d="M110.71,113.34a4.88,4.88,0,1,1-4.86,4.89A4.9,4.9,0,0,1,110.71,113.34Zm0,2.55a2.33,2.33,0,1,0,2.33,2.33A2.32,2.32,0,0,0,110.71,115.89Z"/><path class="cls-1" d="M124,119.62l-1.61,3.47H120.5l-4.5-9.75h2.81l2.76,6,1.86-4.06h1.08l1.86,4.06,2.76-6h2.81l-4.51,9.75h-1.84Z"/><path class="cls-1" d="M140.22,123.09l-4.6-4.61v4.61h-2.56v-9.75h1l4.61,4.6v-4.6h2.57v9.75Z"/><path class="cls-1" d="M1,130.34H7.13v2.11H3.58V134H6.71v2.17H3.58v3.88H1Z"/><path class="cls-1" d="M13.63,130.34a4.88,4.88,0,1,1-4.86,4.89A4.9,4.9,0,0,1,13.63,130.34Zm0,2.55A2.33,2.33,0,1,0,16,135.22,2.32,2.32,0,0,0,13.63,132.89Z"/><path class="cls-1" d="M29.37,130.34,26.12,135l3.58,5.08H26.58l-2-2.86-2,2.86H19.42L23,135l-3.25-4.67h3.12l1.7,2.43,1.69-2.43Z"/><path class="cls-1" d="M42.49,136.77c0,2.25-1.91,3.32-3.81,3.32a4.66,4.66,0,0,1-2.77-1c.31-.31.94-.94,1.86-1.89a1.33,1.33,0,0,0,1,.33,1.08,1.08,0,0,0,1.16-1.13v-6h2.56Z"/><path class="cls-1" d="M47,136.21a1.28,1.28,0,0,0,2.55,0v-5.87h2.58v5.91a3.85,3.85,0,0,1-7.7,0v-5.91H47Z"/><path class="cls-1" d="M59.22,134l4-3.62h1.15v9.75H61.77v-5l-2.55,2.33-2.56-2.32v5H54.09v-9.75h1.15Z"/><path class="cls-1" d="M66.31,130.34h4.1a3.59,3.59,0,0,1,.06,7.17h-1.6v2.58H66.31Zm2.56,5h1.58a1.39,1.39,0,0,0,1.41-1.39,1.41,1.41,0,0,0-1.41-1.41H68.87Z"/><path class="cls-1" d="M79,133.33a.75.75,0,0,0-.74-.74.74.74,0,0,0-.73.74.72.72,0,0,0,.73.73,3,3,0,0,1,2.35,1.16,3,3,0,1,1-5.36,1.84H77.5a.73.73,0,0,0,.73.75.74.74,0,0,0,.74-.73.75.75,0,0,0-.74-.74,3,3,0,1,1,3-3Z"/><path class="cls-1" d="M93.57,130.34a4.88,4.88,0,1,1-4.87,4.89A4.89,4.89,0,0,1,93.57,130.34Zm0,2.55a2.33,2.33,0,1,0,2.32,2.33A2.32,2.32,0,0,0,93.57,132.89Z"/><path class="cls-1" d="M109.1,130.33l-4.54,9.76h-1.17l-4.55-9.76h2.58l2.56,5.55,2.57-5.55Z"/><path class="cls-1" d="M110.22,130.34h6.06v2.12h-3.5v1.59h3.09v2.16h-3.09V138h3.5v2.09h-6.06Z"/><path class="cls-1" d="M123.77,140.09l-1.51-2.58h-1.59v2.58h-2.56v-9.75h4.11a3.58,3.58,0,0,1,2.43,6.22l2.07,3.53Zm-3.1-4.79h1.59a1.38,1.38,0,0,0,1.4-1.39,1.4,1.4,0,0,0-1.4-1.41h-1.59Z"/><path class="cls-1" d="M133.18,140.09l4.55-9.75h1.15l4.59,9.75h-2.56l-.6-1.27h-4l-.58,1.27Zm4.14-3.43h2l-1-2.14Z"/><path class="cls-1" d="M1,147.35H3.58v7.17H7.09v2.58H1Z"/><path class="cls-1" d="M8.27,157.1l4.55-9.75H14l4.59,9.75H16l-.6-1.28h-4l-.59,1.28Zm4.15-3.43h2l-1-2.15Z"/><path class="cls-1" d="M23.64,154.54h3.77v2.56h-8.2l4.14-7.18h-3.9v-2.57h8.34Z"/><path class="cls-1" d="M34.34,153.51v3.59H31.8v-3.59l-3.56-6.16h3l1.87,3.25L35,147.35H37.9Z"/><path class="cls-1" d="M44.86,147.35h3.61a4.88,4.88,0,1,1,0,9.75H44.86Zm2.54,7.2h1.08a2.31,2.31,0,1,0,0-4.61H47.4Z"/><path class="cls-1" d="M59.6,147.35a4.88,4.88,0,1,1-4.86,4.89A4.89,4.89,0,0,1,59.6,147.35Zm0,2.55a2.33,2.33,0,1,0,2.32,2.32A2.32,2.32,0,0,0,59.6,149.9Z"/><path class="cls-1" d="M75.65,151.86v.36a4.88,4.88,0,1,1-1.44-3.45l-1.81,1.79a2.32,2.32,0,1,0,.26,3H70.78v-1.72Z"/><path class="cls-1" d="M77.63,155a1,1,0,0,1,1,1,1,1,0,1,1-2.06,0A1,1,0,0,1,77.63,155Z"/><path class="cls-1" d="M225.17,226.3c0,1.91-.72,3-2,3s-2-1.1-2-3,.73-3,2-3S225.17,224.4,225.17,226.3Zm-3.23,0c0,1.67.42,2.51,1.27,2.51s1.25-.85,1.25-2.47-.42-2.48-1.25-2.48S221.94,224.65,221.94,226.27Z"/><path class="cls-1" d="M228.6,223.32v5.4h.82v.52h-2.35v-.52h.85v-4h-1v-.4c.76,0,1.08-.31,1.16-1Z"/><path class="cls-1" d="M234.32,228.64v-.75h.53v1.35h-3.49v-.53a19.6,19.6,0,0,0,1.67-2,3.7,3.7,0,0,0,.94-2,.88.88,0,0,0-.95-.88c-.64,0-1,.44-1.09,1.18h-.52a1.63,1.63,0,0,1,1.7-1.75,1.42,1.42,0,0,1,1.56,1.4,3.67,3.67,0,0,1-1,2.11,17.78,17.78,0,0,1-1.56,1.83Z"/><path class="cls-1" d="M237.6,225.8h.21a1,1,0,0,0,1.12-1,.87.87,0,0,0-.92-.94c-.6,0-1,.37-1,1h-.56a1.54,1.54,0,0,1,1.64-1.59,1.41,1.41,0,0,1,1.54,1.44,1.32,1.32,0,0,1-.85,1.31,1.41,1.41,0,0,1,1.1,1.45,1.76,1.76,0,0,1-1.87,1.81,1.58,1.58,0,0,1-1.73-1.59v-.13h.57a1.07,1.07,0,0,0,1.14,1.17,1.15,1.15,0,0,0,1.18-1.25c0-.73-.46-1.15-1.27-1.15h-.27Z"/><path class="cls-1" d="M244.86,227.09v.53H244v1.1h.56v.52h-1.84v-.52h.62v-1.1H241v-.52l2.36-3.78H244v3.77Zm-1.53-1.44c0-.73,0-1.26,0-1.59-.32.56-.54,1-.67,1.2l-.23.39-.85,1.44h1.71Z"/><path class="cls-1" d="M249.49,223.39l-.1.59h-2.11l-.25,1.56a1.52,1.52,0,0,1,1-.35,1.75,1.75,0,0,1,1.72,2,1.92,1.92,0,0,1-1.87,2.16,1.45,1.45,0,0,1-1.59-1.5h.55a1,1,0,0,0,1,1c.72,0,1.22-.64,1.22-1.58s-.45-1.46-1.15-1.46a1.31,1.31,0,0,0-1.1.65l-.46-.06.46-2.93Z"/><path class="cls-1" d="M254.1,223.17a11.53,11.53,0,0,0-1.57,2.07,1.51,1.51,0,0,1,.46-.07c1,0,1.65.81,1.65,2s-.72,2.14-1.74,2.14a1.85,1.85,0,0,1-1.71-2.06,4.44,4.44,0,0,1,1-2.52,11.87,11.87,0,0,1,1.21-1.56Zm-2.22,4c0,1,.38,1.58,1,1.58s1-.59,1-1.57-.39-1.54-1-1.54S251.88,226.25,251.88,227.2Z"/><path class="cls-1" d="M259.78,223.39v.5l-2.64,5.35h-.71l2.68-5.22h-2.34v.75h-.54v-1.38Z"/><path class="cls-1" d="M261.26,224.88a1.62,1.62,0,0,1,3.24,0,1.31,1.31,0,0,1-.73,1.27,1.39,1.39,0,0,1,.85,1.39,1.75,1.75,0,1,1-3.5,0,1.38,1.38,0,0,1,.86-1.39A1.31,1.31,0,0,1,261.26,224.88Zm.56,2.71c0,.75.4,1.2,1.06,1.2a1.18,1.18,0,1,0-1.06-1.2Zm.15-2.72c0,.69.32,1.07.91,1.07s.91-.38.91-1.05-.34-1.06-.91-1.06S262,224.21,262,224.87Z"/><path class="cls-1" d="M266.68,229.45a11.6,11.6,0,0,0,1.58-2.07,1.6,1.6,0,0,1-.47.06c-1,0-1.65-.8-1.65-2s.72-2.15,1.74-2.15a1.85,1.85,0,0,1,1.71,2.07c0,1.08-.72,2.43-2.19,4.08Zm.15-4c0,1,.38,1.54,1,1.54s1.05-.58,1.05-1.53-.38-1.57-1.05-1.57S266.83,224.42,266.83,225.4Z"/><path class="cls-1" d="M221.44,240.31l.12-.9a2.09,2.09,0,0,1,1.37-.51,1.42,1.42,0,0,1,1.21.52c.15.23.19.44.19,1.21v2.12H225v.49h-1.23v-.63a1.28,1.28,0,0,1-1.2.72,1.22,1.22,0,0,1-1.31-1.23,1.34,1.34,0,0,1,.92-1.26,6.31,6.31,0,0,1,1.52-.4v-.16a1,1,0,0,0-.11-.6.76.76,0,0,0-.67-.27.94.94,0,0,0-.8.33,1.44,1.44,0,0,0-.16.57Zm2.22.58c-1.32.26-1.75.54-1.75,1.14a.71.71,0,0,0,.76.75,1,1,0,0,0,.89-.55,3,3,0,0,0,.1-1Z"/><path class="cls-1" d="M227.07,237.22v2.42a1.25,1.25,0,0,1,1.17-.74c.94,0,1.65.95,1.65,2.22s-.71,2.21-1.65,2.21a1.25,1.25,0,0,1-1.17-.74l0,.65h-.63V237.7h-.64v-.48Zm0,3.87c0,1.1.38,1.73,1.08,1.73s1.07-.63,1.07-1.7-.4-1.71-1.07-1.71S227.07,240,227.07,241.09Z"/><path class="cls-1" d="M234.19,239v1.42h-.53c0-.64-.36-1-.87-1-.67,0-1.09.66-1.09,1.72s.4,1.67,1.05,1.67.82-.34.91-1h.6a1.48,1.48,0,0,1-1.53,1.5c-1,0-1.72-.86-1.72-2.16s.72-2.27,1.72-2.27a1.08,1.08,0,0,1,.93.47V239Z"/><path class="cls-1" d="M238.83,237.22v5.53h.64v.49h-1.29v-.65a1.26,1.26,0,0,1-1.16.74c-1,0-1.67-.94-1.67-2.21s.72-2.22,1.67-2.22a1.26,1.26,0,0,1,1.16.74V237.7h-.64v-.48Zm-2.8,3.87c0,1.11.39,1.73,1.08,1.73s1.07-.63,1.07-1.7-.39-1.71-1.07-1.71S236,240,236,241.09Z"/><path class="cls-1" d="M241.15,241.16v.14c0,.94.41,1.52,1.1,1.52a1,1,0,0,0,1-.88h.62a1.52,1.52,0,0,1-1.62,1.39c-1.08,0-1.77-.85-1.77-2.16s.74-2.27,1.81-2.27,1.66.84,1.66,2.09v.17Zm2.06-.48c0-.83-.33-1.27-.93-1.27s-1,.48-1.1,1.27Z"/><path class="cls-1" d="M247.32,239v.51h-1v3.25h.79v.49H245v-.49h.64V239.5H245V239h.6v-.42a1.62,1.62,0,0,1,.21-1,1.15,1.15,0,0,1,.94-.39,1.83,1.83,0,0,1,.73.13v.6a1.16,1.16,0,0,0-.67-.22.5.5,0,0,0-.5.36,2.87,2.87,0,0,0,0,.62V239Z"/><path class="cls-1" d="M252,239.45h-.95a1.15,1.15,0,0,1,.44.94,1.17,1.17,0,0,1-.33.83,2.18,2.18,0,0,1-1,.49c-.73.23-.9.32-.9.51s.14.23.51.27c1.53.11,2.07.44,2.07,1.25s-.66,1.35-1.84,1.35-1.9-.46-1.9-1.25c0-.54.33-.88,1-1.05-.42-.12-.57-.24-.57-.48s.31-.54.93-.68a1.23,1.23,0,0,1-1-1.25,1.35,1.35,0,0,1,.41-1,1.69,1.69,0,0,1,1.31-.4H252Zm-3.31,4.34c0,.5.49.79,1.33.79s1.24-.3,1.24-.8-.45-.76-1.25-.76S248.7,243.32,248.7,243.79Zm.46-3.47a.83.83,0,0,0,.86.9.84.84,0,0,0,.85-.9.81.81,0,0,0-.84-.87A.83.83,0,0,0,249.16,240.32Z"/><path class="cls-1" d="M254.19,239.6a1.31,1.31,0,0,1,1.19-.7,1.28,1.28,0,0,1,1.13.56c.16.28.17.34.17,1.38v1.91h.63v.49h-1.92v-.49H256v-2a2.51,2.51,0,0,0-.06-.79.72.72,0,0,0-.73-.44,1,1,0,0,0-.87.55,1.9,1.9,0,0,0-.15.95v1.77h.61v.49h-1.92v-.49h.64V237.7h-.64v-.48h1.31Z"/><path class="cls-1" d="M259.54,242.75h.65v.49h-2v-.49h.64v-3.27h-.64V239h1.32Zm0-5.42v.75h-.83v-.75Z"/><path class="cls-1" d="M262.26,242.75a5.07,5.07,0,0,1,0,1.07,1.44,1.44,0,0,1-1.57,1.23h-.11v-.36a1,1,0,0,0,.85-.41c.18-.33.19-.39.19-1.52v-3.27h-.64V239h1.32Zm0-5.42v.75h-.84v-.75Z"/><path class="cls-1" d="M265.11,241l1.56-1.54h-.59V239H268v.49h-.59l-1.1,1.1,1.35,2.17h.64v.49h-1.94v-.49h.5l-1-1.77-.68.69v1.08h.58v.49H263.8v-.49h.64V237.7h-.64v-.48h1.31Z"/><path class="cls-1" d="M270.4,242.75h.65v.49h-2v-.49h.64V237.7h-.64v-.48h1.33Z"/><path class="cls-1" d="M273.24,239.62a1.19,1.19,0,0,1,1.15-.72,1.07,1.07,0,0,1,1.11.74,1.29,1.29,0,0,1,2.31,0,3.42,3.42,0,0,1,.07,1.14v2h.64v.49h-1.88v-.49h.57v-2c0-.71,0-.75-.09-.91a.68.68,0,0,0-.65-.36.83.83,0,0,0-.79.5,2,2,0,0,0-.1.88v1.89h.56v.49h-1.8v-.49h.57v-1.88c0-.83,0-.86-.09-1a.63.63,0,0,0-.64-.37.82.82,0,0,0-.78.5,2.12,2.12,0,0,0-.12.91v1.86h.57v.49H272v-.49h.64v-3.27H272V239h1.27Z"/><path class="cls-1" d="M280.72,239.68a1.25,1.25,0,0,1,1.2-.78,1.14,1.14,0,0,1,1.12.7c.09.22.1.3.1,1.24v1.91h.64v.49h-1.89v-.49h.57v-2a2.29,2.29,0,0,0-.08-.86.63.63,0,0,0-.63-.37,1,1,0,0,0-.81.45,1.72,1.72,0,0,0-.19,1v1.78h.57v.49h-1.88v-.49h.63v-3.27h-.63V239h1.28Z"/><path class="cls-1" d="M287.82,239.44a2.87,2.87,0,0,1,0,3.35,1.71,1.71,0,0,1-2.53,0,2.87,2.87,0,0,1,0-3.35,1.71,1.71,0,0,1,2.53,0Zm-2.37,1.65c0,1.13.38,1.74,1.1,1.74s1.11-.62,1.11-1.71-.39-1.72-1.11-1.72S285.45,240,285.45,241.09Z"/><path class="cls-1" d="M290.69,239.64a1.25,1.25,0,0,1,1.16-.74c.95,0,1.66.95,1.66,2.22s-.71,2.21-1.65,2.21a1.25,1.25,0,0,1-1.17-.74v1.94h.66V245h-2v-.48H290v-5.05h-.64V239h1.29Zm0,1.45c0,1.11.38,1.73,1.08,1.73s1.07-.63,1.07-1.7-.4-1.71-1.08-1.71S290.69,240,290.69,241.09Z"/><path class="cls-1" d="M298.73,239v.49h-.64v5.05h.64V245h-2v-.48h.67v-1.94a1.27,1.27,0,0,1-1.17.74c-.95,0-1.66-.94-1.66-2.21s.71-2.22,1.66-2.22a1.27,1.27,0,0,1,1.17.74V239Zm-3.44,2.1c0,1.11.39,1.73,1.08,1.73s1.08-.63,1.08-1.7-.4-1.71-1.08-1.71S295.29,240,295.29,241.09Z"/><path class="cls-1" d="M301,239.64a1.1,1.1,0,0,1,1-.7.86.86,0,0,1,.78.43v.87h-.53a1.51,1.51,0,0,0-.07-.5.39.39,0,0,0-.39-.25.74.74,0,0,0-.66.59,5.06,5.06,0,0,0-.09,1.29v1.38h.74v.49h-2.06v-.49h.64v-3.27h-.64V239H301Z"/><path class="cls-1" d="M306.05,240.35a.89.89,0,0,0-1-1,.65.65,0,0,0-.73.61c0,.29.18.45.73.68a4.74,4.74,0,0,1,1.12.54,1,1,0,0,1,.44.85,1.39,1.39,0,0,1-2.53.66l0,.53h-.43v-1.44h.44a1.12,1.12,0,0,0,1.11,1,.69.69,0,0,0,.78-.66c0-.33-.16-.47-.77-.72a4.18,4.18,0,0,1-1.16-.59,1,1,0,0,1-.36-.79,1.23,1.23,0,0,1,1.31-1.19,1.31,1.31,0,0,1,1,.47l.06-.4h.42v1.39Z"/><path class="cls-1" d="M309.9,239v.5h-1v2a3.22,3.22,0,0,0,.06.93.47.47,0,0,0,.49.36,1,1,0,0,0,.53-.16v.56a1.67,1.67,0,0,1-.69.13,1,1,0,0,1-.95-.51c-.11-.25-.11-.3-.11-1.31v-2h-.61V239h.61v-1.25h.67V239Z"/><path class="cls-1" d="M312.13,241.28c0,.84,0,.88.08,1.06a.74.74,0,0,0,.71.41,1,1,0,0,0,.83-.45,1.7,1.7,0,0,0,.19-1v-1.78h-.65V239h1.33v3.76h.64v.49H314v-.71a1.32,1.32,0,0,1-1.23.8,1.23,1.23,0,0,1-1.22-.82,3.05,3.05,0,0,1-.09-1.16v-1.87h-.64V239h1.31Z"/><path class="cls-1" d="M317.87,239v.49h-.54l.48,1.49c.22.7.23.72.47,1.57.14-.47.31-1,.5-1.57l.5-1.49h-.55V239h1.73v.49h-.63l-1.32,3.8h-.58l-1.32-3.8H316V239Z"/><path class="cls-1" d="M322.54,239l.8,1.5.64-1h-.43V239h1.79v.49h-.74l-1,1.45,1.14,1.82h.82v.49h-1.36l-1-1.83-.84,1.36h.52v.47H321v-.49h.7l1.2-1.78-.91-1.49h-.7V239Z"/><path class="cls-1" d="M328,239v.49h-.54l.47,1.45c0,.13.08.26.12.38s.08.27.12.39l.13.44c0,.07.08.25.1.34l.24-.78.24-.77.5-1.45h-.54V239h1.72v.49h-.64l-1.31,3.89a3.16,3.16,0,0,1-.6,1.27,1.53,1.53,0,0,1-1.16.43h-.2v-.49c.78,0,1-.21,1.31-1l.08-.23-1.28-3.87h-.68V239Z"/><path class="cls-1" d="M333.82,242.74V242h.52v1.23h-3.21v-.37l2.26-3.37h-1.66v.61h-.51V239h3v.38L332,242.74Z"/><path class="cls-1" d="M335.42,240.31l.11-.9a2.11,2.11,0,0,1,1.37-.51,1.45,1.45,0,0,1,1.22.52c.15.23.18.44.18,1.21v2.12h.64v.49H337.7v-.63a1.27,1.27,0,0,1-1.2.72,1.22,1.22,0,0,1-1.3-1.23,1.33,1.33,0,0,1,.92-1.26,6.32,6.32,0,0,1,1.51-.4v-.16a1,1,0,0,0-.11-.6.75.75,0,0,0-.66-.27,1,1,0,0,0-.81.33,1.44,1.44,0,0,0-.16.57Zm2.22.58c-1.32.26-1.76.54-1.76,1.14a.72.72,0,0,0,.76.75,1,1,0,0,0,.89-.55,2.87,2.87,0,0,0,.11-1Z"/><path class="cls-1" d="M343,239.44a2.87,2.87,0,0,1,0,3.35,1.71,1.71,0,0,1-2.53,0,2.87,2.87,0,0,1,0-3.35,1.71,1.71,0,0,1,2.53,0Zm-2.37,1.65c0,1.13.38,1.74,1.1,1.74s1.11-.62,1.11-1.71-.39-1.72-1.11-1.72S340.62,240,340.62,241.09Z"/><path class="cls-1" d="M344.79,240.31l.12-.9a2.09,2.09,0,0,1,1.37-.51,1.42,1.42,0,0,1,1.21.52c.16.23.19.44.19,1.21v2.12h.63v.49h-1.23v-.63a1.27,1.27,0,0,1-1.2.72,1.22,1.22,0,0,1-1.3-1.23,1.33,1.33,0,0,1,.92-1.26,6,6,0,0,1,1.51-.4v-.16a1,1,0,0,0-.11-.6.76.76,0,0,0-.67-.27,1,1,0,0,0-.8.33,1.44,1.44,0,0,0-.16.57Zm2.23.58c-1.33.26-1.76.54-1.76,1.14a.72.72,0,0,0,.76.75,1,1,0,0,0,.89-.55,2.87,2.87,0,0,0,.11-1Z"/><path class="cls-1" d="M224.24,251.18,226,256.7h.76v.54h-2.16v-.54h.68l-.43-1.35h-2.09l-.44,1.35H223v.54h-2v-.54h.7l1.86-5.52Zm0,2.33c-.16-.52-.26-.88-.46-1.59-.17.62-.17.63-.23.8s-.16.52-.25.79l-.44,1.3h1.77Z"/><path class="cls-1" d="M229.1,251.24a4.06,4.06,0,0,1,1.73.17,1.37,1.37,0,0,1,.82,1.32,1.28,1.28,0,0,1-1,1.3,1.43,1.43,0,0,1,1.24,1.49A1.68,1.68,0,0,1,231,257a3.75,3.75,0,0,1-1.71.21h-1.8v-.54h.74v-4.92h-.74v-.54Zm.29,2.58a2,2,0,0,0,1.06-.16.92.92,0,0,0,.46-.86.89.89,0,0,0-.56-.91,3,3,0,0,0-1-.09H229v2Zm0,2.88a2.41,2.41,0,0,0,1.26-.19,1,1,0,0,0,.5-1,1.08,1.08,0,0,0-.58-1,2.6,2.6,0,0,0-1.21-.14H229v2.33Z"/><path class="cls-1" d="M237.5,251.22v1.71h-.56a1.82,1.82,0,0,0-.21-.71,1.34,1.34,0,0,0-1.15-.54c-1.12,0-1.76.94-1.76,2.59s.62,2.53,1.67,2.53a1.36,1.36,0,0,0,1.28-.79,2.16,2.16,0,0,0,.18-.81h.57a2,2,0,0,1-2.07,2.17c-1.51,0-2.4-1.15-2.4-3.1s.95-3.16,2.43-3.16a1.94,1.94,0,0,1,1.48.59v-.48Z"/><path class="cls-1" d="M240.43,251.24a3.14,3.14,0,0,1,1.95.37,3,3,0,0,1,1.21,2.63,2.89,2.89,0,0,1-1.44,2.74,3.44,3.44,0,0,1-1.72.26h-1.84v-.54h.74v-4.92h-.74v-.54Zm.1,5.46a2.28,2.28,0,0,0,1.35-.25,2.45,2.45,0,0,0,1-2.21,2.34,2.34,0,0,0-1.07-2.26,2.43,2.43,0,0,0-1.25-.19H240v4.91Z"/><path class="cls-1" d="M248.11,252.62v-.84h-2v2.05h2.08v.55H246.1v2.32h2.07v-1h.55v1.52h-4.07v-.54h.75v-4.92h-.75v-.54h4v1.38Z"/><path class="cls-1" d="M253.16,252.62v-.84h-2v2.05h2.08v.55h-2.08v2.32H252v.54H249.7v-.54h.75v-4.92h-.75v-.54h4v1.38Z"/><path class="cls-1" d="M259.06,251.22v1.71h-.56a1.25,1.25,0,0,0-1.37-1.26c-1.12,0-1.75.94-1.75,2.63s.64,2.51,1.78,2.51a1.64,1.64,0,0,0,1.29-.51V255h-.74v-.54h2.06V255h-.64v1.47a2.46,2.46,0,0,1-2,.86c-1.59,0-2.52-1.15-2.52-3.13s.94-3.13,2.43-3.13a1.91,1.91,0,0,1,1.46.58v-.47Z"/><path class="cls-1" d="M264.61,253.81v-2h-.75v-.54H266v.54h-.75v4.92H266v.54h-2.18v-.54h.75v-2.35H262v2.35h.74v.54h-2.19v-.54h.75v-4.92h-.75v-.54h2.19v.54H262v2Z"/><path class="cls-1" d="M269.23,251.24v.54h-.75v4.92h.75v.54H267v-.54h.74v-4.92H267v-.54Z"/><path class="cls-1" d="M272.58,251.24v.54h-.75v4a3.07,3.07,0,0,1-.22,1.54,1.47,1.47,0,0,1-1.37.63H270v-.54c.53,0,.81-.1,1-.35s.14-.4.14-1.28v-4h-.75v-.54Z"/><path class="cls-1" d="M275.66,251.24v.54h-.72v2.34l2.3-2.34h-.63v-.54h2.06v.54H278l-1.86,1.93,2,3h.74v.54h-2.22v-.54h.62l-1.61-2.57-.71.73v1.84h.72v.54h-2.14v-.54h.75v-4.92h-.75v-.54Z"/><path class="cls-1" d="M283.23,256.7v-1h.55v1.52h-4.11v-.54h.75v-4.92h-.75v-.54h2.2v.54h-.75v4.92Z"/><path class="cls-1" d="M286.41,251.24l.76,2.42c.25.84.44,1.48.74,2.51l.17-.54c.08-.24.15-.48.23-.72l.42-1.26.85-2.41h1.77v.54h-.74v4.92h.74v.54h-2.18v-.54h.74v-2.4c0-.56,0-1.39,0-2.48l-.88,2.61-.89,2.5h-.69l-.78-2.51-.79-2.58v4.86h.74v.54h-2v-.54h.75v-4.92h-.75v-.54Z"/><path class="cls-1" d="M293.92,251.24l1.31,2.36.67,1.24.65,1.25v-1.15c0-.91,0-.92,0-1.1v-2.06h-.75v-.54h2.05v.54h-.74v5.46h-.61l-1.42-2.54L293.61,252c0,.5,0,2.1,0,2.45v2.27h.74v.54h-2.06v-.54h.75v-4.92h-.75v-.54Z"/><path class="cls-1" d="M303.6,254.24c0,1.91-1,3.13-2.45,3.13s-2.45-1.21-2.45-3.17a3.79,3.79,0,0,1,.68-2.28,2.26,2.26,0,0,1,1.77-.81C302.65,251.11,303.6,252.33,303.6,254.24Zm-4.15,0c0,1.66.61,2.6,1.7,2.6s1.7-.94,1.7-2.57-.63-2.57-1.71-2.57S299.45,252.62,299.45,254.21Z"/><path class="cls-1" d="M306.13,256.7h.8v.54h-2.26v-.54h.75v-4.92h-.75v-.54h1.86a3,3,0,0,1,1.59.22A1.63,1.63,0,0,1,309,253a1.6,1.6,0,0,1-.94,1.54,3.3,3.3,0,0,1-1.34.18h-.55Zm.52-2.57a2.2,2.2,0,0,0,1-.14,1.1,1.1,0,0,0,.52-1,1,1,0,0,0-.59-1.06,2.29,2.29,0,0,0-1-.11h-.49v2.34Z"/><path class="cls-1" d="M314.62,257.24l-.53-.62a2.26,2.26,0,0,1-1.71.75c-1.5,0-2.45-1.21-2.45-3.13s.95-3.13,2.45-3.13,2.45,1.22,2.45,3.14a4.1,4.1,0,0,1-.37,1.83l1.06,1.16Zm-3.94-3c0,1.66.62,2.6,1.7,2.6s1.7-.94,1.7-2.57-.62-2.57-1.7-2.57S310.68,252.62,310.68,254.21Z"/><path class="cls-1" d="M317.79,251.24c1.16,0,1.42,0,1.78.21a1.45,1.45,0,0,1,.84,1.38,1.53,1.53,0,0,1-1.25,1.59l1.13,2.28H321v.54h-1.23l-1.25-2.74h-1.14v2.2h.72v.54H315.9v-.54h.75v-4.92h-.75v-.54Zm.29,2.7c.69,0,.88,0,1.12-.17a1,1,0,0,0,.47-.92,1,1,0,0,0-.57-.95,2.85,2.85,0,0,0-1.07-.11h-.68v2.15Z"/><path class="cls-1" d="M325.33,251.24v1.63h-.48a1.15,1.15,0,0,0-1.23-1.18,1,1,0,0,0-1.08.94c0,.49.19.66,1.37,1.18a3.93,3.93,0,0,1,1.26.72,1.46,1.46,0,0,1,.43,1.08,1.7,1.7,0,0,1-1.84,1.75,1.79,1.79,0,0,1-1.49-.66v.54h-.5v-1.8h.5a1.27,1.27,0,0,0,1.41,1.35,1,1,0,0,0,1.19-1.08c0-.54-.24-.81-1-1.12a6.61,6.61,0,0,1-1.55-.78,1.4,1.4,0,0,1-.55-1.13,1.59,1.59,0,0,1,1.73-1.56,1.53,1.53,0,0,1,1.28.58v-.46Z"/><path class="cls-1" d="M330.77,251.24v1.46h-.55v-.91H329v4.91h.74v.54H327.5v-.54h.75v-4.91H327v.91h-.55v-1.46Z"/><path class="cls-1" d="M333.75,251.24v.54H333v3a3,3,0,0,0,.23,1.48,1.27,1.27,0,0,0,1.16.56,1.3,1.3,0,0,0,1.28-.74,3.53,3.53,0,0,0,.12-1.26v-3H335v-.54h2v.54h-.75v3c0,1.13,0,1.33-.25,1.69a1.92,1.92,0,0,1-1.75.88,2,2,0,0,1-1.84-1,3.65,3.65,0,0,1-.2-1.66v-3h-.75v-.54Z"/><path class="cls-1" d="M339.93,251.24v.54h-.67l1.43,4.61,1.53-4.61h-.66v-.54h2v.54h-.71l-1.87,5.54h-.66l-1.76-5.54h-.72v-.54Z"/><path class="cls-1" d="M345.68,251.24l1.1,2.32,1-1.78h-.65v-.54h2.06v.54h-.73l-1.36,2.29,1.4,2.63h.77v.54h-1.36l-1.25-2.64-1.15,2.1h.71v.54h-2.13v-.54h.76l1.52-2.6-1.2-2.32h-.78v-.54Z"/><path class="cls-1" d="M352,251.05v.54h-.67l1.1,2.29,1.13-2.29h-.68v-.54H355v.54h-.76l-1.49,2.91v2h.75v.54h-2.2v-.54H352v-2l-1.45-2.94h-.76v-.54Z"/><path class="cls-1" d="M358.92,256.51v-1h.56v1.51h-3.86v-.43l2.92-5h-2.18v.82h-.56v-1.37h3.63v.45l-2.95,5Z"/><path class="cls-1" d="M363.46,251l1.74,5.53H366v.54H363.8v-.54h.68l-.43-1.35H362l-.44,1.35h.66v.54h-1.95v-.54h.7l1.86-5.53Zm0,2.33-.45-1.59-.23.8c-.08.26-.16.52-.25.79l-.44,1.3h1.77Z"/><path class="cls-1" d="M371.51,254.05c0,1.91-.95,3.14-2.44,3.14s-2.46-1.22-2.46-3.17a3.77,3.77,0,0,1,.68-2.28,2.26,2.26,0,0,1,1.78-.81C370.56,250.93,371.51,252.14,371.51,254.05Zm-4.15,0c0,1.66.62,2.61,1.71,2.61s1.69-.95,1.69-2.58-.62-2.56-1.7-2.56S367.36,252.43,367.36,254Z"/><path class="cls-1" d="M375.38,251l1.74,5.53h.77v.54h-2.16v-.54h.67l-.42-1.35h-2.1l-.43,1.35h.66v.54h-2v-.54h.7l1.87-5.53Zm.05,2.33c-.15-.52-.25-.88-.45-1.59-.18.62-.18.63-.24.8s-.16.52-.25.79l-.44,1.3h1.78Z"/><path class="cls-1" d="M229,113.37V116h-1v-1.62h-2.27v8.74h1.33v1h-3.89v-1h1.33v-8.74h-2.26V116h-1v-2.59Z"/><path class="cls-1" d="M232.78,117.58a2.47,2.47,0,0,1,4.13-.26c.27.5.29.61.29,2.45v3.41h1.13V124h-3.42v-.86H236v-3.63a4,4,0,0,0-.12-1.41,1.26,1.26,0,0,0-1.29-.79,1.73,1.73,0,0,0-1.55,1,3.39,3.39,0,0,0-.26,1.7v3.15h1.09V124h-3.43v-.86h1.14v-9h-1.14v-.86h2.34Z"/><path class="cls-1" d="M241.29,120.35v.24c0,1.68.74,2.7,2,2.7a1.71,1.71,0,0,0,1.77-1.57h1.1a2.69,2.69,0,0,1-2.88,2.48c-1.92,0-3.15-1.5-3.15-3.84s1.31-4,3.21-4,3,1.49,3,3.71v.31Zm3.67-.85c0-1.49-.59-2.26-1.67-2.26s-1.79.85-1.95,2.26Z"/><path class="cls-1" d="M260.17,116.49v.86H259v9h1.13v.87H256.7v-.87h1.18v-3.44a2.23,2.23,0,0,1-2.06,1.31c-1.7,0-3-1.68-3-3.93s1.26-3.94,3-3.94a2.23,2.23,0,0,1,2.06,1.31v-1.15Zm-6.11,3.73c0,2,.69,3.07,1.92,3.07s1.9-1.12,1.9-3-.7-3-1.9-3S254.06,118.36,254.06,120.22Z"/><path class="cls-1" d="M264.28,120.56c0,1.5,0,1.56.15,1.88a1.29,1.29,0,0,0,1.25.74,1.77,1.77,0,0,0,1.48-.8,3.14,3.14,0,0,0,.34-1.86v-3.17h-1.15v-.86h2.35v6.69h1.14V124H267.6v-1.26a2.31,2.31,0,0,1-2.18,1.42,2.21,2.21,0,0,1-2.18-1.45,6.12,6.12,0,0,1-.16-2.07v-3.33H262v-.86h2.33Z"/><path class="cls-1" d="M273.82,123.18H275V124h-3.49v-.86h1.14v-5.83h-1.14v-.86h2.34Zm.05-9.65v1.34h-1.49v-1.34Z"/><path class="cls-1" d="M282.38,116.47V119h-.93c-.09-1.14-.64-1.73-1.55-1.73-1.2,0-1.94,1.17-1.94,3s.71,3,1.88,3c.89,0,1.45-.61,1.61-1.75h1.06a2.62,2.62,0,0,1-2.72,2.67c-1.84,0-3.06-1.53-3.06-3.84s1.28-4,3.06-4a1.94,1.94,0,0,1,1.66.83v-.69Z"/><path class="cls-1" d="M286.46,120.09l2.78-2.74h-1.05v-.86h3.33v.86h-1.06l-1.95,2,2.4,3.86h1.14V124H288.6v-.86h.88L287.66,120l-1.22,1.23v1.92h1V124h-3.33v-.86h1.14v-9h-1.14v-.86h2.32Z"/><path class="cls-1" d="M300.24,113.34v4.3a2.24,2.24,0,0,1,2.08-1.31c1.68,0,2.94,1.68,2.94,3.94s-1.26,3.93-2.94,3.93a2.24,2.24,0,0,1-2.08-1.31l0,1.15h-1.12V114.2H298v-.86Zm0,6.88c0,2,.68,3.07,1.92,3.07s1.9-1.12,1.9-3-.7-3-1.9-3S300.24,118.36,300.24,120.22Z"/><path class="cls-1" d="M309.37,117.64a2,2,0,0,1,1.79-1.25,1.55,1.55,0,0,1,1.38.77v1.55h-.93a3,3,0,0,0-.13-.89.7.7,0,0,0-.7-.45,1.33,1.33,0,0,0-1.17,1.06,8.69,8.69,0,0,0-.16,2.29v2.46h1.31V124h-3.65v-.86h1.14v-5.83h-1.14v-.86h2.26Z"/><path class="cls-1" d="M319.63,117.29a5.18,5.18,0,0,1,0,5.95,3,3,0,0,1-4.51,0,4.22,4.22,0,0,1-.95-3,4.28,4.28,0,0,1,.95-2.91,3.06,3.06,0,0,1,4.51,0Zm-4.23,2.93c0,2,.69,3.09,2,3.09s2-1.09,2-3-.7-3.06-2-3.06S315.4,118.3,315.4,120.22Z"/><path class="cls-1" d="M325.16,116.49v.86h-1l.56,2.5c.23,1,.42,1.94.6,2.83.27-1.05.56-2.14.86-3.26l.88-2.93h1.26l.82,3c.42,1.6.59,2.29.83,3.28.07-.35.16-.72.16-.72l.15-.72c.13-.57.21-1,.32-1.44l.61-2.53h-.93v-.86h3v.86h-1.16l-1.69,6.76h-1.15l-.87-3.07c-.26-1-.54-2.17-.86-3.48-.44,1.68-.47,1.83-.68,2.61-.12.5-.2.82-.22.87l-.9,3.07h-1.13L323,117.35H322v-.86Z"/><path class="cls-1" d="M336.94,117.71a2.22,2.22,0,0,1,2.13-1.38,2.06,2.06,0,0,1,2,1.25,5.67,5.67,0,0,1,.16,2.19v3.41h1.14V124H339v-.86h1v-3.63a3.8,3.8,0,0,0-.15-1.54,1.13,1.13,0,0,0-1.12-.66,1.75,1.75,0,0,0-1.44.8A3.1,3.1,0,0,0,337,120v3.17h1V124h-3.35v-.86h1.14v-5.83h-1.14v-.86h2.29Z"/><path class="cls-1" d="M225.69,135.48v.9h-1.81v5.79h1.41V143h-3.74v-.87h1.13v-5.79h-1.07v-.9h1.07v-.75a2.81,2.81,0,0,1,.37-1.86,2,2,0,0,1,1.67-.7,3.33,3.33,0,0,1,1.31.24v1.05a2.16,2.16,0,0,0-1.2-.38.85.85,0,0,0-.88.64,3.81,3.81,0,0,0-.07,1.11v.65Z"/><path class="cls-1" d="M232.7,136.28a5.15,5.15,0,0,1,0,6,3.06,3.06,0,0,1-4.51,0,5.15,5.15,0,0,1,0-6,3.06,3.06,0,0,1,2.25-1A3,3,0,0,1,232.7,136.28Zm-4.22,2.93c0,2,.68,3.09,2,3.09s2-1.09,2-3-.7-3.06-2-3.06S228.48,137.29,228.48,139.21Z"/><path class="cls-1" d="M237.64,135.48l1.43,2.66,1.14-1.83h-.76v-.83h3.19v.87h-1.33l-1.81,2.57,2,3.25H243V143h-2.42l-1.76-3.25-1.5,2.41h.93V143H235v-.87h1.25l2.13-3.17-1.62-2.65h-1.25v-.87Z"/><path class="cls-1" d="M251.79,142.17a9.42,9.42,0,0,1-.08,1.89,2.57,2.57,0,0,1-2.79,2.19h-.21v-.64a1.81,1.81,0,0,0,1.52-.74c.32-.58.34-.69.34-2.7v-5.81h-1.14v-.87h2.36Zm.05-9.65v1.34h-1.51v-1.34Z"/><path class="cls-1" d="M256.72,139.55c0,1.5,0,1.57.14,1.89a1.3,1.3,0,0,0,1.25.73,1.78,1.78,0,0,0,1.49-.8,3.22,3.22,0,0,0,.33-1.85v-3.17h-1.15v-.87h2.35v6.69h1.14V143H260v-1.27a2.32,2.32,0,0,1-2.18,1.43,2.18,2.18,0,0,1-2.17-1.46,5.77,5.77,0,0,1-.16-2.06v-3.33h-1.14v-.87h2.34Z"/><path class="cls-1" d="M266.19,136.6a2.08,2.08,0,0,1,2-1.28,1.94,1.94,0,0,1,2,1.31,2,2,0,0,1,2-1.31,2.08,2.08,0,0,1,2.05,1.25,5.77,5.77,0,0,1,.13,2v3.58h1.14V143h-3.35v-.87h1V138.6c0-1.26,0-1.33-.14-1.61a1.26,1.26,0,0,0-1.17-.64,1.44,1.44,0,0,0-1.39.89,3.5,3.5,0,0,0-.18,1.57v3.36h1V143h-3.2v-.87h1v-3.34c0-1.49,0-1.54-.16-1.83a1.14,1.14,0,0,0-1.14-.65,1.46,1.46,0,0,0-1.39.89,3.79,3.79,0,0,0-.21,1.62v3.31h1V143h-3.35v-.87h1.14v-5.82h-1.14v-.87h2.28Z"/><path class="cls-1" d="M279.1,136.63a2.24,2.24,0,0,1,2.06-1.31c1.7,0,3,1.68,3,3.94s-1.26,3.94-2.94,3.94a2.26,2.26,0,0,1-2.08-1.32v3.45h1.18v.86h-3.47v-.86H278v-9h-1.14v-.87h2.29Zm0,2.58c0,2,.69,3.07,1.92,3.07s1.9-1.12,1.9-3-.7-3-1.92-3S279.1,137.35,279.1,139.21Z"/><path class="cls-1" d="M290.28,137.9a1.58,1.58,0,0,0-1.69-1.71c-.77,0-1.31.44-1.31,1.08s.32.8,1.29,1.21a9.68,9.68,0,0,1,2,1,1.78,1.78,0,0,1,.79,1.52,2.29,2.29,0,0,1-2.5,2.24,2.25,2.25,0,0,1-2-1.08l-.08.95H286v-2.56h.78a2,2,0,0,0,2,1.81,1.23,1.23,0,0,0,1.38-1.17c0-.58-.28-.83-1.37-1.28a8,8,0,0,1-2.06-1,1.82,1.82,0,0,1-.64-1.41,2.17,2.17,0,0,1,2.32-2.11,2.32,2.32,0,0,1,1.83.83l.09-.71h.75v2.47Z"/><path class="cls-1" d="M303.52,136.28a5.19,5.19,0,0,1,0,6,3.07,3.07,0,0,1-4.52,0,5.19,5.19,0,0,1,0-6,3.07,3.07,0,0,1,4.52,0Zm-4.23,2.93c0,2,.69,3.09,2,3.09s2-1.09,2-3-.71-3.06-2-3.06S299.29,137.29,299.29,139.21Z"/><path class="cls-1" d="M309.24,135.48v.87h-1l.85,2.65c.38,1.24.4,1.28.83,2.79q.39-1.24.9-2.79l.88-2.65h-1v-.87h3.08v.87h-1.12l-2.34,6.75h-1L307,136.35h-1.16v-.87Z"/><path class="cls-1" d="M316.38,139.34v.24c0,1.68.73,2.7,1.95,2.7a1.7,1.7,0,0,0,1.76-1.56h1.11a2.71,2.71,0,0,1-2.89,2.48c-1.92,0-3.15-1.51-3.15-3.85s1.31-4,3.22-4,3,1.49,3,3.71l0,.31Zm3.66-.85c0-1.49-.59-2.26-1.66-2.26s-1.79.85-1.95,2.26Z"/><path class="cls-1" d="M325.45,136.63a2,2,0,0,1,1.79-1.24,1.54,1.54,0,0,1,1.38.76v1.56h-.93a3.17,3.17,0,0,0-.13-.9.7.7,0,0,0-.7-.45,1.33,1.33,0,0,0-1.17,1.06,8.69,8.69,0,0,0-.16,2.29v2.46h1.31V143h-3.65v-.87h1.14v-5.82h-1.14v-.87h2.26Z"/><path class="cls-1" d="M335.11,137.83l.21-1.6a3.72,3.72,0,0,1,2.43-.91,2.56,2.56,0,0,1,2.17.93c.27.4.33.77.33,2.15v3.77h1.12V143h-2.19v-1.12a2.27,2.27,0,0,1-2.13,1.28,2.18,2.18,0,0,1-2.32-2.2,2.4,2.4,0,0,1,1.63-2.24,11.72,11.72,0,0,1,2.69-.7v-.29a1.77,1.77,0,0,0-.19-1.07,1.36,1.36,0,0,0-1.19-.47,1.71,1.71,0,0,0-1.42.58,2.52,2.52,0,0,0-.29,1Zm4,1c-2.36.46-3.12,1-3.12,2a1.26,1.26,0,0,0,1.34,1.33,1.72,1.72,0,0,0,1.59-1,5.27,5.27,0,0,0,.19-1.71Z"/><path class="cls-1" d="M223.92,161.16h1.15V162h-3.52v-.87h1.13v-9h-1.13v-.87h2.37Z"/><path class="cls-1" d="M227.13,156.83l.21-1.6a3.68,3.68,0,0,1,2.43-.92,2.54,2.54,0,0,1,2.16.93c.28.4.34.77.34,2.15v3.77h1.12V162H231.2v-1.12a2.27,2.27,0,0,1-2.13,1.28,2.17,2.17,0,0,1-2.32-2.19,2.37,2.37,0,0,1,1.63-2.24,11,11,0,0,1,2.69-.71v-.29a1.77,1.77,0,0,0-.19-1.07,1.39,1.39,0,0,0-1.19-.46,1.7,1.7,0,0,0-1.42.57,2.53,2.53,0,0,0-.29,1Zm4,1c-2.35.46-3.12,1-3.12,2a1.27,1.27,0,0,0,1.35,1.33,1.71,1.71,0,0,0,1.58-1,5.1,5.1,0,0,0,.19-1.72Z"/><path class="cls-1" d="M239.52,161.13v-1.29h.91V162h-5.7v-.66l4-6H235.8v1.09h-.91v-2h5.36v.68l-4,6Z"/><path class="cls-1" d="M244.89,154.47v.87h-1l.83,2.58c.07.23.15.46.23.68s.14.47.21.69l.24.79c0,.12.12.43.17.59l.42-1.38c0-.13.34-1.09.43-1.37l.88-2.58h-1v-.87h3.07v.87H248.3L246,162.25a5.39,5.39,0,0,1-1.07,2.26,2.73,2.73,0,0,1-2.07.77,2.83,2.83,0,0,1-.35,0v-.86c1.39-.05,1.84-.39,2.34-1.76l.14-.42-2.29-6.88h-1.2v-.87Z"/><path class="cls-1" d="M261.82,151.32v9.84H263V162h-2.29v-1.15a2.25,2.25,0,0,1-2.07,1.31c-1.69,0-3-1.68-3-3.94s1.27-3.94,3-3.94a2.26,2.26,0,0,1,2.07,1.32v-3.44h-1.14v-.87Zm-5,6.88c0,2,.69,3.08,1.92,3.08s1.91-1.12,1.91-3-.71-3-1.91-3S256.84,156.35,256.84,158.2Z"/><path class="cls-1" d="M270.19,155.27a5.19,5.19,0,0,1,0,6,3.06,3.06,0,0,1-4.51,0,5.15,5.15,0,0,1,0-6,3.06,3.06,0,0,1,2.25-1A3,3,0,0,1,270.19,155.27ZM266,158.2c0,2,.69,3.09,2,3.09s2-1.09,2-3-.7-3.06-2-3.06S266,156.28,266,158.2Z"/><path class="cls-1" d="M279.71,155.29l-1.7,0a2.05,2.05,0,0,1,.79,1.67,2,2,0,0,1-.59,1.47,3.76,3.76,0,0,1-1.77.88c-1.29.4-1.6.56-1.6.9s.26.41.92.48c2.72.21,3.68.78,3.68,2.22s-1.17,2.4-3.27,2.4-3.39-.81-3.39-2.2c0-1,.59-1.57,1.82-1.88-.75-.21-1-.43-1-.85s.56-1,1.66-1.21a2.19,2.19,0,0,1-1.76-2.23,2.42,2.42,0,0,1,.72-1.74,3.09,3.09,0,0,1,2.34-.71h.77l.67,0h1.73ZM273.82,163c0,.89.86,1.4,2.37,1.4s2.19-.52,2.19-1.42-.8-1.36-2.22-1.36S273.82,162.17,273.82,163Zm.81-6.17a1.47,1.47,0,0,0,1.54,1.59,1.49,1.49,0,0,0,1.51-1.59,1.44,1.44,0,0,0-1.49-1.55A1.49,1.49,0,0,0,274.63,156.84Z"/><path class="cls-1" d="M283.24,160.4V162H281.6V160.4Z"/><rect y="212.35" width="156.81" height="0.25"/><rect x="221.79" y="212.35" width="146.67" height="0.25"/><path class="cls-1" d="M2.87,224.84a2.21,2.21,0,1,1,4.42,0v2.33a2.21,2.21,0,0,1-4.42,0Zm1.41,2.33a.8.8,0,0,0,1.59,0v-2.31a.8.8,0,0,0-1.59,0Z"/><path class="cls-1" d="M10.21,222.63H12v6.76H10.21Z"/><path class="cls-1" d="M17.35,225.52a1.08,1.08,0,0,0,.3-.69.82.82,0,0,0-.8-.77.79.79,0,0,0-.79.8H14.61a2.24,2.24,0,1,1,4.48,0,2.27,2.27,0,0,1-.41,1.24L17.4,228h1.9v1.44H14.63Z"/><path class="cls-1" d="M22.89,227.73a.77.77,0,0,0,.63.24.75.75,0,0,0,.73-.76.79.79,0,0,0-.74-.82c-.48,0-.62.24-.62.24l-1-1L23,224.06h-1.4v-1.43H25.7L24,225a2.24,2.24,0,0,1,1.65,2.16,2.18,2.18,0,0,1-2.14,2.19,2.33,2.33,0,0,1-1.63-.64Z"/><path class="cls-1" d="M31.63,226.52h1.25V228H31.63v1.44H30.21V228H27.12v-1.44l2.72-3.88h1.79Zm-1.42,0V224.6l-1.35,1.92Z"/><path class="cls-1" d="M34.31,226.34v-3.71h4.26v1.44H35.74V225h.78a2.21,2.21,0,1,1-2.21,2.2v0h1.42a.79.79,0,1,0,.79-.8Z"/><path class="cls-1" d="M41.16,226l1.92-3.33h1.66L43.39,225a2.22,2.22,0,1,1-2.58,2.19A2.27,2.27,0,0,1,41.16,226ZM43,228a.79.79,0,1,0,0-1.58A.79.79,0,1,0,43,228Z"/><path class="cls-1" d="M52.15,222.63v1.45l-3.06,5.31H47.46l3.07-5.32h-3.6v-1.44Z"/><path class="cls-1" d="M56.06,222.63a1.89,1.89,0,0,1,1.88,1.89,1.92,1.92,0,0,1-.34,1.08,2.19,2.19,0,0,1,.67,1.58,2.21,2.21,0,0,1-4.42,0,2.19,2.19,0,0,1,.67-1.58,1.91,1.91,0,0,1-.33-1.08A1.88,1.88,0,0,1,56.06,222.63Zm0,5.33a.79.79,0,0,0,.79-.78.8.8,0,0,0-.76-.79H56a.79.79,0,0,0-.74.79A.78.78,0,0,0,56.06,228Zm0-3a.44.44,0,0,0,.45-.45.45.45,0,0,0-.45-.45.44.44,0,0,0-.44.45A.43.43,0,0,0,56.06,225Z"/><path class="cls-1" d="M62.24,227A2.23,2.23,0,1,1,64.48,226l-2,3.42H60.88Zm.35-1.36a.78.78,0,0,0,.8-.79.8.8,0,0,0-.8-.8.79.79,0,0,0-.79.8A.77.77,0,0,0,62.59,225.66Z"/><path class="cls-1" d="M2.39,243.39l3.15-6.75h.8l3.18,6.75H7.75l-.42-.88H4.57l-.4.88ZM5.26,241H6.64L6,239.53Z"/><path class="cls-1" d="M11.09,243.39v-6.75h3a2,2,0,0,1,2,2,2,2,0,0,1-.43,1.21,2,2,0,0,1-1.21,3.53Zm2.62-4.11a.59.59,0,1,0,0-1.17h-.85v1.17Zm.34,2.65a.58.58,0,0,0,.58-.58.6.6,0,0,0-.58-.59H12.86v1.17Z"/><path class="cls-1" d="M22.35,238.87a1.59,1.59,0,0,0-1.14-.44,1.59,1.59,0,0,0,0,3.17,1.55,1.55,0,0,0,1.14-.45l1.26,1.24a3.41,3.41,0,0,1-2.4,1,3.38,3.38,0,1,1,2.38-5.77Z"/><path class="cls-1" d="M25.62,236.64h2.5a3.38,3.38,0,1,1,0,6.75h-2.5Zm1.77,5h.74a1.6,1.6,0,1,0,0-3.2h-.74Z"/><path class="cls-1" d="M33.4,236.64h4.19v1.47H35.17v1.09h2.14v1.5H35.17v1.24h2.42v1.45H33.4Z"/><path class="cls-1" d="M39.54,236.64h4.23v1.46H41.31v1.09h2.17v1.51H41.31v2.69H39.54Z"/><path class="cls-1" d="M52.34,239.76V240a3.38,3.38,0,1,1-1-2.39l-1.25,1.24A1.6,1.6,0,1,0,49,241.62a1.58,1.58,0,0,0,1.3-.67H49v-1.19Z"/><path class="cls-1" d="M55.75,236.64V239H57.9v-2.4h1.77v6.75H57.9v-2.58H55.75v2.58H54v-6.75Z"/><path class="cls-1" d="M61.69,236.64h1.78v6.75H61.69Z"/><path class="cls-1" d="M69.54,241.09a2.4,2.4,0,0,1-2.64,2.3,3.25,3.25,0,0,1-1.91-.7l1.28-1.31a.93.93,0,0,0,.7.23.75.75,0,0,0,.8-.79v-4.18h1.77Z"/><path class="cls-1" d="M78.1,236.64,75,239.73l3.66,3.66h-2.5L73.77,241l-.42.43v2H71.57v-6.75h1.78v2.28l2.27-2.28Z"/><path class="cls-1" d="M80,236.64h1.77v5h2.44v1.78H80Z"/><path class="cls-1" d="M91.08,243.39l-3.19-3.2v3.2H86.12v-6.75h.72l3.2,3.18v-3.18h1.77v6.75Z"/><path class="cls-1" d="M96.62,236.64A3.38,3.38,0,1,1,93.26,240,3.38,3.38,0,0,1,96.62,236.64Zm0,1.76A1.62,1.62,0,1,0,98.23,240,1.61,1.61,0,0,0,96.62,238.4Z"/><path class="cls-1" d="M101.9,236.64h2.85a2.48,2.48,0,0,1,0,5h-1.11v1.79H101.9Zm1.78,3.43h1.1a1,1,0,0,0,0-1.94h-1.1Z"/><path class="cls-1" d="M114.26,243.39l-.47-.46a3.25,3.25,0,0,1-1.69.46,3.38,3.38,0,1,1,3.38-3.38,3.3,3.3,0,0,1-.45,1.68l1.71,1.7Zm-2.16-1.76a1.22,1.22,0,0,0,.34,0l-.82-.83,1.25-1.24.81.81a1.55,1.55,0,0,0,0-.31,1.61,1.61,0,1,0-1.61,1.61Z"/><path class="cls-1" d="M122.09,243.39l-1-1.79H120v1.79h-1.77v-6.75H121a2.48,2.48,0,0,1,1.69,4.3l1.43,2.45ZM120,240.07h1.1a1,1,0,0,0,0-1.94H120Z"/><path class="cls-1" d="M128.17,238.71a.52.52,0,0,0-.52-.51.51.51,0,0,0-.5.51.5.5,0,0,0,.5.5,2.09,2.09,0,1,1-2.08,2.08h1.58a.51.51,0,0,0,.5.52.51.51,0,1,0,0-1,2.08,2.08,0,1,1,2.08-2.08Z"/><path class="cls-1" d="M2.7,250.63H8v1.77H6.23v5H4.45v-5H2.7Z"/><path class="cls-1" d="M11.68,254.7a.89.89,0,0,0,1.77,0v-4.06h1.78v4.09a2.67,2.67,0,0,1-5.33,0v-4.09h1.78Z"/><path class="cls-1" d="M23.75,250.63l-3.14,6.76H19.8l-3.15-6.76h1.78l1.77,3.85L22,250.63Z"/><path class="cls-1" d="M31.49,250.64l-2.25,3.23,2.48,3.52H29.56l-1.4-2-1.4,2H24.6l2.47-3.52-2.25-3.23H27l1.18,1.69,1.17-1.69Z"/><path class="cls-1" d="M36.78,254.91v2.48H35v-2.48l-2.47-4.27h2l1.3,2.25,1.31-2.25h2Z"/><path class="cls-1" d="M43.29,255.62H45.9v1.77H40.22l2.87-5h-2.7v-1.78h5.77Z"/><path class="cls-1" d="M67.71,255.35h1.44l-.72-1.47Zm-3,2.36L68,251h.84l3.3,6.7H70.3l-.43-.88H67l-.42.88Z"/><path class="cls-1" d="M50.24,255.23h1.4L51,253.72Zm-2.9,2.4,3.19-6.83h.81l1,5.94h-2.8l-.41.89Z"/><polygon class="cls-1" points="50.91 250.8 55.15 250.8 55.15 252.28 52.7 252.28 52.7 253.4 54.87 253.4 54.87 254.91 52.7 254.91 52.7 256.17 55.15 256.17 55.15 257.63 50.91 257.63 50.91 250.8"/><path class="cls-1" d="M60.64,252.73a1.63,1.63,0,0,0,0,3.25,1.63,1.63,0,0,0,0-3.25m0-1.79a3.41,3.41,0,1,1-3.35,3.42,3.39,3.39,0,0,1,3.35-3.42"/><polygon class="cls-1" points="59.16 258.71 58.39 258.37 62.14 249.72 62.91 250.06 59.16 258.71"/><path class="cls-1" d="M68.43,249.32a.36.36,0,1,0,.38.36.37.37,0,0,0-.38-.36m0-.4a.76.76,0,1,1,0,1.52.76.76,0,1,1,0-1.52"/></g></g></svg>