<svg xmlns="http://www.w3.org/2000/svg" viewBox="0 0 461.82 263.39"><defs><style>.cls-1{font-size:12px;font-family:BigJohn, Big John;letter-spacing:0.2em;}.cls-1,.cls-5{fill:#231f20;}.cls-2{letter-spacing:0.17em;}.cls-3{letter-spacing:0.15em;}.cls-4,.cls-6{fill:none;stroke:#231f20;}.cls-4{stroke-linejoin:round;stroke-width:3px;}.cls-6{stroke-miterlimit:10;}</style></defs><title>Asset 2</title><g id="Layer_2" data-name="Layer 2"><g id="Layer_1-2" data-name="Layer 1"><text class="cls-1" transform="translate(372.45 70.16)">SUPPE</text><text class="cls-1" transform="translate(202.59 71.25)">MID<tspan class="cls-2" x="32.11" y="0">D</tspan><tspan class="cls-3" x="43.62" y="0">A</tspan><tspan x="55.58" y="0">G</tspan></text><text class="cls-1" transform="translate(14.78 69.66)">HJEMMEBAKT</text><path class="cls-4" d="M461.82,49.59H414.45s13-13,.34-24l-33.32.4c-10.82,5.65-2.62,23.62-2.62,23.62H255.51s5.82-7.72,0-13.08a71.78,71.78,0,0,1-20.39,2.82A119.49,119.49,0,0,1,213.9,37.4c-4.84,4.44.8,12.19.8,12.19l-137.41,0s12.11-6,3.11-15.36c-3.87-4-15.25-4.16-18.91,1.34-5.61,8.44,1.14,14,1.14,14H10"/><path class="cls-5" d="M71.38,19.33a.56.56,0,0,1-.57-.57V12a.57.57,0,0,1,.57-.58A.58.58,0,0,1,72,12v6.73A.57.57,0,0,1,71.38,19.33Z"/><path class="cls-5" d="M82,21.54a.54.54,0,0,1-.22,0,.58.58,0,0,1-.32-.76L84,14.52a.59.59,0,0,1,.76-.31.58.58,0,0,1,.31.75L82.5,21.18A.57.57,0,0,1,82,21.54Z"/><path class="cls-5" d="M91,27.43a.58.58,0,0,1-.41-.17.57.57,0,0,1,0-.82l4.76-4.76a.58.58,0,0,1,.81,0,.57.57,0,0,1,0,.82l-4.76,4.76A.58.58,0,0,1,91,27.43Z"/><path class="cls-5" d="M51.9,27.62a.56.56,0,0,1-.41-.17L46.73,22.7a.59.59,0,0,1,0-.82.57.57,0,0,1,.82,0l4.76,4.76a.56.56,0,0,1,0,.81A.54.54,0,0,1,51.9,27.62Z"/><path class="cls-5" d="M60.73,21.57a.58.58,0,0,1-.53-.36L57.62,15a.58.58,0,0,1,.31-.76.59.59,0,0,1,.76.31l2.58,6.22a.58.58,0,0,1-.31.75A.64.64,0,0,1,60.73,21.57Z"/><path class="cls-5" d="M235.74,14.2a.58.58,0,0,1-.57-.58V6.89a.58.58,0,1,1,1.15,0v6.73A.58.58,0,0,1,235.74,14.2Z"/><path class="cls-5" d="M246.33,16.4a.54.54,0,0,1-.22,0,.57.57,0,0,1-.32-.75l2.57-6.22a.58.58,0,1,1,1.07.44l-2.57,6.22A.56.56,0,0,1,246.33,16.4Z"/><path class="cls-5" d="M255.33,22.29a.54.54,0,0,1-.41-.17.56.56,0,0,1,0-.81l4.76-4.76a.57.57,0,1,1,.81.81l-4.75,4.76A.58.58,0,0,1,255.33,22.29Z"/><path class="cls-5" d="M216.26,22.49a.6.6,0,0,1-.41-.17l-4.75-4.76a.57.57,0,0,1,0-.82.58.58,0,0,1,.81,0l4.76,4.76a.57.57,0,0,1,0,.82A.58.58,0,0,1,216.26,22.49Z"/><path class="cls-5" d="M225.1,16.43a.57.57,0,0,1-.54-.36L222,9.86a.58.58,0,1,1,1.07-.44l2.58,6.21a.59.59,0,0,1-.31.76A.6.6,0,0,1,225.1,16.43Z"/><path class="cls-5" d="M397.2,7.89a.58.58,0,0,1-.58-.58V.58a.58.58,0,0,1,1.16,0V7.31A.58.58,0,0,1,397.2,7.89Z"/><path class="cls-5" d="M407.78,10.09a.6.6,0,0,1-.22,0,.58.58,0,0,1-.31-.75l2.57-6.23a.58.58,0,0,1,1.07.45l-2.57,6.22A.58.58,0,0,1,407.78,10.09Z"/><path class="cls-5" d="M416.78,16a.62.62,0,0,1-.41-.17.59.59,0,0,1,0-.82l4.76-4.75a.57.57,0,0,1,.82,0,.56.56,0,0,1,0,.81l-4.76,4.76A.58.58,0,0,1,416.78,16Z"/><path class="cls-5" d="M377.72,16.18a.58.58,0,0,1-.41-.17l-4.76-4.76a.59.59,0,0,1,0-.82.57.57,0,0,1,.82,0l4.76,4.76a.59.59,0,0,1,0,.82A.6.6,0,0,1,377.72,16.18Z"/><path class="cls-5" d="M386.55,10.12a.57.57,0,0,1-.53-.36l-2.58-6.21a.57.57,0,1,1,1.06-.44l2.59,6.21a.59.59,0,0,1-.32.76A.54.54,0,0,1,386.55,10.12Z"/><text class="cls-1" transform="translate(377.02 260.36)">VIN</text><text class="cls-1" transform="translate(36.32 260.63)">DRIKKE</text><path class="cls-5" d="M67.58,196.93a.58.58,0,0,1-.58-.58v-6.73a.58.58,0,1,1,1.16,0v6.73A.58.58,0,0,1,67.58,196.93Z"/><path class="cls-5" d="M78.16,199.14a.59.59,0,0,1-.22,0,.58.58,0,0,1-.31-.75l2.57-6.22a.57.57,0,1,1,1.06.44l-2.56,6.22A.6.6,0,0,1,78.16,199.14Z"/><path class="cls-5" d="M87.16,205a.54.54,0,0,1-.41-.17.58.58,0,0,1,0-.81l4.76-4.76a.57.57,0,0,1,.82,0,.59.59,0,0,1,0,.82l-4.76,4.75A.54.54,0,0,1,87.16,205Z"/><path class="cls-5" d="M48.1,205.22a.58.58,0,0,1-.41-.17l-4.76-4.76a.57.57,0,0,1,0-.82.59.59,0,0,1,.82,0l4.75,4.76a.58.58,0,0,1-.4,1Z"/><path class="cls-5" d="M56.93,199.16a.56.56,0,0,1-.53-.35l-2.59-6.22a.58.58,0,0,1,.31-.75.57.57,0,0,1,.76.31l2.58,6.21a.58.58,0,0,1-.31.76A.57.57,0,0,1,56.93,199.16Z"/><text class="cls-1" transform="translate(220.21 259.29)">OL</text><path class="cls-5" d="M230.6,173.62A.58.58,0,0,1,230,173v-6.73a.57.57,0,0,1,.58-.57.56.56,0,0,1,.57.57V173A.57.57,0,0,1,230.6,173.62Z"/><path class="cls-5" d="M241.18,175.83a.57.57,0,0,1-.22,0,.58.58,0,0,1-.31-.76l2.56-6.22a.58.58,0,0,1,1.07.44l-2.57,6.22A.57.57,0,0,1,241.18,175.83Z"/><path class="cls-5" d="M250.18,181.72a.58.58,0,0,1-.41-.17.57.57,0,0,1,0-.82l4.76-4.76a.57.57,0,0,1,.82,0,.59.59,0,0,1,0,.82l-4.76,4.76A.6.6,0,0,1,250.18,181.72Z"/><path class="cls-5" d="M211.11,181.91a.58.58,0,0,1-.4-.17L206,177a.57.57,0,0,1,.81-.81l4.76,4.75a.57.57,0,0,1,0,.82A.58.58,0,0,1,211.11,181.91Z"/><path class="cls-5" d="M220,175.85a.59.59,0,0,1-.54-.35l-2.58-6.22a.58.58,0,0,1,.31-.75.59.59,0,0,1,.76.31l2.58,6.22a.58.58,0,0,1-.31.75A.57.57,0,0,1,220,175.85Z"/><path class="cls-5" d="M390.26,179.24a.58.58,0,0,1-.58-.58v-6.73a.58.58,0,1,1,1.16,0v6.73A.58.58,0,0,1,390.26,179.24Z"/><path class="cls-5" d="M400.84,181.45a.59.59,0,0,1-.22,0,.57.57,0,0,1-.31-.75l2.56-6.22a.58.58,0,0,1,1.07.44l-2.56,6.22A.6.6,0,0,1,400.84,181.45Z"/><path class="cls-5" d="M409.84,187.34a.58.58,0,0,1-.41-.17.57.57,0,0,1,0-.82l4.76-4.76a.57.57,0,0,1,.82,0,.59.59,0,0,1,0,.82l-4.76,4.76A.6.6,0,0,1,409.84,187.34Z"/><path class="cls-5" d="M370.78,187.53a.58.58,0,0,1-.41-.17l-4.76-4.76a.57.57,0,0,1,0-.82.59.59,0,0,1,.82,0l4.75,4.76a.58.58,0,0,1-.4,1Z"/><path class="cls-5" d="M379.61,181.47a.59.59,0,0,1-.54-.35l-2.58-6.22a.58.58,0,0,1,.31-.75.59.59,0,0,1,.76.31l2.58,6.21a.59.59,0,0,1-.31.76A.57.57,0,0,1,379.61,181.47Z"/><path class="cls-4" d="M456.91,240.11H399.5a18.38,18.38,0,0,0-8.58-1.91l1.52-25a58.38,58.38,0,0,0,7.65-1.29c6-1.5,9.36-12.32,5.45-17.75H373.45c-1.43,6.68-.8,15.07,5.27,17a58.27,58.27,0,0,0,9.49,2.05l2.14,25s-8,.14-10.62,1.91h-137a184.45,184.45,0,0,0-.64-19.49c-.5-5.36-4.92-9.45-7-10.53l-.49-24.33-8,0v24.51c-3.51.94-6.64,7.28-7.14,11.32a125.29,125.29,0,0,0-.7,18.56H76.63s2.38-19.88,2.9-29.48H56.29c.8,10.19,3.37,29.45,3.37,29.45H4.91"/><line class="cls-6" x1="229.12" y1="249.31" x2="221.33" y2="259.54"/></g></g></svg>