<svg xmlns="http://www.w3.org/2000/svg" viewBox="0 0 1826 2918.69"><defs><style>.cls-1{fill:#fff;}.cls-2{fill:#025bf1;}.cls-3{fill:#0254a0;}.cls-4{fill:#2c2c2c;}.cls-5{fill:#ff01d7;}.cls-6{fill:#1e1e1e;}.cls-7{fill:#18cfff;}.cls-8{fill:#ff0193;}.cls-9{fill:#ff0;}.cls-10{fill:#ff2c46;}.cls-11{fill:#4d00ff;}.cls-12{fill:#e5df00;}.cls-13{fill:#fe00d7;}.cls-14{fill:#fbfbfb;}.cls-15{fill:#e26a71;}.cls-16{fill:none;}</style></defs><title>Asset 25</title><g id="Layer_2" data-name="Layer 2"><g id="Layer_1-2" data-name="Layer 1"><text></text><path class="cls-1" d="M679,842.49a1.5,1.5,0,0,0,0-3,1.5,1.5,0,0,0,0,3Z"/><path class="cls-1" d="M736.52,564.34a1.5,1.5,0,0,0,0-3,1.5,1.5,0,0,0,0,3Z"/><path class="cls-1" d="M514.23,1196.51c3.86,0,3.87-6,0-6s-3.87,6,0,6Z"/><path class="cls-1" d="M762.29,983.19c5.79,0,5.8-9,0-9s-5.8,9,0,9Z"/><path class="cls-2" d="M332.06,1308.37l961.72,268.89s-84.87,200.17-164.83,278-130,128.88-130,128.88L1274.41,2434s20.41,38.84,14.3,62-83,72-83,72L807.9,2136.44s-135.49,63.14-139.15,77-120.3,368.87-120.3,368.87-73.84,20.06-80.55-6.44,57.46-459.67,57.46-459.67,25.65-131.72,96.45-157.53l-46.66-43.8S448.54,1749.68,426,1679.42,333.85,1526.48,332.06,1308.37Z"/><path d="M808.78,2135.45c-11.52,8.45-21.47,16-31.7,23.17-7.06,4.91-14.35,9.53-21.8,13.69-23.43,13.08-47.09,25.67-70.39,39-3.67,2.1-6.84,6.85-8.6,11.11-4.43,10.71-7.94,21.83-11.79,32.79-12.71,36.16-21.67,73.63-36.93,108.91-3.51,8.11-5.47,16.94-8.17,25.43-8.66,27.24-17.52,54.42-26,81.73-7.78,25.15-15.22,50.41-22.61,75.69-3.16,10.81-5.8,21.77-9,34,4.74.71,9.09,1.5,13.49,2,7.4.85,14.85,1.33,22.23,2.28,12,1.54,19,9.63,22.81,21a68.91,68.91,0,0,1,0,44.43c-6.23,18.62-12.22,37.38-19.45,55.61-6.13,15.46-8.71,31.39-6.94,47.2,2.85,25.26-2.82,48.58-13.21,71.09-14.72,31.89-36.81,56.7-65.94,74-5.45,3.23-11.65,5.23-17.69,6.9-16.54,4.57-33.11,11.27-49.78,12.39-33.77,2.27-67.75,1.21-95.32-22.69-9.42-8.16-19.17-17.21-25.13-28.21-7.84-14.48-14.09-30.93-11.92-48.84.87-7.18,4.25-14.75,8.24-20.87,15.7-24.09,30.75-49.43,52.59-67.48,18.27-15.1,27.77-33,30.31-56.39,1.88-17.3,11.24-30.55,22.59-42.69,6.86-7.35,13.08-15.42,19.42-23.32a37.78,37.78,0,0,0,8.29-22,170.5,170.5,0,0,1,6.78-37.88c4.19-14,4.69-29.07,7.82-43.47,6.42-29.44,7-59.31,10-89,4.23-42.1,9-84.16,13.92-126.21,2.47-21.25,5.33-42.5,8.72-63.65,2.25-14,5.79-27.9,8.69-41.85,4.37-21,8.42-42.08,13.08-63C534.08,2081.11,540,2041,563,2006.68c9.89-14.78,20-29.33,36.7-36.34,2.2-.92,3.93-3.27,7.12-6-7.8-8.62-15.24-16.92-22.75-25.15-30.48-33.38-59.73-67.87-84.44-106.59-8.5-13.32-18.37-25.64-26.39-39.27-15.87-27-32-53.85-45.93-82-11.59-23.5-19.78-49-30.16-73.27-13.32-44.3-31.42-88.39-45.68-133.19-4.22-13.26-7-27.14-9.79-40.91-3.65-18-8-36-9.59-54.4-2.24-25-2.6-50.41-2.94-75.69-.09-6.35-1.32-14.5,8.07-20,66.27,5.34,956.88,271,958.1,266.37,3.73-14.1-956-258.75-956-256.63.95,30.53.91,61.16,2.92,91.56.91,13.92,6.2,27.27,8.72,41.08,6.64,36.45,18.33,71.12,30.08,105.61,11.5,33.75,25.54,66.41,38.39,99.59,2.18,5.64,4,11.45,5.93,17.24,6.56,20,16.2,38.11,27.72,55.19a209,209,0,0,1,14.41,25.91c14.74,30.48,35.09,56.71,53.94,84,25,36.22,54.52,68.23,83.57,100.62,4.75,5.3,10.42,9.65,16.72,15.39,20.65-10.47,41-21.23,61.67-31.13,20.39-9.76,41.18-18.47,61.68-28,20.83-9.66,41.47-19.83,62.28-29.55,20.21-9.44,37.59-25.26,58.25-33.62,3.29,6.8,0,9.56-3.21,11.6-23.14,14.79-45.8,30.41-71,41.12-23.73,10.08-46.83,22-70.19,33.2-33,15.75-65.62,32.3-98.94,47-19.16,8.44-35.48,20.28-48.36,37.31-6,8-10.21,17.57-14.62,26.75-12.12,25.26-16.56,52.81-22.76,79.81-6,26.1-12.46,52.11-17.63,78.36-4,20.58-6.63,41.45-9.48,62.23-4.19,30.5-8.42,61-11.93,91.57-3,26.54-6,53.16-7.4,79.77-1.59,29-5.95,57.59-10.94,86.17-3.54,20.2-7.06,40.4-10.73,61.42,24.47,14.45,52,5,79,9.78,3.34-8.68,7.1-17.1,9.87-25.83,15-47.23,29.75-94.54,44.6-141.81,5.35-17,10.49-34.18,16.14-51.13,16.64-50,33.59-99.83,50.14-149.83,2.66-8,7.63-13.62,14.46-15.85,18.74-6.13,34.5-18.93,52.11-27.21,32-15,58.88-38.72,88-58.55,31.5-21.43,58.86-48.66,87.18-74.53,6.08-5.55,13.31-9.6,19.73-14.76,16.22-13,32.23-26.31,48.4-39.38,11.11-9,22.53-17.55,33.48-26.77,5.28-4.45,9.63-10.16,14.66-15,16.36-15.74,32.74-31.46,49.29-47,27.73-26,54.72-52.85,78.11-83.39,13.64-17.81,25.71-37,38.37-55.64,15.9-23.44,32.37-46.51,47.28-70.63,9-14.6,15.76-30.8,23.15-46.47,4-8.43,7.23-17.24,10.66-25.94s6.72-17.4,9.92-26.17c2.22-6.1,2.09-6.15,11.25-8.21-.9,5.55-.82,10.86-2.63,15.37-17,42.09-32.67,84.73-60.63,121.08-15,19.52-27.32,41.37-41.18,61.92-18.57,27.53-37.94,54.26-60.74,78.24-25.7,27-52.65,52.38-80.24,77.09-13.57,12.16-25.71,26.16-38.43,39.41-3.68,3.83-3,7.82-.66,12.08,4.29,7.94,8,16.24,12.41,24.14,13.67,24.82,27.21,49.73,41.39,74.19,9.9,17.08,20.82,33.44,31.17,50.21,15.27,24.73,30.92,49.2,45.54,74.38,24.12,41.54,47.08,83.89,71.5,125.23,10.42,17.64,24,33.06,34.83,50.41,17.73,28.3,32.9,58.24,44.24,90.43,4,11.43,7.64,23.79,14.52,33.07,15.35,20.71,34.92,35.08,61.75,34.7,6.56-.09,13.1,1.32,19.63,2.12s13,2.19,19.49,2.45c17.27.69,23.08,14.85,28.83,28.27,9.15,21.37,9.41,44.56,6.44,67.82-3,23.45-7.18,46.77-10.37,70.2-4,29.37-2.93,58.37,4.71,86.52,4.35,16.06,8.76,32.07,7.79,49.19a66.38,66.38,0,0,1-3.41,16.71c-7.51,22.78-26.43,39.39-46.07,41.07-18.34,1.56-32.82-5.94-43.9-20.56-4.29-5.66-8.25-9-16-9.47-6.29-.38-13.07-5.2-17.9-10-13.62-13.62-20.55-31.12-20.34-51.66.09-9.31,1.48-18.69,1.28-28-.55-24.34-.44-48.87-10.5-71.31-2.09-4.67-4-10-4.13-15.1-.73-20.54-9.43-37.27-20.13-52.8-13.27-19.28-27.41-37.88-41.33-56.63-2.5-3.38-5.33-6.95-8.8-8.91-4.58-2.58-8.78-4.07-7.31-11.43.45-2.21-2.2-5.47-4.08-7.6-6.12-6.95-12.34-13.84-18.89-20.32-35.83-35.44-72-70.47-107.58-106.23-20.74-20.87-40.7-42.63-60.63-64.39-27.06-29.55-53.52-59.72-80.68-89.14-15.72-17-32.08-33.42-48.6-49.57-12.43-12.15-21.88-26.76-32-41C839.06,2172.7,824.06,2154.91,808.78,2135.45Zm478.72,361.24c-14.11-41.71-31.82-78.53-54.12-112.65-9.57-14.64-20.1-28.59-29.16-43.6-13.47-22.33-26-45.33-39-68-16-27.92-31.49-56.14-48.06-83.62-18.12-30-38.21-58.69-55.61-89.2-21.22-37.22-43.59-73.78-61.07-113.45-.61-1.37-2-2.34-3.18-3.7-2.63,1.88-4.8,3.26-6.79,4.88-18.17,14.79-35.69,30.64-54.61,44.17-21.9,15.65-40.68,35.2-61.09,52.68-11.19,9.58-22.3,19.29-33.82,28.38-7.37,5.81-15.44,10.6-23.85,16.3,1.67,2.48,2.71,4.22,3.93,5.81,16.77,21.83,33.3,43.89,50.44,65.37,10.52,13.18,20.92,26.8,33.22,37.9,30.61,27.58,57,59.52,84.67,90.2q22.44,24.9,45.24,49.39c11.79,12.58,24,24.75,35.95,37.12,20.76,21.42,40.41,44.25,62.57,63.89s42.6,41.61,63.89,62.41c6.2,6,11.63,13,17.79,20Zm-822.84,88.73c1.5,18.88-8.81,30.94-19.67,42.7-1.79,1.94-3.53,3.92-5.33,5.83-13.94,14.75-23.76,31.37-25.67,52.76-1.75,19.72-11,35.31-26.74,46.89a83.52,83.52,0,0,0-16.41,16.74c-12.78,16.79-24.8,34.24-37.51,51.09-8.18,10.85-10.55,23.16-7.36,35.32,2.93,11.17,8,22.25,20.41,25.23q10.78,2.59,21.74,4.43c17.1,2.87,34.31,5.17,51.34,8.37,20,3.75,39.42,4.18,57-10.72a26.63,26.63,0,0,1,5.53-3.24c19-9.45,33.65-23.26,42-44.67,9.81-25.27,16.7-50.54,13.32-77.94a231.29,231.29,0,0,1-1.71-43.63c1.19-17.62,2.17-36,12.47-51.43,7.3-11,9.43-22.93,9.72-35.54.31-13.65-1.19-15.05-14.36-15.21-4.63,20.41-8.65,40.87-14,61-6.63,25-13.71,50-21.77,74.53-5.93,18.1-12.75,36.06-24.5,51.37-11.87,15.47-25.56,17.91-39.1,14.25-13-3.52-24.45-20.88-24.66-35.52-.29-20.44,8.12-37.93,17.15-55.53,11.74-22.88,22.57-46.28,33.69-69.51.94-2,1.17-4.3,1.62-6.49,1.85-9.17,3.53-18.38,5.52-27.53C479.94,2587.18,479.22,2586.17,464.66,2585.42Zm900.68-35.72c.45,7.17.62,11.91,1.06,16.61,2.46,26.26,5.41,52.46,7.31,78.79,1,14,0,28.29.36,42.42.15,6.18,1.31,12.3,2.14,18.42,1.36,10,3.63,19.85,4,29.89a207.12,207.12,0,0,1-1.67,31.92c-2.54,21.66,1.07,43.37-3.76,65.07-2.68,12-5.77,23.16-14.49,32.22-5.82,6.05-5.58,10.36,1,15.24a130.78,130.78,0,0,0,21.28,12.47c12.7,6.07,27,2.15,35.77-9.69a168.61,168.61,0,0,0,12.75-20.21c1.82-3.36,3.22-7.82,2.83-11.45-1.34-12.68-2.76-25.47-5.61-37.77-5.56-24-11.66-47.88-9.13-73.13,2.31-23.05,6-46,9-69,2.35-17.67,6-35.34,6.61-53,.7-20.23-4.26-39.33-16-55.49-3.18-4.37-6.72-6.75-12.35-7-8.17-.4-16.21-2.33-24.3-3.61ZM1307,2834a60.8,60.8,0,0,0,15.21,25.42c13.39,12.86,31.72,8.63,37.83-10.11,4.1-12.54,5.9-26.09,7.12-39.29,1.47-15.94,1.15-32,1.77-48,.29-7.54,1.64-15.14,1.32-22.61-1-23.88-2.61-47.7-4-71.55-1.39-24.74-2.47-49.52-4.2-74.22-1-14.44-3-28.75-4.58-42.8-28.34-3.76-48.27-20-65.24-42.71l-44.8,38.3c8.91,11,16.67,21,24.81,30.54,18.58,21.85,37.36,43.34,50,70.34,7.8,16.66,12.61,34.23,15.92,52.29,2.19,12,1.49,24.62,2.43,36.92,1.13,14.85-.2,29.24-6.62,43.08-5.25,11.3-9.94,22.89-15.35,34.1C1315.54,2820.28,1311.46,2826.38,1307,2834Zm-961,37.93c1.82,4.25,2.19,6.68,3.52,8,15.78,15.15,34.17,24.92,55.66,27.47a199.35,199.35,0,0,0,28.51,1.26,131.13,131.13,0,0,0,24.59-2.91,228.75,228.75,0,0,0,29.09-8.46A218.64,218.64,0,0,0,515.34,2885c19.07-10.14,32.7-27.33,45-45,17.33-24.87,27.14-52.75,23.72-84a109.09,109.09,0,0,1,7.21-53.64c7-17.33,12.87-35.14,19.21-52.75,4.08-11.31,4.14-22.88,2.39-34.32-1.6-10.41-6.9-17.93-17.17-19.71-9.56-1.64-19.22-2.7-29.73-4.13.24,3.9.22,6.52.58,9.07,2.52,17.85-.44,34.56-10.7,49.72-6.5,9.59-8.52,20.73-9.53,31.75a348.82,348.82,0,0,0-1.05,40c.23,10.16,1.79,20.23,3,30.3,1.94,16.81-3.36,32.92-7.72,48.56-4,14.37-10.43,29.06-19.08,40.91-15.17,20.77-37.46,31.64-59.62,41.47a39.47,39.47,0,0,1-18.26,3.43c-16.87-1.25-33.69-3.29-50.39-5.82C378.13,2878.56,363.27,2875.21,346.08,2871.9ZM465.72,2748c-2.82,6.85-4.47,12.3-7.29,17-1.11,1.85-4.81,2-7.34,2.89-.57-2.34-2-4.87-1.55-7,1.23-5.48,3.31-10.77,5.51-17.56l-21.84-7.07c-4.83,14-6.27,26.09,1.36,36.64,6.08,8.41,13.81,14.76,25.42,10.91,14.36-4.77,19.77-17.32,25.89-30.48Zm48.85-78.8-18.51-4.89c-4.3,12.35-8.3,23.87-12.84,36.92l21.92,3.67Zm712.95-105.84c9.55,9.43,17.82,17.73,26.23,25.87,6.12,5.93,12.82,9.58,22.55,4.21-11.9-14.19-23.15-27.61-34.7-41.37Zm-773.36,129c6,2.3,10,4.49,14.3,5.2,2.22.36,6.45-1.29,7.14-3.09,4.14-10.94,7.53-22.17,11.59-34.61l-17.65-2.2C464.6,2668.79,459.71,2679.84,454.16,2692.35Zm-3.22,9.65c-7.06,6.77-12.56,13.75-14.38,23.76,7.46,5.14,14.94,8.35,24.42,8,2.36-9.19,8.29-16.75,7.38-27.19ZM1288,2645.74l-13.22,4.77c4,8.74,8,15.77,10.59,23.41,2.68,8,4,16.6,5.83,24.68,12.92-.76,15-3.06,11.4-13.89C1298.43,2672.08,1293.33,2659.83,1288,2645.74Zm26.46,49.35c10.65-.45,12.13-1.33,10.46-8.72a129.84,129.84,0,0,0-17-41.84c-2.89-4.5-6.43-4.34-11-1.19C1302.7,2660.43,1308.39,2677.18,1314.46,2695.09Zm15,68.49c4.72-18.53-.3-35.68-1.54-53-.49-6.86-5.78-8.45-11.35-6.29.83,17.3,1.55,33.81,2.44,50.31C1319.32,2760.62,1321.85,2764.49,1329.45,2763.58Zm-849.63-53.35-12,28.11,21.93,3.71c6.54-8.37,10.52-16.7,9.17-26.77Zm803.07-71.38c-5.17-11.6-12.93-20.95-21.29-29.72-4.55-4.76-9.56-3.12-16.06,1.21,6.6,9.15,12.55,17.81,18.92,26.11C1270.49,2644.3,1271.37,2644.23,1282.89,2638.85Zm-754.07-47.74-12.85-.47-7.66,29,16.9,6.88C531.13,2614.48,529.8,2603.64,528.82,2591.11Zm777.06,172.42,4.75-1c2.85-19.34-.3-38-4.44-57.77l-11.35,3.88ZM523.55,2638.39c-17.55-10.64-21.77-8.06-22.74,13.67l17.48,6.23Zm-49,7.92c4.8,4.82,9.63,6.51,14.93,3.25,4-2.45,7.51-16.4,5.65-20.74-2.3-5.39-6.68-5.18-12.18-4Zm30.07-51.84c-16-7.51-19.09.81-19.68,20l14.85,3.92C501.63,2609.42,503.17,2601.78,504.65,2594.47Zm767.53,10.44,19.62,30.35,10.89-4L1281.78,2599Zm-53.79-30.38c6.9,8.75,12.4,16.14,18.32,23.1,4.06,4.77,8.62,4.8,13.42-.28-5.06-5-9.23-9.73-14-13.62C1231.47,2580,1229.56,2571.11,1218.39,2574.53Zm87.34,198.13c-1.21,11.85-5.88,23.46-2.27,36.15C1311.21,2796.58,1312.45,2781.4,1305.73,2772.66Zm20.06-1.29c-11.27,2.51-12.57,6.45-7.34,20.25C1324.87,2786.57,1327.34,2780.28,1325.79,2771.37Z"/><path class="cls-2" d="M1287.5,2496.69l-72.64,64.22c-6.16-7-11.59-13.92-17.79-20-21.29-20.8-41.61-42.65-63.89-62.41s-41.81-42.47-62.57-63.89c-12-12.37-24.16-24.54-35.95-37.12q-22.86-24.42-45.24-49.39c-27.65-30.68-54.06-62.62-84.67-90.2-12.3-11.1-22.7-24.72-33.22-37.9-17.14-21.48-33.67-43.54-50.44-65.37-1.22-1.59-2.26-3.33-3.93-5.81,8.41-5.7,16.48-10.49,23.85-16.3,11.52-9.09,22.63-18.8,33.82-28.38,20.41-17.48,39.19-37,61.09-52.68,18.92-13.53,36.44-29.38,54.61-44.17,2-1.62,4.16-3,6.79-4.88,1.2,1.36,2.57,2.33,3.18,3.7,17.48,39.67,39.85,76.23,61.07,113.45,17.4,30.51,37.49,59.16,55.61,89.2,16.57,27.48,32.1,55.7,48.06,83.62,13,22.7,25.51,45.7,39,68,9.06,15,19.59,29,29.16,43.6C1255.68,2418.16,1273.39,2455,1287.5,2496.69Z"/><path class="cls-3" d="M464.66,2585.42c14.56.75,15.28,1.76,12.72,13.52-2,9.15-3.67,18.36-5.52,27.53-.45,2.19-.68,4.53-1.62,6.49-11.12,23.23-21.95,46.63-33.69,69.51-9,17.6-17.44,35.09-17.15,55.53.21,14.64,11.66,32,24.66,35.52,13.54,3.66,27.23,1.22,39.1-14.25,11.75-15.31,18.57-33.27,24.5-51.37,8.06-24.58,15.14-49.51,21.77-74.53,5.32-20.1,9.34-40.56,14-61,13.17.16,14.67,1.56,14.36,15.21-.29,12.61-2.42,24.58-9.72,35.54-10.3,15.47-11.28,33.81-12.47,51.43a231.29,231.29,0,0,0,1.71,43.63c3.38,27.4-3.51,52.67-13.32,77.94-8.32,21.41-22.93,35.22-42,44.67a26.63,26.63,0,0,0-5.53,3.24c-17.58,14.9-37,14.47-57,10.72-17-3.2-34.24-5.5-51.34-8.37q-10.94-1.85-21.74-4.43c-12.44-3-17.48-14.06-20.41-25.23-3.19-12.16-.82-24.47,7.36-35.32,12.71-16.85,24.73-34.3,37.51-51.09a83.52,83.52,0,0,1,16.41-16.74c15.77-11.58,25-27.17,26.74-46.89,1.91-21.39,11.73-38,25.67-52.76,1.8-1.91,3.54-3.89,5.33-5.83C455.85,2616.36,466.16,2604.3,464.66,2585.42Z"/><path class="cls-4" d="M1365.34,2549.7l16.92,2.69c8.09,1.28,16.13,3.21,24.3,3.61,5.63.28,9.17,2.66,12.35,7,11.74,16.16,16.7,35.26,16,55.49-.61,17.66-4.26,35.33-6.61,53-3,23-6.74,45.93-9,69-2.53,25.25,3.57,49.16,9.13,73.13,2.85,12.3,4.27,25.09,5.61,37.77.39,3.63-1,8.09-2.83,11.45a168.61,168.61,0,0,1-12.75,20.21c-8.76,11.84-23.07,15.76-35.77,9.69a130.78,130.78,0,0,1-21.28-12.47c-6.63-4.88-6.87-9.19-1-15.24,8.72-9.06,11.81-20.17,14.49-32.22,4.83-21.7,1.22-43.41,3.76-65.07a207.12,207.12,0,0,0,1.67-31.92c-.39-10-2.66-19.92-4-29.89-.83-6.12-2-12.24-2.14-18.42-.34-14.13.65-28.39-.36-42.42-1.9-26.33-4.85-52.53-7.31-78.79C1366,2561.61,1365.79,2556.87,1365.34,2549.7Z"/><path class="cls-3" d="M1307,2834c4.42-7.59,8.5-13.69,11.67-20.27,5.41-11.21,10.1-22.8,15.35-34.1,6.42-13.84,7.75-28.23,6.62-43.08-.94-12.3-.24-25-2.43-36.92-3.31-18.06-8.12-35.63-15.92-52.29-12.64-27-31.42-48.49-50-70.34-8.14-9.58-15.9-19.55-24.81-30.54l44.8-38.3c17,22.71,36.9,38.95,65.24,42.71,1.54,14,3.56,28.36,4.58,42.8,1.73,24.7,2.81,49.48,4.2,74.22,1.34,23.85,2.93,47.67,4,71.55.32,7.47-1,15.07-1.32,22.61-.62,16-.3,32-1.77,48-1.22,13.2-3,26.75-7.12,39.29-6.11,18.74-24.44,23-37.83,10.11A60.8,60.8,0,0,1,1307,2834Z"/><path class="cls-4" d="M346.08,2871.9c17.19,3.31,32.05,6.66,47.09,8.95,16.7,2.53,33.52,4.57,50.39,5.82a39.47,39.47,0,0,0,18.26-3.43c22.16-9.83,44.45-20.7,59.62-41.47,8.65-11.85,15.08-26.54,19.08-40.91,4.36-15.64,9.66-31.75,7.72-48.56-1.16-10.07-2.72-20.14-3-30.3a348.82,348.82,0,0,1,1.05-40c1-11,3-22.16,9.53-31.75,10.26-15.16,13.22-31.87,10.7-49.72-.36-2.55-.34-5.17-.58-9.07,10.51,1.43,20.17,2.49,29.73,4.13,10.27,1.78,15.57,9.3,17.17,19.71,1.75,11.44,1.69,23-2.39,34.32-6.34,17.61-12.22,35.42-19.21,52.75a109.09,109.09,0,0,0-7.21,53.64c3.42,31.23-6.39,59.11-23.72,84-12.32,17.67-26,34.86-45,45a218.64,218.64,0,0,1-27.89,12.21,228.75,228.75,0,0,1-29.09,8.46,131.13,131.13,0,0,1-24.59,2.91,199.35,199.35,0,0,1-28.51-1.26c-21.49-2.55-39.88-12.32-55.66-27.47C348.27,2878.58,347.9,2876.15,346.08,2871.9Z"/><path class="cls-5" d="M465.72,2748l20.16,5.33c-6.12,13.16-11.53,25.71-25.89,30.48-11.61,3.85-19.34-2.5-25.42-10.91-7.63-10.55-6.19-22.66-1.36-36.64l21.84,7.07c-2.2,6.79-4.28,12.08-5.51,17.56-.48,2.11,1,4.64,1.55,7,2.53-.91,6.23-1,7.34-2.89C461.25,2760.3,462.9,2754.85,465.72,2748Z"/><path class="cls-5" d="M514.57,2669.2l-9.43,35.7-21.92-3.67c4.54-13.05,8.54-24.57,12.84-36.92Z"/><path class="cls-5" d="M1227.52,2563.36l14.08-11.29c11.55,13.76,22.8,27.18,34.7,41.37-9.73,5.37-16.43,1.72-22.55-4.21C1245.34,2581.09,1237.07,2572.79,1227.52,2563.36Z"/><path class="cls-5" d="M454.16,2692.35c5.55-12.51,10.44-23.56,15.38-34.7l17.65,2.2c-4.06,12.44-7.45,23.67-11.59,34.61-.69,1.8-4.92,3.45-7.14,3.09C464.18,2696.84,460.16,2694.65,454.16,2692.35Z"/><path class="cls-5" d="M450.94,2702l17.42,4.6c.91,10.44-5,18-7.38,27.19-9.48.32-17-2.89-24.42-8C438.38,2715.75,443.88,2708.77,450.94,2702Z"/><path class="cls-5" d="M1288,2645.74c5.33,14.09,10.43,26.34,14.6,39,3.58,10.83,1.52,13.13-11.4,13.89-1.85-8.08-3.15-16.67-5.83-24.68-2.56-7.64-6.56-14.67-10.59-23.41Z"/><path class="cls-5" d="M1314.46,2695.09c-6.07-17.91-11.76-34.66-17.56-51.75,4.55-3.15,8.09-3.31,11,1.19a129.84,129.84,0,0,1,17,41.84C1326.59,2693.76,1325.11,2694.64,1314.46,2695.09Z"/><path class="cls-5" d="M1329.45,2763.58c-7.6.91-10.13-3-10.45-9-.89-16.5-1.61-33-2.44-50.31,5.57-2.16,10.86-.57,11.35,6.29C1329.15,2727.9,1334.17,2745.05,1329.45,2763.58Z"/><path class="cls-5" d="M479.82,2710.23l19.11,5.05c1.35,10.07-2.63,18.4-9.17,26.77l-21.93-3.71Z"/><path class="cls-5" d="M1282.89,2638.85c-11.52,5.38-12.4,5.45-18.43-2.4-6.37-8.3-12.32-17-18.92-26.11,6.5-4.33,11.51-6,16.06-1.21C1270,2617.9,1277.72,2627.25,1282.89,2638.85Z"/><path class="cls-5" d="M528.82,2591.11c1,12.53,2.31,23.37-3.61,35.4l-16.9-6.88,7.66-29Z"/><path class="cls-5" d="M1305.88,2763.53l-11-54.91,11.35-3.88c4.14,19.77,7.29,38.43,4.44,57.77Z"/><path class="cls-5" d="M523.55,2638.39l-5.26,19.9-17.48-6.23C501.78,2630.33,506,2627.75,523.55,2638.39Z"/><path class="cls-5" d="M474.58,2646.31l8.4-21.47c5.5-1.2,9.88-1.41,12.18,4,1.86,4.34-1.67,18.29-5.65,20.74C484.21,2652.82,479.38,2651.13,474.58,2646.31Z"/><path class="cls-5" d="M504.65,2594.47c-1.48,7.31-3,15-4.83,23.91L485,2614.46C485.56,2595.28,488.68,2587,504.65,2594.47Z"/><path class="cls-5" d="M1272.18,2604.91l9.6-5.93,20.91,32.32-10.89,4Z"/><path class="cls-5" d="M1218.39,2574.53c11.17-3.42,13.08,5.43,17.71,9.2,4.8,3.89,9,8.64,14,13.62-4.8,5.08-9.36,5.05-13.42.28C1230.79,2590.67,1225.29,2583.28,1218.39,2574.53Z"/><path class="cls-5" d="M1305.73,2772.66c6.72,8.74,5.48,23.92-2.27,36.15C1299.85,2796.12,1304.52,2784.51,1305.73,2772.66Z"/><path class="cls-5" d="M1325.79,2771.37c1.55,8.91-.92,15.2-7.34,20.25C1313.22,2777.82,1314.52,2773.88,1325.79,2771.37Z"/><path class="cls-1" d="M1295.51,1655.16c11.38-10.78,24.53-15.92,36-25.17-7.9-10-14.62-19.78-22.58-28.26-19.75-21-33.23-46.45-44-73.66-9.78-24.61-19.8-49-33.57-71.34-10.17-16.5-17.54-34.88-29.56-51.08,14.59-8.21,23.5-21.8,34.6-32.77,5.32-5.26,9.6-11.87,13.88-18.4,13.51-20.62,24.51-43,38.45-63.17,30.08-43.55,61.79-85.84,89.59-131.14a365.64,365.64,0,0,0,34.23-73.37c10.4-30.53,18.9-61.75,26.23-93.22,6.91-29.66,10.13-59.92,15-89.9,4.76-29,4.86-57.2-3.34-85.39-11.44-39.3-44-83.29-78.84-103a13.72,13.72,0,0,1-4.52-4.51c-15.31-24.12-37.44-38.21-62.6-47.95-11.5-4.46-21.54-12.34-33.8-15.18-2.09-.48-6.42-2.23-4.89-6.52,2.4-6.72,2.75-13.77,7.76-20.1,14.41-18.24,26.39-38.2,32.35-61.52,4.46-17.45,9.69-34.72,14-52.21,7.56-30.92,10.37-61.79-.39-91.84a15.37,15.37,0,0,1,.23-11.86c5.11-12.29,10.73-24.39,15.17-36.93,8.18-23,15.57-46.36,15.57-71.15,0-15.28-9.32-29.7-22.82-33.64-6.44-1.88-8.63-4.43-8.53-12,.23-16.54-7.45-25.88-22.41-29.9-2.47-.67-5-1.14-7.47-1.81-2.69-.73-4.79-2.4-4.52-5.61,1.22-14.14-4.36-26.66-6.55-40-1.26-7.66-4.87-13.25-9.9-18.35-9.59-9.72-21-16.34-32.65-22.75-19.53-10.79-40.34-18.66-60.43-28.17a98.51,98.51,0,0,0-48.72-9.09c-18.38,1.31-36.8,1.57-55.16,3.74-11.55,1.36-23.33,3.81-33.21,10.36-29,19.25-50.35,45.58-60.22,81.06-.91,3.28-2.47,4-5,5.21-16.75,8.07-24.38,24-21.17,42.75.8,4.67,4,9,2.19,14.54-15.64-1.91-29.31,2.45-40.64,14.44-5.24,5.55-9.76,11.9-15.07,17.36-15.73,16.19-15.47,36.17-14.18,56.5.86,13.39,6.05,25.54,8.19,38.51.77,4.72,4.38,9.94-.51,15.35-11.45,12.64-14.9,29.26-20,45-7.24,22.47-9.5,45-3.47,67.77.93,3.52,2.55,7.9-.55,12.64-27.82-6.19-55.78-1.28-83.64,5.58-15.1,3.72-30.34,6.46-44.76,13.79-5.31,2.7-7.5,8.83-13.59,10.19-17.4,3.87-33.8,11.54-50.49,18.15-40.67,16.1-80.79,33.43-119,56.06-15.94,9.44-31.67,19.39-48.22,27.79-16.82,8.52-33.59,17.46-49.33,28.68-13.76,9.79-27.61,19.73-41.92,28.4-38.41,23.28-65.68,57.62-88.67,96.76-11.94,20.31-19.27,42.6-27.17,64.76-6.83,19.16-8.65,38.54-8.36,58.33.06,4.51,2.65,9.51,1.37,13.34-4.14,12.38,2.68,20.59,8.76,27.49,11.9,13.51,26.44,23.71,44.11,27.57,27.07,5.91,52.76,16.57,79.77,22.91a740.53,740.53,0,0,1,80.94,23.59c15.85,5.68,32.16,8,48.29,11.75,4.4,1,9.15,1.07,13.07,4-3.43,7.41-10.12,10.46-15.16,15.31-19.79,19-38.89,39.24-60.26,56a671.3,671.3,0,0,0-63.06,56.74c-9.51,9.62-19.18,19.28-29.78,27.39a393.34,393.34,0,0,0-37.82,32.35c-15.71,15.5-31.61,30.74-45.07,48.65-5.1,6.8-6.6,6.18-14.57-1m59.9,58.85c33.06,23.94,54.49,59.56,76.78,94,16,24.81,30.52,50.72,49.32,73.47,13.85,16.76,36.69,37.44,32.41,28.17,2.59-3.73,6.85-3.92,10.25-5.84,14.32-8.06,14.37-7.88,25,3.24,2.4,2.52,5,4.87,7.51,7.22,8.58,7.91,18.08,14.92,25.65,23.83,23.91,28.13,52.93,49.85,80.17,73.78,17.93,15.75,39.25,26.08,59,39,8,5.21,16.07,9.46,25.84,10.36,6.69.62,13.24,3.08,19.66,5.29,13.78,4.75,28.3,5.78,42.47,8.54,4.41.86,7.62-.5,8.83-5.64l-.35.17c6.6,5.47,14,7.1,22.58,6.26,14.5-1.4,28.95.54,43.52.17,35.84-.92,71.65.39,107.35-6.94,4.24-.87,100-8.65,133.1-15.24,36.82-7.33,73.56-15.42,110.59-21M217.87,1021.16c-.56-4.36-3.31-5.41-5.48-6.84-16.91-11.18-25.54-28.88-31.76-48a192.73,192.73,0,0,1-9.7-63.37c.27-15.12,2.12-29.74,9.15-43-5.62-2.89-8-2.88-9.15,1.09C169,868,166,874.45,165,881.7c-3.92,26.61-1.15,52.66,5.92,78.57,6.39,23.43,16.49,43.93,35.47,58.68C210.25,1022,213.42,1022.66,217.87,1021.16ZM1545.69,2478.33c-8.07-18-10.43-21.08-23.24-32.9-6.76-6.24-14.8-10.15-22.34-15-23.73-15.34-49.45-13.07-75.65-7.52-2.25.47-4.25,1.26-4.5,4.1a5.93,5.93,0,0,0,2.82,5.65c3.45,2.34,7.09,2.1,11.08.86,7.88-2.44,15.77-5.16,24-5.33,21.15-.43,39,8.73,54.92,21.63,9.46,7.64,19.49,15.68,19.86,31,.08,3.17,3,7,7.4,3C1542,2482,1544.87,2481.4,1545.69,2478.33ZM223.42,901.63c1.23,9.25,2.57,16.6,3.12,24,.87,11.82,6.91,21.28,11.62,31.37a6,6,0,0,0,1.17,1.71c2.3,2.24,4.89,2.14,7.22.41,3.09-2.3.49-4.45-.76-6.15-5.2-7.12-9.55-15.42-10.2-23.86-1.07-14-7-27.79-2.29-42.1.85-2.58-1.4-3.75-3.2-4.51s-3.21.7-3.84,2.31C223.94,890.77,222.59,896.94,223.42,901.63Zm1282.89,1621c-14.28-21.46-39.55-43-65.26-42-2.06.08-4.33-.84-5.45,2.14-1.18,3.14.1,5,2.34,6.87,2.5,2,5.09,2.57,8.25,2.51,21.19-.42,35.16,12.15,46.43,29.11C1496.8,2527.57,1497.47,2528,1506.31,2522.63Z"/><path class="cls-6" d="M311.25,1300.62s5-3.18,6.43-5.61c11.52-19.37,29.36-33.15,45.07-48.65A393.34,393.34,0,0,1,400.57,1214c10.6-8.11,20.27-17.77,29.78-27.39a671.3,671.3,0,0,1,63.06-56.74c21.37-16.73,40.47-36.93,60.26-56,5-4.85,11.73-7.9,15.16-15.31-3.92-2.9-8.67-2.95-13.07-4-16.13-3.73-32.44-6.07-48.29-11.75a740.53,740.53,0,0,0-80.94-23.59c-27-6.34-52.7-17-79.77-22.91-17.67-3.86-32.21-14.06-44.11-27.57-6.08-6.9-12.9-15.11-8.76-27.49,1.28-3.83-1.31-8.83-1.37-13.34-.29-19.79,1.53-39.17,8.36-58.33,7.9-22.16,15.23-44.45,27.17-64.76,23-39.14,50.26-73.48,88.67-96.76,14.31-8.67,28.16-18.61,41.92-28.4,15.74-11.22,32.51-20.16,49.33-28.68,16.55-8.4,32.28-18.35,48.22-27.79,38.26-22.63,78.38-40,119-56.06,16.69-6.61,33.09-14.28,50.49-18.15,6.09-1.36,8.28-7.49,13.59-10.19,14.42-7.33,29.66-10.07,44.76-13.79,27.86-6.86,55.82-11.77,83.64-5.58,3.1-4.74,1.48-9.12.55-12.64-6-22.8-3.77-45.3,3.47-67.77,5.08-15.76,8.53-32.38,20-45,4.89-5.41,1.28-10.63.51-15.35-2.14-13-7.33-25.12-8.19-38.51-1.29-20.33-1.55-40.31,14.18-56.5,5.31-5.46,9.83-11.81,15.07-17.36,11.33-12,25-16.35,40.64-14.44,1.79-5.58-1.39-9.87-2.19-14.54-3.21-18.72,4.42-34.68,21.17-42.75,2.52-1.21,4.08-1.93,5-5.21,9.87-35.48,31.19-61.81,60.22-81.06,9.88-6.55,21.66-9,33.21-10.36,18.36-2.17,36.78-2.43,55.16-3.74a98.51,98.51,0,0,1,48.72,9.09c20.09,9.51,40.9,17.38,60.43,28.17,11.61,6.41,23.06,13,32.65,22.75,5,5.1,8.64,10.69,9.9,18.35,2.19,13.32,7.77,25.84,6.55,40-.27,3.21,1.83,4.88,4.52,5.61,2.47.67,5,1.14,7.47,1.81,15,4,22.64,13.36,22.41,29.9-.1,7.57,2.09,10.12,8.53,12,13.5,3.94,22.82,18.36,22.82,33.64,0,24.79-7.39,48.12-15.57,71.15-4.44,12.54-10.06,24.64-15.17,36.93a15.37,15.37,0,0,0-.23,11.86c10.76,30,8,60.92.39,91.84-4.28,17.49-9.51,34.76-14,52.21-6,23.32-17.94,43.28-32.35,61.52-5,6.33-5.36,13.38-7.76,20.1-1.53,4.29,2.8,6,4.89,6.52,12.26,2.84,22.3,10.72,33.8,15.18,25.16,9.74,47.29,23.83,62.6,47.95a13.72,13.72,0,0,0,4.52,4.51c34.86,19.69,67.4,63.68,78.84,103,8.2,28.19,8.1,56.4,3.34,85.39-4.92,30-8.14,60.24-15,89.9-7.33,31.47-15.83,62.69-26.23,93.22a365.64,365.64,0,0,1-34.23,73.37c-27.8,45.3-59.51,87.59-89.59,131.14-13.94,20.17-24.94,42.55-38.45,63.17-4.28,6.53-8.56,13.14-13.88,18.4-11.1,11-20,24.56-34.6,32.77,12,16.2,19.39,34.58,29.56,51.08,13.77,22.35,23.79,46.73,33.57,71.34,10.82,27.21,24.3,52.62,44,73.66,8,8.48,14.68,18.29,22.58,28.26-2.21,2.58-36.91,24.62-48.29,35.4l-40.62,6.4c-37,5.55-73.77,13.64-110.59,21-33,6.59-128.86,14.37-133.1,15.24-35.7,7.33-71.51,6-107.35,6.94-14.57.37-29-1.57-43.52-.17-8.61.84-16-.79-22.57-6.26,1.32-1,1.29-2.41.13-3.12-7.86-4.8-6.85-11.94-4.61-20,2.6-9.32,4.25-18.91,6.79-28.25,1.34-4.93,1.42-8.33-2.83-11.76s-2.28-11,2.33-10.09c10,2,9.85-5.81,12.06-11.58,2.3-6,3.94-12.3,6.44-18.21,2.92-6.91,4.55-12.72-2.81-17.59-3.63-2.4-2.59-8.25,1.57-7.7,11.42,1.51,10.62-7.31,12.59-14.27,3.14-11.1,6.21-22.22,9.67-33.22,1.84-5.83,3.56-10.43-1.81-15.74-4.34-4.29-1.3-10.09,4.9-9.63,5.56.41,5.57-3.49,6.23-6.68,2.73-13.14,6.45-26,10.26-38.83,3.47-11.68,3.27-11.74-9.23-13.59-2.76,15.41-8.51,30-13.85,44.6-10.3,28.22-16.16,57.67-24.17,86.51-6,21.77-14.44,42.67-21.19,64.18-4.44,14.15-6.48,28.78-11.08,42.84-1.67,5.12-3.13,9.73-8.61,13.18l27.56,8.75c-1.21,5.14-4.42,6.5-8.83,5.64-14.17-2.76-28.69-3.79-42.47-8.54-6.42-2.21-13-4.67-19.66-5.29-9.77-.9-17.86-5.15-25.84-10.36-19.72-12.91-41-23.24-59-39-27.24-23.93-56.26-45.65-80.17-73.78-7.57-8.91-17.07-15.92-25.65-23.83-2.55-2.35-5.11-4.7-7.51-7.22-10.61-11.12-10.66-11.3-25-3.24-3.4,1.92-7.66,2.11-10.25,5.84,4.28,9.27-18.56-11.41-32.41-28.17-18.8-22.75-33.29-48.66-49.32-73.47C417.5,1412.45,346,1334,312.91,1310.06ZM992.19,711.05c.49.61,1,1.78,1.47,1.73,1.84-.21,1.48-1.71,1.23-3-.87-7.69-1.91-15.35-2.57-23.06-1.4-16.18,3.54-30.27,15.38-42.26-8.82-5.09-16.78-9.15-24.22-14.09C971,622.07,957,616.34,945.79,606c-14.33-13.2-27.16-28-39.57-43.28l-24.54-30.12c-3.55,3-2.75,6-2.72,8.6.43,32.47,1,64.93,1.47,97.4.08,5.09,2,9.09,6.07,11.07,18.4,8.92,34.7,21.72,53.34,30.38,15.59,7.25,32.73,12.39,44.35,27.22C985.87,709.44,989.47,709.84,992.19,711.05ZM940.55,1130.1c-1.6,1.24-.57,1.79.47,2.26a2.24,2.24,0,0,0,1,0,1.85,1.85,0,0,0-1.86-2.09c-.61-6.15-7.3-11.87-.36-18.62,1.57-1.53.67-3.23-.62-4.66-5.54-6.11-10.44-12.94-19.27-14.36-5.48-.88-10.82-2-16.5-1.7-5.45.28-11.25.31-14.18-6.06,1.36-2.46,3.33-3.34,5.41-4.08,2.46-.87,5.1-1.43,7.33-2.79,22.19-13.5,43.16-7.47,61.86,4.79,8,5.23,13.2,6.14,20.63,1.48.58-.36,1.11-.81,1.84-1.34-2.67-3.58-5.57-6.86-7.82-10.6-9.65-16-24.57-21.09-41.52-21-14.91.06-29.79,1.73-44.34,6.64-3.68,1.24-8.35,1.91-9.64-3.39-.93-3.83,3.07-5.42,5.48-6.65,25.75-13,62.84-15.88,86.92,7.11,2,1.87,3.2,5.48,7.54,4.56.73-11.17,5.55-18.76,17.9-19-14.9-3.38-26.91-11.11-38-19.89-13.33-10.52-28-14.29-44.43-12.56-7.25.77-14.46,2.21-21.7,3.13a6.13,6.13,0,0,1-6.9-4.73c-.95-3.39,2.35-4.52,4.45-5.89,1.84-1.19,4-1.67,6-2.79,13.17-7.82,27.38-7.25,41.44-7.63,17.74-.48,34,3.1,45.83,18.28,2.37,3,5,4.95,8.53,1,3.89-4.36,9.17-5.35,15.87-5.86-10.24-11.74-21-19.26-32.67-25.6-.9-1-1.9-1.64-3.07-.47a10.93,10.93,0,0,0,1.09,1.9c-1.9,2.07-.62,7-5.49,6.69-1.55-5.92-1.64-13.19-5-17.63-11.56-15.44-30.94-27.89-54.25-17-4.38,2-8.58,4.6-13,6.56-9.78,4.36-20.13,6.61-30.22,4.47-13.62-2.88-27.86-3.62-40.56-10.31-6.12-3.23-8.66,0-11,6.48-7.91,22.11-16.52,44-24.83,65.93-5.06,13.41-11.89,25.94-17.73,39-4.41,9.82-3.91,10.68,4.74,16.1q15.79,9.88,31.72,19.55c5.56,3.37,11.54,4.63,18.14,5.25,15.08,1.44,29.82-.17,44.66-3.56a34.87,34.87,0,0,1,23.65,2.33,123,123,0,0,1,29,19C931,1125.63,934.28,1130.85,940.55,1130.1Zm235-815.28c-1-.25-2.23-1-2.86-.63-1.19.76-.52,1.94.27,2.8-.24,3.19-.61,6.38-.68,9.57-.66,28.86-5.11,56.93-20.17,82.14-3.85,6.45-6.19,11.73-1.18,18.88-9.82-4.3-15.89-.14-20.82,7.55,1.9,3.31,6.92,3.16,5.84,8.18-.9.1-2.06.61-2.53.21-5.38-4.53-10.43-9.8-18.32-4.15-.89.64-3.09-1.07-4.73-1.49-10.59-2.72-18.85-9.77-27.66-15.91-16.66-11.61-18.27-29.29-13.61-47.29,4-15.4,9.07-30.92,17-45.09,3.12-5.58,5.34-11.73,7.84-17.68.85-2,2-4.42,0-6.17s-4,.1-5.81,1.24c-16.83,10.71-33.72,21.19-52.82,26.4-3.26.89-6.36,3.06-9.27,5.09-9.36,6.54-10.59,7-16.23-1.69-12.28-18.84-26.39-36.34-36.28-57-5.82-12.12-12.56-21.66-27.64-15.11-1.16.5-2.55.35-3.82.56-10.84,1.75-21.21,4.21-26.75,16.55a12.44,12.44,0,0,1-5.68,5.63c-9.18,4.19-12.48,12.66-14.19,21.8-3.18,16.93-3,33.71,2.17,50,1.79,5.57,3.19,11.31,4.64,17,2.43,9.51,4.26,18.41-5,26.61-4,3.57-6.27,10.21-8,15.87-4.74,15.91-10.51,31.83-12.69,48.11-3.43,25.53-1.33,50.16,18.09,68.68a186.3,186.3,0,0,1,20.52,23.77c24.88,33.45,57,56.74,92.65,75.17a81.61,81.61,0,0,0,15.17,6.4c20.16,5.75,40.9,8.58,61.32,12.92,41.56,8.85,82.34,5.85,121.9-14.77a36,36,0,0,1,9.83-3.58c12.48-2.34,23.94-7.53,34.91-14.43s22.19-12.2,28.12-25.9c6.2-14.31,14.61-27.47,18.34-43.07,4.07-17,10.53-33.6,13.92-50.74,5.94-30,9.51-60.25-2.64-89-1.78-4.22-1.12-7.68.61-11.73,5.62-13.12,11.55-26.15,16.23-39.62,6.93-20,13.45-40.1,15.4-61.58,1.06-11.66-2.9-19.51-9.9-26.38-7.8-7.63-14.52-4.86-19.87,5.57-11.92,23.22-26.58,43.84-51,53.58-17.88,7.13-35.72,14.37-53.57,21.58-10.13,4.09-10.91,3.63-14.63-7.18C1188,335,1183.72,323.71,1175.56,314.82Zm203.15,415c-2.61-1-5.2-1.94-3.5,3q-4.2,22.32-8.39,44.64c-.44,2.36-1,4.63-3.89,4.44-2.42-.17-3.62-2.14-4.59-4.15a8,8,0,0,1,.26-6.67c4.48-10.66,3.8-22.81,9.51-33.13,1.15-2.07,1.52-4.56-.63-6s-4,.52-5.53,2.18c-8.54,9.51-19,16.42-28.62,24.39A361.28,361.28,0,0,0,1298,791.71c4.09,3.91,8.24,4.83,12.3,5.93,11.21,3,21.09,9.23,31.37,14.4,6.82,3.44,7.19,6.8,2.66,14.08-3.85,6.22-8,12.21-12.29,18.15-10.7,15-24.74,26.07-37.87,38.38-18,16.88-37.3,32.09-54.86,49.53-4.74,4.71-9.7,9.81-17.28,5.83-1.11,17.17-8.29,30.61-17.58,42.46-15.18,19.39-24.08,42-33.12,64.67-1.46,3.66-3.17,6.79,1.77,8.69,8.52,3.27,10.52,10.71,10.25,19.66a41.34,41.34,0,0,0,.68,10.93c5.83,23.71,6.82,48.46,11.58,72.44,5.55,28,7.12,57,16.16,84,1.22,3.66-.27,4.88-3,6.14-2.35,1.11-4.47,2.86-6.83.08-2.11-2.48-2.75-5.38-3.28-8.61-3.83-23.29-8-46.5-11.71-69.82-5-31.75-11.32-63.27-12.38-95.79-.31-9.24-2.79-12-12.24-10.61-17.89,2.57-34.82-.91-51.76-5.19-8.28-2.09-16.55-4.26-24.94-5.81-11.49-2.12-13.13-.87-16.36,11.29-1.42,5.35-3.13,10.82-3.36,16.24a193.67,193.67,0,0,1-3.78,31.48c-1.94,9.42-2.68,19.13-3.38,28.74-1.55,21.54-1.37,43.09-2,64.63-1.34,43.06-2.41,86.13-8.52,129.11-3.56,25-3.5,50.39-7.88,75.43-2.64,15-.29,28.84,8.83,41,5.79,7.69,7,10,16.81,7.15,22.2-6.36,44-14,64.81-24.71,15.28-7.89,30.42-16.18,46-23.31,28.39-13,48.36-36.13,65.85-62.16,9.91-14.75,18.6-30.4,28-45.56,27.66-44.78,60.81-85.35,88.52-130.2,19.65-31.81,36.53-64.62,47.54-100.54,8.11-26.46,17.24-52.84,22.55-79.88,7.27-37.09,13.25-74.54,17.15-112.15,1.52-14.68,1.57-29.49-1.64-43.77C1434.83,790.23,1410.93,756.87,1378.71,729.8ZM737.86,566.59c-1-.93-1.9-2.78-3.37-.82-.34.46.5,1.93.8,2.93-.27,7.34-.49,14.67-.83,22-.19,4.39.89,11.21-4.15,11.48-6.46.35-4.39-7.24-5.18-11.81-.14-.84.45-1.83.4-2.72-.44-7,1.5-13.67,2.88-20.43,2-9.63.51-11.21-7.68-8.66-.83.26-1.63.63-2.44,1-33.09,13.82-66.33,27.2-99.21,41.61-27.27,12-53.16,27.17-78.75,43.08-14.63,9.1-30.26,16.25-45.33,24.54-23.62,13-45.62,29.05-68.21,44-21.21,14-41.48,29.89-57.13,50.69-18,23.92-35.05,48.55-46.82,77.18-15.46,37.6-23.74,75.31-16.86,115.43a16.7,16.7,0,0,0,4.86,9.09c9,9.63,19.36,17.1,31.59,21.74,10,3.79,20.42,6.06,30.43,9.45,36.42,12.34,74.17,19.86,110.72,31.76,21.47,7,42.88,14.58,65.35,18a279.64,279.64,0,0,1,36.28,7.73c8.22,2.42,16.65,3.47,25.21,4.3,20.85,2,41.8,3.79,62.36,7.48,28.42,5.11,57.21,1.72,85.78,2.88,2.45.1,5.57.61,6.1-3.3,2-14.15,10-25.8,16.1-37.86,13.16-26.12,16.3-56.72,35.12-79.95-19-15.88-42.36-19.53-63-29.38-11.5-5.47-23-11.27-35.68-13.88-2.45-.5-5.22-2.69-7.31-.66-5.31,5.15-9.22,3.34-13-1.36-3-3.75-7.39-3.95-11.65-4.45A45.49,45.49,0,0,1,674,895.22c-15.52-5.88-31.08-11.78-46.93-16.64A209.4,209.4,0,0,1,594.93,866c-21.16-10.57-42.9-18.55-66.17-22.43A238.27,238.27,0,0,1,505.11,838c-2.48-.68-6.82-.48-5.35-5.47,1.08-3.69,3.93-4.57,7.31-3.66,16.91,4.55,34.2,8,50.66,13.8,27.67,9.84,54.67,21.66,82.25,31.79,20.36,7.48,40.65,15.44,62.44,18.21,5.21.67,8.93-.56,12.9-4.28,7.28-6.82,14.23-14,19.7-22.47,3.83-6,9.56-9.41,14.25-14.19,2.71-2.76,5.92-1.38,8,.91,2.7,2.95-.38,4.8-2.17,6.54-11.27,11-19.46,25.2-32.17,34.62-.83.62-.74,1.55.42,2.84,17.86,7.65,35.79,17,54.75,23,19.2,6.07,36.17,16.51,54.14,25.82,1.76-5.14-.34-8.7-1.88-12.1a49.88,49.88,0,0,1-4.31-17c-1.91-27.71-10.64-53.17-19.33-78.67-4.2-12.32-9.72-24.26-12.47-37-7.16-33.16-19.82-63.5-36.47-91.83-5.84-9.95-10.51-20.31-15.24-31.5,20.6-7.37,41-3,62.4-4.28-3.08-4.65-5.29-7.88-7.4-11.19-14.52-22.63-31.25-43.55-43.81-67.69C748.85,584.7,743.18,575.75,737.86,566.59Zm-420.33,742c13.66,11.12,25.24,21.63,37.84,30.57,29.1,20.65,53.5,46.31,74,76.43,9.39,13.81,18.83,27.53,27.17,42.21,15.59,27.44,35,51.86,54.07,76.49,5.84,7.54,6.81,7.64,15,3,16.89-9.68,34.11-18.71,50.64-29.08s33.28-20,49.31-31.22c12.72-8.9,25.45-17.86,38.58-26.14,16.09-10.14,31.46-21.84,46.62-33.51,16.87-13,31.88-28.83,47.6-43.54,1.8-1.68,5.09-3.37,3.56-6.57-2.35-4.9.8-6.26,3.75-8.48,7.51-5.63,14.85-11.5,22.21-17.35,19.67-15.65,39.8-30.75,61.94-41.67,25.46-12.56,45.28-34,70.28-48.38-5.48-7.33-10.16-13.53-13.24-21.1-4.58-11.25-7.56-23.11-11.58-34.57A470.85,470.85,0,0,1,877,1127.7c-3.34-17.61-2.75-17.51-19.12-15.2-22.26,3.15-43.7,2.39-61.74-13.65a55.42,55.42,0,0,0-12.86-8.48c-11-5.25-20.45-14.23-33.83-13.59-30,1.45-59.87.56-89.47-4.45-24.77-4.19-50.25-4.2-74.69-10.45-5.11-1.31-7.85.85-11,4.74-19.69,24.65-43.76,44.33-66.91,64.71s-47.6,39.22-68.93,62.15a216.07,216.07,0,0,1-28.78,26.34c-25.61,19-47.79,42.1-69.84,65.47C332.81,1292.81,327.63,1302.23,317.53,1308.59Zm645.34,111.86c4.33,27.48,9.7,54.61,19,80.35,4,11.06,7.54,22.31,9.41,33.81,6.8,41.7,27.07,76.87,44.15,113.42,7.25,15.5,19.43,28.14,25.35,44.94,2.34,6.65,7.18,7.76,13.59,4.54,7.09-3.57,14.73-5.48,22.4-6.9,29.24-5.42,58.28-12.18,87.58-17.39,27.14-4.82,54.13-10.7,81.53-13.07,3.82-.34,8.59-.18,11.25-2.49,12.73-11.09,26.74-20.17,40.86-29.77-4.25-5.63-7.37-10.51-11.17-14.67-22.37-24.43-38.88-53-51.2-84.63-3.91-10-7.54-20.19-11.78-30-12.19-28.37-29.37-53.67-42-81.82-3.78-8.44-4.84-8.63-12.9-4.55-18.85,9.54-37.79,18.92-56.32,29.16-23.48,13-48.58,19.6-73.78,26-6.28,1.6-10.77-.89-13.16-7.42-2.64-7.23-6.9-13.47-11.1-19.65a27.34,27.34,0,0,1-5-19.11c2.79-27.9,4-56,8.07-83.72,6.1-41.54,7.15-83.17,8.8-124.77,1.34-33.86-.74-67.77,6.65-101.41.88-4,1.45-8.17,2.3-12.22.59-2.82,1.2-5.93-1.74-7.09s-4.14,2-5.93,4c-6,6.67-9.72,15.11-15.63,22-2.57,3-6.53,7.08-7.28,12.31-1.82,12.71-6.17,24.9-7.54,37.78-1.8,16.92-4.67,33.76-7.35,50.6-2.61,16.42-7,32.45-10.83,48.62-8.42,35.63-9.83,72.07-12,108.26-.88,14.65-4.81,28-9,41.59-1.36,4.44-3.89,6-7.87,4.38C968.46,1420.75,967,1418.55,962.87,1420.45ZM554.43,1530.34c4.11,4.91,7.14,10,11.37,13.32,25.66,20.42,46.8,46.23,72.06,67.29,26.87,22.4,53.55,44.51,83.15,63.1,19.76,12.41,41.15,17.9,62.29,25.29,5,1.76,7.18-.63,7.23-6,0-2.3-.06-4.59,0-6.89.16-5.83-1.24-12.49,7.85-12.52,3.2,0,3-4.18,3.69-6.61,7.66-27.08,16.83-53.66,25.61-80.37,6.46-19.68,10.32-40.19,15.82-60.13,8-28.82,19.38-56.6,27-85.62,8.58-32.52,20.14-64.19,27.2-97.2a254.32,254.32,0,0,1,8.58-30.55c4.72-13.49,9.22-27,15-40.12,1.48-3.38,2.35-7.57-.66-10.25-3.7-3.27-6.07,1.37-8.87,3-9.62,5.72-16.27,15.44-25.47,21.82a326.77,326.77,0,0,1-34.22,20.14c-31.46,16.5-57.79,40.49-82.15,67.37-16.72,18.46-34.85,35.58-54.72,49.76-39.78,28.36-79.27,57.26-120.75,82.76C581.69,1515.84,568,1521.65,554.43,1530.34Zm374.3-200.14c-3.35,1.21-3,3.85-3.48,5.86-5,21.59-9.68,43.26-14.9,64.79-8.81,36.36-17.43,72.79-27.1,108.92-8.59,32.08-18.47,63.82-27.88,95.68-2.09,7-4.75,13.94-7,21-6.65,21-18.14,40.5-15.49,64.32,1.63,14.62.52,15.73,14.21,15.58,15.41-.18,30.8.37,46.21-.07,33.33-1,66.73,1,100-5.77,15.67-3.2,31.35-6.57,46.13-13.78,4.77-2.33,6.66-5,2.73-10.3-5.72-7.75-12.1-15.49-15.57-24.48-11.43-29.62-30.53-54.91-37.66-87.12-5.74-26-12.23-51.84-21.38-76.76-4.29-11.67-6.16-24.48-8.78-36.87-2.49-11.82-4.61-23.3-3.59-36.2,1-12.5-13.58-19.71-15.12-32.86a7.45,7.45,0,0,0-.31-1.32c-4.07-13-5.7-26.55-7.57-40.08C931.65,1336.88,932.1,1332.59,928.73,1330.2ZM753.09,681.33c6.14,12.32,10.11,21.67,15,30.64,8.72,15.89,17,32.08,22.87,49.67,9.12,27.57,16.76,55.66,27.75,82.56,11.78,28.87,19.46,59.6,20.34,92,.15,5.68,2,11.43,7.5,13.08,14.71,4.46,29.73,7.44,45.38,3.71,4.21-1,6.92-2.78,6.18-8.45-1.35-10.25-.17-21.07-6.68-29.91-2-2.75-1.89-6.74-2.31-10.42-2.38-20.75-3.12-41.86-9.31-61.82-7-22.59-7.48-46.55-9.14-70.1-1.83-25.83-1.17-51.95-2.4-77.87-.44-9.25-.5-18.36,1.31-27.36,2.32-11.53,1.62-22.87.63-34.18a496,496,0,0,1,.94-93.26c1.11-11.06-.56-12.64-11.27-14.21-27.27-4-53.82,2.88-80.23,9.51-9.56,2.4-19.56,3.54-28.74,8.22-8.27,4.22-9.21,5.66-6.38,14.75,2.29,7.36,6.39,13.71,10.06,20.3,19.66,35.35,42.69,68.1,65.88,100.72,1,1.42,2.47,2.55,1.86,4.64-.78,2.68-3.17,3-5.13,3.48-2.63.62-5-.74-7.35-1.75C792.31,677.81,773.9,681.66,753.09,681.33ZM1278.33,219c-5-15.42-6.63-31.28-10-46.68a23.67,23.67,0,0,0-8.11-13.37c-8.66-7.09-17.35-14-27.32-19.29-17.76-9.38-36.51-16.42-54.28-25.66a95.38,95.38,0,0,0-34.07-10.33c-25.58-2.76-51.2,1.31-76.77,3.73-15.33,1.46-28.69,8.72-40.65,19.65-17.95,16.41-28.56,38.44-41.13,59-2.07,3.38-.39,6.19,3.33,6.9,2.92.56,5.87,1,8.84,1.26,17.85,1.63,34.3,6.72,47.23,20.38,4.17,4.4,7.05,4.2,12.84.45,21.07-13.64,53-11.85,63.16,13.68,5.25,13.25,12.91,16.59,25.31,14.93,4.09-.55,5.73-1.3,7.44-5.35,7.18-16.91,25.45-27.67,42.16-25,14.37,2.32,28.59,5.12,39,17.23,3.93,4.56,7.85,4.77,13.34.3C1256.93,224,1266.87,220.51,1278.33,219Zm-14.42,433c-4,10.49-5.85,19.51-9.56,27.94-7,15.93-15.39,31.13-22.94,46.67-13.06,26.93-28.74,51.75-45.36,76.11-3.67,5.38-3.79,9-.66,14.55,8.38,14.91,13.07,31.84,20.82,47.29,8.89,17.74,14.07,37.71,16.56,58.26,1.22,10.11,2.08,10.3,9.57,4a31.7,31.7,0,0,0,4-3.62c18.82-22.34,41.65-39.76,63.35-58.35,14.92-12.78,25.1-29,38.09-44.25-11.64-7.83-22.84-13.68-35.2-17.1-3.66-1-7.45-2-10.76-3.83-7.28-4-7.7-7-1.73-13.39a316.54,316.54,0,0,1,40.66-37.33c11.27-8.55,23-16.62,32.78-27C1340.76,682,1301,670.36,1263.91,652Zm-382.56,3.5c-3.67,5-2.87,9.28-3.2,13.3-1.43,17.47-.14,34.81.43,52.16,1.2,36.52.51,73.35,8.74,108.88s11.44,72.23,19.2,107.85c1,4.65,2.23,6.28,6.66,5,13-3.75,25.92-5.31,38.85,1.05,1.21-14.72,4.43-27.61,8.23-40.41C971,867,981.27,830.57,988,793.21c2.76-15.39,7.21-30.61,16.46-43.63,1.06-1.49,2.94-3,2-4.65-3.7-6.41-4.22-15.07-11-19.28-11.28-7-22.42-14.28-34-20.59-13.14-7.11-26.77-13.23-40.15-19.88-4.57-2.27-11-3-13.12-7.59C902.51,665.37,890.15,663.79,881.35,655.45Zm228.2,178.22c1.28,11.37,5,18.14,6.77,25.6s4.48,14.23,3.93,22.37c-1.18,17.65-6.62,34.24-11.37,51-.58,2.07-.65,4.85-3.46,5.22s-4.91-1.36-6.07-3.91c-2.59-5.68-5-11.38-4.88-18.09.16-6.42,0-12.84-.27-19.23-.19-3.92-1-6.94-6.27-5-8.44,3.08-9.81,2-12.92-6.37-1.49-4-.48-10.25-7.09-11.07-2.7,9.95-1.34,18.95,1.57,27.25,8.41,23.94,7.23,48.39,1.52,73.06-2.46,10.61-3.46,20.93-.46,31.16,2.43,8.33,4,16.82,3.58,25.6-.39,7.15,2.93,9.13,8.73,10.54,14.49,3.52,29.4,5,43.79,9.22a58.77,58.77,0,0,0,20.25,2.55c12.13-.79,13.14-1.76,17.07-14.43,6.43-20.78,14.21-40.83,27.85-58.06,4.94-6.24,10.49-12.48,13.45-20.81-4.61-1.89-9-3.45-13.12-5.47-1.8-.87-3.78-2.52-2.81-5.23,1.08-3,3.55-2.23,5.46-1.52,3.58,1.34,7,3.05,10.53,4.59,3,1.29,4.81,0,6-3.07,1.9-5,1-7.86-4.39-8.42-3.51-.37-9.48-.22-7.45-5.67,1.69-4.53,6.55-1.82,9.83.55,1.62,1.16,4,2.94,5.31,0,1.14-2.51-1.14-4.26-3.05-5.06s-4.16-.75-6.24-1.18c-2.74-.57-5.37-2.57-5-5.2.46-3.69,3.75-2.58,6.29-2.41,2.75.18,5.27,3.08,9,.08-1.6-6.27-3.35-12.72-4.89-19.23-2.8-11.77-2.75-11.78-14.65-15.81-1.29,1.6-.88,3.42-.85,5.22.23,14.71-2.33,29.25-4,43.85-.26,2.35-1,4.85-3.69,4.83-3,0-4.47-2.1-4.74-5.2,0-.45,0-.92,0-1.38.26-14.18-1.13-28.63,1.24-42.49,2.19-12.8-2.63-26.25,5.76-38.76,3.58-5.33-4.19-18.09-8.6-16.12-5.71,2.55-11.6.11-18.25,2.66,4.91,9.13,5.57,18.9,8.82,27.75s2.49,17.68-.39,26.87c-4.26,13.59-10.64,26.55-12.33,40.94-.28,2.37-1.18,4.55-4,4.4s-5.32-1.44-5.71-4.33c-.34-2.57.51-5.45,1.15-8.12,2.59-10.78,7.84-20.41,12.86-29.7-2.88-4.72-10-.73-11.52-7.28,4.41-4,8.21-.83,12.08-.05,1.77.36,3.4.34,4.08-1.95.74-2.51.17-4.72-2.07-5.68-3.6-1.55-8.25-.26-11.5-4,3.39-4.44,7.66-2.85,11.73-2.6-2.07-5.63-6-3.79-9-4.43-1.69-.36-3.51-1.29-3.59-3.24-.13-3.27,2.5-3.09,4.55-3.35,1.61-.19,3.41.13,3.91-1.55-1.56-10.91-7-20.43-6.4-31,.51-8.84,2.24-16.56-8.88-18-2.64-.34-3.35-3.77-4.64-6.08-1.45-2.59-1.89-6.2-6.86-6.88.37,13.27,0,26.36,4.28,38.69,7.77,22.23,6.58,44.45-1,67.07-2.33,6.92-3.21,14.35-4.8,21.53-1,4.51-2,9-3.13,13.5-.94,3.68-2.07,7.83-6.83,5.58-3.48-1.64-5.49-4.72-2-8.63s2.93-8.65,3.89-13c1.58-7.21,2.33-14.58,5.06-21.55,4.38-11.14,4.32-11.16-6-15.77-1-.47-1.23-1.23.3-3.4,1.79-5.77,7.9,3.33,11.27-1.59-1.71-2.6-3.87-2.47-6-2.53s-4.71-.61-4.35-3.49c.37-3,3-2.57,5.14-2.43,2.5.17,5.22,1,6.85-2.17,2.82-5.53-1.2-23.32-6.62-24.47C1122.88,847.1,1117.51,841.05,1109.55,833.67ZM971,1411.3c4.67-11.22,4.67-21.76,5.47-32.21,2.58-33.46,3.29-67,10.25-100.21,2.65-12.65,5.86-25.15,8.67-37.76,6.33-28.38,8-57.49,14.21-85.8,5.66-25.75,8.26-51.86,13.09-77.67a4.75,4.75,0,0,0-1.64-4.79c-2.24-.62-4,.88-6.07,1.59-11.94,4.19-13.5,6.47-13.38,20a10.92,10.92,0,0,1-1,5.24c-5,8.62-18.92,11.31-25.88,4.92-3.5-3.21-6.33-7.24-9.84-10.45-14.93-13.67-32.22-17.83-53.31-13.09,5.25,4.07,10.11,3.89,14.43,5.22,4.61,1.42,9,3.15,12.15,6.87,5.16,6.16,11.33,10.35,18.29,14,13.85,7.2,7.22,19.6,4.47,30.57-2.3,9.18-8.11.8-12.48,2.51-6.32,2.47-12.83-3-20.54-4.14.66,18.91-.77,37.19-2.24,55.46-1,12.84-2.07,25.44-.09,38.31,3.6,23.3,6.35,46.81,8.78,70.35,2.71,26.36,8.25,52,14,77.54C951.58,1391.82,958.84,1402.94,971,1411.3Zm59.41-401.92c2.35-4.08,2.64-8.75,2.53-13.23-.67-29.68,5.83-58.5,12.15-87.31,5-23,15.72-44.09,22.75-66.47,4-12.87,7.47-25.75,8.49-39,.84-10.84.55-22-6-31.35-3.48-5-7.37-7.14-13.13-3.78-14.35,8.4-25.49,2.59-35.65-7.81-2.93-3-5-7.51-10.24-7-3.52,4.93-4.94,10.77-6.86,16.44-6.83,20.2-9.85,41.25-14.32,62-7.1,32.92-18.74,64.6-25.91,97.52-4.55,20.9-4.89,21.54,10.63,34.14A105.24,105.24,0,0,0,985.37,971,162.72,162.72,0,0,1,1026,1006.9C1027.15,1008.32,1028.36,1009.39,1030.38,1009.38Zm57.82-270.91c2.14,3.24,4.27,3.91,6.35,4,39.36,1.88,78.5,1.67,116.61-14.71,7.41-3.19,13-7.85,16.61-14.78,13-24.87,22.87-51.13,31.44-77.92.66-2.08,1.49-4.59-.79-6.19-2-1.4-4.13-.85-6,.6-10.08,8-22.07,10.45-33.45,14.72a38.79,38.79,0,0,0-6,2.7c-20.55,12.1-43.29,14.39-65.46,18.4-13.22,2.38-26.87,2-40.91-.62C1116.78,694.37,1101.05,716.59,1088.2,738.47Zm68.1-367.27c4.11-12.66,5.76-25.06,7-37.35,1.74-16.55,6.41-33.83-4.33-48.71-.08-12.81-7.57-16.39-18-17.82-11.81-1.62-11.62-2.18-18,8.22-2.38,3.89-4.71,8.32-8.09,10.91-7.61,5.82-10.34,14.36-12.45,22.89-3.13,12.62-8.36,24.34-12.79,36.41-3.48,9.5-7.16,18.95-10.18,28.6-6.5,20.77-2.55,32.79,14.07,44.36,3.51,2.45,7.08,4.83,10.67,7.16,8.65,5.59,16.79,4.45,24.83-2.74a53.35,53.35,0,0,0,11.14-13.59C1147.13,397.2,1154.5,385,1156.3,371.2Zm-58.36,322.59c.71-2.66,1.5-5.3,2.09-8,3-13.48-1.29-20-13.55-21.8-22.23-3.22-44.8-4.79-66.13-12.45-5.38-1.93-8.56-.62-11.09,5.38-9.63,22.81-8.9,45.33-2,68,3.54,11.69,11.69,19.48,18.91,28.19,11.81,14.26,25.73,13.34,39.28.06C1081.85,737.07,1090.8,715.77,1097.94,693.79Zm117.89,44.09c-6.78-2.18-13.1,1.61-19.28,4.18-13.53,5.62-27.69,7.74-41.68,9.07a304.26,304.26,0,0,1-64.08-1.16c-8.34-1-14,1.12-18,9,18.35,22.66,18.18,49.84.67,95.25,1.2,2.56,3.62,2,5.62,2.42,14,3,18.28,8.19,19.8,23.67.94,9.53,1.89,19,3,28.55.34,3,.07,6.45,4.31,8.27,4.9-5.52,3.07-13,5-19.22,3.88-12.83,2.8-25.34-2.41-37.44-2.45-5.69-3.93-12-5.37-18.11-3-12.73,3-25.24,15-27.45,8.49-1.57,10.19-5.14,10.72-13.09.88-13.33,6.44-18.9,18.72-20.71,6.84-1,12.23,3.73,15.81,14.4.87,2.58,1.49,5.18,3.26,7.22,4.1,4.76,8.24,4.46,11.18-1.59,9.7-20,22.22-37.85,35.66-55.12C1215.23,744.06,1216.85,741.62,1215.83,737.88ZM998.12,218.13c-8.15-.66-15.4-2.55-20.67,4.05-5.57,7-2.05,14,1.32,20.25,4.2,7.81,8.8,15.36,13.34,22.94,2.66,4.44,5.63,5.68,10.57,2.1,21.41-15.5,47.46-11.45,64.06,3.32,11,9.78,11.21,9.49,23.27,0,.7-.55,1.34-1.19,2-1.76,8.88-7.46,11.49-16.66,7.51-26.5-3.41-8.44-16.29-15.56-24.64-12-7.91,3.4-16.92,4.32-23.5,11.29-4.38,4.65-8.54,3.67-12.2-.63C1027.86,227.85,1010,227.75,998.12,218.13ZM1051,233.77c-15.22-20.61-28.27-26.73-45.18-30-5-1-10.31-.69-15.22-2-20.72-5.43-35.13,18.44-30.68,36.13a61.52,61.52,0,0,0,8.93,19.36c14,20.86,25.83,43.35,40.76,63.54,8,10.8,7.63,11.07,20.4,6,2.81-1.11,5.75-1.84,8.61-2.79,26.53-8.86,49.6-24.64,70.34-44.27,7-6.59,14-15.31,12.68-26.42-1.71-14.14-8.3-25.68-19.65-33.27-10.47-7-36-4.74-46.55,3.81-.85.69-2,1.88-.51,4.49,6-1.5,12.49-2.73,18.92-5.13,12-4.48,28.19,2.49,32.85,13.59,6.73,16,3.77,29.72-9.22,38.82-11.27,7.9-23.11,14.83-34.58,22.4-13.18,8.69-26.23,17.61-39.58,26.6-3.64-2-5.73-6-7.79-9.89-7.55-14.17-16.7-26.93-26.55-39.36a166.2,166.2,0,0,1-19.87-32.89c-8.09-17.36,1.26-32.22,19.74-33.34a31.92,31.92,0,0,1,18.53,4.14c12.5,7.42,27.09,10.5,38.48,20.2C1046.61,234.15,1048.24,233.67,1051,233.77Zm219.15,61.07c4.44-4.52,6.9-7.82,10-10,7.12-5.05,11.6-12.32,15.6-19.92,4.33-8.24,2.5-13.87-5.14-17.87a18.6,18.6,0,0,0-9.9-2c-13.62.74-26,6.11-37.63,13.59-9.31,6-10.15,7.23-16.35-1.29-10.52-14.48-25.57-14.3-40.39-14.74-9-.27-12,5-9.69,14.43,1.2,4.8,3.43,9.13,4.49,14.08,1.74,8.11,3.38,8.58,10.52,3.27,15.7-11.68,32.23-11.11,49.09-6.48C1254.14,271.6,1263.49,280.88,1270.13,294.84Zm-32.37-41.59c2.15-2.87.59-4.79-.48-6.49-11.76-18.68-33.33-28-52.08-23.28s-28.88,14-25,33.6c2.43,12.3,5.12,24.73,11.89,35.46,9.17,14.53,19.29,28.43,26,44.72,3.3,8.09,4.88,8.56,12.58,5.48,10.3-4.11,20.42-9,30.94-12.11,12.79-3.79,24.06-10.6,34.78-18.6,7.39-5.52,12.11-13.56,15.09-22.89-2.93-.62-5-.53-6.72,1.24-9.82,10.07-22.06,16.4-32.9,24.94-10.37,8.16-21.61,15.49-34.62,18.56-6.73,1.58-11.38.78-14.64-6.08a179.75,179.75,0,0,0-18.11-29.29c-8.29-11.25-11.75-25.07-15.56-38.42-3.74-13.14,1.72-24.48,12.62-25.93,17.22-2.3,34.26-1.15,47.63,12.54C1231.7,249.34,1233.63,253.18,1237.76,253.25Zm-355.2,854.63c1.42,22.4,25.83,107.08,33.17,115.94,1.78-2,1.34-4.38,1.07-6.53-3.06-24.18,1.81-48.48,1.7-72.7,7.84-16-2.44-22.34-12.64-28.24C898.89,1112.31,891.91,1107.78,882.56,1107.88Zm176.15-213.6a80.54,80.54,0,0,0-5.29,17.36c-6.83,34.28-9.83,69.07-16.12,103.41a23.67,23.67,0,0,0-.6,5.46c.11,2-1.11,4.87,1.74,5.7,2.34.68,4.27-.77,5.45-2.81,7-12.09,19.52-21.55,16.16-38.54-.73-3.67,1.18-8.1,2.08-12.14a293.19,293.19,0,0,0,4.83-31.3C1068.73,925.62,1065.33,911.17,1058.71,894.28Zm7.49,151.48c.23-8.77,1.24-18-1.11-26.79-1.49-5.61-4.44-6.4-7.77-1.91-8.37,11.29-16.36,22.91-24.41,34.47a7.19,7.19,0,0,0-1.12,4c.41,15.67-3.88,31-4.54,46.59-.1,2.27-.77,4.87,2.06,5.44,1.7.34,3.26-.86,4.34-2.5,4.26-6.46,8.48-13,12.8-19.36C1054.7,1073.42,1059.57,1059.42,1066.2,1045.76Zm164.64-725.9c-5.91-12.56-9.48-25.66-3.77-40.27,2.44-6.22-2.15-7-6-6.39-11.8,1.94-23.46,4.62-33.58,13.56,7.7,11.94,15.7,22.94,21.93,35.24,1.42,2.81,3.79,5.5,7.16,4.31C1221.28,324.65,1227,325.5,1230.84,319.86Zm-162.67-33.44c-15.2-19-34.25-22.87-56.43-15.68-3.28,1.06-7.68,1.18-8.54,5.16-.92,4.3,2.53,7.41,5.17,10.26,3.06,3.3,6.37,2.88,10.48,1.06,10.39-4.62,21.06-6.26,30.33,1.54C1056.22,294.69,1062,293.23,1068.17,286.42ZM922.56,1290.88c-1.67,2.17-2.76,3.1-3.22,4.28-9.51,24.47-10.62,51.23-20.54,75.61-1.41,3.47.16,6,3.73,7.11,4.47,1.31,4.75-2,5.62-5.18,4.73-17.26,10.09-34.38,14.16-51.79C924.48,1311.62,929,1301.73,922.56,1290.88Zm384-1027.27c8.28-17.76.58-33.62-15.94-35.84-15.79-2.12-30.37,3.94-44.25,12.09-1.91,1.13-5,3.17-3,6.43,1.44,2.33,3.8.76,5.78,0,10-4.12,19.69-8.87,30.86-9.11C1297.42,236.74,1305.1,243.05,1306.53,263.61ZM886.73,1416c-1.33,3.93-3.78,10.36-5.66,17-1.43,5,2.51,5.86,5.65,7.13,3.91,1.57,5.58-.77,6.19-4.41,1.87-11.33,5.37-22.21,8.82-33.11.42-1.3.43-2.72.75-4,1.27-5.22-2.21-6-5.53-7-3.59-1-4.25,1.79-5,4.53C890.48,1401.88,889,1407.63,886.73,1416Zm30.85-415c15.22.84,28.19-1,39.52,5.72,10.87,6.43,20,15.94,32.38,20.48C979.78,1000.4,949.58,992.94,917.58,1001Zm332.68-692.92c-6.12-6.78-7.9-13.47-5.1-22,1.49-4.53-3.53-9.78-8.07-9.4-5.42.45-4.64,4.38-5,8.83a45.69,45.69,0,0,0,2.63,19.91C1237.67,313.77,1240.06,314.15,1250.26,308.07Zm-246.39,742c-4.67-1-8.41-2.14-11.13,2.5-2.85,4.88-.35,8.56,1.65,12.53,2.14,4.23,4.93,7.74,9.78,6.5,4.4-1.12,8.76-2.57,10.32-8.82,1.65-6.57-2.65-7.64-6-9.91C1006.76,1051.64,1004.9,1050.64,1003.87,1050Zm21.14,1.36c1.54-5.86,3.09-10.48,3.93-15.21.93-5.28-1.44-8.38-6.41-6.2-6.13,2.7-12.64.77-20.37,3.86C1013.18,1035.74,1017.84,1044.66,1025,1051.38ZM996.9,1019.2c8.15,8.1,14.93,9,23.1,3.6,3.92-2.57,3.14-4.74.65-7.31C1014,1008.61,1005.64,1009.92,996.9,1019.2Zm162.53-214.82c.87-4.06-4.61-12.53-9.42-14.66-1.68-.74-4-.94-4.71.44-2.78,5.45,1,9.3,3.16,13.43a7.42,7.42,0,0,0,6,4.21A4.7,4.7,0,0,0,1159.43,804.38Zm21.49,22.24c.93-2.32-1.88-7.12-6.18-10.6-2.68-2.17-5.44-4.32-9-1.73-.81.6-1.67,2.67-1.33,3.35,2,3.84,3.87,7.83,6.56,11.05C1173.17,831.29,1179.76,829.5,1180.92,826.62Zm-26.09-565.46c-7.74-11.68-17.32-9.69-26.81-11.48C1132.2,256.88,1132.2,256.88,1154.83,261.16Zm-23.11,577.28c-.37-4-.76-7.55-1-11.16s-2-6-5.42-6.26c-2.59-.2-5.18.46-6.48,3.38-1.52,3.44-.14,6.22,1.85,8.7C1123.14,836.23,1126,838.74,1131.72,838.44Zm-55.29,26.4c1.2,6.11.94,11.85,4,16.41,1.76,2.62,4.19,4.71,7.55,2.41,2.82-1.94,2.36-5,1.24-7.38C1086.82,871.08,1084.42,865.63,1076.43,864.84ZM944.26,1118.4c1.36,6.19,4.72,10.19,10.44,11.35,1.13.23,2.63-2.68,2.25-4.39C955.41,1118.55,950.82,1117,944.26,1118.4Zm43-26.62c-2.47-1-5-.37-5.72,1.65-1.4,3.79,1.35,5.56,4.2,6.54a4.15,4.15,0,0,0,5.39-2C992.87,1093.76,989.1,1093.18,987.23,1091.78Zm213.55-216.87,2.23-.47a23.48,23.48,0,0,0-2.31-4.26,1.31,1.31,0,0,0-2.41.84A3.88,3.88,0,0,0,1200.78,874.91Z"/><path class="cls-7" d="M825.85,1708.34l-27.56-8.75c5.48-3.45,6.94-8.06,8.61-13.18,4.6-14.06,6.64-28.69,11.08-42.84,6.75-21.51,15.14-42.41,21.19-64.18,8-28.84,13.87-58.29,24.17-86.51,5.34-14.64,11.09-29.19,13.85-44.6,12.5,1.85,12.7,1.91,9.23,13.59-3.81,12.84-7.53,25.69-10.26,38.83-.66,3.19-.67,7.09-6.23,6.68-6.2-.46-9.24,5.34-4.9,9.63,5.37,5.31,3.65,9.91,1.81,15.74-3.46,11-6.53,22.12-9.67,33.22-2,7-1.17,15.78-12.59,14.27-4.16-.55-5.2,5.3-1.57,7.7,7.36,4.87,5.73,10.68,2.81,17.59-2.5,5.91-4.14,12.2-6.44,18.21-2.21,5.77-2,13.56-12.06,11.58-4.61-.91-6.65,6.61-2.33,10.09s4.17,6.83,2.83,11.76c-2.54,9.34-4.19,18.93-6.79,28.25-2.24,8-3.25,15.17,4.61,20,1.16.71,1.19,2.09-.13,3.12Z"/><path class="cls-8" d="M737.86,566.59c5.32,9.16,11,18.11,15.9,27.54,12.56,24.14,29.29,45.06,43.81,67.69,2.11,3.31,4.32,6.54,7.4,11.19-21.44,1.29-41.8-3.09-62.4,4.28,4.73,11.19,9.4,21.55,15.24,31.5,16.65,28.33,29.31,58.67,36.47,91.83,2.75,12.73,8.27,24.67,12.47,37,8.69,25.5,17.42,51,19.33,78.67a49.88,49.88,0,0,0,4.31,17c1.54,3.4,3.64,7,1.88,12.1-18-9.31-34.94-19.75-54.14-25.82-19-6-36.89-15.34-54.75-23-1.16-1.29-1.25-2.22-.42-2.84,12.71-9.42,20.9-23.66,32.17-34.62,1.79-1.74,4.87-3.59,2.17-6.54-2.11-2.29-5.32-3.67-8-.91-4.69,4.78-10.42,8.23-14.25,14.19-5.47,8.5-12.42,15.65-19.7,22.47-4,3.72-7.69,4.95-12.9,4.28-21.79-2.77-42.08-10.73-62.44-18.21-27.58-10.13-54.58-21.95-82.25-31.79-16.46-5.84-33.75-9.25-50.66-13.8-3.38-.91-6.23,0-7.31,3.66-1.47,5,2.87,4.79,5.35,5.47a238.27,238.27,0,0,0,23.65,5.63c23.27,3.88,45,11.86,66.17,22.43a209.4,209.4,0,0,0,32.15,12.57c15.85,4.86,31.41,10.76,46.93,16.64a45.49,45.49,0,0,0,11.16,2.47c4.26.5,8.61.7,11.65,4.45,3.81,4.7,7.72,6.51,13,1.36,2.09-2,4.86.16,7.31.66,12.65,2.61,24.18,8.41,35.68,13.88,20.68,9.85,44,13.5,63,29.38-18.82,23.23-22,53.83-35.12,79.95-6.08,12.06-14.14,23.71-16.1,37.86-.53,3.91-3.65,3.4-6.1,3.3-28.57-1.16-57.36,2.23-85.78-2.88-20.56-3.69-41.51-5.45-62.36-7.48-8.56-.83-17-1.88-25.21-4.3a279.64,279.64,0,0,0-36.28-7.73c-22.47-3.46-43.88-11.06-65.35-18-36.55-11.9-74.3-19.42-110.72-31.76-10-3.39-20.45-5.66-30.43-9.45-12.23-4.64-22.56-12.11-31.59-21.74a16.7,16.7,0,0,1-4.86-9.09c-6.88-40.12,1.4-77.83,16.86-115.43,11.77-28.63,28.83-53.26,46.82-77.18,15.65-20.8,35.92-36.65,57.13-50.69,22.59-14.94,44.59-31,68.21-44,15.07-8.29,30.7-15.44,45.33-24.54,25.59-15.91,51.48-31.12,78.75-43.08,32.88-14.41,66.12-27.79,99.21-41.61.81-.34,1.61-.71,2.44-1,8.19-2.55,9.63-1,7.68,8.66-1.38,6.76-3.32,13.44-2.88,20.43.05.89-.54,1.88-.4,2.72.79,4.57-1.28,12.16,5.18,11.81,5-.27,4-7.09,4.15-11.48.34-7.34.56-14.67.83-22C736.14,568,737,567.29,737.86,566.59Zm-12.33,73.59c-4.27,0-4.87,3.68-4.4,6.55,1.78,10.73.41,21.71,1.56,32.45a22.49,22.49,0,0,0,.59,4c.71,2.4,2.34,3.65,4.77,3.28,2.26-.35,4.68-1.82,4.36-4.17-1.5-10.81,1.71-21.86-.46-32.59C731.11,645.54,729.47,642,725.53,640.18Z"/><path class="cls-8" d="M317.53,1308.59c10.1-6.36,15.28-15.78,22.38-23.3,22-23.37,44.23-46.43,69.84-65.47a216.07,216.07,0,0,0,28.78-26.34c21.33-22.93,45.72-41.72,68.93-62.15s47.22-40.06,66.91-64.71c3.11-3.89,5.85-6,11-4.74,24.44,6.25,49.92,6.26,74.69,10.45,29.6,5,59.43,5.9,89.47,4.45,13.38-.64,22.85,8.34,33.83,13.59a55.42,55.42,0,0,1,12.86,8.48c18,16,39.48,16.8,61.74,13.65,16.37-2.31,15.78-2.41,19.12,15.2a470.85,470.85,0,0,0,18.17,67.94c4,11.46,7,23.32,11.58,34.57,3.08,7.57,7.76,13.77,13.24,21.1-25,14.39-44.82,35.82-70.28,48.38-22.14,10.92-42.27,26-61.94,41.67-7.36,5.85-14.7,11.72-22.21,17.35-3,2.22-6.1,3.58-3.75,8.48,1.53,3.2-1.76,4.89-3.56,6.57-15.72,14.71-30.73,30.55-47.6,43.54-15.16,11.67-30.53,23.37-46.62,33.51-13.13,8.28-25.86,17.24-38.58,26.14-16,11.24-32.85,20.88-49.31,31.22s-33.75,19.4-50.64,29.08c-8.16,4.68-9.13,4.58-15-3-19.07-24.63-38.48-49-54.07-76.49-8.34-14.68-17.78-28.4-27.17-42.21-20.46-30.12-44.86-55.78-74-76.43C342.77,1330.22,331.19,1319.71,317.53,1308.59Z"/><path class="cls-8" d="M1378.71,729.8c32.22,27.07,56.12,60.43,66,104.19,3.21,14.28,3.16,29.09,1.64,43.77-3.9,37.61-9.88,75.06-17.15,112.15-5.31,27-14.44,53.42-22.55,79.88-11,35.92-27.89,68.73-47.54,100.54-27.71,44.85-60.86,85.42-88.52,130.2-9.36,15.16-18,30.81-28,45.56-17.49,26-37.46,49.16-65.85,62.16-15.56,7.13-30.7,15.42-46,23.31-20.85,10.76-42.61,18.35-64.81,24.71-9.8,2.81-11,.54-16.81-7.15-9.12-12.12-11.47-25.92-8.83-41,4.38-25,4.32-50.42,7.88-75.43,6.11-43,7.18-86,8.52-129.11.67-21.54.49-43.09,2-64.63.7-9.61,1.44-19.32,3.38-28.74a193.67,193.67,0,0,0,3.78-31.48c.23-5.42,1.94-10.89,3.36-16.24,3.23-12.16,4.87-13.41,16.36-11.29,8.39,1.55,16.66,3.72,24.94,5.81,16.94,4.28,33.87,7.76,51.76,5.19,9.45-1.35,11.93,1.37,12.24,10.61,1.06,32.52,7.35,64,12.38,95.79,3.69,23.32,7.88,46.53,11.71,69.82.53,3.23,1.17,6.13,3.28,8.61,2.36,2.78,4.48,1,6.83-.08,2.68-1.26,4.17-2.48,3-6.14-9-27-10.61-56-16.16-84-4.76-24-5.75-48.73-11.58-72.44a41.34,41.34,0,0,1-.68-10.93c.27-9-1.73-16.39-10.25-19.66-4.94-1.9-3.23-5-1.77-8.69,9-22.68,17.94-45.28,33.12-64.67,9.29-11.85,16.47-25.29,17.58-42.46,7.58,4,12.54-1.12,17.28-5.83,17.56-17.44,36.84-32.65,54.86-49.53,13.13-12.31,27.17-23.39,37.87-38.38,4.24-5.94,8.44-11.93,12.29-18.15,4.53-7.28,4.16-10.64-2.66-14.08-10.28-5.17-20.16-11.38-31.37-14.4-4.06-1.1-8.21-2-12.3-5.93a361.28,361.28,0,0,1,35.38-33.22c9.67-8,20.08-14.88,28.62-24.39,1.49-1.66,3.24-3.69,5.53-2.18s1.78,3.92.63,6c-5.71,10.32-5,22.47-9.51,33.13a8,8,0,0,0-.26,6.67c1,2,2.17,4,4.59,4.15,2.87.19,3.45-2.08,3.89-4.44q4.18-22.32,8.39-44.64Zm-16.61,86.06a105.44,105.44,0,0,0,1.28-11.64c0-2.3-1.87-4-4-4.61-2.76-.78-3.72,1.56-4.22,3.78-.89,4-2,8-2.08,12-.08,2.78,2.2,4.79,4.86,5.22S1361.36,818.6,1362.1,815.86Z"/><path class="cls-9" d="M1175.56,314.81c8.16,8.9,12.47,20.21,16.43,31.7,3.72,10.81,4.5,11.27,14.63,7.18,17.85-7.21,35.69-14.45,53.57-21.58,24.44-9.74,39.1-30.36,51-53.58,5.35-10.43,12.07-13.2,19.87-5.57,7,6.87,11,14.72,9.9,26.38-2,21.48-8.47,41.57-15.4,61.58-4.68,13.47-10.61,26.5-16.23,39.62-1.73,4-2.39,7.51-.61,11.73,12.15,28.76,8.58,59,2.64,89-3.39,17.14-9.85,33.69-13.92,50.74-3.73,15.6-12.14,28.76-18.34,43.07-5.93,13.7-17.29,19.1-28.12,25.9s-22.43,12.09-34.91,14.43a36,36,0,0,0-9.83,3.58c-39.56,20.62-80.34,23.62-121.9,14.77-20.42-4.34-41.16-7.17-61.32-12.92a81.61,81.61,0,0,1-15.17-6.4c-35.66-18.43-67.77-41.72-92.65-75.17a186.3,186.3,0,0,0-20.52-23.77c-19.42-18.52-21.52-43.15-18.09-68.68,2.18-16.28,7.95-32.2,12.69-48.11,1.69-5.66,4-12.3,8-15.87,9.21-8.2,7.38-17.1,5-26.61-1.45-5.7-2.85-11.44-4.64-17-5.22-16.27-5.35-33.05-2.17-50,1.71-9.14,5-17.61,14.19-21.8a12.44,12.44,0,0,0,5.68-5.63c5.54-12.34,15.91-14.8,26.75-16.55,1.27-.21,2.66-.06,3.82-.56,15.08-6.55,21.82,3,27.64,15.11,9.89,20.62,24,38.12,36.28,57,5.64,8.66,6.87,8.23,16.23,1.69,2.91-2,6-4.2,9.27-5.09,19.1-5.21,36-15.69,52.82-26.4,1.79-1.14,3.72-3,5.81-1.24s.9,4.15,0,6.17c-2.5,5.95-4.72,12.1-7.84,17.68-7.92,14.17-13,29.69-17,45.09-4.66,18-3,35.68,13.61,47.29,8.81,6.14,17.07,13.19,27.66,15.91,1.64.42,3.84,2.13,4.73,1.49,7.89-5.65,12.94-.38,18.32,4.15.47.4,1.63-.11,2.53-.21,1.08-5-3.94-4.87-5.84-8.18,4.93-7.69,11-11.85,20.82-7.55-5-7.15-2.67-12.43,1.18-18.88,15.06-25.21,19.51-53.28,20.17-82.14.07-3.19.44-6.38.68-9.57Zm-81,141.48c-3.08-1.52-.53-10-7.42-6.78-.39,5.94,7.5,1.33,7.56,6.71,1.53,5.51-3.36,5.41-5,4.65-8.79-4.06-17.16-9-26.72-.64-1,.9-4.07.76-4.71-2.62-.24-1.28-2.33-2.64-3.78-2.9s0,1.37,1.19,0,.45-.45.85,1c2.41,8.78-5.36,6.36-8.38,8.48-6.76,4.75-9.75,13.49-4,18,11.7,9.21,24.38,17,36.68,25.35a5.49,5.49,0,0,0,2.47.64c11.54,1,23-2,34.47-2.73a6.91,6.91,0,0,0,4.35-2.85c4.11-5.84,10.06-8.06,16.14-11.25,2.1,4.9,3.07,11.61,10.72,6.55-2.48-2.92-4.81-4.38-8-4.47-2.24-.07-4.17-.72-3.83-3.92,1.22-11.79-9-12.55-14.72-17.64-6.33-5.61-10.76-14.27-20.64-14a47.54,47.54,0,0,0-5.08.83C1095,459,1094.81,457.56,1094.52,456.29ZM1070.35,589.8c2.77.09,6.6.46,10.42.27,10.27-.49,20.59-2,30.78-1.6,7.28.29,12.84-2.35,19.29-5.67,15.59-8,23.76-22.83,33.07-36.85,2.59-3.91,2.14-6.84-1.5-8.92-3.48-2-6.35-1.54-8.27,3.08a66.81,66.81,0,0,1-5.76,10.91c-11.19,17-24.26,30.39-45.47,28.61a61.69,61.69,0,0,0-16.65.87c-10.49,2-19.16-1.31-27.66-7-20.63-13.9-34.75-34.87-51.37-53.13-4-4.42-5.42-12.62-13.82-10.72-1.61,7.52,3.42,12,7.05,16.41,12.13,14.88,24.24,29.87,37.54,43.51C1046.72,578.48,1057.71,584.73,1070.35,589.8Zm-45.79-80.73c-2.75-.39-3.91.64-4,2.88-.09,4.47,2.64,6.43,6.15,7.39,2.11.57,3.29-.87,3.25-3C1029.91,512.11,1027.78,509.66,1024.56,509.07ZM1086,560.8c-2.59-4.81-5.47-7.17-10.31-5.64a2.74,2.74,0,0,0-1.29,2.12c.79,5.65,5.38,4.19,8.79,4.89C1083.46,562.24,1083.88,561.84,1086,560.8Zm-13.2-18c0-4.27-3.17-4.76-5.79-5.62a2.56,2.56,0,0,0-3.49,2.53c-.12,4,3,4.77,5.73,5.53A2.8,2.8,0,0,0,1072.76,542.77Zm65.52,2.58c.3-4-3.44-4.44-5.52-6.2-1.46-1.25-3.37-.3-4,1.75-1.15,3.59,1.35,5,3.73,5.85C1134.29,547.44,1136.53,548.31,1138.28,545.35ZM1114.63,529c-.73-5.3-3.84-7.1-8.18-6.21-2,.4-1.9,2.78-1.17,4.5C1107.5,532.47,1111.05,530.62,1114.63,529Zm-106.3-48.15a10.36,10.36,0,0,0-4.48-5.11c-2-1.14-4.14-1.5-5.66.74-2.35,3.46.66,4.68,2.57,5.94C1003.06,483.93,1005.54,483.76,1008.33,480.83Zm98.42,69.77c-.17-3.45-2-5.5-5.19-5.89-2.19-.28-4.46.61-4.46,3.27,0,3.8,3,4.72,5.89,5.23C1104.75,553.52,1106.16,552.77,1106.75,550.6Zm-68.08-95.19c.93-2.18-.61-3.13-1.79-4.12-2.25-1.87-4.83-1.74-6.33.85-.66,1.13,1.12,3,2.66,3.66C1035,456.57,1036.92,457.78,1038.67,455.41Zm153.25,45.18c-1.2-3.83-3.4-6.07-7.11-6.14a2.33,2.33,0,0,0-2.39,2.45c.42,4.05,3.12,5.79,6.58,6.06C1189.86,503,1190.88,501.47,1191.92,500.59ZM1163,519.48c-.85-4.3-3.27-6.27-7-6.44a2.15,2.15,0,0,0-2.32,2.39c.26,4.31,2.9,6.14,6.58,6.27C1161.14,521.73,1162.12,520.22,1163,519.48Zm3.83-36.77a25.7,25.7,0,0,0-2.88-4.36c-1.51-1.57-3.9-2.51-5.44-.51-2.11,2.73-.28,5.09,1.91,6.43C1162.1,485.31,1164.26,485.72,1166.81,482.71ZM1064.5,429.86c.29-3.32-1.86-4.94-5-5.67-1.39-.32-2.8.12-3.17,1.45-1.09,3.91,1.24,5.78,4.12,7C1062.28,433.42,1063.63,432.62,1064.5,429.86ZM1024,456c-2.56-3.71-4.58-6.61-8.64-5.26a2.55,2.55,0,0,0-1.14,2.05C1015.84,457.13,1019,458,1024,456Zm7.31,31.11c.78-2.77-1.13-4.22-2.85-5.13s-4.11-2.5-5.22,1a3.25,3.25,0,0,0,2.29,4.16C1027.35,487.73,1029.17,489.65,1031.28,487.08Zm19,32.73c-.26,6.16,3.68,6.88,8,7.19,1.09.08,1.62-.42,1.63-1.6.06-4.92-3.75-5-6.73-6C1052.49,519.19,1051.57,519.62,1050.32,519.81ZM1135,460.13c1.44.07,2.85-.36,2.82-2a5,5,0,0,0-3.6-4.75c-1.47-.53-2.56.4-2.65,1.93C1131.41,457.91,1133.24,459.07,1135,460.13Zm-77.52-52.8c-.14-4.69-1.69-7.74-6.75-6.84-.67.12-1.83,1.38-1.74,1.85C1049.9,407.11,1052.68,408.85,1057.46,407.33Zm-28.76,14.95c-.92,4.81,1.49,6.44,5.36,6.77,1.07.09,1.65-.31,1.82-1.87C1034.68,424,1032.65,421.75,1028.7,422.28ZM1114,452.39c.73-1.88-.52-2.54-1.52-2.91s-2.9-.61-3.25-.08c-1.27,2,.32,2.91,1.73,3.56C1112.07,453.46,1113.26,453.53,1114,452.39Zm-22.76-13.68c.09-2.57-1.64-3.74-3.75-4.39-1.71-.52-3.58-.49-3.45,2.18s2.22,3.6,4.34,4.06A2.09,2.09,0,0,0,1091.27,438.71Z"/><path class="cls-8" d="M962.87,1420.45c4.16-1.9,5.59.3,7.47,1,4,1.59,6.51.06,7.87-4.38,4.19-13.61,8.12-26.94,9-41.59,2.15-36.19,3.56-72.63,12-108.26,3.82-16.17,8.22-32.2,10.83-48.62,2.68-16.84,5.55-33.68,7.35-50.6,1.37-12.88,5.72-25.07,7.54-37.78.75-5.23,4.71-9.31,7.28-12.31,5.91-6.9,9.63-15.34,15.63-22,1.79-2,3-5.11,5.93-4s2.33,4.27,1.74,7.09c-.85,4-1.42,8.17-2.3,12.22-7.39,33.64-5.31,67.55-6.65,101.41-1.65,41.6-2.7,83.23-8.8,124.77-4.08,27.73-5.28,55.82-8.07,83.72a27.34,27.34,0,0,0,5,19.11c4.2,6.18,8.46,12.42,11.1,19.65,2.39,6.53,6.88,9,13.16,7.42,25.2-6.43,50.3-13,73.78-26,18.53-10.24,37.47-19.62,56.32-29.16,8.06-4.08,9.12-3.89,12.9,4.55,12.6,28.15,29.78,53.45,42,81.82,4.24,9.85,7.87,20,11.78,30,12.32,31.62,28.83,60.2,51.2,84.63,3.8,4.16,6.92,9,11.17,14.67-14.12,9.6-28.13,18.68-40.86,29.77-2.66,2.31-7.43,2.15-11.25,2.49-27.4,2.37-54.39,8.25-81.53,13.07-29.3,5.21-58.34,12-87.58,17.39-7.67,1.42-15.31,3.33-22.4,6.9-6.41,3.22-11.25,2.11-13.59-4.54-5.92-16.8-18.1-29.44-25.35-44.94-17.08-36.55-37.35-71.72-44.15-113.42-1.87-11.5-5.39-22.75-9.41-33.81C972.57,1475.06,967.2,1447.93,962.87,1420.45Z"/><path class="cls-7" d="M554.43,1530.34c13.61-8.69,27.26-14.5,40-22.34,41.48-25.5,81-54.4,120.75-82.76,19.87-14.18,38-31.3,54.72-49.76,24.36-26.88,50.69-50.87,82.15-67.37A326.77,326.77,0,0,0,886.28,1288c9.2-6.38,15.85-16.1,25.47-21.82,2.8-1.66,5.17-6.3,8.87-3,3,2.68,2.14,6.87.66,10.25-5.74,13.09-10.24,26.63-15,40.12a254.32,254.32,0,0,0-8.58,30.55c-7.06,33-18.62,64.68-27.2,97.2-7.66,29-19.09,56.8-27,85.62-5.5,19.94-9.36,40.45-15.82,60.13-8.78,26.71-17.95,53.29-25.61,80.37-.69,2.43-.49,6.6-3.69,6.61-9.09,0-7.69,6.69-7.85,12.52-.06,2.3,0,4.59,0,6.89,0,5.33-2.19,7.72-7.23,6-21.14-7.39-42.53-12.88-62.29-25.29-29.6-18.59-55.17-39.09-82-61.5-25.25-21-47.51-48.47-73.17-68.89C561.57,1540.3,558.54,1535.25,554.43,1530.34Z"/><path class="cls-7" d="M928.73,1330.2c3.37,2.39,2.92,6.68,3.45,10.5,1.87,13.53,3.5,27.12,7.57,40.08a7.45,7.45,0,0,1,.31,1.32c1.54,13.15,16.1,20.36,15.12,32.86-1,12.9,1.1,24.38,3.59,36.2,2.62,12.39,4.49,25.2,8.78,36.87,9.15,24.92,15.64,50.81,21.38,76.76,7.13,32.21,26.23,57.5,37.66,87.12,3.47,9,9.85,16.73,15.57,24.48,3.93,5.32,2,8-2.73,10.3-14.78,7.21-30.46,10.58-46.13,13.78-33.23,6.78-66.63,4.81-100,5.77-15.41.44-30.8-.11-46.21.07-13.69.15-12.58-1-14.21-15.58-2.65-23.82,8.84-43.28,15.49-64.32,2.21-7,4.87-13.91,7-21,9.41-31.86,19.29-63.6,27.88-95.68,9.67-36.13,18.29-72.56,27.1-108.92,5.22-21.53,9.9-43.2,14.9-64.79C925.72,1334.05,925.38,1331.41,928.73,1330.2Z"/><path class="cls-10" d="M753.09,681.33c20.81.33,39.22-3.52,56.79,4,2.37,1,4.72,2.37,7.35,1.75,2-.47,4.35-.8,5.13-3.48.61-2.09-.85-3.22-1.86-4.64-23.19-32.62-46.22-65.37-65.88-100.72-3.67-6.59-7.77-12.94-10.06-20.3-2.83-9.09-1.89-10.53,6.38-14.75,9.18-4.68,19.18-5.82,28.74-8.22,26.41-6.63,53-13.51,80.23-9.51,10.71,1.57,12.38,3.15,11.27,14.21a496,496,0,0,0-.94,93.26c1,11.31,1.69,22.65-.63,34.18-1.81,9-1.75,18.11-1.31,27.36,1.23,25.92.57,52,2.4,77.87,1.66,23.55,2.13,47.51,9.14,70.1,6.19,20,6.93,41.07,9.31,61.82.42,3.68.29,7.67,2.31,10.42,6.51,8.84,5.33,19.66,6.68,29.91.74,5.67-2,7.45-6.18,8.45-15.65,3.73-30.67.75-45.38-3.71-5.46-1.65-7.35-7.4-7.5-13.08-.88-32.42-8.56-63.15-20.34-92-11-26.9-18.63-55-27.75-82.56-5.82-17.59-14.15-33.78-22.87-49.67C763.2,703,759.23,693.65,753.09,681.33Z"/><path class="cls-9" d="M1278.33,219c-11.46,1.55-21.4,5.07-29.71,11.83-5.49,4.47-9.41,4.26-13.34-.3-10.43-12.11-24.65-14.91-39-17.23-16.71-2.71-35,8.05-42.16,25-1.71,4.05-3.35,4.8-7.44,5.35-12.4,1.66-20.06-1.68-25.31-14.93-10.13-25.53-42.09-27.32-63.16-13.68-5.79,3.75-8.67,3.95-12.84-.45-12.93-13.66-29.38-18.75-47.23-20.38-3-.27-5.92-.7-8.84-1.26-3.72-.71-5.4-3.52-3.33-6.9,12.57-20.52,23.18-42.55,41.13-59,12-10.93,25.32-18.19,40.65-19.65,25.57-2.42,51.19-6.49,76.77-3.73A95.38,95.38,0,0,1,1178.57,114c17.77,9.24,36.52,16.28,54.28,25.66,10,5.26,18.66,12.2,27.32,19.29a23.67,23.67,0,0,1,8.11,13.37C1271.7,187.68,1273.32,203.54,1278.33,219Z"/><path class="cls-10" d="M1263.91,652c37.13,18.41,76.85,30,99.59,69.88-9.83,10.42-21.51,18.49-32.78,27a316.54,316.54,0,0,0-40.66,37.33c-6,6.44-5.55,9.39,1.73,13.39,3.31,1.82,7.1,2.81,10.76,3.83,12.36,3.42,23.56,9.27,35.2,17.1-13,15.25-23.17,31.47-38.09,44.25-21.7,18.59-44.53,36-63.35,58.35a31.7,31.7,0,0,1-4,3.62c-7.49,6.33-8.35,6.14-9.57-4-2.49-20.55-7.67-40.52-16.56-58.26-7.75-15.45-12.44-32.38-20.82-47.29-3.13-5.57-3-9.17.66-14.55,16.62-24.36,32.3-49.18,45.36-76.11,7.55-15.54,15.93-30.74,22.94-46.67C1258.06,671.46,1259.87,662.44,1263.91,652Z"/><path class="cls-7" d="M881.35,655.45c8.8,8.34,21.16,9.92,26.72,22.14,2.09,4.6,8.55,5.32,13.12,7.59,13.38,6.65,27,12.77,40.15,19.88,11.63,6.31,22.77,13.6,34,20.59,6.78,4.21,7.3,12.87,11,19.28,1,1.69-.9,3.16-2,4.65-9.25,13-13.7,28.24-16.46,43.63C981.27,830.57,971,867,960.26,903.28c-3.8,12.8-7,25.69-8.23,40.41-12.93-6.36-25.88-4.8-38.85-1.05-4.43,1.28-5.64-.35-6.66-5-7.76-35.62-11-72.33-19.2-107.85s-7.54-72.36-8.74-108.88c-.57-17.35-1.86-34.69-.43-52.16C878.48,664.73,877.68,660.48,881.35,655.45Z"/><path class="cls-9" d="M979.19,978c11.63,6.35,22.43,13.87,32.67,25.61-6.7.51-12,1.5-15.87,5.86-3.5,3.93-6.16,2-8.53-1-11.85-15.18-28.09-18.76-45.83-18.28-14.06.38-28.27-.19-41.44,7.63-1.9,1.12-4.11,1.6-6,2.79-2.1,1.37-5.4,2.5-4.45,5.89a6.13,6.13,0,0,0,6.9,4.73c7.24-.92,14.45-2.36,21.7-3.13,16.42-1.73,31.1,2,44.43,12.56,11.13,8.78,23.14,16.51,38,19.89-12.35.24-17.17,7.83-17.9,19-4.34.92-5.57-2.69-7.54-4.56-24.08-23-61.17-20.13-86.92-7.11-2.41,1.23-6.41,2.82-5.48,6.65,1.29,5.3,6,4.63,9.64,3.39,14.55-4.91,29.43-6.58,44.34-6.64,17-.07,31.87,5,41.52,21,2.25,3.74,5.15,7,7.82,10.6-.73.53-1.26,1-1.84,1.34-7.43,4.66-12.64,3.75-20.63-1.48-18.7-12.26-39.67-18.29-61.86-4.79-2.23,1.36-4.87,1.92-7.33,2.79-2.08.74-4,1.62-5.41,4.08,2.93,6.37,8.73,6.34,14.18,6.06,5.68-.3,11,.82,16.5,1.7,8.83,1.42,13.73,8.25,19.27,14.36,1.29,1.43,2.19,3.13.62,4.66-6.94,6.75-.25,12.47.36,18.62l.35-.15c-6.27.75-9.57-4.47-13.47-7.88a123,123,0,0,0-29-19,34.87,34.87,0,0,0-23.65-2.33c-14.84,3.39-29.58,5-44.66,3.56-6.6-.62-12.58-1.88-18.14-5.25q-15.93-9.66-31.72-19.55c-8.65-5.42-9.15-6.28-4.74-16.1,5.84-13,12.67-25.55,17.73-39,8.31-22,16.92-43.82,24.83-65.93,2.31-6.46,4.85-9.71,11-6.48,12.7,6.69,26.94,7.43,40.56,10.31,10.09,2.14,20.44-.11,30.22-4.47,4.41-2,8.61-4.52,13-6.56,23.31-10.86,42.69,1.59,54.25,17,3.32,4.44,3.41,11.71,5,17.63,4.87.29,3.59-4.62,5.49-6.69A13.16,13.16,0,0,0,979.19,978Zm-29.9,56c2.08-4.9,2.9-9.09,1.74-13-1-3.4-3.89-5.65-6.25-1-3.42,6.8-4.64,6.39-6-.75-.43-2.3-2.93-5-5.88-3-2.57,1.76-1.86,5-1.35,7.57a7.22,7.22,0,0,0,5,5.5Zm9.57-52.69c2.53-2,1.84-3.37,1.64-4.6-.55-3.47.56-7.84-2.49-10.08-4.43-3.26-3.79,3.23-6,4.23-1.62.75-3-.9-4.23-2.1-1.74-1.69-3.48-4.54-6.21-1.73-2.28,2.34-1,5.28,0,7.61C945.59,983.42,953.18,980.91,958.86,981.31Zm-17.41,86.62c3.52.21,7.42,2.87,8.24-3.4.66-5.06-1.76-6.4-6-6a8.73,8.73,0,0,1-3.76-.49c-2.26-.8-4.11-.84-4.88,2.19a4.88,4.88,0,0,0,2.13,5.76A29.09,29.09,0,0,0,941.45,1067.93ZM918,1103.77c.41-1.71-.61-2.83-2-3.91-1.64-1.32-2.43.49-2.72,1.27-.78,2.16-.72,4.4,2,4.92C916.52,1106.28,917.51,1105.44,918,1103.77Z"/><path class="cls-9" d="M1109.55,833.67c8,7.38,13.33,13.43,21.7,15.22,5.42,1.15,9.44,18.94,6.62,24.47-1.63,3.19-4.35,2.34-6.85,2.17-2.12-.14-4.77-.6-5.14,2.43-.36,2.88,2.14,3.43,4.35,3.49s4.31-.07,6,2.53c-3.37,4.92-9.48-4.18-11.27,1.59-1.53,2.17-1.35,2.93-.3,3.4,10.27,4.61,10.33,4.63,6,15.77-2.73,7-3.48,14.34-5.06,21.55-1,4.37-.53,9.2-3.89,13s-1.43,7,2,8.63c4.76,2.25,5.89-1.9,6.83-5.58,1.15-4.47,2.14-9,3.13-13.5,1.59-7.18,2.47-14.61,4.8-21.53,7.63-22.62,8.82-44.84,1-67.07-4.31-12.33-3.91-25.42-4.28-38.69,5,.68,5.41,4.29,6.86,6.88,1.29,2.31,2,5.74,4.64,6.08,11.12,1.43,9.39,9.15,8.88,18-.61,10.57,4.84,20.09,6.4,31-.5,1.68-2.3,1.36-3.91,1.55-2.05.26-4.68.08-4.55,3.35.08,2,1.9,2.88,3.59,3.24,3.06.64,7-1.2,9,4.43-4.07-.25-8.34-1.84-11.73,2.6,3.25,3.72,7.9,2.43,11.5,4,2.24,1,2.81,3.17,2.07,5.68-.68,2.29-2.31,2.31-4.08,1.95-3.87-.78-7.67-3.91-12.08.05,1.56,6.55,8.64,2.56,11.52,7.28-5,9.29-10.27,18.92-12.86,29.7-.64,2.67-1.49,5.55-1.15,8.12.39,2.89,2.95,4.19,5.71,4.33s3.72-2,4-4.4c1.69-14.39,8.07-27.35,12.33-40.94,2.88-9.19,3.66-18,.39-26.87s-3.91-18.62-8.82-27.75c6.65-2.55,12.54-.11,18.25-2.66,4.41-2,12.18,10.79,8.6,16.12-8.39,12.51-3.57,26-5.76,38.76-2.37,13.86-1,28.31-1.24,42.49,0,.46-.07.93,0,1.38.27,3.1,1.79,5.18,4.74,5.2,2.74,0,3.43-2.48,3.69-4.83,1.62-14.6,4.18-29.14,4-43.85,0-1.8-.44-3.62.85-5.22,11.9,4,11.85,4,14.65,15.81,1.54,6.51,3.29,13,4.89,19.23-3.73,3-6.25.1-9-.08-2.54-.17-5.83-1.28-6.29,2.41-.33,2.63,2.3,4.63,5,5.2,2.08.43,4.33.38,6.24,1.18s4.19,2.55,3.05,5.06c-1.35,3-3.69,1.18-5.31,0-3.28-2.37-8.14-5.08-9.83-.55-2,5.45,3.94,5.3,7.45,5.67,5.35.56,6.29,3.46,4.39,8.42-1.2,3.1-3,4.36-6,3.07-3.5-1.54-6.95-3.25-10.53-4.59-1.91-.71-4.38-1.49-5.46,1.52-1,2.71,1,4.36,2.81,5.23,4.15,2,8.51,3.58,13.12,5.47-3,8.33-8.51,14.57-13.45,20.81-13.64,17.23-21.42,37.28-27.85,58.06-3.93,12.67-4.94,13.64-17.07,14.43a58.77,58.77,0,0,1-20.25-2.55c-14.39-4.19-29.3-5.7-43.79-9.22-5.8-1.41-9.12-3.39-8.73-10.54.47-8.78-1.15-17.27-3.58-25.6-3-10.23-2-20.55.46-31.16,5.71-24.67,6.89-49.12-1.52-73.06-2.91-8.3-4.27-17.3-1.57-27.25,6.61.82,5.6,7,7.09,11.07,3.11,8.37,4.48,9.45,12.92,6.37,5.24-1.92,6.08,1.1,6.27,5,.32,6.39.43,12.81.27,19.23-.16,6.71,2.29,12.41,4.88,18.09,1.16,2.55,3.14,4.3,6.07,3.91s2.88-3.15,3.46-5.22c4.75-16.79,10.19-33.38,11.37-51,.55-8.14-2.18-15-3.93-22.37S1110.83,845,1109.55,833.67ZM1085,919.76c-1.86.21-3.89,1.45-3.47,3,.9,3.46,4.14,5.94,2.53,10.58-.41,1.18,2.7,1.19,4.06.17,5-3.76-2.85-6.65-.32-10.73C1089,920.9,1086.56,920.14,1085,919.76Z"/><path class="cls-11" d="M971,1411.3c-12.13-8.36-19.39-19.48-22.59-33.59-5.8-25.56-11.34-51.18-14-77.54-2.43-23.54-5.18-47.05-8.78-70.35-2-12.87-.94-25.47.09-38.31,1.47-18.27,2.9-36.55,2.24-55.46,7.71,1.1,14.22,6.61,20.54,4.14,4.37-1.71,10.18,6.67,12.48-2.51,2.75-11,9.38-23.37-4.47-30.57-7-3.63-13.13-7.82-18.29-14-3.12-3.72-7.54-5.45-12.15-6.87-4.32-1.33-9.18-1.15-14.43-5.22,21.09-4.74,38.38-.58,53.31,13.09,3.51,3.21,6.34,7.24,9.84,10.45,7,6.39,20.91,3.7,25.88-4.92a10.92,10.92,0,0,0,1-5.24c-.12-13.5,1.44-15.78,13.38-20,2-.71,3.83-2.21,6.07-1.59a4.75,4.75,0,0,1,1.64,4.79c-4.83,25.81-7.43,51.92-13.09,77.67-6.21,28.31-7.88,57.42-14.21,85.8-2.81,12.61-6,25.11-8.67,37.76-7,33.2-7.67,66.75-10.25,100.21C975.64,1389.54,975.64,1400.08,971,1411.3Z"/><path class="cls-11" d="M1030.38,1009.38c-2,0-3.23-1.06-4.37-2.48A162.72,162.72,0,0,0,985.37,971a105.24,105.24,0,0,1-10.54-7.42c-15.52-12.6-15.18-13.24-10.63-34.14,7.17-32.92,18.81-64.6,25.91-97.52,4.47-20.71,7.49-41.76,14.32-62,1.92-5.67,3.34-11.51,6.86-16.44,5.22-.51,7.31,4,10.24,7,10.16,10.4,21.3,16.21,35.65,7.81,5.76-3.36,9.65-1.17,13.13,3.78,6.54,9.32,6.83,20.51,6,31.35-1,13.2-4.44,26.08-8.49,39-7,22.38-17.7,43.47-22.75,66.47-6.32,28.81-12.82,57.63-12.15,87.31C1033,1000.63,1032.73,1005.3,1030.38,1009.38Z"/><path class="cls-7" d="M1088.2,738.47c12.85-21.88,28.58-44.1,18.44-73.79,14,2.61,27.69,3,40.91.62,22.17-4,44.91-6.3,65.46-18.4a38.79,38.79,0,0,1,6-2.7c11.38-4.27,23.37-6.74,33.45-14.72,1.84-1.45,4-2,6-.6,2.28,1.6,1.45,4.11.79,6.19-8.57,26.79-18.47,53-31.44,77.92-3.62,6.93-9.2,11.59-16.61,14.78-38.11,16.38-77.25,16.59-116.61,14.71C1092.47,742.38,1090.34,741.71,1088.2,738.47Z"/><path class="cls-7" d="M992.19,711.05c-2.72-1.21-6.32-1.61-8-3.75-11.62-14.83-28.76-20-44.35-27.22-18.64-8.66-34.94-21.46-53.34-30.38-4.09-2-6-6-6.07-11.07-.46-32.47-1-64.93-1.47-97.4,0-2.57-.83-5.56,2.72-8.6l24.54,30.12C918.63,578,931.46,592.83,945.79,606c11.2,10.31,25.22,16,37.69,24.32,7.44,4.94,15.4,9,24.22,14.09-11.84,12-16.78,26.08-15.38,42.26.66,7.71,1.7,15.37,2.57,23.06Z"/><path class="cls-9" d="M1156.3,371.2c-1.8,13.8-9.17,26-16.11,38.34a53.35,53.35,0,0,1-11.14,13.59c-8,7.19-16.18,8.33-24.83,2.74-3.59-2.33-7.16-4.71-10.67-7.16-16.62-11.57-20.57-23.59-14.07-44.36,3-9.65,6.7-19.1,10.18-28.6,4.43-12.07,9.66-23.79,12.79-36.41,2.11-8.53,4.84-17.07,12.45-22.89,3.38-2.59,5.71-7,8.09-10.91,6.38-10.4,6.19-9.84,18-8.22,10.46,1.43,18,5,18,17.82,10.74,14.88,6.07,32.16,4.33,48.71C1162.06,346.14,1160.41,358.54,1156.3,371.2Z"/><path class="cls-11" d="M1097.94,693.79c-7.14,22-16.09,43.28-32.54,59.39-13.55,13.28-27.47,14.2-39.28-.06-7.22-8.71-15.37-16.5-18.91-28.19-6.85-22.66-7.58-45.18,2-68,2.53-6,5.71-7.31,11.09-5.38,21.33,7.66,43.9,9.23,66.13,12.45,12.26,1.78,16.53,8.32,13.55,21.8C1099.44,688.49,1098.65,691.13,1097.94,693.79Z"/><path class="cls-7" d="M1215.83,737.88c1,3.74-.6,6.18-2.15,8.17-13.44,17.27-26,35.14-35.66,55.12-2.94,6.05-7.08,6.35-11.18,1.59-1.77-2-2.39-4.64-3.26-7.22-3.58-10.67-9-15.4-15.81-14.4-12.28,1.81-17.84,7.38-18.72,20.71-.53,7.95-2.23,11.52-10.72,13.09-12,2.21-18,14.72-15,27.45,1.44,6.15,2.92,12.42,5.37,18.11,5.21,12.1,6.29,24.61,2.41,37.44-1.89,6.23-.06,13.7-5,19.22-4.24-1.82-4-5.32-4.31-8.27-1.1-9.5-2-19-3-28.55-1.52-15.48-5.85-20.67-19.8-23.67-2-.43-4.42.14-5.62-2.42,17.51-45.41,17.68-72.59-.67-95.25,4-7.91,9.69-10,18-9a304.26,304.26,0,0,0,64.08,1.16c14-1.33,28.15-3.45,41.68-9.07C1202.73,739.49,1209.05,735.7,1215.83,737.88Z"/><path class="cls-12" d="M998.12,218.13c11.88,9.62,29.74,9.72,41.09,23.05,3.66,4.3,7.82,5.28,12.2.63,6.58-7,15.59-7.89,23.5-11.29,8.35-3.58,21.23,3.54,24.64,12,4,9.84,1.37,19-7.51,26.5-.69.57-1.33,1.21-2,1.76-12.06,9.52-12.29,9.81-23.27,0-16.6-14.77-42.65-18.82-64.06-3.32-4.94,3.58-7.91,2.34-10.57-2.1-4.54-7.58-9.14-15.13-13.34-22.94-3.37-6.29-6.89-13.28-1.32-20.25C982.72,215.58,990,217.47,998.12,218.13Z"/><path class="cls-13" d="M1051,233.77c-2.74-.1-4.37.38-5.14-.27-11.39-9.7-26-12.78-38.48-20.2a31.92,31.92,0,0,0-18.53-4.14c-18.48,1.12-27.83,16-19.74,33.34A166.2,166.2,0,0,0,989,275.39c9.85,12.43,19,25.19,26.55,39.36,2.06,3.85,4.15,7.91,7.79,9.89,13.35-9,26.4-17.91,39.58-26.6,11.47-7.57,23.31-14.5,34.58-22.4,13-9.1,16-22.84,9.22-38.82-4.66-11.1-20.87-18.07-32.85-13.59-6.43,2.4-12.88,3.63-18.92,5.13-1.47-2.61-.34-3.8.51-4.49,10.52-8.55,36.08-10.82,46.55-3.81,11.35,7.59,17.94,19.13,19.65,33.27,1.35,11.11-5.7,19.83-12.68,26.42-20.74,19.63-43.81,35.41-70.34,44.27-2.86,1-5.8,1.68-8.61,2.79-12.77,5.07-12.41,4.8-20.4-6-14.93-20.19-26.76-42.68-40.76-63.54a61.52,61.52,0,0,1-8.93-19.36c-4.45-17.69,10-41.56,30.68-36.13,4.91,1.29,10.21,1,15.22,2C1022.71,207,1035.76,213.16,1051,233.77Z"/><path class="cls-12" d="M1270.13,294.84c-6.64-14-16-23.24-29.39-26.93-16.86-4.63-33.39-5.2-49.09,6.48-7.14,5.31-8.78,4.84-10.52-3.27-1.06-4.95-3.29-9.28-4.49-14.08-2.35-9.47.65-14.7,9.69-14.43,14.82.44,29.87.26,40.39,14.74,6.2,8.52,7,7.3,16.35,1.29,11.61-7.48,24-12.85,37.63-13.59a18.6,18.6,0,0,1,9.9,2c7.64,4,9.47,9.63,5.14,17.87-4,7.6-8.48,14.87-15.6,19.92C1277,287,1274.57,290.32,1270.13,294.84Z"/><path class="cls-13" d="M1237.76,253.25c-4.13-.07-6.06-3.91-8.64-6.55-13.37-13.69-30.41-14.84-47.63-12.54-10.9,1.45-16.36,12.79-12.62,25.93,3.81,13.35,7.27,27.17,15.56,38.42a179.75,179.75,0,0,1,18.11,29.29c3.26,6.86,7.91,7.66,14.64,6.08,13-3.07,24.25-10.4,34.62-18.56,10.84-8.54,23.08-14.87,32.9-24.94,1.72-1.77,3.79-1.86,6.72-1.24-3,9.33-7.7,17.37-15.09,22.89-10.72,8-22,14.81-34.78,18.6-10.52,3.12-20.64,8-30.94,12.11-7.7,3.08-9.28,2.61-12.58-5.48-6.67-16.29-16.79-30.19-26-44.72-6.77-10.73-9.46-23.16-11.89-35.46-3.86-19.56,6.17-28.8,25-33.6s40.32,4.6,52.08,23.28C1238.35,248.46,1239.91,250.38,1237.76,253.25Z"/><path class="cls-10" d="M882.56,1107.88c9.35-.1,16.33,4.43,23.3,8.47,10.2,5.9,20.48,12.28,12.64,28.24.11,24.22-4.76,48.52-1.7,72.7.27,2.15.71,4.56-1.07,6.53C908.39,1215,884,1130.28,882.56,1107.88Z"/><path class="cls-7" d="M1058.71,894.28c6.62,16.89,10,31.34,8.25,47.14a293.19,293.19,0,0,1-4.83,31.3c-.9,4-2.81,8.47-2.08,12.14,3.36,17-9.2,26.45-16.16,38.54-1.18,2-3.11,3.49-5.45,2.81-2.85-.83-1.63-3.68-1.74-5.7a23.67,23.67,0,0,1,.6-5.46c6.29-34.34,9.29-69.13,16.12-103.41A80.54,80.54,0,0,1,1058.71,894.28Z"/><path class="cls-10" d="M1066.2,1045.76c-6.63,13.66-11.5,27.66-19.75,39.9-4.32,6.41-8.54,12.9-12.8,19.36-1.08,1.64-2.64,2.84-4.34,2.5-2.83-.57-2.16-3.17-2.06-5.44.66-15.59,5-30.92,4.54-46.59a7.19,7.19,0,0,1,1.12-4c8-11.56,16-23.18,24.41-34.47,3.33-4.49,6.28-3.7,7.77,1.91C1067.44,1027.8,1066.43,1037,1066.2,1045.76Z"/><path class="cls-14" d="M1230.84,319.86c-3.86,5.64-9.56,4.79-14.3,6.45-3.37,1.19-5.74-1.5-7.16-4.31-6.23-12.3-14.23-23.3-21.93-35.24,10.12-8.94,21.78-11.62,33.58-13.56,3.89-.64,8.48.17,6,6.39C1221.36,294.2,1224.93,307.3,1230.84,319.86Z"/><path class="cls-14" d="M1068.17,286.42c-6.18,6.81-12,8.27-19,2.34-9.27-7.8-19.94-6.16-30.33-1.54-4.11,1.82-7.42,2.24-10.48-1.06-2.64-2.85-6.09-6-5.17-10.26.86-4,5.26-4.1,8.54-5.16C1033.92,263.55,1053,267.39,1068.17,286.42Z"/><path class="cls-7" d="M922.56,1290.88c6.39,10.85,1.92,20.74-.25,30-4.07,17.41-9.43,34.53-14.16,51.79-.87,3.18-1.15,6.49-5.62,5.18-3.57-1.06-5.14-3.64-3.73-7.11,9.92-24.38,11-51.14,20.54-75.61C919.8,1294,920.89,1293.05,922.56,1290.88Z"/><path class="cls-13" d="M1306.53,263.61c-1.43-20.56-9.11-26.87-26.58-26.48-11.17.24-20.82,5-30.86,9.11-2,.81-4.34,2.38-5.78,0-2-3.26,1.12-5.3,3-6.43,13.88-8.15,28.46-14.21,44.25-12.09C1307.11,230,1314.81,245.85,1306.53,263.61Z"/><path class="cls-7" d="M886.73,1416c2.22-8.4,3.75-14.15,5.26-19.91.71-2.74,1.37-5.52,5-4.53,3.32.92,6.8,1.74,5.53,7-.32,1.33-.33,2.75-.75,4-3.45,10.9-7,21.78-8.82,33.11-.61,3.64-2.28,6-6.19,4.41-3.14-1.27-7.08-2.13-5.65-7.13C883,1426.39,885.4,1420,886.73,1416Z"/><path class="cls-11" d="M917.58,1001c32-8,62.2-.59,71.9,26.2-12.37-4.54-21.51-14.05-32.38-20.48C945.77,1000,932.8,1001.83,917.58,1001Z"/><path class="cls-14" d="M1250.26,308.07c-10.2,6.08-12.59,5.7-15.59-2.62a45.69,45.69,0,0,1-2.63-19.91c.41-4.45-.37-8.38,5-8.83,4.54-.38,9.56,4.87,8.07,9.4C1242.36,294.6,1244.14,301.29,1250.26,308.07Z"/><path class="cls-14" d="M1003.87,1050c1,.62,2.89,1.62,4.63,2.8,3.34,2.27,7.64,3.34,6,9.91-1.56,6.25-5.92,7.7-10.32,8.82-4.85,1.24-7.64-2.27-9.78-6.5-2-4-4.5-7.65-1.65-12.53C995.46,1047.88,999.2,1049,1003.87,1050Z"/><path class="cls-11" d="M1025,1051.38c-7.17-6.72-11.83-15.64-22.85-17.55,7.73-3.09,14.24-1.16,20.37-3.86,5-2.18,7.34.92,6.41,6.2C1028.1,1040.9,1026.55,1045.52,1025,1051.38Z"/><path class="cls-14" d="M996.9,1019.2c8.74-9.28,17.07-10.59,23.75-3.71,2.49,2.57,3.27,4.74-.65,7.31C1011.83,1028.18,1005.05,1027.3,996.9,1019.2Z"/><path class="cls-14" d="M1159.43,804.39a4.7,4.7,0,0,1-4.94,3.41,7.42,7.42,0,0,1-6-4.21c-2.17-4.13-5.94-8-3.16-13.43.7-1.38,3-1.18,4.71-.44C1154.82,791.85,1160.3,800.32,1159.43,804.39Z"/><path class="cls-14" d="M1180.92,826.62c-1.16,2.88-7.75,4.67-9.91,2.07-2.69-3.22-4.61-7.21-6.56-11.05-.34-.68.52-2.75,1.33-3.35,3.52-2.59,6.28-.44,9,1.73C1179,819.5,1181.85,824.3,1180.92,826.62Z"/><path class="cls-13" d="M1154.83,261.16c-22.63-4.28-22.63-4.28-26.81-11.48C1137.51,251.47,1147.09,249.48,1154.83,261.16Z"/><path class="cls-14" d="M1131.72,838.44c-5.72.3-8.58-2.21-11.09-5.34-2-2.48-3.37-5.26-1.85-8.7,1.3-2.92,3.89-3.58,6.48-3.38,3.44.27,5.13,2.61,5.42,6.26S1131.35,834.48,1131.72,838.44Z"/><path class="cls-14" d="M1076.43,864.84c8,.79,10.39,6.24,12.79,11.44,1.12,2.41,1.58,5.44-1.24,7.38-3.36,2.3-5.79.21-7.55-2.41C1077.37,876.69,1077.63,871,1076.43,864.84Z"/><path class="cls-14" d="M944.26,1118.4c6.56-1.4,11.15.15,12.69,7,.38,1.71-1.12,4.62-2.25,4.39C949,1128.59,945.62,1124.59,944.26,1118.4Z"/><path class="cls-14" d="M987.23,1091.78c1.87,1.4,5.64,2,3.87,6.17a4.15,4.15,0,0,1-5.39,2c-2.85-1-5.6-2.75-4.2-6.54C982.25,1091.41,984.76,1090.81,987.23,1091.78Z"/><path class="cls-14" d="M1200.79,874.91a3.87,3.87,0,0,1-2.5-3.89,1.31,1.31,0,0,1,2.41-.84,23.48,23.48,0,0,1,2.31,4.26Z"/><path class="cls-14" d="M940.2,1130.25a1.85,1.85,0,0,1,1.86,2.09,2.24,2.24,0,0,1-1,0c-1-.47-2.07-1-.47-2.26Z"/><path class="cls-1" d="M735.29,568.7c-.3-1-1.14-2.47-.8-2.93,1.47-2,2.38-.11,3.37.82C737,567.29,736.14,568,735.29,568.7Z"/><path class="cls-14" d="M977.21,979.47a10.93,10.93,0,0,1-1.09-1.9c1.17-1.17,2.17-.49,3.07.46A13.16,13.16,0,0,1,977.21,979.47Z"/><path class="cls-14" d="M994.89,709.76c.25,1.31.61,2.81-1.23,3-.45.05-1-1.12-1.47-1.73Z"/><path class="cls-9" d="M1173,317c-.79-.86-1.46-2-.27-2.8.63-.4,1.88.38,2.86.62Z"/><path class="cls-6" d="M725.53,640.18c3.94,1.86,5.58,5.36,6.42,9.49,2.17,10.73-1,21.78.46,32.59.32,2.35-2.1,3.82-4.36,4.17-2.43.37-4.06-.88-4.77-3.28a22.49,22.49,0,0,1-.59-4c-1.15-10.74.22-21.72-1.56-32.45C720.66,643.86,721.26,640.14,725.53,640.18Z"/><path class="cls-6" d="M1094.52,456.29c.29,1.27.47,2.71,2.18,2.48a47.54,47.54,0,0,1,5.08-.83c9.88-.28,14.31,8.38,20.64,14,5.76,5.09,15.94,5.85,14.72,17.64-.34,3.2,1.59,3.85,3.83,3.92,3.18.09,5.51,1.55,8,4.47-7.65,5.06-8.62-1.65-10.72-6.55-6.08,3.19-12,5.41-16.14,11.25a6.91,6.91,0,0,1-4.35,2.85c-11.5.7-22.93,3.73-34.47,2.73a5.49,5.49,0,0,1-2.47-.64c-12.3-8.34-25-16.14-36.68-25.35-5.75-4.53-2.76-13.27,4-18,3-2.12,10.79.3,8.38-8.48-.4-1.48.36-2.39-.85-1s-2.74-.28-1.19,0,3.54,1.62,3.78,2.9c.64,3.38,3.67,3.52,4.71,2.62,9.56-8.34,17.93-3.42,26.72.64,1.62.76,6.51.86,5-4.65Zm-37,13.66c22.58,8.8,44.56,19,69.91,16.57-4.16-6.45-12.08-7.86-16.47-14.07-4.15-5.9-10.1-7.84-17.1-4.4-2.86,1.41-6.31,2.28-8.73.56C1075.88,462,1066.75,467.64,1057.5,470Zm60.23,26c-6.32-5.16-13.3-3.85-19.81-3.89-6.7-.05-12.41-2.73-18.27-5.29-6.11-2.68-12-6.45-21.32-4.16,6.32,2.62,11.07,4.43,14.18,8.51,6.61,8.65,14.93,11.23,25.11,7.85,3.45-1.14,6.81-.27,10.21-.28C1111,498.72,1114.45,499.24,1117.73,496Z"/><path class="cls-6" d="M1070.35,589.8c-12.64-5.07-23.63-11.32-32.35-20.27-13.3-13.64-25.41-28.63-37.54-43.51-3.63-4.45-8.66-8.89-7.05-16.41,8.4-1.9,9.8,6.3,13.82,10.72,16.62,18.26,30.74,39.23,51.37,53.13,8.5,5.73,17.17,9.06,27.66,7a61.69,61.69,0,0,1,16.65-.87c21.21,1.78,34.28-11.6,45.47-28.61a66.81,66.81,0,0,0,5.76-10.91c1.92-4.62,4.79-5.06,8.27-3.08,3.64,2.08,4.09,5,1.5,8.92-9.31,14-17.48,28.8-33.07,36.85-6.45,3.32-12,6-19.29,5.67-10.19-.39-20.51,1.11-30.78,1.6C1077,590.26,1073.12,589.89,1070.35,589.8Z"/><path class="cls-6" d="M1024.56,509.07c3.22.59,5.35,3,5.44,7.25,0,2.15-1.14,3.59-3.25,3-3.51-1-6.24-2.92-6.15-7.39C1020.65,509.71,1021.81,508.68,1024.56,509.07Z"/><path class="cls-6" d="M1086,560.8c-2.08,1-2.5,1.44-2.81,1.37-3.41-.7-8,.76-8.79-4.89a2.74,2.74,0,0,1,1.29-2.12C1080.49,553.63,1083.37,556,1086,560.8Z"/><path class="cls-6" d="M1072.76,542.77a2.8,2.8,0,0,1-3.55,2.44c-2.69-.76-5.85-1.52-5.73-5.53a2.56,2.56,0,0,1,3.49-2.53C1069.59,538,1072.77,538.5,1072.76,542.77Z"/><path class="cls-6" d="M1138.28,545.35c-1.75,3-4,2.09-5.82,1.4-2.38-.89-4.88-2.26-3.73-5.85.66-2,2.57-3,4-1.75C1134.84,540.91,1138.58,541.35,1138.28,545.35Z"/><path class="cls-6" d="M1114.63,529c-3.58,1.64-7.13,3.49-9.35-1.71-.73-1.72-.82-4.1,1.17-4.5C1110.79,521.88,1113.9,523.68,1114.63,529Z"/><path class="cls-6" d="M1008.33,480.83c-2.79,2.93-5.27,3.1-7.57,1.57-1.91-1.26-4.92-2.48-2.57-5.94,1.52-2.24,3.67-1.88,5.66-.74A10.36,10.36,0,0,1,1008.33,480.83Z"/><path class="cls-6" d="M1106.75,550.6c-.59,2.17-2,2.92-3.76,2.61-2.89-.51-5.89-1.43-5.89-5.23,0-2.66,2.27-3.55,4.46-3.27C1104.77,545.1,1106.58,547.15,1106.75,550.6Z"/><path class="cls-6" d="M1038.67,455.42c-1.75,2.36-3.67,1.15-5.46.38-1.54-.65-3.32-2.53-2.66-3.66,1.5-2.59,4.08-2.72,6.33-.85C1038.06,452.28,1039.6,453.23,1038.67,455.42Z"/><path class="cls-6" d="M1191.92,500.59c-1,.88-2.06,2.44-2.92,2.37-3.46-.27-6.16-2-6.58-6.06a2.33,2.33,0,0,1,2.39-2.45C1188.52,494.52,1190.72,496.76,1191.92,500.59Z"/><path class="cls-6" d="M1163,519.48c-.86.74-1.84,2.25-2.71,2.22-3.68-.13-6.32-2-6.58-6.27A2.15,2.15,0,0,1,1156,513C1159.71,513.21,1162.13,515.18,1163,519.48Z"/><path class="cls-6" d="M1166.81,482.71c-2.55,3-4.71,2.6-6.41,1.56-2.19-1.34-4-3.7-1.91-6.43,1.54-2,3.93-1.06,5.44.51A25.7,25.7,0,0,1,1166.81,482.71Z"/><path class="cls-6" d="M1064.5,429.86c-.87,2.76-2.22,3.56-4.08,2.78-2.88-1.22-5.21-3.09-4.12-7,.37-1.33,1.78-1.77,3.17-1.45C1062.64,424.92,1064.79,426.54,1064.5,429.86Z"/><path class="cls-6" d="M1024,456c-5,2-8.13,1.16-9.78-3.21a2.55,2.55,0,0,1,1.14-2.05C1019.39,449.36,1021.41,452.26,1024,456Z"/><path class="cls-6" d="M1031.28,487.08c-2.11,2.57-3.93.65-5.78,0a3.25,3.25,0,0,1-2.29-4.16c1.11-3.46,3.62-1.81,5.22-1S1032.06,484.31,1031.28,487.08Z"/><path class="cls-6" d="M1050.32,519.81c1.25-.19,2.17-.62,2.87-.38,3,1,6.79,1.05,6.73,6,0,1.18-.54,1.68-1.63,1.6C1054,526.69,1050.06,526,1050.32,519.81Z"/><path class="cls-6" d="M1135,460.13c-1.74-1.06-3.57-2.22-3.43-4.8.09-1.53,1.18-2.46,2.65-1.93a5,5,0,0,1,3.6,4.75C1137.83,459.77,1136.42,460.2,1135,460.13Z"/><path class="cls-6" d="M1057.46,407.33c-4.78,1.52-7.56-.22-8.49-5-.09-.47,1.07-1.73,1.74-1.85C1055.77,399.59,1057.32,402.64,1057.46,407.33Z"/><path class="cls-6" d="M1094.66,456.22c-.06-5.38-8-.77-7.56-6.72,6.89-3.21,4.34,5.27,7.42,6.79Z"/><path class="cls-6" d="M1028.7,422.28c4-.53,6,1.73,7.18,4.9-.17,1.56-.75,2-1.82,1.87C1030.19,428.72,1027.78,427.09,1028.7,422.28Z"/><path class="cls-6" d="M1114,452.39c-.77,1.14-2,1.07-3,.57-1.41-.65-3-1.6-1.73-3.56.35-.53,2.24-.29,3.25.08S1114.76,450.51,1114,452.39Z"/><path class="cls-6" d="M1091.27,438.71a2.09,2.09,0,0,1-2.86,1.85c-2.12-.46-4.21-1.38-4.34-4.06s1.74-2.7,3.45-2.18C1089.63,435,1091.36,436.14,1091.27,438.71Z"/><path class="cls-6" d="M949.29,1034l-12.66-4.55a7.22,7.22,0,0,1-5-5.5c-.51-2.6-1.22-5.81,1.35-7.57,3-2,5.45.65,5.88,3,1.33,7.14,2.55,7.55,6,.75,2.36-4.69,5.24-2.44,6.25,1C952.19,1024.91,951.37,1029.1,949.29,1034Z"/><path class="cls-6" d="M958.86,981.31c-5.68-.4-13.27,2.11-17.23-6.67-1-2.33-2.31-5.27,0-7.61,2.73-2.81,4.47,0,6.21,1.73,1.24,1.2,2.61,2.85,4.23,2.1,2.18-1,1.54-7.49,6-4.23,3,2.24,1.94,6.61,2.49,10.08C960.7,977.94,961.39,979.3,958.86,981.31Z"/><path class="cls-6" d="M941.45,1067.93a29.09,29.09,0,0,1-4.22-1.9,4.88,4.88,0,0,1-2.13-5.76c.77-3,2.62-3,4.88-2.19a8.73,8.73,0,0,0,3.76.49c4.19-.44,6.61.9,6,6C948.87,1070.8,945,1068.14,941.45,1067.93Z"/><path class="cls-6" d="M918,1103.77c-.52,1.67-1.51,2.51-2.72,2.28-2.68-.52-2.74-2.76-2-4.92.29-.78,1.08-2.59,2.72-1.27C917.42,1100.94,918.44,1102.06,918,1103.77Z"/><path class="cls-6" d="M1085,919.76c1.58.38,4,1.14,2.8,3.07-2.53,4.08,5.34,7,.32,10.73-1.36,1-4.47,1-4.06-.17,1.61-4.64-1.63-7.12-2.53-10.58C1081.09,921.21,1083.12,920,1085,919.76Z"/><path class="cls-15" d="M1057.5,470c9.25-2.31,18.38-7.95,27.61-1.34,2.42,1.72,5.87.85,8.73-.56,7-3.44,13-1.5,17.1,4.4,4.39,6.21,12.31,7.62,16.47,14.07C1102.06,489,1080.08,478.75,1057.5,470Z"/><path class="cls-15" d="M1117.73,496c-3.28,3.25-6.73,2.73-9.9,2.74-3.4,0-6.76-.86-10.21.28-10.18,3.38-18.5.8-25.11-7.85-3.11-4.08-7.86-5.89-14.18-8.51,9.34-2.29,15.21,1.48,21.32,4.16,5.86,2.56,11.57,5.24,18.27,5.29C1104.43,492.14,1111.41,490.83,1117.73,496Z"/><rect class="cls-16" width="1826" height="2285"/></g></g></svg>