<svg xmlns="http://www.w3.org/2000/svg" viewBox="0 0 260.29 490.69"><defs><style>.cls-1{fill:#fff;}.cls-2{fill:#3d63ae;}.cls-3{fill:#0356a1;}.cls-4{fill:#2d2d2c;}.cls-5{fill:#cc4c9b;}.cls-6{fill:#1e1e1e;}.cls-7{fill:#3cc7f4;}.cls-8{fill:#ed2490;}.cls-9{fill:#f6eb16;}.cls-10{fill:#ef374b;}.cls-11{fill:#5153a4;}.cls-12{fill:#e5df19;}.cls-13{fill:#cb4c9b;}.cls-14{fill:#fbfcfc;}.cls-15{fill:#e26a72;}</style></defs><title>Asset 1</title><g id="Layer_2" data-name="Layer 2"><g id="Layer_1-2" data-name="Layer 1"><text></text><path class="cls-1" d="M86.51,135.66a1.5,1.5,0,0,0,0-3,1.5,1.5,0,0,0,0,3Z"/><path class="cls-1" d="M91.7,87.57a1.5,1.5,0,0,0,0-3,1.5,1.5,0,0,0,0,3Z"/><path class="cls-1" d="M64.36,199.63c3.86,0,3.87-6,0-6s-3.87,6,0,6Z"/><path class="cls-1" d="M102.89,160.64c5.79,0,5.8-9,0-9s-5.8,9,0,9Z"/><path class="cls-2" d="M35.36,219.09,202.81,248.9s-11.1,35.33-23.38,49.83-19.93,24-19.93,24l54.08,71.75s4.09,6.24,3.44,10.26-12.89,13.58-12.89,13.58l-74.52-66.63S107.68,364.59,107.28,367s-14.34,64.51-14.34,64.51-12.19,4.61-13.76.23,2.2-78.87,2.2-78.87,2.19-22.75,13.77-28.29l-8.63-6.66S62.35,292,57.37,280.45,39.24,256,35.36,219.09Z"/><path d="M129.74,351.48c-1.81,1.62-3.37,3.07-5,4.45-1.12.95-2.28,1.85-3.47,2.68-3.76,2.6-7.56,5.12-11.29,7.77a4.08,4.08,0,0,0-1.28,2c-.57,1.88-1,3.83-1.46,5.75-1.56,6.34-2.47,12.84-4.48,19.07-.46,1.43-.64,3-1,4.44-1,4.76-2.08,9.52-3.06,14.28-.91,4.4-1.76,8.8-2.59,13.21-.36,1.88-.63,3.78-1,5.9.82.05,1.57.11,2.32.12,1.27,0,2.54,0,3.81,0a4.7,4.7,0,0,1,4.21,3.19,11.8,11.8,0,0,1,.73,7.54c-.76,3.26-1.46,6.53-2.39,9.74a16.75,16.75,0,0,0-.4,8.12,22.4,22.4,0,0,1-1.07,12.27,28,28,0,0,1-10,13.62,12.08,12.08,0,0,1-2.89,1.46c-2.72,1-5.42,2.45-8.23,2.91-5.69.94-11.47,1.32-16.53-2.28A18.26,18.26,0,0,1,60,483.4a14,14,0,0,1-2.82-8.08,8.81,8.81,0,0,1,1.06-3.68c2.26-4.34,4.4-8.88,7.81-12.3a13.7,13.7,0,0,0,4.21-10.06c0-3,1.4-5.36,3.13-7.6,1-1.36,2-2.83,2.91-4.27a6.4,6.4,0,0,0,1-3.87,29.57,29.57,0,0,1,.53-6.54c.48-2.44.32-5,.61-7.5.61-5.09.21-10.17.23-15.25,0-7.21.15-14.41.29-21.62.07-3.65.21-7.3.44-10.94.15-2.41.52-4.82.78-7.23.4-3.64.74-7.28,1.19-10.9.83-6.78,1.19-13.69,4.51-19.88,1.44-2.66,2.92-5.3,5.63-6.76.36-.19.61-.62,1.11-1.14-1.47-1.33-2.86-2.62-4.27-3.89a134.92,134.92,0,0,1-16.07-16.68c-1.65-2.12-3.53-4-5.11-6.23-3.14-4.31-6.31-8.6-9.13-13.15-2.36-3.8-4.16-8-6.32-11.93-3-7.29-6.78-14.47-9.93-21.83a67.69,67.69,0,0,1-2.33-6.78A85.58,85.58,0,0,1,37,236.23c-.79-4.21-1.26-8.5-1.74-12.78-.12-1.08-.46-2.44,1-3.53,11.32-.18,166.66,30.25,166.8,29.44.4-2.45-166.32-28.18-166.28-27.82.67,5.16,1.16,10.35,2,15.47.38,2.35,1.5,4.52,2.15,6.82a127.34,127.34,0,0,0,6.83,17.41c2.51,5.53,5.42,10.84,8.14,16.26.47.92.88,1.87,1.29,2.82a37.4,37.4,0,0,0,5.61,8.9,36.53,36.53,0,0,1,2.87,4.16c3,4.92,6.87,9,10.52,13.36,4.83,5.73,10.36,10.67,15.82,15.69.89.82,1.92,1.46,3.08,2.33,3.33-2.11,6.6-4.27,9.95-6.29s6.68-3.8,10-5.75,6.71-4,10.08-6,6-4.9,9.32-6.65a1.3,1.3,0,0,1-.35,2c-3.68,2.89-7.27,5.91-11.37,8.14-3.86,2.1-7.57,4.5-11.35,6.78-5.33,3.21-10.6,6.55-16,9.59a20.23,20.23,0,0,0-7.58,7.12,26.34,26.34,0,0,0-2,4.77c-1.64,4.48-1.94,9.23-2.55,13.9s-1.26,9-1.7,13.58c-.35,3.55-.45,7.13-.59,10.7-.21,5.24-.43,10.48-.52,15.72-.08,4.55-.14,9.11,0,13.65A123.57,123.57,0,0,1,80,420.78c-.27,3.49-.53,7-.81,10.59,4.38,2.05,8.9,0,13.55.36.43-1.52.93-3,1.25-4.54q2.66-12.37,5.24-24.77c.63-3,1.22-6,1.9-8.93,2-8.74,4-17.47,6-26.22a4,4,0,0,1,2.19-2.93c3.08-1.34,5.54-3.77,8.39-5.46,5.18-3.08,9.34-7.54,14-11.37,5-4.15,9.18-9.22,13.56-14.07.94-1,2.1-1.85,3.1-2.82,2.54-2.48,5-5,7.56-7.47,1.74-1.71,3.53-3.35,5.24-5.09.82-.84,1.46-1.88,2.23-2.79,2.52-2.93,5-5.87,7.59-8.77a117.33,117.33,0,0,0,11.87-15.41c2-3.25,3.76-6.7,5.6-10.07,2.31-4.23,4.72-8.41,6.85-12.75a80.3,80.3,0,0,0,3.17-8.25c.53-1.5.94-3,1.38-4.58s.85-3.06,1.25-4.59c.28-1.08.25-1.08,1.77-1.58a13.06,13.06,0,0,1-.19,2.65c-2.19,7.41-4.15,14.9-8.29,21.52-2.23,3.55-4,7.46-6,11.17a101.71,101.71,0,0,1-9,14.26c-3.92,5-8.07,9.74-12.34,14.39-2.1,2.28-3.93,4.85-5.87,7.31a1.58,1.58,0,0,0,.09,2.06c.85,1.27,1.63,2.62,2.5,3.88,2.72,4,5.42,8,8.23,11.9,2,2.74,4.08,5.33,6.11,8,3,3.95,6,7.84,8.94,11.87,4.77,6.64,9.36,13.45,14.17,20.05,2.06,2.82,4.61,5.22,6.73,8a77.58,77.58,0,0,1,9,14.6,21.38,21.38,0,0,0,3,5.37c2.94,3.26,6.5,5.37,11,4.87a25.14,25.14,0,0,1,3.36,0c1.12,0,2.23.16,3.35.09,2.93-.16,4.15,2.14,5.35,4.32,1.9,3.48,2.32,7.4,2.2,11.4s-.45,8-.61,12.07a36.92,36.92,0,0,0,2.22,14.59,26.25,26.25,0,0,1,2.13,8.21,11.32,11.32,0,0,1-.3,2.89c-.9,4-3.84,7.11-7.14,7.71a8.07,8.07,0,0,1-7.78-2.76,3.34,3.34,0,0,0-2.86-1.34,5.36,5.36,0,0,1-3.2-1.41,11.87,11.87,0,0,1-4.3-8.42c-.14-1.58-.05-3.2-.24-4.77-.49-4.12-.88-8.28-2.95-11.91a7.31,7.31,0,0,1-.95-2.5,16.68,16.68,0,0,0-4.28-8.62c-2.56-3.05-5.26-6-7.93-8.92a5.46,5.46,0,0,0-1.64-1.37c-.82-.36-1.56-.54-1.43-1.81,0-.39-.46-.9-.81-1.23-1.15-1.07-2.32-2.14-3.54-3.13-6.65-5.42-13.37-10.76-20-16.25-3.86-3.19-7.6-6.55-11.33-9.92-5.07-4.56-10-9.24-15.14-13.79-2.95-2.63-6-5.13-9.05-7.6a50.11,50.11,0,0,1-6.1-6.42C135.49,357.3,132.65,354.53,129.74,351.48Zm87.09,53.39a83.63,83.63,0,0,0-11-18.21c-1.86-2.32-3.87-4.52-5.65-6.91-2.66-3.57-5.16-7.26-7.73-10.89-3.16-4.48-6.26-9-9.52-13.39-3.56-4.8-7.44-9.33-10.89-14.21-4.21-6-8.6-11.79-12.21-18.23a3,3,0,0,0-.6-.58c-.42.36-.76.63-1.07.94-2.84,2.8-5.55,5.78-8.54,8.38-3.45,3-6.32,6.64-9.49,9.94-1.74,1.8-3.46,3.63-5.27,5.36-1.15,1.11-2.44,2.05-3.77,3.16.32.39.53.67.76.92,3.2,3.42,6.36,6.89,9.62,10.25a53.32,53.32,0,0,0,6.26,5.88c5.64,4.18,10.64,9.16,15.83,13.91,2.81,2.56,5.63,5.12,8.48,7.63,2.2,1.94,4.47,3.8,6.7,5.7,3.87,3.29,7.58,6.84,11.66,9.8s7.9,6.36,11.85,9.54c1.15.92,2.19,2,3.34,3.09Zm-138,28.54c.56,3.17-1,5.39-2.64,7.56-.27.36-.53.72-.81,1.08a14.65,14.65,0,0,0-3.48,9.36,10.73,10.73,0,0,1-3.77,8.39,14.34,14.34,0,0,0-2.5,3.11c-1.89,3-3.65,6.21-5.52,9.27a6.85,6.85,0,0,0-.67,6.11c.68,1.85,1.71,3.64,3.87,3.94,1.25.18,2.5.31,3.76.4,3,.2,5.9.31,8.84.57,3.46.31,6.75.07,9.49-2.75a4.31,4.31,0,0,1,.88-.64,13.78,13.78,0,0,0,6.38-8.26c1.25-4.44,2-8.84,1-13.43a39.61,39.61,0,0,1-1-7.37c-.09-3-.22-6.13,1.27-8.92a10.91,10.91,0,0,0,1.06-6.19c-.17-2.32-.45-2.53-2.68-2.34-.45,3.54-.8,7.07-1.37,10.57-.71,4.35-1.5,8.69-2.47,13A28.82,28.82,0,0,1,85.1,466c-1.76,2.82-4,3.45-6.39,3s-4.49-3.13-4.76-5.61c-.39-3.46.75-6.57,2-9.7,1.62-4.07,3.07-8.21,4.57-12.33a4.67,4.67,0,0,0,.17-1.13c.16-1.59.3-3.17.49-4.76C81.41,433.46,81.27,433.3,78.79,433.41Zm152.1-20.83c.19,1.21.3,2,.45,2.8.85,4.41,1.78,8.8,2.53,13.24.41,2.36.47,4.79.76,7.18a29.29,29.29,0,0,0,.67,3.09c.39,1.67.94,3.3,1.17,5a35.27,35.27,0,0,1,.24,5.44c-.08,3.71.89,7.33.43,11.09a10.76,10.76,0,0,1-1.93,5.7c-.89,1.12-.78,1.85.43,2.57a21.55,21.55,0,0,0,3.81,1.76,4.84,4.84,0,0,0,5.91-2.22,30.21,30.21,0,0,0,1.83-3.64,3.74,3.74,0,0,0,.29-2,55.4,55.4,0,0,0-1.57-6.31c-1.34-4-2.77-7.92-2.75-12.25,0-3.94.26-7.89.4-11.84.11-3,.44-6.09.25-9.09a14.87,14.87,0,0,0-3.62-9.15,2.57,2.57,0,0,0-2.21-1,39.13,39.13,0,0,1-4.18-.21Zm-5.22,49.15a10.29,10.29,0,0,0,3,4.06c2.48,2,5.51.94,6.24-2.34a30.67,30.67,0,0,0,.57-6.77c0-2.73-.33-5.44-.49-8.16-.08-1.29,0-2.6-.15-3.86-.56-4-1.22-8-1.84-12.06-.64-4.18-1.23-8.36-1.93-12.52-.41-2.43-1-4.82-1.48-7.18-4.87-.17-8.51-2.6-11.76-6.17l-7,7.23c1.69,1.72,3.17,3.28,4.71,4.77,3.51,3.4,7,6.74,9.63,11.1a36.22,36.22,0,0,1,3.56,8.61,63,63,0,0,1,1,6.22,14.36,14.36,0,0,1-.41,7.41c-.71,2-1.31,4-2,6C226.89,459.27,226.29,460.37,225.67,461.73ZM63.38,483.92c.38.69.48,1.1.73,1.29A16.26,16.26,0,0,0,74,489a34.28,34.28,0,0,0,4.85-.26,22.42,22.42,0,0,0,4.12-.89,40.93,40.93,0,0,0,9.32-4.44c3.07-2,5.1-5.17,6.9-8.37a20.64,20.64,0,0,0,2.64-14.63,18.57,18.57,0,0,1,.34-9.21c.9-3.05,1.61-6.17,2.39-9.26a11.7,11.7,0,0,0-.15-5.85c-.45-1.74-1.47-2.93-3.24-3.06s-3.3-.15-5.1-.22c.1.66.14,1.11.24,1.53a11.68,11.68,0,0,1-1,8.61,11.22,11.22,0,0,0-1.09,5.54,57.1,57.1,0,0,0,.48,6.79c.2,1.72.63,3.4,1,5.09.61,2.82,0,5.63-.51,8.36a22.08,22.08,0,0,1-2.56,7.25c-2.23,3.77-5.83,6-9.43,8a6.92,6.92,0,0,1-3,.88c-2.88.06-5.76,0-8.64-.17C68.93,484.52,66.35,484.2,63.38,483.92Zm18.25-23a21.91,21.91,0,0,1-.95,3c-.16.33-.79.42-1.2.61-.14-.38-.43-.79-.38-1.16.12-.95.39-1.88.65-3.06l-3.82-.84c-.59,2.45-.64,4.52.83,6.19,1.17,1.32,2.58,2.27,4.49,1.43,2.35-1.05,3.07-3.26,3.89-5.59Zm7-14.16-3.22-.52c-.52,2.16-1,4.18-1.57,6.47l3.78.26Zm119.13-29.63c1.77,1.44,3.31,2.71,4.87,3.95,1.14.91,2.33,1.42,3.89.35L210,415Zm-129,34.55a14.59,14.59,0,0,0,2.51.65,1.42,1.42,0,0,0,1.16-.65c.52-1.92.91-3.88,1.4-6l-3-.09C80.14,447.54,79.5,449.5,78.76,451.71Zm-.39,1.69a7.27,7.27,0,0,0-2,4.26,6.6,6.6,0,0,0,4.27,1c.25-1.59,1.13-3,.8-4.73Zm141-23.27-2.16,1a41.24,41.24,0,0,1,2.18,3.79,41.92,41.92,0,0,1,1.39,4.09c2.18-.34,2.49-.76,1.71-2.54C221.56,434.43,220.49,432.43,219.35,430.13Zm5.3,7.93c1.8-.25,2-.42,1.63-1.65a22.06,22.06,0,0,0-3.57-6.81c-.57-.72-1.17-.63-1.89,0C222.09,432.38,223.33,435.13,224.65,438.06Zm3.66,11.37c.5-3.22-.63-6-1.13-9-.19-1.16-1.12-1.34-2-.88.42,2.92.81,5.7,1.23,8.49C226.55,449.09,227,449.71,228.31,449.43ZM83.4,454.32c-.52,1.67-1,3.14-1.57,5l3.78.27a6,6,0,0,0,1.12-4.69Zm135-25.27a18.16,18.16,0,0,0-4.1-4.69c-.85-.73-1.67-.37-2.7.47,1.26,1.44,2.42,2.81,3.63,4.11S216.51,430.15,218.38,429.05ZM89.76,433.32l-2.19.13-.82,5,3,.89C90.53,437.25,90.13,435.43,89.76,433.32Zm134.56,16.49.79-.25a27.93,27.93,0,0,0-1.7-9.72l-1.86.84ZM89.64,441.42c-3.15-1.51-3.82-1-3.63,2.69l3.06.77Zm-8.17,2.15a1.91,1.91,0,0,0,2.58.31c.64-.49,1-2.91.62-3.61-.48-.88-1.22-.77-2.13-.48Zm4.24-9.28c-2.83-1-3.22.45-3,3.71l2.58.42ZM216,423.47l3.83,4.82,1.78-.85-4.08-5.13Zm-9.61-4.27c1.31,1.37,2.36,2.53,3.48,3.62.77.74,1.54.67,2.27-.27-.94-.76-1.72-1.5-2.6-2.08S208.22,418.44,206.39,419.2Zm18.05,32.16c0,2-.61,4.07.21,6.16C225.76,455.32,225.72,452.73,224.44,451.36Zm3.38-.55c-1.87.61-2,1.3-.91,3.55A3.27,3.27,0,0,0,227.82,450.81Z"/><path class="cls-2" d="M216.83,404.87,205.56,417c-1.15-1.08-2.19-2.17-3.34-3.09-3.95-3.18-7.75-6.55-11.85-9.54s-7.79-6.51-11.66-9.8c-2.23-1.9-4.5-3.76-6.7-5.7-2.85-2.51-5.67-5.07-8.48-7.63-5.19-4.75-10.19-9.73-15.83-13.91a53.32,53.32,0,0,1-6.26-5.88c-3.26-3.36-6.42-6.83-9.62-10.25-.23-.25-.44-.53-.76-.92,1.33-1.11,2.62-2.05,3.77-3.16,1.81-1.73,3.53-3.56,5.27-5.36,3.17-3.3,6-6.92,9.49-9.94,3-2.6,5.7-5.58,8.54-8.38.31-.31.65-.58,1.07-.94a3,3,0,0,1,.6.58c3.61,6.44,8,12.27,12.21,18.23,3.45,4.88,7.33,9.41,10.89,14.21,3.26,4.38,6.36,8.91,9.52,13.39,2.57,3.63,5.07,7.32,7.73,10.89,1.78,2.39,3.79,4.59,5.65,6.91A83.63,83.63,0,0,1,216.83,404.87Z"/><path class="cls-3" d="M78.79,433.41c2.48-.11,2.62,0,2.38,2.08-.19,1.59-.33,3.17-.49,4.76a4.67,4.67,0,0,1-.17,1.13c-1.5,4.12-3,8.26-4.57,12.33-1.24,3.13-2.38,6.24-2,9.7.27,2.48,2.5,5.23,4.76,5.61s4.63-.23,6.39-3a28.82,28.82,0,0,0,3.31-9.11c1-4.3,1.76-8.64,2.47-13,.57-3.5.92-7,1.37-10.57,2.23-.19,2.51,0,2.68,2.34a10.91,10.91,0,0,1-1.06,6.19c-1.49,2.79-1.36,5.91-1.27,8.92a39.61,39.61,0,0,0,1,7.37c1,4.59.27,9-1,13.43a13.78,13.78,0,0,1-6.38,8.26,4.31,4.31,0,0,0-.88.64c-2.74,2.82-6,3.06-9.49,2.75-2.94-.26-5.89-.37-8.84-.57-1.26-.09-2.51-.22-3.76-.4-2.16-.3-3.19-2.09-3.87-3.94a6.85,6.85,0,0,1,.67-6.11c1.87-3.06,3.63-6.22,5.52-9.27a14.34,14.34,0,0,1,2.5-3.11,10.73,10.73,0,0,0,3.77-8.39,14.65,14.65,0,0,1,3.48-9.36c.28-.36.54-.72.81-1.08C77.8,438.8,79.35,436.58,78.79,433.41Z"/><path class="cls-4" d="M230.89,412.58l2.91.18A39.13,39.13,0,0,0,238,413a2.57,2.57,0,0,1,2.21,1,14.87,14.87,0,0,1,3.62,9.15c.19,3-.14,6.06-.25,9.09-.14,3.95-.39,7.9-.4,11.84,0,4.33,1.41,8.28,2.75,12.25a55.4,55.4,0,0,1,1.57,6.31,3.74,3.74,0,0,1-.29,2,30.21,30.21,0,0,1-1.83,3.64,4.84,4.84,0,0,1-5.91,2.22,21.55,21.55,0,0,1-3.81-1.76c-1.21-.72-1.32-1.45-.43-2.57a10.76,10.76,0,0,0,1.93-5.7c.46-3.76-.51-7.38-.43-11.09a35.27,35.27,0,0,0-.24-5.44c-.23-1.7-.78-3.33-1.17-5a29.29,29.29,0,0,1-.67-3.09c-.29-2.39-.35-4.82-.76-7.18-.75-4.44-1.68-8.83-2.53-13.24C231.19,414.59,231.08,413.79,230.89,412.58Z"/><path class="cls-3" d="M225.67,461.73c.62-1.36,1.22-2.46,1.65-3.63.73-2,1.33-4,2-6a14.36,14.36,0,0,0,.41-7.41,63,63,0,0,0-1-6.22,36.22,36.22,0,0,0-3.56-8.61c-2.59-4.36-6.12-7.7-9.63-11.1-1.54-1.49-3-3.05-4.71-4.77l7-7.23c3.25,3.57,6.89,6,11.76,6.17.49,2.36,1.07,4.75,1.48,7.18.7,4.16,1.29,8.34,1.93,12.52.62,4,1.28,8,1.84,12.06.18,1.26.07,2.57.15,3.86.16,2.72.47,5.43.49,8.16a30.67,30.67,0,0,1-.57,6.77c-.73,3.28-3.76,4.3-6.24,2.34A10.29,10.29,0,0,1,225.67,461.73Z"/><path class="cls-4" d="M63.38,483.92c3,.28,5.55.6,8.13.74,2.88.16,5.76.23,8.64.17a6.92,6.92,0,0,0,3-.88c3.6-2,7.2-4.24,9.43-8a22.08,22.08,0,0,0,2.56-7.25c.48-2.73,1.12-5.54.51-8.36-.36-1.69-.79-3.37-1-5.09a57.1,57.1,0,0,1-.48-6.79,11.22,11.22,0,0,1,1.09-5.54,11.68,11.68,0,0,0,1-8.61c-.1-.42-.14-.87-.24-1.53,1.8.07,3.45.1,5.1.22s2.79,1.32,3.24,3.06a11.7,11.7,0,0,1,.15,5.85c-.78,3.09-1.49,6.21-2.39,9.26a18.57,18.57,0,0,0-.34,9.21A20.64,20.64,0,0,1,99.19,475c-1.8,3.2-3.83,6.34-6.9,8.37A40.93,40.93,0,0,1,83,487.81a22.42,22.42,0,0,1-4.12.89A34.28,34.28,0,0,1,74,489a16.26,16.26,0,0,1-9.89-3.75C63.86,485,63.76,484.61,63.38,483.92Z"/><path class="cls-5" d="M81.63,461l3.51.58c-.82,2.33-1.54,4.54-3.89,5.59-1.91.84-3.32-.11-4.49-1.43-1.47-1.67-1.42-3.74-.83-6.19l3.82.84c-.26,1.18-.53,2.11-.65,3.06,0,.37.24.78.38,1.16.41-.19,1-.28,1.2-.61A21.91,21.91,0,0,0,81.63,461Z"/><path class="cls-5" d="M88.62,446.79l-1,6.21-3.78-.26c.56-2.29,1-4.31,1.57-6.47Z"/><path class="cls-5" d="M207.75,417.16,210,415l6.56,6.45c-1.56,1.07-2.75.56-3.89-.35C211.06,419.87,209.52,418.6,207.75,417.16Z"/><path class="cls-5" d="M78.76,451.71c.74-2.21,1.38-4.17,2-6.14l3,.09c-.49,2.17-.88,4.13-1.4,6a1.42,1.42,0,0,1-1.16.65A14.59,14.59,0,0,1,78.76,451.71Z"/><path class="cls-5" d="M78.37,453.4l3,.49c.33,1.76-.55,3.14-.8,4.73a6.6,6.6,0,0,1-4.27-1A7.27,7.27,0,0,1,78.37,453.4Z"/><path class="cls-5" d="M219.35,430.13c1.14,2.3,2.21,4.3,3.12,6.37.78,1.78.47,2.2-1.71,2.54a41.92,41.92,0,0,0-1.39-4.09,41.24,41.24,0,0,0-2.18-3.79Z"/><path class="cls-5" d="M224.65,438.06c-1.32-2.93-2.56-5.68-3.83-8.48.72-.61,1.32-.7,1.89,0a22.06,22.06,0,0,1,3.57,6.81C226.68,437.64,226.45,437.81,224.65,438.06Z"/><path class="cls-5" d="M228.31,449.43c-1.27.28-1.76-.34-1.92-1.35-.42-2.79-.81-5.57-1.23-8.49.9-.46,1.83-.28,2,.88C227.68,443.39,228.81,446.21,228.31,449.43Z"/><path class="cls-5" d="M83.4,454.32l3.33.54a6,6,0,0,1-1.12,4.69l-3.78-.27C82.41,457.46,82.88,456,83.4,454.32Z"/><path class="cls-5" d="M218.38,429.05c-1.87,1.1-2,1.12-3.17-.11s-2.37-2.67-3.63-4.11c1-.84,1.85-1.2,2.7-.47A18.16,18.16,0,0,1,218.38,429.05Z"/><path class="cls-5" d="M89.76,433.32c.37,2.11.77,3.93,0,6.06l-3-.89.82-5Z"/><path class="cls-5" d="M224.32,449.81l-2.77-9.13,1.86-.84a27.93,27.93,0,0,1,1.7,9.72Z"/><path class="cls-5" d="M89.64,441.42l-.57,3.46L86,444.11C85.82,440.41,86.49,439.91,89.64,441.42Z"/><path class="cls-5" d="M81.47,443.57l1.07-3.78c.91-.29,1.65-.4,2.13.48.39.7,0,3.12-.62,3.61A1.91,1.91,0,0,1,81.47,443.57Z"/><path class="cls-5" d="M85.71,434.29l-.42,4.13L82.71,438C82.49,434.74,82.88,433.28,85.71,434.29Z"/><path class="cls-5" d="M216,423.47l1.53-1.16,4.08,5.13-1.78.85Z"/><path class="cls-5" d="M206.39,419.2c1.83-.76,2.3.71,3.15,1.27s1.66,1.32,2.6,2.08c-.73.94-1.5,1-2.27.27C208.75,421.73,207.7,420.57,206.39,419.2Z"/><path class="cls-5" d="M224.44,451.36c1.28,1.37,1.32,4,.21,6.16C223.83,455.43,224.43,453.39,224.44,451.36Z"/><path class="cls-5" d="M227.82,450.81a3.27,3.27,0,0,1-.91,3.55C225.8,452.11,226,451.42,227.82,450.81Z"/><path class="cls-1" d="M204.38,262.08c1.75-2,3.9-3.1,5.7-4.86-1.5-1.56-2.81-3.11-4.29-4.42A38.78,38.78,0,0,1,197.11,241a77.16,77.16,0,0,0-6.86-11.54c-2-2.63-3.55-5.62-5.85-8.17,2.34-1.63,3.63-4.08,5.33-6.13a19,19,0,0,0,2.05-3.34c1.95-3.72,3.45-7.7,5.48-11.34,4.39-7.88,9.07-15.57,13-23.7a62.63,62.63,0,0,0,4.6-13c1.26-5.35,2.19-10.78,2.92-16.24.68-5.14.73-10.32,1.07-15.49a32.41,32.41,0,0,0-2-14.42c-2.59-6.47-8.82-13.39-15.06-16.16a2.41,2.41,0,0,1-.84-.69c-3-3.84-7-5.86-11.4-7.1-2-.57-3.85-1.74-6-2-.36,0-1.12-.28-.93-1,.3-1.18.24-2.38,1-3.53a28.14,28.14,0,0,0,4.48-11c.47-3,1.07-6,1.51-9.08.78-5.37.75-10.65-1.57-15.57a2.61,2.61,0,0,1-.16-2c.67-2.17,1.42-4.31,2-6.51,1-4,1.88-8.11,1.47-12.32A5.9,5.9,0,0,0,187,25.35c-1.12-.21-1.53-.61-1.64-1.89a4.65,4.65,0,0,0-4.29-4.7c-.43-.07-.87-.11-1.3-.19a.87.87,0,0,1-.85-.87c0-2.42-1.18-4.45-1.77-6.67a5.56,5.56,0,0,0-2-2.95,23.15,23.15,0,0,0-5.91-3.32c-3.48-1.51-7.14-2.5-10.7-3.79a16.91,16.91,0,0,0-8.41-.74c-3.1.52-6.22.87-9.29,1.54a12.8,12.8,0,0,0-5.46,2.3A23.87,23.87,0,0,0,126.5,18.8a1.23,1.23,0,0,1-.76,1,6.43,6.43,0,0,0-2.89,7.59c.21.78.82,1.45.61,2.43a7.73,7.73,0,0,0-6.65,3.11c-.8,1-1.46,2.18-2.27,3.19-2.4,3-2,6.39-1.48,9.81.36,2.26,1.44,4.24,2,6.4.21.79.9,1.61.16,2.61-1.73,2.33-2,5.2-2.64,8a20.06,20.06,0,0,0,.52,11.54,2.4,2.4,0,0,1,.11,2.16c-4.82-.6-9.47.69-14.09,2.31A34.6,34.6,0,0,0,91.78,82c-.85.54-1.12,1.62-2.13,2a58.09,58.09,0,0,0-8.26,3.9A141.56,141.56,0,0,0,62.12,99.27c-2.55,1.86-5,3.81-7.72,5.5a64.88,64.88,0,0,0-7.89,5.67c-2.17,1.89-4.36,3.8-6.64,5.5-6.13,4.58-10.19,10.85-13.45,17.86a63.59,63.59,0,0,0-3.54,11.43,28,28,0,0,0-.46,10c.08.76.61,1.57.45,2.24-.5,2.17.79,3.45,1.94,4.52a14.09,14.09,0,0,0,7.93,4c4.68.55,9.21,1.94,13.9,2.57a127.55,127.55,0,0,1,14.11,2.67,68.57,68.57,0,0,0,8.37,1.2,5.77,5.77,0,0,1,2.28.46c-.46,1.32-1.54,1.94-2.31,2.85a139.17,139.17,0,0,1-9.3,10.47A113.36,113.36,0,0,0,50,196.84a52.38,52.38,0,0,1-4.6,5.13,66.45,66.45,0,0,0-5.88,6.1,75.22,75.22,0,0,0-6.84,9c-.76,1.24-1,1.16-2.49.07m11.12,9c6,3.51,10.21,9.2,14.56,14.68,3.12,3.94,6,8.1,9.56,11.65,2.63,2.61,6.84,5.74,6,4.24.38-.67,1.1-.78,1.64-1.16,2.3-1.6,2.31-1.57,4.29.14.45.39.92.75,1.39,1.1a49.42,49.42,0,0,1,4.74,3.62c4.52,4.38,9.79,7.59,14.8,11.2,3.3,2.37,7.08,3.77,10.64,5.64a9.58,9.58,0,0,0,4.55,1.33,15,15,0,0,1,3.42.58,54.66,54.66,0,0,0,7.34.75,1.13,1.13,0,0,0,1.4-1.1l0,0a4.93,4.93,0,0,0,3.93.69c2.43-.47,4.91-.38,7.38-.68,6.06-.75,12.15-1.11,18.08-2.94.71-.22,16.82-3.11,22.32-4.77,6.12-1.84,12.21-3.82,18.4-5.37M11.29,172.27c-.16-.73-.65-.86-1-1.07-3-1.62-4.8-4.47-6.17-7.61A32.65,32.65,0,0,1,1.4,153a16,16,0,0,1,.84-7.44c-1-.4-1.41-.36-1.53.33A28.57,28.57,0,0,0,0,149.5a32.23,32.23,0,0,0,2.29,13.22c1.46,3.87,3.51,7.18,7,9.37A1.86,1.86,0,0,0,11.29,172.27Zm249,225.25a12.55,12.55,0,0,0-4.47-5.19,25.85,25.85,0,0,0-4-2.18c-4.27-2.21-8.6-1.41-12.95,0-.37.12-.7.29-.69.77a1,1,0,0,0,.57.91,2,2,0,0,0,1.89,0,15.41,15.41,0,0,1,4-1.3c3.57-.42,6.75.84,9.66,2.77,1.73,1.14,3.56,2.34,3.88,4.92.06.54.62,1.14,1.3.39C259.73,398.21,260.21,398.06,260.29,397.52Zm-250-245.6c.37,1.54.71,2.77.93,4,.34,2,1.52,3.49,2.48,5.12a1,1,0,0,0,.23.27.86.86,0,0,0,1.23-.05c.48-.44,0-.76-.23-1a8.24,8.24,0,0,1-2.12-3.87c-.41-2.35-1.64-4.6-1.08-7.1.1-.45-.3-.61-.62-.71s-.53.17-.61.45A5.82,5.82,0,0,0,10.27,151.92ZM254.34,405.68c-2.77-3.4-7.41-6.64-11.75-6.05-.35.05-.74-.07-.89.45a.94.94,0,0,0,.51,1.13,2,2,0,0,0,1.44.29c3.59-.42,6.16,1.48,8.35,4.17C252.81,406.67,252.93,406.73,254.34,405.68Z"/><path class="cls-6" d="M31.71,218.12a4.51,4.51,0,0,0,1-1.06c1.63-3.47,4.43-6.1,6.84-9a66.45,66.45,0,0,1,5.88-6.1,52.38,52.38,0,0,0,4.6-5.13,113.36,113.36,0,0,1,9.76-10.66,139.17,139.17,0,0,0,9.3-10.47c.77-.91,1.85-1.53,2.31-2.85a5.77,5.77,0,0,0-2.28-.46,68.57,68.57,0,0,1-8.37-1.2,127.55,127.55,0,0,0-14.11-2.67c-4.69-.63-9.22-2-13.9-2.57a14.09,14.09,0,0,1-7.93-4c-1.15-1.07-2.44-2.35-1.94-4.52.16-.67-.37-1.48-.45-2.24a28,28,0,0,1,.46-10,63.59,63.59,0,0,1,3.54-11.43c3.26-7,7.32-13.28,13.45-17.86,2.28-1.7,4.47-3.61,6.64-5.5a64.88,64.88,0,0,1,7.89-5.67c2.67-1.69,5.17-3.64,7.72-5.5A141.56,141.56,0,0,1,81.39,87.81a58.09,58.09,0,0,1,8.26-3.9c1-.33,1.28-1.41,2.13-2a34.6,34.6,0,0,1,7.36-3.08c4.62-1.62,9.27-2.91,14.09-2.31a2.4,2.4,0,0,0-.11-2.16,20.06,20.06,0,0,1-.52-11.54c.6-2.76.91-5.63,2.64-8,.74-1,.05-1.82-.16-2.61-.58-2.16-1.66-4.14-2-6.4-.55-3.42-.92-6.8,1.48-9.81.81-1,1.47-2.16,2.27-3.19a7.73,7.73,0,0,1,6.65-3.11c.21-1-.4-1.65-.61-2.43a6.43,6.43,0,0,1,2.89-7.59,1.23,1.23,0,0,0,.76-1,23.87,23.87,0,0,1,8.88-14.73,12.8,12.8,0,0,1,5.46-2.3c3.07-.67,6.19-1,9.29-1.54a16.91,16.91,0,0,1,8.41.74c3.56,1.29,7.22,2.28,10.7,3.79a23.15,23.15,0,0,1,5.91,3.32,5.56,5.56,0,0,1,2,2.95c.59,2.22,1.74,4.25,1.77,6.67a.87.87,0,0,0,.85.87c.43.08.87.12,1.3.19a4.65,4.65,0,0,1,4.29,4.7c.11,1.28.52,1.68,1.64,1.89a5.9,5.9,0,0,1,4.42,5.33c.41,4.21-.46,8.28-1.47,12.32-.55,2.2-1.3,4.34-2,6.51a2.61,2.61,0,0,0,.16,2c2.32,4.92,2.35,10.2,1.57,15.57-.44,3-1,6-1.51,9.08a28.14,28.14,0,0,1-4.48,11c-.74,1.15-.68,2.35-1,3.53-.19.75.57,1,.93,1,2.13.28,4,1.45,6,2C194.06,95,198,97,201,100.81a2.41,2.41,0,0,0,.84.69c6.24,2.77,12.47,9.69,15.06,16.16a32.41,32.41,0,0,1,2,14.42c-.34,5.17-.39,10.35-1.07,15.49-.73,5.46-1.66,10.89-2.92,16.24a62.63,62.63,0,0,1-4.6,13c-4,8.13-8.65,15.82-13,23.7-2,3.64-3.53,7.62-5.48,11.34a19,19,0,0,1-2.05,3.34c-1.7,2.05-3,4.5-5.33,6.13,2.3,2.55,3.86,5.54,5.85,8.17A77.16,77.16,0,0,1,197.11,241a38.78,38.78,0,0,0,8.68,11.77c1.48,1.31,2.79,2.86,4.29,4.42-.33.47-5.86,4.78-7.61,6.79l-6.78,1.75c-6.19,1.55-12.28,3.53-18.4,5.37-5.5,1.66-21.61,4.55-22.32,4.77-5.93,1.83-12,2.19-18.08,2.94-2.47.3-4.95.21-7.38.68a4.93,4.93,0,0,1-3.93-.69c.21-.2.18-.43,0-.53-1.41-.69-1.36-1.91-1.11-3.31.29-1.62.41-3.28.69-4.9.14-.86.1-1.44-.67-1.95s-.57-1.83.23-1.75c1.72.17,1.57-1.14,1.85-2.16s.47-2.15.79-3.19c.38-1.22.57-2.23-.76-2.94-.66-.34-.58-1.35.14-1.33,2,.07,1.68-1.41,1.9-2.62.35-1.94.69-3.87,1.09-5.79.22-1,.43-1.83-.56-2.64-.81-.66-.39-1.69.67-1.72s.89-.68.95-1.23c.24-2.27.66-4.51,1.1-6.75.4-2,.36-2-1.79-2.15a45.2,45.2,0,0,1-1.62,7.78c-1.28,5-1.79,10-2.67,15.07-.67,3.79-1.75,7.47-2.54,11.22-.52,2.48-.63,5-1.18,7.45a3.53,3.53,0,0,1-1.24,2.37l4.81,1a1.13,1.13,0,0,1-1.4,1.1,54.66,54.66,0,0,1-7.34-.75,15,15,0,0,0-3.42-.58,9.58,9.58,0,0,1-4.55-1.33c-3.56-1.87-7.34-3.27-10.64-5.64-5-3.61-10.28-6.82-14.8-11.2a49.42,49.42,0,0,0-4.74-3.62c-.47-.35-.94-.71-1.39-1.1-2-1.71-2-1.74-4.29-.14-.54.38-1.26.49-1.64,1.16.88,1.5-3.33-1.63-6-4.24-3.56-3.55-6.44-7.71-9.56-11.65-4.35-5.48-17.76-17.6-23.76-21.12ZM137.48,107c.09.1.2.29.27.27.31-.07.23-.31.16-.53-.27-1.29-.57-2.57-.81-3.87A8.74,8.74,0,0,1,139,95.45c-1.58-.71-3-1.27-4.33-2-2.25-1.2-4.72-1.94-6.79-3.5a70,70,0,0,1-7.42-6.69l-4.65-4.7a1.47,1.47,0,0,0-.32,1.5c.6,5.5,1.23,11,1.84,16.49a2,2,0,0,0,1.21,1.77c3.27,1.21,6.24,3.12,9.54,4.28,2.77,1,5.75,1.56,8,3.88C136.38,106.83,137,106.84,137.48,107Zm-1.89,71.89c-.25.23-.06.31.12.37a.31.31,0,0,0,.18,0,.32.32,0,0,0-.35-.32c-.21-1-1.43-1.89-.37-3.15.24-.29.06-.56-.18-.78-1-1-2-2-3.5-2.12a13.38,13.38,0,0,0-2.83,0c-.92.14-1.9.24-2.5-.79a1.5,1.5,0,0,1,.85-.78,6.72,6.72,0,0,0,1.2-.6c3.54-2.65,7.19-2,10.56-.2,1.44.76,2.34.83,3.52-.09l.29-.25c-.51-.57-1.05-1.07-1.5-1.67-1.9-2.56-4.51-3.18-7.38-2.88a23.59,23.59,0,0,0-7.41,1.85c-.6.27-1.38.46-1.69-.42-.22-.63.43-1,.82-1.22,4.15-2.63,10.39-3.72,14.85-.22.37.29.64.88,1.36.65-.06-1.9.63-3.27,2.72-3.51a16.17,16.17,0,0,1-6.77-2.75,10,10,0,0,0-7.74-1.4c-1.22.25-2.42.61-3.63.89a1,1,0,0,1-1.25-.69c-.21-.56.33-.81.66-1.07s.66-.35,1-.57c2.11-1.55,4.52-1.68,6.9-2,3-.37,5.81,0,8.07,2.35.45.48.94.76,1.47,0a3.67,3.67,0,0,1,2.59-1.25,19.2,19.2,0,0,0-6-3.8c-.17-.15-.35-.25-.53,0a3.19,3.19,0,0,0,.22.3c-.29.38,0,1.19-.82,1.23-.36-1-.5-2.21-1.13-2.91-2.22-2.43-5.71-4.22-9.48-2-.71.42-1.38.92-2.09,1.32a8.46,8.46,0,0,1-5,1.26c-2.36-.27-4.79-.16-7-1.08-1.09-.45-1.47.14-1.75,1.27-1,3.88-2.08,7.73-3.13,11.59-.64,2.35-1.59,4.59-2.37,6.89-.58,1.74-.48,1.88,1.07,2.66q2.83,1.41,5.7,2.79a7,7,0,0,0,3.16.59,23.84,23.84,0,0,0,7.51-1.33,5.93,5.93,0,0,1,4,0,21.17,21.17,0,0,1,5.22,2.74C133.9,178.29,134.54,179.12,135.59,178.89ZM162.06,36.82c-.17,0-.39-.14-.49-.06s-.06.34.09.47c0,.55,0,1.09,0,1.63.36,4.91.07,9.74-2.07,14.26-.55,1.16-.86,2.09.11,3.22-1.74-.57-2.7.24-3.41,1.62.38.53,1.23.42,1.13,1.29-.15,0-.34.14-.43.08-1-.68-1.93-1.49-3.17-.4-.14.12-.54-.13-.83-.18-1.84-.29-3.35-1.35-4.95-2.24-3-1.7-3.58-4.67-3.08-7.8a32.06,32.06,0,0,1,2.14-7.92,30,30,0,0,0,1-3.12c.11-.36.27-.79-.11-1.05s-.68.08-1,.31a33.64,33.64,0,0,1-8.53,5.34,5.48,5.48,0,0,0-1.48,1c-1.48,1.26-1.69,1.36-2.78,0-2.39-3-5.07-5.73-7.09-9.06-1.18-2-2.48-3.46-4.93-2.11a2.31,2.31,0,0,1-.64.16c-1.81.48-3.53,1.06-4.26,3.25a2.12,2.12,0,0,1-.87,1c-1.49.86-1.91,2.35-2,3.93a17.08,17.08,0,0,0,1.19,8.44c.39.91.72,1.86,1.06,2.81.57,1.57,1,3.05-.4,4.59a6,6,0,0,0-1.09,2.82,54.74,54.74,0,0,0-1.36,8.36c-.17,4.39.59,8.53,4.19,11.35a32.08,32.08,0,0,1,3.87,3.69c4.76,5.27,10.59,8.69,16.94,11.23a14,14,0,0,0,2.67.83c3.52.65,7.08.79,10.61,1.19a30,30,0,0,0,20.42-4.5,6,6,0,0,1,1.61-.77,16.94,16.94,0,0,0,5.68-3c1.73-1.33,3.57-2.43,4.35-4.85s2-4.9,2.4-7.61c.41-3,1.23-5.87,1.53-8.83.51-5.18.62-10.37-1.91-15a2.34,2.34,0,0,1-.09-2c.74-2.32,1.53-4.62,2.1-7a44.22,44.22,0,0,0,1.6-10.7,5.17,5.17,0,0,0-2.11-4.31c-1.44-1.16-2.54-.58-3.28,1.27-1.64,4.14-3.78,7.87-7.77,9.92L168,42.9c-1.65.86-1.79.8-2.6-1A14.83,14.83,0,0,0,162.06,36.82Zm41.25,67c-.46-.13-.91-.24-.54.56q-.36,3.85-.7,7.71c0,.41-.09.8-.58.81s-.65-.3-.85-.62a1.37,1.37,0,0,1-.06-1.14c.58-1.88.27-3.93,1.07-5.77.16-.37.18-.8-.21-1s-.68.16-.9.46a42.2,42.2,0,0,1-4.45,4.61,62.13,62.13,0,0,0-5.46,6.21,4.33,4.33,0,0,0,2.19.8,29,29,0,0,1,5.55,1.93c1.21.47,1.33,1,.68,2.34-.55,1.12-1.16,2.2-1.78,3.28-1.57,2.72-3.77,4.83-5.79,7.13-2.78,3.16-5.8,6.05-8.49,9.3-.73.87-1.49,1.82-2.84,1.27a12.72,12.72,0,0,1-2.28,7.48c-2.26,3.54-3.39,7.52-4.55,11.51-.19.64-.43,1.2.44,1.44,1.5.42,2,1.65,2.06,3.17a7,7,0,0,0,.29,1.84c1.38,3.92,1.95,8.1,3.15,12.09,1.4,4.65,2.15,9.54,4.12,14,.27.61,0,.84-.4,1.09s-.71.56-1.15.13a2.81,2.81,0,0,1-.7-1.41c-1-3.88-2.12-7.75-3.13-11.64-1.38-5.3-3-10.54-3.67-16-.21-1.56-.67-2-2.25-1.59a22.58,22.58,0,0,1-8.86,0c-1.44-.22-2.88-.46-4.32-.58-2-.17-2.24.07-2.59,2.18a12.27,12.27,0,0,0-.3,2.81,33.6,33.6,0,0,1-.13,5.4,38.61,38.61,0,0,0-.1,4.93c.09,3.67.47,7.32.71,11a199.52,199.52,0,0,1,.68,22c-.2,4.3.23,8.6-.1,12.92a8.61,8.61,0,0,0,2.17,6.8c1.1,1.21,1.35,1.57,3,.94a59.6,59.6,0,0,0,10.58-5.26c2.47-1.58,4.9-3.24,7.42-4.7,4.6-2.67,7.6-6.92,10.14-11.62,1.44-2.66,2.66-5.46,4-8.18,4-8.05,8.91-15.47,12.87-23.53A73.71,73.71,0,0,0,213.62,161a138.47,138.47,0,0,0,2.51-13.91c.62-6.41,1-12.86,1.07-19.3a23.27,23.27,0,0,0-1-7.39C213.82,113.16,209.22,107.9,203.31,103.84ZM92,86.68c-.18-.14-.37-.44-.58-.08,0,.08.11.32.18.48.07,1.25.16,2.5.22,3.75,0,.74.33,1.88-.51,2-1.09.17-.87-1.16-1.08-1.92,0-.14,0-.31,0-.46a13.4,13.4,0,0,1,.15-3.52c.17-1.66-.1-1.9-1.44-1.34-.14.06-.27.14-.4.21-5.38,2.88-10.8,5.7-16.14,8.68a106.54,106.54,0,0,0-12.64,8.59c-2.33,1.79-4.87,3.25-7.28,4.91-3.8,2.59-7.26,5.67-10.85,8.57a38.27,38.27,0,0,0-8.85,9.53A59.51,59.51,0,0,0,26.13,140c-2,6.62-2.79,13.15-1,19.84a2.86,2.86,0,0,0,1,1.46,14.2,14.2,0,0,0,5.71,3.17c1.75.48,3.56.69,5.31,1.1,6.38,1.5,12.9,2.15,19.29,3.57a71.89,71.89,0,0,0,11.38,2,47,47,0,0,1,6.27.71,22.59,22.59,0,0,0,4.35.32c3.57,0,7.15-.05,10.69.24,4.9.4,9.73-.64,14.59-.92.42,0,1,0,1-.65.1-2.44,1.28-4.54,2.11-6.69,1.8-4.64,1.83-9.88,4.64-14.13-3.48-2.38-7.5-2.61-11.17-3.94A26.72,26.72,0,0,0,94,144.25c-.43-.05-.93-.37-1.25,0-.82,1-1.51.71-2.23,0a2.63,2.63,0,0,0-2.05-.56,7.91,7.91,0,0,1-1.93-.24c-2.73-.74-5.47-1.49-8.23-2.05a34.93,34.93,0,0,1-5.66-1.61,39.71,39.71,0,0,0-11.58-2.71A40.61,40.61,0,0,1,57,136.5c-.43-.07-1.16,0-1-.84a.9.9,0,0,1,1.18-.74c2.94.5,5.92.79,8.81,1.51,4.85,1.21,9.62,2.78,14.47,4a49,49,0,0,0,10.88,2.06,2.46,2.46,0,0,0,2.12-.93,20.7,20.7,0,0,0,3-4.14,16,16,0,0,1,2.18-2.64c.41-.51,1-.33,1.38,0s0,.82-.26,1.14c-1.73,2-2.89,4.59-4.89,6.4-.13.12-.1.27.12.47,3.15,1,6.35,2.29,9.66,3s6.4,2.21,9.6,3.49a2.52,2.52,0,0,0-.52-2,8.61,8.61,0,0,1-1-2.81c-.78-4.67-2.67-8.84-4.57-13a59.83,59.83,0,0,1-2.72-6.07,52.64,52.64,0,0,0-7.68-15,44.8,44.8,0,0,1-3.11-5.09c3.38-1.59,6.9-1.18,10.51-1.75l-1.44-1.77c-2.83-3.6-6-6.87-8.53-10.76C94.15,89.57,93,88.15,92,86.68ZM32.9,219.36c2.5,1.67,4.64,3.26,6.92,4.57a50.52,50.52,0,0,1,13.79,11.74c1.82,2.19,3.64,4.36,5.3,6.71a110.44,110.44,0,0,0,10.42,12.08c1.11,1.18,1.28,1.18,2.59.26,2.7-1.92,5.47-3.73,8.1-5.76s5.32-3.94,7.85-6.1c2-1.72,4-3.45,6.11-5.07,2.57-2,5-4.22,7.36-6.45,2.64-2.47,4.93-5.4,7.35-8.16.28-.31.81-.65.5-1.17-.48-.79,0-1.07.5-1.5,1.18-1.07,2.32-2.19,3.48-3.3a59.19,59.19,0,0,1,9.81-8.08c4.11-2.55,7.12-6.51,11.12-9.36a16.19,16.19,0,0,1-2.59-3.36c-1-1.83-1.66-3.79-2.53-5.67a80.7,80.7,0,0,1-4.19-11.22c-.86-2.93-.75-2.92-3.49-2.26-3.72.9-7.37,1.12-10.69-1.3a9.57,9.57,0,0,0-2.32-1.23c-2-.71-3.7-2.08-6-1.75a70.73,70.73,0,0,1-15.24.72c-4.27-.31-8.59.11-12.83-.55-.89-.14-1.32.27-1.78,1-2.94,4.5-6.7,8.23-10.29,12.07s-7.42,7.43-10.66,11.66a36.18,36.18,0,0,1-4.45,4.94,92.52,92.52,0,0,0-10.76,12.25C35.24,216.44,34.51,218.12,32.9,219.36Zm111.24,8.38a72.78,72.78,0,0,0,4.55,13.31,32.62,32.62,0,0,1,2.15,5.58c1.83,7,5.85,12.59,9.34,18.5,1.49,2.51,3.76,4.46,5,7.21.5,1.09,1.34,1.19,2.38.54a13.78,13.78,0,0,1,3.68-1.53c4.87-1.4,9.68-3,14.56-4.39,4.52-1.26,9-2.7,13.61-3.55a3.46,3.46,0,0,0,1.86-.61,71.55,71.55,0,0,1,6.44-5.71c-.81-.89-1.42-1.67-2.13-2.31a45.51,45.51,0,0,1-10.07-13.51c-.83-1.63-1.61-3.29-2.49-4.9-2.53-4.6-5.86-8.61-8.45-13.18-.78-1.37-1-1.38-2.27-.56-3,1.93-6.09,3.83-9.07,5.87-3.76,2.59-7.91,4.12-12.08,5.62a1.72,1.72,0,0,1-2.35-1,15.87,15.87,0,0,0-2.2-3.15,4.62,4.62,0,0,1-1.16-3.16c0-4.77-.24-9.55,0-14.32a198.92,198.92,0,0,0-.55-21.3c-.33-5.76-1.24-11.47-.54-17.3.08-.7.11-1.41.19-2.11.05-.49.11-1-.41-1.17s-.67.4-.94.77c-.91,1.23-1.4,2.72-2.29,4a4.38,4.38,0,0,0-1,2.2c-.1,2.19-.64,4.32-.66,6.53,0,2.9-.24,5.8-.42,8.7s-.65,5.62-1,8.42c-.85,6.18-.49,12.38-.26,18.55a30.3,30.3,0,0,1-.84,7.2c-.16.77-.57,1.07-1.27.87C145.09,227.7,144.81,227.35,144.14,227.74ZM76.7,253.07a15.27,15.27,0,0,0,2.15,2.07c4.68,3,8.69,7.07,13.32,10.23a130,130,0,0,0,15.13,9.33c3.55,1.78,7.27,2.36,11,3.27.89.21,1.21-.23,1.13-1.13,0-.39-.09-.78-.11-1.17-.07-1-.42-2.1,1.12-2.25.54-.05.44-.76.52-1.18.85-4.72,2-9.37,3-14.05.78-3.44,1.09-7,1.7-10.45.87-5,2.36-9.91,3.18-15,.92-5.65,2.36-11.21,3-16.92a42.71,42.71,0,0,1,1-5.32c.58-2.37,1.12-4.73,1.88-7a1.47,1.47,0,0,0-.28-1.72c-.68-.5-1,.33-1.46.65-1.53,1.13-2.5,2.89-4,4.12a55.67,55.67,0,0,1-5.47,4c-5.06,3.31-9.13,7.81-12.82,12.77a58.79,58.79,0,0,1-8.46,9.33c-6.28,5.46-12.5,11-19.11,16C81.08,250.17,78.87,251.38,76.7,253.07ZM136.87,213c-.55.26-.44.71-.49,1.05-.49,3.75-.93,7.5-1.46,11.23-.9,6.31-1.77,12.63-2.81,18.91-.93,5.58-2.09,11.12-3.16,16.68-.24,1.23-.58,2.44-.84,3.67-.78,3.67-2.41,7.16-1.57,11.16.52,2.45.35,2.65,2.67,2.4,2.61-.28,5.23-.44,7.83-.77,5.63-.71,11.33-.92,16.85-2.61a32.05,32.05,0,0,0,7.6-3.1c.77-.47,1-.95.29-1.79a18.32,18.32,0,0,1-3-3.89c-2.42-4.84-6.08-8.81-7.81-14.15A101.69,101.69,0,0,0,146,239.12,45.64,45.64,0,0,1,144,233a21,21,0,0,1-1.2-6.08c0-2.14-2.63-3.12-3.11-5.32a.81.81,0,0,0-.07-.22,42.18,42.18,0,0,1-1.94-6.67C137.48,214.09,137.48,213.35,136.87,213ZM96.45,105.88c1.25,2,2.07,3.51,3.06,5a51.77,51.77,0,0,1,4.69,8c2,4.52,3.75,9.16,6,13.54a44.31,44.31,0,0,1,5,15.26c.12,1,.54,1.91,1.49,2.1a14.57,14.57,0,0,0,7.75-.12c.7-.24,1.13-.58.91-1.53-.4-1.72-.37-3.57-1.62-5a3.65,3.65,0,0,1-.56-1.73c-.75-3.48-1.22-7.05-2.6-10.33-1.55-3.71-2-7.77-2.7-11.73-.73-4.35-1-8.79-1.68-13.16a19.21,19.21,0,0,1-.23-4.66,20.1,20.1,0,0,0-.45-5.81,84.52,84.52,0,0,1-1.37-15.82c0-1.9-.3-2.14-2.14-2.23-4.69-.23-9.08,1.37-13.45,2.93a21.74,21.74,0,0,0-4.74,1.87c-1.33.85-1.46,1.11-.84,2.6a18.74,18.74,0,0,0,2,3.28,185.74,185.74,0,0,0,12.82,16c.2.22.46.39.39.76s-.48.56-.81.67a2,2,0,0,1-1.27-.17C103.05,104.64,100,105.6,96.45,105.88Zm81.46-87c-1.1-2.53-1.63-5.19-2.47-7.74A4,4,0,0,0,173.85,9a28.12,28.12,0,0,0-4.95-2.82c-3.16-1.3-6.46-2.18-9.62-3.46a16.07,16.07,0,0,0-5.95-1.19c-4.38-.05-8.65,1.06-13,1.89a11.93,11.93,0,0,0-6.57,4c-2.77,3.07-4.21,7-6,10.67-.3.6,0,1.05.67,1.11s1,.07,1.52.07A12,12,0,0,1,138.34,22c.78.68,1.27.6,2.19-.13,3.35-2.66,8.79-2.88,10.93,1.28,1.11,2.16,2.46,2.6,4.54,2.12.68-.16.95-.32,1.17-1a7,7,0,0,1,6.74-4.93c2.47.16,4.93.4,6.9,2.28.74.71,1.4.68,2.26-.16A9.83,9.83,0,0,1,177.91,18.88Zm4.66,73.64c-.51,1.85-.67,3.41-1.16,4.9-.93,2.81-2.1,5.53-3.12,8.29a103.14,103.14,0,0,1-6.45,13.64,2,2,0,0,0,.13,2.48c1.66,2.39,2.74,5.18,4.31,7.68a30.48,30.48,0,0,1,3.76,9.6c.37,1.69.52,1.71,1.69.52a5.59,5.59,0,0,0,.61-.68c2.82-4.1,6.41-7.43,9.78-10.93,2.32-2.42,3.78-5.33,5.73-8.13a20.37,20.37,0,0,0-6.24-2.32,8.57,8.57,0,0,1-1.89-.47c-1.3-.56-1.42-1.06-.51-2.25a53.54,53.54,0,0,1,6.28-7,43.35,43.35,0,0,0,5.11-5.12C196.09,96.35,189.17,95,182.57,92.52Zm-64.8,6.87a3.6,3.6,0,0,0-.32,2.31,77,77,0,0,0,.93,8.84c.8,6.17,1.29,12.42,3.26,18.31s3.13,12.06,5,18c.25.77.48,1,1.21.74,2.14-.85,4.31-1.33,6.6-.46a33.15,33.15,0,0,1,.74-7A173.44,173.44,0,0,0,138.11,121a18.07,18.07,0,0,1,2.07-7.67c.16-.27.45-.55.26-.82-.73-1-1-2.49-2.18-3.09-2-1-4-2-6.11-2.93-2.35-1-4.76-1.8-7.14-2.71-.81-.31-1.91-.33-2.34-1.07C121.52,100.73,119.4,100.66,117.77,99.39Zm41.61,26.47a27.33,27.33,0,0,0,1.57,4.23,12.13,12.13,0,0,1,1,3.73,42.42,42.42,0,0,1-1.09,8.84c-.06.36,0,.83-.5.94a1,1,0,0,1-1.09-.57,6.82,6.82,0,0,1-1.12-3c-.08-1.09-.21-2.18-.37-3.26-.09-.66-.28-1.16-1.14-.75-1.38.67-1.63.51-2.3-.86-.32-.66-.25-1.73-1.38-1.76a7.62,7.62,0,0,0,.71,4.59,21.92,21.92,0,0,1,1.46,12.36,10.38,10.38,0,0,0,.43,5.29,12.9,12.9,0,0,1,1,4.28c0,1.22.64,1.5,1.65,1.65,2.52.35,5.07.37,7.58.84a10.07,10.07,0,0,0,3.47.1c2-.33,2.2-.51,2.66-2.73a29.54,29.54,0,0,1,3.77-10.29,12.81,12.81,0,0,0,1.94-3.75c-.82-.25-1.58-.44-2.32-.72a.7.7,0,0,1-.56-.84c.13-.52.57-.43.9-.34.63.16,1.24.4,1.86.6s.82-.07,1-.62c.24-.87,0-1.35-.88-1.35-.6,0-1.61.12-1.36-.84.21-.8,1.08-.42,1.68-.07.29.17.72.43.9-.09s-.27-.7-.6-.81a6.38,6.38,0,0,0-1.08-.1c-.47-.05-.95-.34-.94-.79,0-.64.59-.5,1-.52s.94.44,1.52-.13c-.37-1-.77-2.1-1.14-3.18-.67-2-.66-2-2.74-2.44a1.17,1.17,0,0,0-.06.9,60.53,60.53,0,0,1,0,7.5c0,.4-.08.83-.55.88s-.79-.29-.89-.81a1.69,1.69,0,0,1,0-.23,47.62,47.62,0,0,1-.49-7.22c.16-2.21-.88-4.41.34-6.67.52-1-1-3-1.72-2.59-.93.52-2,.21-3,.75,1,1.46,1.25,3.11,1.95,4.56a6.84,6.84,0,0,1,.37,4.56c-.5,2.37-1.37,4.67-1.42,7.14,0,.41-.12.79-.6.81a.91.91,0,0,1-1-.64,4.1,4.1,0,0,1,.06-1.39,21.07,21.07,0,0,1,1.69-5.25c-.56-.75-1.7,0-2.07-1,.68-.75,1.38-.28,2-.21.3,0,.58,0,.66-.4a.73.73,0,0,0-.45-.93c-.63-.2-1.4.09-2-.48.5-.81,1.25-.61,1.94-.64-.44-.92-1.07-.54-1.6-.6-.29,0-.62-.16-.66-.49-.08-.55.37-.56.71-.64s.58,0,.64-.33c-.44-1.82-1.52-3.35-1.59-5.15-.06-1.5.11-2.84-1.8-2.9-.46,0-.63-.59-.89-1s-.42-1-1.28-1a21.35,21.35,0,0,0,1.37,6.49,17.12,17.12,0,0,1,.92,11.39,32.86,32.86,0,0,0-.46,3.72c-.1.79-.19,1.57-.31,2.34s-.22,1.36-1.07,1.06c-.62-.22-1-.71-.49-1.43a4.29,4.29,0,0,0,.45-2.27,23.38,23.38,0,0,1,.5-3.73c.56-2,.55-2-1.27-2.58-.18-.06-.22-.19,0-.58.21-1,1.39.43,1.89-.46a1.07,1.07,0,0,0-1.07-.33c-.37,0-.81,0-.79-.52s.47-.48.83-.49.9.08,1.13-.48c.38-1-.59-3.94-1.53-4C161.86,127.92,160.85,127,159.38,125.86Zm-14,100.2a16.38,16.38,0,0,0,.4-5.55c-.11-5.71-.54-11.41.1-17.16.24-2.19.58-4.36.85-6.54.6-4.92.41-9.88,1-14.78.54-4.46.55-8.93.94-13.38a.83.83,0,0,0-.35-.79c-.39-.06-.67.22-1,.37-1.95.91-2.18,1.32-1.94,3.61a1.81,1.81,0,0,1-.08.9A3.08,3.08,0,0,1,141,174c-.65-.49-1.2-1.12-1.84-1.61a9.46,9.46,0,0,0-9.25-1.34,5.86,5.86,0,0,0,2.53.64,4.18,4.18,0,0,1,2.17,1,9.81,9.81,0,0,0,3.33,2.07c2.47,1,1.54,3.2,1.26,5.11-.24,1.59-1.36.27-2.08.63-1,.52-2.22-.31-3.55-.37a79.54,79.54,0,0,1,.53,9.44,27.83,27.83,0,0,0,.62,6.5c1,3.89,1.84,7.83,2.64,11.78A110.86,110.86,0,0,0,141,220.74,9.13,9.13,0,0,0,145.36,226.06ZM148.84,157a4.27,4.27,0,0,0,.22-2.29c-.6-5,0-10,.62-15,.48-4,1.95-7.73,2.77-11.64a30.41,30.41,0,0,0,.8-6.74,8,8,0,0,0-1.53-5.22c-.67-.78-1.37-1.09-2.29-.42-2.29,1.66-4.28.85-6.17-.74-.55-.46-1-1.19-1.85-1a10.06,10.06,0,0,0-.89,2.9,92.56,92.56,0,0,0-1.41,10.74c-.67,5.7-2.12,11.26-2.8,17-.43,3.62-.47,3.74,2.36,5.62a18,18,0,0,0,1.91,1.08,27.61,27.61,0,0,1,7.48,5.43A.93.93,0,0,0,148.84,157Zm5.36-46.88a1.26,1.26,0,0,0,1.14.58c6.71-.33,13.34-1,19.53-4.41a5.45,5.45,0,0,0,2.58-2.78,84.15,84.15,0,0,0,4.05-13.72c.08-.36.17-.8-.24-1a.82.82,0,0,0-1,.2c-1.58,1.52-3.57,2.14-5.43,3a6.2,6.2,0,0,0-1,.55c-3.29,2.39-7.1,3.15-10.8,4.2a19.28,19.28,0,0,1-6.94.56C158.32,102.13,156,106.15,154.2,110.07Zm5.52-63.37a30.67,30.67,0,0,0,.59-6.45c0-2.84.53-5.84-1.54-8.19-.22-2.17-1.55-2.65-3.35-2.73-2-.08-2-.17-2.91,1.69a6.6,6.6,0,0,1-1.2,2,6.5,6.5,0,0,0-1.73,4.08A60,60,0,0,1,148,43.47c-.44,1.67-.9,3.33-1.26,5-.76,3.63.11,5.6,3.11,7.29.64.36,1.28.7,1.93,1A3.2,3.2,0,0,0,156,56a9.42,9.42,0,0,0,1.66-2.49C158.6,51.25,159.64,49.06,159.72,46.7Zm-4.6,55.64c.08-.46.17-.92.22-1.39.29-2.33-.54-3.37-2.65-3.47-3.82-.18-7.67-.08-11.42-1-.94-.24-1.46,0-1.79,1.1a16.49,16.49,0,0,0,.77,11.56c.79,1.92,2.3,3.11,3.67,4.47,2.23,2.22,4.58,1.84,6.66-.64C153.1,109.94,154.27,106.18,155.12,102.34Zm20.71,5.54c-1.19-.26-2.19.49-3.2,1a24.52,24.52,0,0,1-6.92,2.22,52.32,52.32,0,0,1-10.88.85,2.65,2.65,0,0,0-2.91,1.83c3.48,3.54,3.9,8.15,1.68,16.13.24.42.64.28,1,.32,2.41.28,3.23,1.09,3.74,3.69.32,1.6.64,3.2,1,4.79.11.5.12,1.09.87,1.33.74-1,.3-2.25.52-3.34a9,9,0,0,0-1-6.3,19.08,19.08,0,0,1-1.21-3c-.71-2.11.09-4.32,2.09-4.9,1.42-.4,1.65-1,1.61-2.39-.07-2.28.78-3.31,2.83-3.82,1.14-.28,2.14.43,2.92,2.18a3.38,3.38,0,0,0,.67,1.17c.77.74,1.47.62,1.87-.45a52.46,52.46,0,0,1,5.14-9.93A1.47,1.47,0,0,0,175.83,107.88ZM130.4,23.34c-1.39,0-2.66-.18-3.44,1s-.12,2.4.56,3.41c.83,1.25,1.74,2.46,2.63,3.67.53.71,1,.87,1.83.18a8.62,8.62,0,0,1,10.91-.49c2,1.48,2.06,1.43,4-.39.11-.1.21-.22.31-.33a3.7,3.7,0,0,0,.84-4.61c-.71-1.38-3-2.37-4.37-1.63s-2.8,1-3.8,2.3a1.23,1.23,0,0,1-2.08.09C135.6,24.5,132.57,24.78,130.4,23.34Zm9.21,1.78c-2.91-3.24-5.23-4.06-8.15-4.34-.86-.08-1.76,0-2.61-.09-3.6-.58-5.65,3.7-4.61,6.63a10.48,10.48,0,0,0,1.83,3.13c2.72,3.31,5.09,6.93,8,10.11,1.53,1.7,1.47,1.75,3.55.68.46-.23.95-.4,1.42-.61A32.63,32.63,0,0,0,150.2,32c1.07-1.23,2.12-2.83,1.71-4.69A7.65,7.65,0,0,0,148,22c-1.89-1-6.18-.21-7.82,1.41-.14.13-.31.35,0,.77A26.38,26.38,0,0,0,143.32,23a4.72,4.72,0,0,1,5.79,1.77c1.4,2.6,1.12,5-.93,6.73-1.78,1.52-3.67,2.89-5.49,4.36-2.1,1.69-4.16,3.42-6.28,5.16a3.76,3.76,0,0,1-1.48-1.55,44.05,44.05,0,0,0-5.15-6.23,28.17,28.17,0,0,1-3.9-5.25c-1.66-2.81-.32-5.49,2.79-6a5.4,5.4,0,0,1,3.21.4c2.24,1.05,4.77,1.33,6.86,2.79C138.88,25.26,139.15,25.15,139.61,25.12Zm38.16,6.76A15.82,15.82,0,0,1,179.3,30a9.13,9.13,0,0,0,2.32-3.64c.6-1.46.2-2.39-1.17-2.94a3.19,3.19,0,0,0-1.71-.17,13.14,13.14,0,0,0-6.15,2.92c-1.48,1.17-1.6,1.39-2.8,0-2-2.28-4.57-2-7.09-1.84-1.53.11-1.95,1-1.4,2.61.28.79.73,1.49,1,2.31.43,1.35.71,1.4,1.84.38,2.47-2.23,5.28-2.41,8.21-1.9A7.79,7.79,0,0,1,177.77,31.88Zm-6.17-6.52c.32-.52,0-.82-.19-1.09a8.38,8.38,0,0,0-9.21-3.09c-3.12,1.12-4.67,2.85-3.69,6.1a17.16,17.16,0,0,0,2.6,5.82,49.75,49.75,0,0,1,5.13,7.16c.69,1.31,1,1.37,2.22.72,1.68-.87,3.32-1.86,5-2.56a18.68,18.68,0,0,0,5.59-3.73,7.52,7.52,0,0,0,2.18-4.12,1.11,1.11,0,0,0-1.12.32c-1.49,1.87-3.47,3.14-5.16,4.76a15.37,15.37,0,0,1-5.57,3.72,1.85,1.85,0,0,1-2.58-.79,30.72,30.72,0,0,0-3.55-4.67c-1.59-1.77-2.4-4.06-3.27-6.26s-.11-4.18,1.72-4.6c2.88-.67,5.78-.76,8.28,1.34C170.51,24.8,170.9,25.42,171.6,25.36ZM125.4,176.07c.61,3.78,6.13,17.73,7.52,19.11a1.27,1.27,0,0,0,.08-1.12c-.92-4.05-.49-8.25-.91-12.35,1.07-2.84-.78-3.75-2.6-4.58A7.59,7.59,0,0,0,125.4,176.07ZM151.76,137a13.47,13.47,0,0,0-.61,3c-.6,5.92-.54,11.87-1,17.8a3.62,3.62,0,0,0,0,.93c.05.34-.11.84.39.94a.8.8,0,0,0,.87-.57c1-2.16,3-4,2.11-6.79a5.87,5.87,0,0,1,.15-2.1,50.91,50.91,0,0,0,.31-5.38A16.35,16.35,0,0,0,151.76,137Zm3.75,25.56a15.47,15.47,0,0,0-.63-4.52c-.34-.93-.85-1-1.34-.2-1.24,2.05-2.4,4.15-3.58,6.24a1.25,1.25,0,0,0-.12.69c.32,2.65-.15,5.32,0,8,0,.38-.05.83.44.88a.76.76,0,0,0,.7-.49c.61-1.17,1.22-2.34,1.85-3.49A54.06,54.06,0,0,0,155.51,162.53Zm16-125.76c-1.21-2-2-4.2-1.3-6.77.31-1.09-.48-1.15-1.13-1a10.67,10.67,0,0,0-5.47,2.85,67.3,67.3,0,0,1,4.29,5.61c.29.46.74.87,1.29.62C170,37.74,171,37.79,171.52,36.77Zm-28.13-3c-2.89-3-6.18-3.32-9.82-1.74-.54.24-1.28.33-1.36,1s.55,1.21,1,1.65,1.13.39,1.79,0c1.69-1,3.47-1.41,5.17-.23C141.5,35.36,142.46,35,143.39,33.77Zm-8.21,172.67a3.38,3.38,0,0,0-.47.78c-1.21,4.3-1,8.86-2.25,13.15a.85.85,0,0,0,.75,1.15c.78.15.78-.42.87-1,.52-3,1.15-6,1.55-9C135.85,209.92,136.44,208.17,135.18,206.44ZM183.43,26c1.11-3.15-.46-5.71-3.29-5.81s-5.09,1.16-7.31,2.77c-.3.22-.8.62-.4,1.14s.65.07,1-.1a14.74,14.74,0,0,1,5.09-2C181.44,21.59,182.85,22.53,183.43,26ZM131.16,228.24c-.16.69-.47,1.82-.68,3-.16.87.52.95,1.07,1.12s.94-.22,1-.85a41.43,41.43,0,0,1,.95-5.76c.05-.23,0-.47.06-.7.13-.9-.47-1-1-1.09s-.69.38-.77.85C131.56,225.78,131.4,226.78,131.16,228.24Zm-1.58-70.86c2.6-.11,4.77-.63,6.8.32s3.65,2.37,5.82,2.94C140.12,156.26,134.88,155.49,129.58,157.38Zm45-122.93a3.48,3.48,0,0,1-1.23-3.64,1.37,1.37,0,0,0-1.52-1.46c-.91.17-.72.82-.71,1.58a7.83,7.83,0,0,0,.77,3.33C172.58,35.62,173,35.65,174.62,34.45ZM145,164.27c-.81-.1-1.47-.22-1.85.61s.08,1.46.49,2.1,1,1.23,1.76.94a2,2,0,0,0,1.6-1.67c.18-1.14-.57-1.25-1.17-1.58C145.53,164.5,145.2,164.36,145,164.27Zm3.6-.11c.17-1,.35-1.83.42-2.65s-.38-1.39-1.19-.94c-1,.56-2.13.34-3.39,1C146.36,161.7,147.3,163.13,148.62,164.16Zm-5.29-5c1.51,1.24,2.68,1.28,4,.23.63-.5.46-.85,0-1.25C146.05,157.09,144.66,157.45,143.33,159.16Zm24-39.08a3.14,3.14,0,0,0-1.84-2.33c-.3-.1-.69-.1-.79.15-.38,1,.32,1.56.76,2.23a1.25,1.25,0,0,0,1.09.61A.8.8,0,0,0,167.36,120.08Zm4,3.42c.12-.41-.44-1.18-1.23-1.7-.49-.32-1-.64-1.54-.14-.13.11-.24.48-.17.58a9.57,9.57,0,0,0,1.29,1.77C170.13,124.42,171.22,124,171.37,123.5Zm-13.7-95.44c-1.5-1.85-3.1-1.35-4.73-1.5C153.76,27.71,153.76,27.71,157.67,28.06Zm5.55,98.25c-.13-.67-.25-1.27-.36-1.88s-.43-1-1-1a1,1,0,0,0-1,.68,1.34,1.34,0,0,0,.45,1.45A2.08,2.08,0,0,0,163.22,126.31Zm-8.94,5.38a7.36,7.36,0,0,0,.95,2.72c.34.41.78.73,1.32.28a.94.94,0,0,0,.09-1.27C156.14,132.58,155.65,131.69,154.28,131.69ZM136,176.84a2.26,2.26,0,0,0,2,1.76c.19,0,.4-.5.31-.78C137.92,176.69,137.12,176.5,136,176.84Zm6.85-5.21c-.44-.13-.85,0-.94.37-.18.66.32.92.82,1a.7.7,0,0,0,.88-.43C143.87,171.87,143.22,171.83,142.88,171.63Zm32.65-40.27.37-.12a4.3,4.3,0,0,0-.47-.68c-.15-.16-.4-.1-.39.18A.67.67,0,0,0,175.53,131.36Z"/><path class="cls-7" d="M125.63,278.8l-4.81-1a3.53,3.53,0,0,0,1.24-2.37c.55-2.46.66-5,1.18-7.45.79-3.75,1.87-7.43,2.54-11.22.88-5,1.39-10.11,2.67-15.07a45.2,45.2,0,0,0,1.62-7.78c2.15.11,2.19.11,1.79,2.15-.44,2.24-.86,4.48-1.1,6.75-.06.55,0,1.21-.95,1.23s-1.48,1.06-.67,1.72c1,.81.78,1.62.56,2.64-.4,1.92-.74,3.85-1.09,5.79-.22,1.21.06,2.69-1.9,2.62-.72,0-.8,1-.14,1.33,1.33.71,1.14,1.72.76,2.94-.32,1-.5,2.14-.79,3.19s-.13,2.33-1.85,2.16c-.8-.08-1,1.23-.23,1.75s.81,1.09.67,1.95c-.28,1.62-.4,3.28-.69,4.9-.25,1.4-.3,2.62,1.11,3.31.21.1.24.33,0,.53Z"/><path class="cls-8" d="M92,86.68c1.05,1.47,2.16,2.89,3.15,4.41,2.52,3.89,5.7,7.16,8.53,10.76l1.44,1.77c-3.61.57-7.13.16-10.51,1.75a44.8,44.8,0,0,0,3.11,5.09,52.64,52.64,0,0,1,7.68,15,59.83,59.83,0,0,0,2.72,6.07c1.9,4.18,3.79,8.35,4.57,13a8.61,8.61,0,0,0,1,2.81,2.52,2.52,0,0,1,.52,2c-3.2-1.28-6.25-2.77-9.6-3.49s-6.51-2-9.66-3c-.22-.2-.25-.35-.12-.47,2-1.81,3.16-4.36,4.89-6.4.27-.32.76-.69.26-1.14s-1-.54-1.38,0a16,16,0,0,0-2.18,2.64,20.7,20.7,0,0,1-3,4.14,2.46,2.46,0,0,1-2.12.93,49,49,0,0,1-10.88-2.06c-4.85-1.26-9.62-2.83-14.47-4-2.89-.72-5.87-1-8.81-1.51a.9.9,0,0,0-1.18.74c-.17.87.56.77,1,.84a40.61,40.61,0,0,0,4.11.57,39.71,39.71,0,0,1,11.58,2.71,34.93,34.93,0,0,0,5.66,1.61c2.76.56,5.5,1.31,8.23,2.05a7.91,7.91,0,0,0,1.93.24,2.63,2.63,0,0,1,2.05.56c.72.73,1.41,1,2.23,0,.32-.38.82-.06,1.25,0a26.72,26.72,0,0,1,6.27,1.77c3.67,1.33,7.69,1.56,11.17,3.94-2.81,4.25-2.84,9.49-4.64,14.13-.83,2.15-2,4.25-2.11,6.69,0,.67-.56.63-1,.65-4.86.28-9.69,1.32-14.59.92-3.54-.29-7.12-.24-10.69-.24a22.59,22.59,0,0,1-4.35-.32,47,47,0,0,0-6.27-.71,71.89,71.89,0,0,1-11.38-2c-6.39-1.42-12.91-2.07-19.29-3.57-1.75-.41-3.56-.62-5.31-1.1a14.2,14.2,0,0,1-5.71-3.17,2.86,2.86,0,0,1-1-1.46c-1.82-6.69-1-13.22,1-19.84a59.51,59.51,0,0,1,6.67-13.86,38.27,38.27,0,0,1,8.85-9.53c3.59-2.9,7.05-6,10.85-8.57,2.41-1.66,5-3.12,7.28-4.91a106.54,106.54,0,0,1,12.64-8.59c5.34-3,10.76-5.8,16.14-8.68.13-.07.26-.15.4-.21,1.34-.56,1.61-.32,1.44,1.34a13.4,13.4,0,0,0-.15,3.52c0,.15-.07.32,0,.46.21.76,0,2.09,1.08,1.92.84-.13.55-1.27.51-2-.06-1.25-.15-2.5-.22-3.75Zm-.88,12.68c-.73.06-.77.7-.64,1.18.48,1.79.42,3.67.8,5.48a3.74,3.74,0,0,0,.16.66.69.69,0,0,0,.86.48c.38-.1.77-.39.67-.78-.43-1.81-.06-3.73-.61-5.52A2.06,2.06,0,0,0,91.11,99.36Z"/><path class="cls-8" d="M32.9,219.36c1.61-1.24,2.34-2.92,3.42-4.31A92.52,92.52,0,0,1,47.08,202.8a36.18,36.18,0,0,0,4.45-4.94c3.24-4.23,7.06-7.82,10.66-11.66s7.35-7.57,10.29-12.07c.46-.71.89-1.12,1.78-1,4.24.66,8.56.24,12.83.55a70.73,70.73,0,0,0,15.24-.72c2.26-.33,4,1,6,1.75a9.57,9.57,0,0,1,2.32,1.23c3.32,2.42,7,2.2,10.69,1.3,2.74-.66,2.63-.67,3.49,2.26A80.7,80.7,0,0,0,129,190.74c.87,1.88,1.57,3.84,2.53,5.67a16.19,16.19,0,0,0,2.59,3.36c-4,2.85-7,6.81-11.12,9.36a59.19,59.19,0,0,0-9.81,8.08c-1.16,1.11-2.3,2.23-3.48,3.3-.47.43-1,.71-.5,1.5.31.52-.22.86-.5,1.17-2.42,2.76-4.71,5.69-7.35,8.16-2.38,2.23-4.79,4.47-7.36,6.45-2.09,1.62-4.1,3.35-6.11,5.07C85.34,245,82.65,246.93,80,249s-5.4,3.84-8.1,5.76c-1.31.92-1.48.92-2.59-.26a110.44,110.44,0,0,1-10.42-12.08c-1.66-2.35-3.48-4.52-5.3-6.71a50.52,50.52,0,0,0-13.79-11.74C37.54,222.62,35.4,221,32.9,219.36Z"/><path class="cls-8" d="M203.31,103.84c5.91,4.06,10.51,9.32,12.89,16.58a23.27,23.27,0,0,1,1,7.39c0,6.44-.45,12.89-1.07,19.3A138.47,138.47,0,0,1,213.62,161a73.71,73.71,0,0,1-6.42,17.82c-4,8.06-8.91,15.48-12.87,23.53-1.33,2.72-2.55,5.52-4,8.18-2.54,4.7-5.54,8.95-10.14,11.62-2.52,1.46-4.95,3.12-7.42,4.7a59.6,59.6,0,0,1-10.58,5.26c-1.61.63-1.86.27-3-.94a8.61,8.61,0,0,1-2.17-6.8c.33-4.32-.1-8.62.1-12.92a199.52,199.52,0,0,0-.68-22c-.24-3.67-.62-7.32-.71-11a38.61,38.61,0,0,1,.1-4.93,33.6,33.6,0,0,0,.13-5.4,12.27,12.27,0,0,1,.3-2.81c.35-2.11.6-2.35,2.59-2.18,1.44.12,2.88.36,4.32.58a22.58,22.58,0,0,0,8.86,0c1.58-.39,2,0,2.25,1.59.71,5.5,2.29,10.74,3.67,16,1,3.89,2.1,7.76,3.13,11.64a2.81,2.81,0,0,0,.7,1.41c.44.43.77.1,1.15-.13s.67-.48.4-1.09c-2-4.43-2.72-9.32-4.12-14-1.2-4-1.77-8.17-3.15-12.09a7,7,0,0,1-.29-1.84c-.1-1.52-.56-2.75-2.06-3.17-.87-.24-.63-.8-.44-1.44,1.16-4,2.29-8,4.55-11.51a12.72,12.72,0,0,0,2.28-7.48c1.35.55,2.11-.4,2.84-1.27,2.69-3.25,5.71-6.14,8.49-9.3,2-2.3,4.22-4.41,5.79-7.13.62-1.08,1.23-2.16,1.78-3.28.65-1.31.53-1.87-.68-2.34a29,29,0,0,0-5.55-1.93,4.33,4.33,0,0,1-2.19-.8,62.13,62.13,0,0,1,5.46-6.21,42.2,42.2,0,0,0,4.45-4.61c.22-.3.49-.68.9-.46s.37.64.21,1c-.8,1.84-.49,3.89-1.07,5.77a1.37,1.37,0,0,0,.06,1.14c.2.32.43.64.85.62s.55-.4.58-.81q.35-3.85.7-7.71ZM201.9,118.7a16.26,16.26,0,0,0,0-2,.86.86,0,0,0-.75-.72c-.48-.09-.6.33-.65.71a10.38,10.38,0,0,0-.16,2.07.91.91,0,0,0,.91.8C201.76,119.61,201.82,119.18,201.9,118.7Z"/><path class="cls-9" d="M162.06,36.82a14.83,14.83,0,0,1,3.31,5.1c.81,1.78.95,1.84,2.6,1l8.72-4.54c4-2,6.13-5.78,7.77-9.92.74-1.85,1.84-2.43,3.28-1.27a5.17,5.17,0,0,1,2.11,4.31,44.22,44.22,0,0,1-1.6,10.7c-.57,2.36-1.36,4.66-2.1,7a2.34,2.34,0,0,0,.09,2c2.53,4.67,2.42,9.86,1.91,15-.3,3-1.12,5.88-1.53,8.83-.38,2.71-1.59,5.08-2.4,7.61s-2.62,3.52-4.35,4.85a16.94,16.94,0,0,1-5.68,3,6,6,0,0,0-1.61.77,30,30,0,0,1-20.42,4.5c-3.53-.4-7.09-.54-10.61-1.19a14,14,0,0,1-2.67-.83c-6.35-2.54-12.18-6-16.94-11.23a32.08,32.08,0,0,0-3.87-3.69c-3.6-2.82-4.36-7-4.19-11.35a54.74,54.74,0,0,1,1.36-8.36,6,6,0,0,1,1.09-2.82c1.42-1.54,1-3,.4-4.59-.34-.95-.67-1.9-1.06-2.81a17.08,17.08,0,0,1-1.19-8.44c.14-1.58.56-3.07,2-3.93a2.12,2.12,0,0,0,.87-1c.73-2.19,2.45-2.77,4.26-3.25a2.31,2.31,0,0,0,.64-.16c2.45-1.35,3.75.15,4.93,2.11,2,3.33,4.7,6.07,7.09,9.06,1.09,1.38,1.3,1.28,2.78,0a5.48,5.48,0,0,1,1.48-1,33.64,33.64,0,0,0,8.53-5.34c.28-.23.58-.58,1-.31s.22.69.11,1.05a30,30,0,0,1-1,3.12A32.06,32.06,0,0,0,145,48.71c-.5,3.13.07,6.1,3.08,7.8,1.6.89,3.11,2,4.95,2.24.29,0,.69.3.83.18,1.24-1.09,2.19-.28,3.17.4.09.06.28,0,.43-.08.1-.87-.75-.76-1.13-1.29.71-1.38,1.67-2.19,3.41-1.62-1-1.13-.66-2.06-.11-3.22,2.14-4.52,2.43-9.35,2.07-14.26,0-.54,0-1.08,0-1.63ZM150.64,62.13c-.54-.2-.25-1.68-1.36-1,0,1,1.29.11,1.39,1,.35.91-.48,1-.77.87-1.56-.54-3.06-1.24-4.54.33a.53.53,0,0,1-.84-.37.89.89,0,0,0-.69-.43c-.27,0,0,.23.2,0s.07-.08.16.17c.56,1.44-.8,1.16-1.28,1.57-1.07.92-1.43,2.45-.38,3.12,2.13,1.37,4.41,2.48,6.63,3.7a.88.88,0,0,0,.43.06c2,0,3.86-.72,5.8-1a1.17,1.17,0,0,0,.69-.56,6.71,6.71,0,0,1,2.55-2.17c.44.8.71,1.92,1.93.93a1.78,1.78,0,0,0-1.43-.62c-.38,0-.72-.06-.71-.6,0-2-1.73-2-2.79-2.75s-2.06-2.25-3.73-2c-.28,0-.56.16-.84.23S150.72,62.34,150.64,62.13Zm-1.9,23c.47,0,1.12,0,1.77-.12,1.73-.25,3.46-.68,5.19-.78A6.32,6.32,0,0,0,158.88,83c2.51-1.62,3.65-4.26,5-6.79.37-.7.25-1.19-.4-1.48s-1.1-.16-1.35.65a12.29,12.29,0,0,1-.8,2c-1.62,3.07-3.61,5.55-7.24,5.59a10.75,10.75,0,0,0-2.81.43,6.05,6.05,0,0,1-4.8-.74c-3.73-2-6.46-5.35-9.58-8.17-.76-.68-1.13-2-2.52-1.59-.15,1.3.77,2,1.46,2.67,2.3,2.32,4.6,4.66,7.08,6.76A15.62,15.62,0,0,0,148.74,85.16Zm-9.09-12.93c-.47,0-.65.17-.62.55a1.2,1.2,0,0,0,1.16,1.15c.37.07.54-.2.5-.56A1.14,1.14,0,0,0,139.65,72.23ZM150.91,80c-.52-.77-1-1.13-1.84-.79a.49.49,0,0,0-.19.38c.23,1,1,.63,1.57.69C150.51,80.28,150.57,80.2,150.91,80Zm-2.53-2.84c-.07-.72-.62-.75-1.08-.86a.44.44,0,0,0-.55.49c.05.68.6.76,1.06.84A.49.49,0,0,0,148.38,77.15Zm11.14-.64c0-.68-.65-.69-1-1s-.58,0-.66.37c-.13.62.31.81.73.93S159.28,77,159.52,76.51Zm-4.27-2.38a1.07,1.07,0,0,0-1.49-.92c-.33.1-.28.5-.13.78C154.1,74.84,154.67,74.46,155.25,74.13Zm-18.81-6.42a1.84,1.84,0,0,0-.85-.8c-.35-.16-.72-.18-.94.22-.35.63.18.78.53,1S136,68.25,136.44,67.71Zm17.82,10.21a.94.94,0,0,0-1-.91c-.38,0-.75.17-.7.62.06.65.58.76,1.08.79A.51.51,0,0,0,154.26,77.92Zm-13.1-15c.12-.38-.15-.52-.37-.67a.66.66,0,0,0-1.06.25c-.09.2.24.49.51.58S140.9,63.33,141.16,62.9Zm26.72,5.15a1.25,1.25,0,0,0-1.3-.93.4.4,0,0,0-.37.46,1.1,1.1,0,0,0,1.22.92C167.57,68.49,167.72,68.21,167.88,68.05Zm-4.59,3.67a1.2,1.2,0,0,0-1.29-1,.37.37,0,0,0-.35.45,1,1,0,0,0,1.21,1C163,72.13,163.15,71.86,163.29,71.72Zm0-6.29a4.63,4.63,0,0,0-.56-.7c-.28-.24-.7-.36-.93,0s0,.86.43,1.06S163,66,163.33,65.43Zm-18.21-7.28c0-.57-.39-.81-.94-.88a.42.42,0,0,0-.52.29c-.12.68.31,1,.82,1.12C144.8,58.79,145,58.63,145.12,58.15Zm-6.44,5.09c-.49-.59-.89-1.05-1.55-.76a.44.44,0,0,0-.16.37C137.32,63.57,137.87,63.65,138.68,63.24Zm1.75,5.15c.09-.48-.26-.7-.57-.82s-.74-.36-.87.25a.55.55,0,0,0,.46.66C139.77,68.56,140.11,68.86,140.43,68.39Zm3.76,5.24c.06,1,.74,1.1,1.47,1.08.19,0,.27-.09.25-.29-.07-.84-.71-.79-1.24-.91A1.44,1.44,0,0,0,144.19,73.63Zm13.38-11.51c.24,0,.47-.11.44-.38a.84.84,0,0,0-.68-.75.33.33,0,0,0-.42.37C156.93,61.8,157.26,62,157.57,62.12Zm-14-7.68c-.1-.79-.41-1.28-1.26-1-.11,0-.28.27-.26.34A1,1,0,0,0,143.56,54.44Zm-4.63,3c-.08.83.36,1.06,1,1.06.18,0,.27-.08.28-.35A1.08,1.08,0,0,0,138.93,57.45Zm15,3.7c.09-.33-.13-.42-.31-.47s-.5,0-.55,0c-.18.36.1.49.35.58A.39.39,0,0,0,153.89,61.15Zm-4.08-1.94c0-.44-.34-.61-.71-.69s-.62,0-.55.43.44.57.8.62A.36.36,0,0,0,149.81,59.21Z"/><path class="cls-8" d="M144.14,227.74c.67-.39,1,0,1.28.06.7.2,1.11-.1,1.27-.87a30.3,30.3,0,0,0,.84-7.2c-.23-6.17-.59-12.37.26-18.55.38-2.8.86-5.59,1-8.42s.39-5.8.42-8.7c0-2.21.56-4.34.66-6.53a4.38,4.38,0,0,1,1-2.2c.89-1.27,1.38-2.76,2.29-4,.27-.37.43-.92.94-.77s.46.68.41,1.17c-.08.7-.11,1.41-.19,2.11-.7,5.83.21,11.54.54,17.3a198.92,198.92,0,0,1,.55,21.3c-.23,4.77,0,9.55,0,14.32a4.62,4.62,0,0,0,1.16,3.16,15.87,15.87,0,0,1,2.2,3.15,1.72,1.72,0,0,0,2.35,1c4.17-1.5,8.32-3,12.08-5.62,3-2,6-3.94,9.07-5.87,1.3-.82,1.49-.81,2.27.56,2.59,4.57,5.92,8.58,8.45,13.18.88,1.61,1.66,3.27,2.49,4.9a45.51,45.51,0,0,0,10.07,13.51c.71.64,1.32,1.42,2.13,2.31a71.55,71.55,0,0,0-6.44,5.71,3.46,3.46,0,0,1-1.86.61c-4.61.85-9.09,2.29-13.61,3.55-4.88,1.36-9.69,3-14.56,4.39a13.78,13.78,0,0,0-3.68,1.53c-1,.65-1.88.55-2.38-.54-1.28-2.75-3.55-4.7-5-7.21-3.49-5.91-7.51-11.54-9.34-18.5a32.62,32.62,0,0,0-2.15-5.58A72.78,72.78,0,0,1,144.14,227.74Z"/><path class="cls-7" d="M76.7,253.07c2.17-1.69,4.38-2.9,6.42-4.44,6.61-5,12.83-10.55,19.11-16a58.79,58.79,0,0,0,8.46-9.33c3.69-5,7.76-9.46,12.82-12.77a55.67,55.67,0,0,0,5.47-4c1.46-1.23,2.43-3,4-4.12.45-.32.78-1.15,1.46-.65a1.47,1.47,0,0,1,.28,1.72c-.76,2.32-1.3,4.68-1.88,7a42.71,42.71,0,0,0-1,5.32c-.66,5.71-2.1,11.27-3,16.92-.82,5.05-2.31,9.95-3.18,15-.61,3.47-.92,7-1.7,10.45-1,4.68-2.17,9.33-3,14.05-.08.42,0,1.13-.52,1.18-1.54.15-1.19,1.26-1.12,2.25,0,.39.08.78.11,1.17.08.9-.24,1.34-1.13,1.13-3.7-.91-7.42-1.49-11-3.27a125.52,125.52,0,0,1-14.92-9.08c-4.62-3.15-8.85-7.44-13.53-10.48A15.27,15.27,0,0,1,76.7,253.07Z"/><path class="cls-7" d="M136.87,213c.61.35.61,1.09.76,1.73a42.18,42.18,0,0,0,1.94,6.67.81.81,0,0,1,.07.22c.48,2.2,3.07,3.18,3.11,5.32A21,21,0,0,0,144,233a45.64,45.64,0,0,0,2.09,6.1,101.69,101.69,0,0,1,4.89,12.67c1.73,5.34,5.39,9.31,7.81,14.15a18.32,18.32,0,0,0,3,3.89c.75.84.48,1.32-.29,1.79a32.05,32.05,0,0,1-7.6,3.1c-5.52,1.69-11.22,1.9-16.85,2.61-2.6.33-5.22.49-7.83.77-2.32.25-2.15,0-2.67-2.4-.84-4,.79-7.49,1.57-11.16.26-1.23.6-2.44.84-3.67,1.07-5.56,2.23-11.1,3.16-16.68,1-6.28,1.91-12.6,2.81-18.91.53-3.73,1-7.48,1.46-11.23C136.43,213.71,136.32,213.26,136.87,213Z"/><path class="cls-10" d="M96.45,105.88c3.54-.28,6.6-1.24,9.7-.25a2,2,0,0,0,1.27.17c.33-.11.73-.21.81-.67s-.19-.54-.39-.76A185.74,185.74,0,0,1,95,88.38a18.74,18.74,0,0,1-2-3.28c-.62-1.49-.49-1.75.84-2.6a21.74,21.74,0,0,1,4.74-1.87c4.37-1.56,8.76-3.16,13.45-2.93,1.84.09,2.15.33,2.14,2.23a84.52,84.52,0,0,0,1.37,15.82,20.1,20.1,0,0,1,.45,5.81,19.21,19.21,0,0,0,.23,4.66c.63,4.37,1,8.81,1.68,13.16.67,4,1.15,8,2.7,11.73,1.38,3.28,1.85,6.85,2.6,10.33a3.65,3.65,0,0,0,.56,1.73c1.25,1.39,1.22,3.24,1.62,5,.22,1-.21,1.29-.91,1.53a14.57,14.57,0,0,1-7.75.12c-1-.19-1.37-1.14-1.49-2.1a44.31,44.31,0,0,0-5-15.26c-2.3-4.38-4.06-9-6-13.54a51.77,51.77,0,0,0-4.69-8C98.52,109.39,97.7,107.87,96.45,105.88Z"/><path class="cls-9" d="M177.91,18.88a9.83,9.83,0,0,0-4.84,2.5c-.86.84-1.52.87-2.26.16-2-1.88-4.43-2.12-6.9-2.28a7,7,0,0,0-6.74,4.93c-.22.71-.49.87-1.17,1-2.08.48-3.43,0-4.54-2.12-2.14-4.16-7.58-3.94-10.93-1.28-.92.73-1.41.81-2.19.13A12,12,0,0,0,130,19.27c-.5,0-1,0-1.52-.07s-1-.51-.67-1.11c1.79-3.69,3.23-7.6,6-10.67a11.93,11.93,0,0,1,6.57-4c4.3-.83,8.57-1.94,13-1.89a16.07,16.07,0,0,1,5.95,1.19c3.16,1.28,6.46,2.16,9.62,3.46A28.12,28.12,0,0,1,173.85,9a4,4,0,0,1,1.59,2.14C176.28,13.69,176.81,16.35,177.91,18.88Z"/><path class="cls-10" d="M182.57,92.52c6.6,2.52,13.52,3.83,18,10.22a43.35,43.35,0,0,1-5.11,5.12,53.54,53.54,0,0,0-6.28,7c-.91,1.19-.79,1.69.51,2.25a8.57,8.57,0,0,0,1.89.47,20.37,20.37,0,0,1,6.24,2.32c-1.95,2.8-3.41,5.71-5.73,8.13-3.37,3.5-7,6.83-9.78,10.93a5.59,5.59,0,0,1-.61.68c-1.17,1.19-1.32,1.17-1.69-.52a30.48,30.48,0,0,0-3.76-9.6c-1.57-2.5-2.65-5.29-4.31-7.68a2,2,0,0,1-.13-2.48,103.14,103.14,0,0,0,6.45-13.64c1-2.76,2.19-5.48,3.12-8.29C181.9,95.93,182.06,94.37,182.57,92.52Z"/><path class="cls-7" d="M117.77,99.39c1.63,1.27,3.75,1.34,4.9,3.32.43.74,1.53.76,2.34,1.07,2.38.91,4.79,1.72,7.14,2.71,2.07.88,4.08,1.93,6.11,2.93,1.22.6,1.45,2.07,2.18,3.09.19.27-.1.55-.26.82a18.07,18.07,0,0,0-2.07,7.67,173.44,173.44,0,0,1-2.89,19.11,33.15,33.15,0,0,0-.74,7c-2.29-.87-4.46-.39-6.6.46-.73.29-1,0-1.21-.74-1.9-5.91-3-12.08-5-18s-2.46-12.14-3.26-18.31a77,77,0,0,1-.93-8.84A3.6,3.6,0,0,1,117.77,99.39Z"/><path class="cls-9" d="M139.65,152.47a19.43,19.43,0,0,1,6,3.81,3.67,3.67,0,0,0-2.59,1.25c-.53.73-1,.45-1.47,0-2.26-2.38-5.07-2.72-8.07-2.35-2.38.3-4.79.43-6.9,2-.3.22-.67.33-1,.57s-.87.51-.66,1.07a1,1,0,0,0,1.25.69c1.21-.28,2.41-.64,3.63-.89a10,10,0,0,1,7.74,1.4,16.17,16.17,0,0,0,6.77,2.75c-2.09.24-2.78,1.61-2.72,3.51-.72.23-1-.36-1.36-.65-4.46-3.5-10.7-2.41-14.85.22-.39.25-1,.59-.82,1.22.31.88,1.09.69,1.69.42a23.59,23.59,0,0,1,7.41-1.85c2.87-.3,5.48.32,7.38,2.88.45.6,1,1.1,1.5,1.67l-.29.25c-1.18.92-2.08.85-3.52.09-3.37-1.77-7-2.45-10.56.2a6.72,6.72,0,0,1-1.2.6,1.5,1.5,0,0,0-.85.78c.6,1,1.58.93,2.5.79a13.38,13.38,0,0,1,2.83,0C133,173,134,174,135,175c.24.22.42.49.18.78-1.06,1.26.16,2.12.37,3.15l.05,0c-1.05.23-1.69-.6-2.41-1.12A21.17,21.17,0,0,0,128,175a5.93,5.93,0,0,0-4,0,23.84,23.84,0,0,1-7.51,1.33,7,7,0,0,1-3.16-.59q-2.86-1.38-5.7-2.79c-1.55-.78-1.65-.92-1.07-2.66.78-2.3,1.73-4.54,2.37-6.89,1-3.86,2.15-7.71,3.13-11.59.28-1.13.66-1.72,1.75-1.27,2.26.92,4.69.81,7,1.08a8.46,8.46,0,0,0,5-1.26c.71-.4,1.38-.9,2.09-1.32,3.77-2.22,7.26-.43,9.48,2,.63.7.77,1.93,1.13,2.91.83,0,.53-.85.82-1.23A1.64,1.64,0,0,0,139.65,152.47Zm-4.15,10a3.23,3.23,0,0,0,.08-2.22c-.22-.56-.75-.9-1.07-.06-.47,1.21-.68,1.16-1,0a.65.65,0,0,0-1-.41c-.41.34-.24.88-.11,1.31a1.25,1.25,0,0,0,.95.85Zm.76-9.09a.63.63,0,0,0,.2-.8c-.15-.58,0-1.34-.59-1.67-.8-.48-.59.61-.94.81s-.52-.1-.75-.28-.67-.72-1.08-.2-.09.92.13,1.29C134,153.94,135.29,153.39,136.26,153.36Zm-1.53,15c.6,0,1.3.37,1.34-.71,0-.87-.4-1.05-1.11-.91a1.53,1.53,0,0,1-.64,0c-.4-.1-.71-.08-.79.45a.82.82,0,0,0,.45.94A4.11,4.11,0,0,0,134.73,168.33Zm-3.39,6.46c0-.29-.14-.47-.39-.63s-.41.12-.44.26c-.1.38,0,.76.41.8C131.13,175.24,131.28,175.08,131.34,174.79Z"/><path class="cls-9" d="M159.38,125.86c1.47,1.12,2.48,2.06,3.93,2.23.94.1,1.91,3,1.53,4-.23.56-.7.46-1.13.48s-.82,0-.83.49.42.55.79.52a1.07,1.07,0,0,1,1.07.33c-.5.89-1.68-.55-1.89.46-.22.39-.18.52,0,.58,1.82.61,1.83.62,1.27,2.58a23.38,23.38,0,0,0-.5,3.73,4.29,4.29,0,0,1-.45,2.27c-.52.72-.13,1.21.49,1.43.85.3,1-.42,1.07-1.06s.21-1.55.31-2.34a32.86,32.86,0,0,1,.46-3.72,17.12,17.12,0,0,0-.92-11.39,21.35,21.35,0,0,1-1.37-6.49c.86,0,1,.64,1.28,1s.43.94.89,1c1.91.06,1.74,1.4,1.8,2.9.07,1.8,1.15,3.33,1.59,5.15-.06.29-.37.27-.64.33s-.79.09-.71.64c0,.33.37.46.66.49.53.06,1.16-.32,1.6.6-.69,0-1.44-.17-1.94.64.61.57,1.38.28,2,.48a.73.73,0,0,1,.45.93c-.08.4-.36.43-.66.4-.67-.07-1.37-.54-2,.21.37,1.08,1.51.29,2.07,1a21.07,21.07,0,0,0-1.69,5.25,4.1,4.1,0,0,0-.06,1.39.91.91,0,0,0,1,.64c.48,0,.59-.4.6-.81.05-2.47.92-4.77,1.42-7.14a6.84,6.84,0,0,0-.37-4.56c-.7-1.45-1-3.1-1.95-4.56,1.08-.54,2.12-.23,3-.75.71-.41,2.24,1.63,1.72,2.59-1.22,2.26-.18,4.46-.34,6.67a47.62,47.62,0,0,0,.49,7.22,1.69,1.69,0,0,0,0,.23c.1.52.39.85.89.81s.54-.48.55-.88a60.53,60.53,0,0,0,0-7.5,1.17,1.17,0,0,1,.06-.9c2.08.49,2.07.49,2.74,2.44.37,1.08.77,2.14,1.14,3.18-.58.57-1.05.12-1.52.13s-1-.12-1,.52c0,.45.47.74.94.79a6.38,6.38,0,0,1,1.08.1c.33.11.75.37.6.81s-.61.26-.9.09c-.6-.35-1.47-.73-1.68.07-.25,1,.76.83,1.36.84.91,0,1.12.48.88,1.35-.15.55-.45.79-1,.62s-1.23-.44-1.86-.6c-.33-.09-.77-.18-.9.34a.7.7,0,0,0,.56.84c.74.28,1.5.47,2.32.72a12.81,12.81,0,0,1-1.94,3.75A29.54,29.54,0,0,0,172,159.8c-.46,2.22-.62,2.4-2.66,2.73a10.07,10.07,0,0,1-3.47-.1c-2.51-.47-5.06-.49-7.58-.84-1-.15-1.6-.43-1.65-1.65a12.9,12.9,0,0,0-1-4.28,10.38,10.38,0,0,1-.43-5.29A21.92,21.92,0,0,0,153.7,138a7.62,7.62,0,0,1-.71-4.59c1.13,0,1.06,1.1,1.38,1.76.67,1.37.92,1.53,2.3.86.86-.41,1.05.09,1.14.75.16,1.08.29,2.17.37,3.26a6.82,6.82,0,0,0,1.12,3,1,1,0,0,0,1.09.57c.47-.11.44-.58.5-.94a42.42,42.42,0,0,0,1.09-8.84,12.13,12.13,0,0,0-1-3.73A27.33,27.33,0,0,1,159.38,125.86Zm-2.75,15c-.31.07-.64.31-.54.57.21.58.8.94.6,1.76-.05.2.48.15.69,0,.79-.72-.59-1.08-.23-1.82C157.33,141,156.9,140.9,156.63,140.86Z"/><path class="cls-11" d="M145.36,226.06a9.13,9.13,0,0,1-4.38-5.32,110.86,110.86,0,0,1-3.65-12.92c-.8-3.95-1.65-7.89-2.64-11.78a27.83,27.83,0,0,1-.62-6.5,79.54,79.54,0,0,0-.53-9.44c1.33.06,2.52.89,3.55.37.72-.36,1.84,1,2.08-.63.28-1.91,1.21-4.12-1.26-5.11a9.81,9.81,0,0,1-3.33-2.07,4.18,4.18,0,0,0-2.17-1,5.86,5.86,0,0,1-2.53-.64,9.46,9.46,0,0,1,9.25,1.34c.64.49,1.19,1.12,1.84,1.61a3.08,3.08,0,0,0,4.3-1.26,1.81,1.81,0,0,0,.08-.9c-.24-2.29,0-2.7,1.94-3.61.34-.15.62-.43,1-.37a.83.83,0,0,1,.35.79c-.39,4.45-.4,8.92-.94,13.38-.59,4.9-.4,9.86-1,14.78-.27,2.18-.61,4.35-.85,6.54-.64,5.75-.21,11.45-.1,17.16A16.38,16.38,0,0,1,145.36,226.06Z"/><path class="cls-11" d="M148.84,157a.93.93,0,0,1-.78-.35,27.61,27.61,0,0,0-7.48-5.43,18,18,0,0,1-1.91-1.08c-2.83-1.88-2.79-2-2.36-5.62.68-5.69,2.13-11.25,2.8-17a92.56,92.56,0,0,1,1.41-10.74,10.06,10.06,0,0,1,.89-2.9c.88-.17,1.3.56,1.85,1,1.89,1.59,3.88,2.4,6.17.74.92-.67,1.62-.36,2.29.42a8,8,0,0,1,1.53,5.22,30.41,30.41,0,0,1-.8,6.74c-.82,3.91-2.29,7.66-2.77,11.64-.6,5-1.22,10-.62,15A4.27,4.27,0,0,1,148.84,157Z"/><path class="cls-7" d="M154.2,110.07c1.82-3.92,4.12-7.94,1.92-12.81a19.28,19.28,0,0,0,6.94-.56c3.7-1,7.51-1.81,10.8-4.2a6.2,6.2,0,0,1,1-.55c1.86-.91,3.85-1.53,5.43-3a.82.82,0,0,1,1-.2c.41.24.32.68.24,1a84.15,84.15,0,0,1-4.05,13.72,5.45,5.45,0,0,1-2.58,2.78c-6.19,3.41-12.82,4.08-19.53,4.41A1.26,1.26,0,0,1,154.2,110.07Z"/><path class="cls-7" d="M137.48,107c-.48-.16-1.1-.17-1.42-.51-2.22-2.32-5.2-2.91-8-3.88-3.3-1.16-6.27-3.07-9.54-4.28a2,2,0,0,1-1.21-1.77c-.61-5.5-1.24-11-1.84-16.49a1.47,1.47,0,0,1,.32-1.5l4.65,4.7A70,70,0,0,0,127.89,90c2.07,1.56,4.54,2.3,6.79,3.5,1.34.72,2.75,1.28,4.33,2a8.74,8.74,0,0,0-1.91,7.42c.24,1.3.54,2.58.81,3.87Z"/><path class="cls-9" d="M159.72,46.7c-.08,2.36-1.12,4.55-2.1,6.76A9.42,9.42,0,0,1,156,56a3.2,3.2,0,0,1-4.17.87c-.65-.34-1.29-.68-1.93-1-3-1.69-3.87-3.66-3.11-7.29.36-1.69.82-3.35,1.26-5a60,60,0,0,0,1.57-6.38A6.5,6.5,0,0,1,151.31,33a6.6,6.6,0,0,0,1.2-2c.91-1.86.89-1.77,2.91-1.69,1.8.08,3.13.56,3.35,2.73,2.07,2.35,1.56,5.35,1.54,8.19A30.67,30.67,0,0,1,159.72,46.7Z"/><path class="cls-11" d="M155.12,102.34c-.85,3.84-2,7.6-4.54,10.6-2.08,2.48-4.43,2.86-6.66.64-1.37-1.36-2.88-2.55-3.67-4.47a16.49,16.49,0,0,1-.77-11.56c.33-1.06.85-1.34,1.79-1.1,3.75,1,7.6.85,11.42,1,2.11.1,2.94,1.14,2.65,3.47C155.29,101.42,155.2,101.88,155.12,102.34Z"/><path class="cls-7" d="M175.83,107.88a1.47,1.47,0,0,1-.23,1.42,52.46,52.46,0,0,0-5.14,9.93c-.4,1.07-1.1,1.19-1.87.45a3.38,3.38,0,0,1-.67-1.17c-.78-1.75-1.78-2.46-2.92-2.18-2.05.51-2.9,1.54-2.83,3.82,0,1.35-.19,2-1.61,2.39-2,.58-2.8,2.79-2.09,4.9a19.08,19.08,0,0,0,1.21,3,9,9,0,0,1,1,6.3c-.22,1.09.22,2.33-.52,3.34-.75-.24-.76-.83-.87-1.33-.34-1.59-.66-3.19-1-4.79-.51-2.6-1.33-3.41-3.74-3.69-.35,0-.75.1-1-.32,2.22-8,1.8-12.59-1.68-16.13a2.65,2.65,0,0,1,2.91-1.83,52.32,52.32,0,0,0,10.88-.85,24.52,24.52,0,0,0,6.92-2.22C173.64,108.37,174.64,107.62,175.83,107.88Z"/><path class="cls-12" d="M130.4,23.34c2.17,1.44,5.2,1.16,7.34,3.23a1.23,1.23,0,0,0,2.08-.09c1-1.29,2.51-1.59,3.8-2.3s3.66.25,4.37,1.63a3.7,3.7,0,0,1-.84,4.61c-.1.11-.2.23-.31.33-1.89,1.82-1.92,1.87-4,.39a8.62,8.62,0,0,0-10.91.49c-.78.69-1.3.53-1.83-.18-.89-1.21-1.8-2.42-2.63-3.67-.68-1-1.39-2.14-.56-3.41S129,23.36,130.4,23.34Z"/><path class="cls-13" d="M139.61,25.12c-.46,0-.73.14-.87,0-2.09-1.46-4.62-1.74-6.86-2.79a5.4,5.4,0,0,0-3.21-.4c-3.11.49-4.45,3.17-2.79,6a28.17,28.17,0,0,0,3.9,5.25,44.05,44.05,0,0,1,5.15,6.23A3.76,3.76,0,0,0,136.41,41c2.12-1.74,4.18-3.47,6.28-5.16,1.82-1.47,3.71-2.84,5.49-4.36,2-1.76,2.33-4.13.93-6.73A4.72,4.72,0,0,0,143.32,23a26.38,26.38,0,0,1-3.13,1.18c-.29-.42-.12-.64,0-.77C141.85,21.75,146.14,21,148,22a7.65,7.65,0,0,1,3.88,5.32c.41,1.86-.64,3.46-1.71,4.69A32.63,32.63,0,0,1,139,40.63c-.47.21-1,.38-1.42.61-2.08,1.07-2,1-3.55-.68-2.87-3.18-5.24-6.8-8-10.11a10.48,10.48,0,0,1-1.83-3.13c-1-2.93,1-7.21,4.61-6.63.85.14,1.75,0,2.61.09C134.38,21.06,136.7,21.88,139.61,25.12Z"/><path class="cls-12" d="M177.77,31.88a7.79,7.79,0,0,0-5.43-4.08c-2.93-.51-5.74-.33-8.21,1.9-1.13,1-1.41,1-1.84-.38-.26-.82-.71-1.52-1-2.31-.55-1.57-.13-2.5,1.4-2.61,2.52-.17,5.07-.44,7.09,1.84,1.2,1.34,1.32,1.12,2.8,0a13.14,13.14,0,0,1,6.15-2.92,3.19,3.19,0,0,1,1.71.17c1.37.55,1.77,1.48,1.17,2.94A9.13,9.13,0,0,1,179.3,30,15.82,15.82,0,0,0,177.77,31.88Z"/><path class="cls-13" d="M171.6,25.36c-.7.06-1.09-.56-1.57-1-2.5-2.1-5.4-2-8.28-1.34-1.83.42-2.57,2.44-1.72,4.6s1.68,4.49,3.27,6.26a30.72,30.72,0,0,1,3.55,4.67,1.85,1.85,0,0,0,2.58.79A15.37,15.37,0,0,0,175,35.65c1.69-1.62,3.67-2.89,5.16-4.76a1.11,1.11,0,0,1,1.12-.32,7.52,7.52,0,0,1-2.18,4.12,18.68,18.68,0,0,1-5.59,3.73c-1.73.7-3.37,1.69-5,2.56-1.25.65-1.53.59-2.22-.72a49.75,49.75,0,0,0-5.13-7.16,17.16,17.16,0,0,1-2.6-5.82c-1-3.25.57-5,3.69-6.1a8.38,8.38,0,0,1,9.21,3.09C171.62,24.54,171.92,24.84,171.6,25.36Z"/><path class="cls-10" d="M125.4,176.07a7.59,7.59,0,0,1,4.09,1.06c1.82.83,3.67,1.74,2.6,4.58.42,4.1,0,8.3.91,12.35a1.27,1.27,0,0,1-.08,1.12C131.53,193.8,126,179.85,125.4,176.07Z"/><path class="cls-7" d="M151.76,137a16.35,16.35,0,0,1,2.17,7.86,50.91,50.91,0,0,1-.31,5.38,5.87,5.87,0,0,0-.15,2.1c.85,2.82-1.12,4.63-2.11,6.79a.8.8,0,0,1-.87.57c-.5-.1-.34-.6-.39-.94a3.62,3.62,0,0,1,0-.93c.5-5.93.44-11.88,1-17.8A13.47,13.47,0,0,1,151.76,137Z"/><path class="cls-10" d="M155.51,162.53a54.06,54.06,0,0,1-2.69,7.09c-.63,1.15-1.24,2.32-1.85,3.49a.76.76,0,0,1-.7.49c-.49,0-.42-.5-.44-.88-.14-2.66.33-5.33,0-8a1.25,1.25,0,0,1,.12-.69c1.18-2.09,2.34-4.19,3.58-6.24.49-.82,1-.73,1.34.2A15.47,15.47,0,0,1,155.51,162.53Z"/><path class="cls-14" d="M171.52,36.77c-.56,1-1.54,1-2.32,1.33-.55.25-1-.16-1.29-.62a67.3,67.3,0,0,0-4.29-5.61A10.67,10.67,0,0,1,169.09,29c.65-.17,1.44-.11,1.13,1C169.49,32.57,170.31,34.74,171.52,36.77Z"/><path class="cls-14" d="M143.39,33.77c-.93,1.25-1.89,1.59-3.18.71-1.7-1.18-3.48-.72-5.17.23-.66.38-1.22.5-1.79,0s-1.13-.91-1-1.65.82-.78,1.36-1C137.21,30.45,140.5,30.79,143.39,33.77Z"/><path class="cls-7" d="M135.18,206.44c1.26,1.73.67,3.48.45,5.09-.4,3-1,6-1.55,9-.09.55-.09,1.12-.87,1a.85.85,0,0,1-.75-1.15c1.29-4.29,1-8.85,2.25-13.15A3.38,3.38,0,0,1,135.18,206.44Z"/><path class="cls-13" d="M183.43,26c-.58-3.46-2-4.4-4.94-4a14.74,14.74,0,0,0-5.09,2c-.32.17-.69.47-1,.1s.1-.92.4-1.14c2.22-1.61,4.6-2.87,7.31-2.77S184.54,22.84,183.43,26Z"/><path class="cls-7" d="M131.16,228.24c.24-1.46.4-2.46.56-3.46.08-.47.15-1,.77-.85s1.18.19,1,1.09c0,.23,0,.47-.06.7a41.43,41.43,0,0,0-.95,5.76c0,.63-.29,1.05-1,.85s-1.23-.25-1.07-1.12C130.69,230.06,131,228.93,131.16,228.24Z"/><path class="cls-11" d="M129.58,157.38c5.3-1.89,10.54-1.12,12.62,3.26-2.17-.57-3.88-2-5.82-2.94S132.18,157.27,129.58,157.38Z"/><path class="cls-14" d="M174.62,34.45c-1.63,1.2-2,1.17-2.69-.19a7.83,7.83,0,0,1-.77-3.33c0-.76-.2-1.41.71-1.58a1.37,1.37,0,0,1,1.52,1.46A3.48,3.48,0,0,0,174.62,34.45Z"/><path class="cls-14" d="M145,164.27c.18.09.51.23.83.4.6.33,1.35.44,1.17,1.58a2,2,0,0,1-1.6,1.67c-.8.29-1.33-.26-1.76-.94s-.89-1.23-.49-2.1S144.21,164.17,145,164.27Z"/><path class="cls-11" d="M148.62,164.16c-1.32-1-2.26-2.46-4.16-2.6,1.26-.65,2.39-.43,3.39-1,.81-.45,1.26,0,1.19.94S148.79,163.14,148.62,164.16Z"/><path class="cls-14" d="M143.33,159.16c1.33-1.71,2.72-2.07,4-1,.47.4.64.75,0,1.25C146,160.44,144.84,160.4,143.33,159.16Z"/><path class="cls-14" d="M167.36,120.08a.8.8,0,0,1-.78.66,1.25,1.25,0,0,1-1.09-.61c-.44-.67-1.14-1.26-.76-2.23.1-.25.49-.25.79-.15A3.14,3.14,0,0,1,167.36,120.08Z"/><path class="cls-14" d="M171.37,123.5c-.15.5-1.24.92-1.65.51a9.57,9.57,0,0,1-1.29-1.77c-.07-.1,0-.47.17-.58.55-.5,1.05-.18,1.54.14C170.93,122.32,171.49,123.09,171.37,123.5Z"/><path class="cls-13" d="M157.67,28.06c-3.91-.35-3.91-.35-4.73-1.5C154.57,26.71,156.17,26.21,157.67,28.06Z"/><path class="cls-14" d="M163.22,126.31a2.08,2.08,0,0,1-2-.72,1.34,1.34,0,0,1-.45-1.45,1,1,0,0,1,1-.68c.59,0,.91.36,1,1S163.09,125.64,163.22,126.31Z"/><path class="cls-14" d="M154.28,131.69c1.37,0,1.86.89,2.36,1.73a.94.94,0,0,1-.09,1.27c-.54.45-1,.13-1.32-.28A7.36,7.36,0,0,1,154.28,131.69Z"/><path class="cls-14" d="M136,176.84c1.09-.34,1.89-.15,2.27,1,.09.28-.12.8-.31.78A2.26,2.26,0,0,1,136,176.84Z"/><path class="cls-14" d="M142.88,171.63c.34.2,1,.24.76,1a.7.7,0,0,1-.88.43c-.5-.12-1-.38-.82-1C142,171.64,142.44,171.5,142.88,171.63Z"/><path class="cls-14" d="M175.53,131.36a.67.67,0,0,1-.49-.62c0-.28.24-.34.39-.18a4.3,4.3,0,0,1,.47.68Z"/><path class="cls-14" d="M135.54,178.92a.32.32,0,0,1,.35.32.31.31,0,0,1-.18,0c-.18-.06-.37-.14-.12-.37Z"/><path class="cls-1" d="M91.59,87.08c-.07-.16-.23-.4-.18-.48.21-.36.4-.06.58.08Z"/><path class="cls-14" d="M139.34,152.75a3.19,3.19,0,0,1-.22-.3c.18-.22.36-.12.53,0A1.64,1.64,0,0,1,139.34,152.75Z"/><path class="cls-14" d="M137.91,106.74c.07.22.15.46-.16.53-.07,0-.18-.17-.27-.27Z"/><path class="cls-9" d="M161.66,37.23c-.15-.13-.28-.32-.09-.47s.32,0,.49.06Z"/><path class="cls-6" d="M91.11,99.36a2.06,2.06,0,0,1,1.24,1.5c.55,1.79.18,3.71.61,5.52.1.39-.29.68-.67.78a.69.69,0,0,1-.86-.48,3.74,3.74,0,0,1-.16-.66c-.38-1.81-.32-3.69-.8-5.48C90.34,100.06,90.38,99.42,91.11,99.36Z"/><path class="cls-6" d="M150.65,62.13c.07.21.12.45.41.39s.56-.19.84-.23c1.67-.21,2.57,1.19,3.73,2s2.8.73,2.79,2.75c0,.54.33.62.71.6a1.78,1.78,0,0,1,1.43.62c-1.22,1-1.49-.13-1.93-.93a6.71,6.71,0,0,0-2.55,2.17,1.17,1.17,0,0,1-.69.56c-1.94.3-3.83,1-5.8,1a.88.88,0,0,1-.43-.06c-2.22-1.22-4.5-2.33-6.63-3.7-1.05-.67-.69-2.2.38-3.12.48-.41,1.84-.13,1.28-1.57-.09-.25,0-.42-.16-.17s-.47,0-.2,0a.89.89,0,0,1,.69.43.53.53,0,0,0,.84.37c1.48-1.57,3-.87,4.54-.33.29.1,1.12,0,.77-.87Zm-6.06,2.93c4,1.12,7.87,2.49,12.13,1.66-.81-1-2.18-1.14-3-2.12a2.12,2.12,0,0,0-3-.46,1.52,1.52,0,0,1-1.47.24C147.58,63.41,146.12,64.51,144.59,65.06Zm10.64,3.42c-1.16-.77-2.32-.43-3.42-.33a7.79,7.79,0,0,1-3.18-.6,5,5,0,0,0-3.69-.35,5.42,5.42,0,0,1,2.55,1.2,3.52,3.52,0,0,0,4.38.92,5.37,5.37,0,0,1,1.73-.21A2,2,0,0,0,155.23,68.48Z"/><path class="cls-6" d="M148.74,85.16a15.62,15.62,0,0,1-5.82-2.9c-2.48-2.1-4.78-4.44-7.08-6.76-.69-.7-1.61-1.37-1.46-2.67,1.39-.46,1.76.91,2.52,1.59,3.12,2.82,5.85,6.15,9.58,8.17a6.05,6.05,0,0,0,4.8.74,10.75,10.75,0,0,1,2.81-.43c3.63,0,5.62-2.52,7.24-5.59a12.29,12.29,0,0,0,.8-2c.25-.81.73-.93,1.35-.65s.77.78.4,1.48c-1.35,2.53-2.49,5.17-5,6.79a6.32,6.32,0,0,1-3.18,1.28c-1.73.1-3.46.53-5.19.78C149.86,85.13,149.21,85.13,148.74,85.16Z"/><path class="cls-6" d="M139.65,72.23a1.14,1.14,0,0,1,1,1.14c0,.36-.13.63-.5.56A1.2,1.2,0,0,1,139,72.78C139,72.4,139.18,72.21,139.65,72.23Z"/><path class="cls-6" d="M150.91,80c-.34.21-.4.29-.46.28-.59-.06-1.34.26-1.57-.69a.49.49,0,0,1,.19-.38C149.86,78.86,150.39,79.22,150.91,80Z"/><path class="cls-6" d="M148.38,77.15a.49.49,0,0,1-.57.47c-.46-.08-1-.16-1.06-.84a.44.44,0,0,1,.55-.49C147.76,76.4,148.31,76.43,148.38,77.15Z"/><path class="cls-6" d="M159.52,76.51c-.24.53-.64.42-1,.34s-.86-.31-.73-.93c.08-.36.39-.55.66-.37S159.51,75.83,159.52,76.51Z"/><path class="cls-6" d="M155.25,74.13c-.58.33-1.15.71-1.62-.14-.15-.28-.2-.68.13-.78A1.07,1.07,0,0,1,155.25,74.13Z"/><path class="cls-6" d="M136.44,67.71c-.43.54-.85.61-1.26.39s-.88-.34-.53-1c.22-.4.59-.38.94-.22A1.84,1.84,0,0,1,136.44,67.71Z"/><path class="cls-6" d="M154.26,77.92a.51.51,0,0,1-.59.5c-.5,0-1-.14-1.08-.79-.05-.45.32-.63.7-.62A.94.94,0,0,1,154.26,77.92Z"/><path class="cls-6" d="M141.16,62.9c-.26.43-.6.26-.92.16s-.6-.38-.51-.58a.66.66,0,0,1,1.06-.25C141,62.38,141.28,62.52,141.16,62.9Z"/><path class="cls-6" d="M167.88,68.05c-.16.16-.31.44-.45.45a1.1,1.1,0,0,1-1.22-.92.4.4,0,0,1,.37-.46A1.25,1.25,0,0,1,167.88,68.05Z"/><path class="cls-6" d="M163.29,71.72c-.14.14-.28.41-.43.42a1,1,0,0,1-1.21-1,.37.37,0,0,1,.35-.45A1.2,1.2,0,0,1,163.29,71.72Z"/><path class="cls-6" d="M163.33,65.43c-.38.55-.75.51-1.06.37s-.74-.57-.43-1.06.65-.25.93,0A4.63,4.63,0,0,1,163.33,65.43Z"/><path class="cls-6" d="M145.12,58.15c-.1.48-.32.64-.64.53-.51-.16-.94-.44-.82-1.12a.42.42,0,0,1,.52-.29C144.73,57.34,145.12,57.58,145.12,58.15Z"/><path class="cls-6" d="M138.68,63.24c-.81.41-1.36.33-1.71-.39a.44.44,0,0,1,.16-.37C137.79,62.19,138.19,62.65,138.68,63.24Z"/><path class="cls-6" d="M140.43,68.39c-.32.47-.66.17-1,.09a.55.55,0,0,1-.46-.66c.13-.61.59-.37.87-.25S140.52,67.91,140.43,68.39Z"/><path class="cls-6" d="M144.19,73.63a1.44,1.44,0,0,1,.48-.12c.53.12,1.17.07,1.24.91,0,.2-.06.29-.25.29C144.93,74.73,144.25,74.67,144.19,73.63Z"/><path class="cls-6" d="M157.57,62.12c-.31-.15-.64-.32-.66-.76a.33.33,0,0,1,.42-.37.84.84,0,0,1,.68.75C158,62,157.81,62.11,157.57,62.12Z"/><path class="cls-6" d="M143.56,54.44a1,1,0,0,1-1.52-.71c0-.07.15-.31.26-.34C143.15,53.16,143.46,53.65,143.56,54.44Z"/><path class="cls-6" d="M150.67,62.12c-.1-.91-1.36,0-1.39-1,1.11-.65.82.83,1.37,1Z"/><path class="cls-6" d="M138.93,57.45a1.08,1.08,0,0,1,1.3.71c0,.27-.1.34-.28.35C139.29,58.51,138.85,58.28,138.93,57.45Z"/><path class="cls-6" d="M153.89,61.15a.39.39,0,0,1-.51.15c-.25-.09-.53-.22-.35-.58.05-.09.38-.08.55,0S154,60.82,153.89,61.15Z"/><path class="cls-6" d="M149.81,59.21a.36.36,0,0,1-.46.36c-.36,0-.74-.17-.8-.62s.25-.49.55-.43S149.78,58.77,149.81,59.21Z"/><path class="cls-6" d="M135.5,162.45l-2.22-.56a1.25,1.25,0,0,1-.95-.85c-.13-.43-.3-1,.11-1.31a.65.65,0,0,1,1,.41c.35,1.19.56,1.24,1,0,.32-.84.85-.5,1.07.06A3.23,3.23,0,0,1,135.5,162.45Z"/><path class="cls-6" d="M136.26,153.36c-1,0-2.22.58-3-.85-.22-.37-.48-.85-.13-1.29s.76-.06,1.08.2.49.44.75.28.14-1.29.94-.81c.56.33.44,1.09.59,1.67A.63.63,0,0,1,136.26,153.36Z"/><path class="cls-6" d="M134.73,168.33a4.11,4.11,0,0,1-.75-.25.82.82,0,0,1-.45-.94c.08-.53.39-.55.79-.45a1.53,1.53,0,0,0,.64,0c.71-.14,1.14,0,1.11.91C136,168.7,135.33,168.31,134.73,168.33Z"/><path class="cls-6" d="M131.34,174.79c-.06.29-.21.45-.42.43-.46,0-.51-.42-.41-.8,0-.14.14-.45.44-.26S131.39,174.5,131.34,174.79Z"/><path class="cls-6" d="M156.63,140.86c.27,0,.7.13.52.47-.36.74,1,1.1.23,1.82-.21.19-.74.24-.69,0,.2-.82-.39-1.18-.6-1.76C156,141.17,156.32,140.93,156.63,140.86Z"/><path class="cls-15" d="M144.59,65.06c1.53-.55,3-1.65,4.66-.68a1.52,1.52,0,0,0,1.47-.24,2.12,2.12,0,0,1,3,.46c.85,1,2.22,1.09,3,2.12C152.46,67.55,148.57,66.18,144.59,65.06Z"/><path class="cls-15" d="M155.23,68.48a2,2,0,0,1-1.63.63,5.37,5.37,0,0,0-1.73.21,3.52,3.52,0,0,1-4.38-.92,5.42,5.42,0,0,0-2.55-1.2,5,5,0,0,1,3.69.35,7.79,7.79,0,0,0,3.18.6C152.91,68.05,154.07,67.71,155.23,68.48Z"/></g></g></svg>