<svg xmlns="http://www.w3.org/2000/svg" viewBox="0 0 448.25 305.96"><defs><style>.cls-1{fill:#2d2d2c;}.cls-2{fill:#fff;}</style></defs><title>Asset 2</title><g id="Layer_2" data-name="Layer 2"><g id="Layer_1-2" data-name="Layer 1"><rect class="cls-1" x="71.14" y="-71.14" width="305.96" height="448.25" transform="translate(377.1 -71.14) rotate(90)"/><path class="cls-2" d="M373.57,90.89a.26.26,0,0,0,.51,0,.26.26,0,0,0-.51,0Z"/><path class="cls-2" d="M428.65,90.14a.26.26,0,0,0,.51,0,.26.26,0,0,0-.51,0Z"/><path class="cls-2" d="M361.66,9.75a.26.26,0,0,0,.51,0,.26.26,0,0,0-.51,0Z"/><path class="cls-2" d="M435.35,295.58a.26.26,0,0,0,.51,0,.26.26,0,0,0-.51,0Z"/><path class="cls-2" d="M416.78,137a.26.26,0,0,0,.51,0,.26.26,0,0,0-.51,0Z"/><path class="cls-2" d="M386,29.85a.5.5,0,0,0,1,0,.5.5,0,0,0-1,0Z"/><path class="cls-2" d="M427.34,166.39a.51.51,0,0,0,1,0,.51.51,0,0,0-1,0Z"/><path class="cls-2" d="M383.74,154.15a.51.51,0,0,0,1,0,.51.51,0,0,0-1,0Z"/><path class="cls-2" d="M378.28,111a.76.76,0,0,0,1.51,0,.76.76,0,0,0-1.51,0Z"/><path class="cls-2" d="M409.64,62a.76.76,0,0,0,1.51,0,.76.76,0,0,0-1.51,0Z"/><path class="cls-2" d="M358.93,218.91a.76.76,0,0,0,1.51,0,.76.76,0,0,0-1.51,0Z"/><path class="cls-2" d="M388.7,297.07a.76.76,0,0,0,1.51,0,.76.76,0,0,0-1.51,0Z"/><path class="cls-2" d="M383.22,137.07a1,1,0,0,0,2,0,1,1,0,0,0-2,0Z"/><path class="cls-2" d="M395.73,88.8a1,1,0,0,0,2,0,1,1,0,0,0-2,0Z"/><path class="cls-2" d="M401.85,9.75a1,1,0,0,0,2,0,1,1,0,0,0-2,0Z"/><path class="cls-2" d="M438.32,242a1,1,0,0,0,2,0,1,1,0,0,0-2,0Z"/><path class="cls-2" d="M409.3,172.6a1,1,0,0,0,2,0,1,1,0,0,0-2,0Z"/><path class="cls-2" d="M435.34,35.81a1,1,0,0,0,2,0,1,1,0,0,0-2,0Z"/><path class="cls-2" d="M402.14,250.74a1,1,0,0,0,2,0,1,1,0,0,0-2,0Z"/><path class="cls-2" d="M408.44,199.4a.51.51,0,0,0,1,0,.51.51,0,0,0-1,0Z"/><path class="cls-2" d="M370.6,175.39a.25.25,0,0,0,.5,0,.25.25,0,0,0-.5,0Z"/><path class="cls-2" d="M215.72,275.46a.24.24,0,0,0,.48,0,.24.24,0,0,0-.48,0Z"/><path class="cls-2" d="M54.89,201.25a.24.24,0,0,0,.48,0,.24.24,0,0,0-.48,0Z"/><path class="cls-2" d="M107.85,200.53a.24.24,0,0,0,.48,0,.24.24,0,0,0-.48,0Z"/><path class="cls-2" d="M355.47,15.13a.25.25,0,0,0,.49,0,.25.25,0,0,0-.49,0Z"/><path class="cls-2" d="M282.47,20.85a.25.25,0,0,0,.49,0,.25.25,0,0,0-.49,0Z"/><path class="cls-2" d="M177.07,249.7a.24.24,0,0,0,.48,0,.24.24,0,0,0-.48,0Z"/><path class="cls-2" d="M298,295.5a.25.25,0,0,0,.49,0,.25.25,0,0,0-.49,0Z"/><path class="cls-2" d="M318.06,184.42a.25.25,0,0,0,.49,0,.25.25,0,0,0-.49,0Z"/><path class="cls-2" d="M162.12,248.1a.24.24,0,0,0,.48,0,.24.24,0,0,0-.48,0Z"/><path class="cls-2" d="M341.7,47.43a.25.25,0,0,0,.49,0,.25.25,0,0,0-.49,0Z"/><path class="cls-2" d="M141.91,251.83a.25.25,0,0,0,.49,0,.25.25,0,0,0-.49,0Z"/><path class="cls-2" d="M198,16.56a.24.24,0,0,0,.48,0,.24.24,0,0,0-.48,0Z"/><path class="cls-2" d="M260.29,11.55a.24.24,0,0,0,.48,0,.24.24,0,0,0-.48,0Z"/><path class="cls-2" d="M43.88,129.69a.48.48,0,0,0,1,0,.48.48,0,0,0-1,0Z"/><path class="cls-2" d="M367.39,275.89a.49.49,0,0,0,1,0,.49.49,0,0,0-1,0Z"/><path class="cls-2" d="M325.47,264.13a.49.49,0,0,0,1,0,.49.49,0,0,0-1,0Z"/><path class="cls-2" d="M220.48,294.78a.49.49,0,0,0,1,0,.49.49,0,0,0-1,0Z"/><path class="cls-2" d="M162.51,284.05a.49.49,0,0,0,1,0,.49.49,0,0,0-1,0Z"/><path class="cls-2" d="M345.08,196.67a.49.49,0,0,0,1,0,.49.49,0,0,0-1,0Z"/><path class="cls-2" d="M331.71,216.62a.49.49,0,0,0,1,0,.49.49,0,0,0-1,0Z"/><path class="cls-2" d="M151.16,220.08a.48.48,0,0,0,1,0,.48.48,0,0,0-1,0Z"/><path class="cls-2" d="M58.09,170.28a.73.73,0,0,0,1.45,0,.73.73,0,0,0-1.45,0Z"/><path class="cls-2" d="M100.24,180.11a.73.73,0,0,0,1.45,0,.73.73,0,0,0-1.45,0Z"/><path class="cls-2" d="M317.77,16.56a.73.73,0,0,0,1.46,0,.73.73,0,0,0-1.46,0Z"/><path class="cls-2" d="M228.54,240.56a.73.73,0,0,0,1.45,0,.73.73,0,0,0-1.45,0Z"/><path class="cls-2" d="M253.16,296.93a.73.73,0,0,0,1.46,0,.73.73,0,0,0-1.46,0Z"/><path class="cls-2" d="M205.84,42.55a.73.73,0,0,0,1.46,0,.73.73,0,0,0-1.46,0Z"/><path class="cls-2" d="M325,247.7a1,1,0,0,0,1.93,0,1,1,0,0,0-1.93,0Z"/><path class="cls-2" d="M191.37,291.92a1,1,0,0,0,1.94,0,1,1,0,0,0-1.94,0Z"/><path class="cls-2" d="M119.29,228.42a1,1,0,0,0,1.94,0,1,1,0,0,0-1.94,0Z"/><path class="cls-2" d="M99.06,127.11a1,1,0,0,0,1.93,0,1,1,0,0,0-1.93,0Z"/><path class="cls-2" d="M300.87,244a1,1,0,0,0,1.94,0,1,1,0,0,0-1.94,0Z"/><path class="cls-2" d="M274.4,56.2a1,1,0,0,0,1.94,0,1,1,0,0,0-1.94,0Z"/><path class="cls-2" d="M84.57,75.08a1,1,0,0,0,1.93,0,1,1,0,0,0-1.93,0Z"/><path class="cls-2" d="M132.79,154.45a1,1,0,0,0,1.94,0,1,1,0,0,0-1.94,0Z"/><path class="cls-2" d="M305.36,35.17a1,1,0,0,0,1.94,0,1,1,0,0,0-1.94,0Z"/><path class="cls-2" d="M216.23,219.78a1,1,0,0,0,1.94,0,1,1,0,0,0-1.94,0Z"/><path class="cls-2" d="M89.87,17.9a1,1,0,0,0,1.93,0,1,1,0,0,0-1.93,0Z"/><path class="cls-2" d="M102,274.78a1,1,0,0,0,1.94,0,1,1,0,0,0-1.94,0Z"/><path class="cls-2" d="M117.08,107.79a.73.73,0,0,0,1.45,0,.73.73,0,0,0-1.45,0Z"/><path class="cls-2" d="M130.44,49.63a1.16,1.16,0,0,1,1.76-.21C131.69,50,131.17,49.81,130.44,49.63Z"/><path class="cls-2" d="M315.37,104a1,1,0,0,0,1.93,0,1,1,0,0,0-1.93,0Z"/><path class="cls-2" d="M347.59,70a1,1,0,0,0,1.93,0,1,1,0,0,0-1.93,0Z"/><path class="cls-2" d="M56,104.69a1,1,0,0,0,1.93,0,1,1,0,0,0-1.93,0Z"/><path class="cls-2" d="M128,76.69a1,1,0,0,0,1.93,0,1,1,0,0,0-1.93,0Z"/><path class="cls-2" d="M64.71,57.49a1,1,0,0,0,1.93,0,1,1,0,0,0-1.93,0Z"/><path class="cls-2" d="M33,88a1,1,0,0,0,1.93,0A1,1,0,0,0,33,88Z"/><path class="cls-2" d="M18,193A1,1,0,0,0,20,193,1,1,0,0,0,18,193Z"/><path class="cls-2" d="M59.46,265.05a1,1,0,0,0,1.93,0,1,1,0,0,0-1.93,0Z"/><path class="cls-2" d="M93.47,240.2a1,1,0,0,0,1.94,0,1,1,0,0,0-1.94,0Z"/><path class="cls-2" d="M177.71,55.45a1,1,0,0,0,1.93,0,1,1,0,0,0-1.93,0Z"/><path class="cls-2" d="M266.09,252.39a1,1,0,0,0,1.93,0,1,1,0,0,0-1.93,0Z"/><path class="cls-2" d="M16.14,32.8a1,1,0,0,0,1.93,0,1,1,0,0,0-1.93,0Z"/><path class="cls-2" d="M286.59,92.38a.49.49,0,0,0,1,0,.49.49,0,0,0-1,0Z"/><path class="cls-2" d="M243.59,54.16a.49.49,0,0,0,1,0,.49.49,0,0,0-1,0Z"/><path class="cls-2" d="M135.26,31.21a.49.49,0,0,0,1,0,.49.49,0,0,0-1,0Z"/><path class="cls-2" d="M14.23,119.59a.49.49,0,0,0,1,0,.49.49,0,0,0-1,0Z"/><path class="cls-2" d="M62,223.1a.49.49,0,0,0,1,0,.49.49,0,0,0-1,0Z"/><path class="cls-2" d="M18.21,250.17a.49.49,0,0,0,1,0,.49.49,0,0,0-1,0Z"/><path class="cls-2" d="M57.23,291.58a.49.49,0,0,0,1,0,.49.49,0,0,0-1,0Z"/><path class="cls-2" d="M207.65,253.19a.49.49,0,0,0,1,0,.49.49,0,0,0-1,0Z"/><path class="cls-2" d="M346.13,131.31a.49.49,0,0,0,1,0,.49.49,0,0,0-1,0Z"/><path class="cls-2" d="M126.94,177.29a.49.49,0,0,0,1,0,.49.49,0,0,0-1,0Z"/><path class="cls-2" d="M36.3,147a.25.25,0,0,0,.49,0,.25.25,0,0,0-.49,0Z"/><path class="cls-2" d="M16.86,67a.25.25,0,0,0,.49,0,.25.25,0,0,0-.49,0Z"/><path class="cls-2" d="M110,64.65a.25.25,0,0,0,.49,0,.25.25,0,0,0-.49,0Z"/><path class="cls-2" d="M101.37,157.49a.24.24,0,0,0,.48,0,.24.24,0,0,0-.48,0Z"/><path class="cls-2" d="M215.62,90.09a.25.25,0,0,0,.49,0,.25.25,0,0,0-.49,0Z"/><path class="cls-2" d="M367.48,207.7a.25.25,0,0,0,.49,0,.25.25,0,0,0-.49,0Z"/></g></g></svg>