<svg xmlns="http://www.w3.org/2000/svg" viewBox="0 0 40.47 22.89"><defs><style>.cls-1{fill:#56b3ca;}.cls-2{fill:#f58259;}.cls-3{fill:#231f20;}</style></defs><title>Asset 9</title><g id="Layer_2" data-name="Layer 2"><g id="Layer_1-2" data-name="Layer 1"><circle class="cls-1" cx="7.22" cy="15.67" r="7.22"/><circle class="cls-2" cx="33.25" cy="15.65" r="7.22"/><path class="cls-3" d="M18.74,18.28h-.08l-12-2a.49.49,0,0,1-.34-.74L13,4.47a.49.49,0,0,1,.42-.24h15.5a.49.49,0,0,1,.39.8L19.13,18.09A.49.49,0,0,1,18.74,18.28ZM7.56,15.4l11,1.85,9.36-12H13.68Z"/><path class="cls-3" d="M33.61,16.26a.5.5,0,0,1-.46-.31l-6-15H23.88a.49.49,0,1,1,0-1h3.56a.5.5,0,0,1,.46.31l6.17,15.27a.5.5,0,0,1-.46.68Z"/><path class="cls-3" d="M18.55,17.83a.5.5,0,0,1-.46-.31L11.93,2.25a.49.49,0,0,1,.92-.37L19,17.15a.5.5,0,0,1-.46.68Z"/><path class="cls-3" d="M15.46,2.24H9.31a.41.41,0,0,1,0-.82h6.16a.41.41,0,1,1,0,.82Z"/></g></g></svg>